  0
SECTION
  2
HEADER
  9
$ACADVER
  1
AC1027
  9
$ACADMAINTVER
 70
105
  9
$DWGCODEPAGE
  3
ANSI_1252
  9
$LASTSAVEDBY
  1
ezdxf
  9
$REQUIREDVERSIONS
160
0
  9
$INSBASE
 10
0.0
 20
0.0
 30
0.0
  9
$EXTMIN
 10
1e+20
 20
1e+20
 30
1e+20
  9
$EXTMAX
 10
-1e+20
 20
-1e+20
 30
-1e+20
  9
$LIMMIN
 10
0.0
 20
0.0
  9
$LIMMAX
 10
420.0
 20
297.0
  9
$ORTHOMODE
 70
0
  9
$REGENMODE
 70
1
  9
$FILLMODE
 70
1
  9
$QTEXTMODE
 70
0
  9
$MIRRTEXT
 70
1
  9
$LTSCALE
 40
1.0
  9
$ATTMODE
 70
1
  9
$TEXTSIZE
 40
2.5
  9
$TRACEWID
 40
1.0
  9
$TEXTSTYLE
  7
Standard
  9
$CLAYER
  8
0
  9
$CELTYPE
  6
ByLayer
  9
$CECOLOR
 62
256
  9
$CELTSCALE
 40
1.0
  9
$DISPSILH
 70
0
  9
$DIMSCALE
 40
1.0
  9
$DIMASZ
 40
2.5
  9
$DIMEXO
 40
0.625
  9
$DIMDLI
 40
3.75
  9
$DIMRND
 40
0.0
  9
$DIMDLE
 40
0.0
  9
$DIMEXE
 40
1.25
  9
$DIMTP
 40
0.0
  9
$DIMTM
 40
0.0
  9
$DIMTXT
 40
2.5
  9
$DIMCEN
 40
2.5
  9
$DIMTSZ
 40
0.0
  9
$DIMTOL
 70
0
  9
$DIMLIM
 70
0
  9
$DIMTIH
 70
0
  9
$DIMTOH
 70
0
  9
$DIMSE1
 70
0
  9
$DIMSE2
 70
0
  9
$DIMTAD
 70
1
  9
$DIMZIN
 70
8
  9
$DIMBLK
  1

  9
$DIMASO
 70
1
  9
$DIMSHO
 70
1
  9
$DIMPOST
  1

  9
$DIMAPOST
  1

  9
$DIMALT
 70
0
  9
$DIMALTD
 70
3
  9
$DIMALTF
 40
0.03937007874
  9
$DIMLFAC
 40
1.0
  9
$DIMTOFL
 70
1
  9
$DIMTVP
 40
0.0
  9
$DIMTIX
 70
0
  9
$DIMSOXD
 70
0
  9
$DIMSAH
 70
0
  9
$DIMBLK1
  1

  9
$DIMBLK2
  1

  9
$DIMSTYLE
  2
ISO-25
  9
$DIMCLRD
 70
0
  9
$DIMCLRE
 70
0
  9
$DIMCLRT
 70
0
  9
$DIMTFAC
 40
1.0
  9
$DIMGAP
 40
0.625
  9
$DIMJUST
 70
0
  9
$DIMSD1
 70
0
  9
$DIMSD2
 70
0
  9
$DIMTOLJ
 70
0
  9
$DIMTZIN
 70
8
  9
$DIMALTZ
 70
0
  9
$DIMALTTZ
 70
0
  9
$DIMUPT
 70
0
  9
$DIMDEC
 70
2
  9
$DIMTDEC
 70
2
  9
$DIMALTU
 70
2
  9
$DIMALTTD
 70
3
  9
$DIMTXSTY
  7
Standard
  9
$DIMAUNIT
 70
0
  9
$DIMADEC
 70
0
  9
$DIMALTRND
 40
0.0
  9
$DIMAZIN
 70
0
  9
$DIMDSEP
 70
44
  9
$DIMATFIT
 70
3
  9
$DIMFRAC
 70
0
  9
$DIMLDRBLK
  1

  9
$DIMLUNIT
 70
2
  9
$DIMLWD
 70
-2
  9
$DIMLWE
 70
-2
  9
$DIMTMOVE
 70
0
  9
$DIMFXL
 40
1.0
  9
$DIMFXLON
 70
0
  9
$DIMJOGANG
 40
0.785398163397
  9
$DIMTFILL
 70
0
  9
$DIMTFILLCLR
 70
0
  9
$DIMARCSYM
 70
0
  9
$DIMLTYPE
  6

  9
$DIMLTEX1
  6

  9
$DIMLTEX2
  6

  9
$DIMTXTDIRECTION
 70
0
  9
$LUNITS
 70
2
  9
$LUPREC
 70
4
  9
$SKETCHINC
 40
1.0
  9
$FILLETRAD
 40
10.0
  9
$AUNITS
 70
0
  9
$AUPREC
 70
2
  9
$MENU
  1
.
  9
$ELEVATION
 40
0.0
  9
$PELEVATION
 40
0.0
  9
$THICKNESS
 40
0.0
  9
$LIMCHECK
 70
0
  9
$CHAMFERA
 40
0.0
  9
$CHAMFERB
 40
0.0
  9
$CHAMFERC
 40
0.0
  9
$CHAMFERD
 40
0.0
  9
$SKPOLY
 70
0
  9
$TDCREATE
 40
2461288.5816319445
  9
$TDUCREATE
 40
2458532.153996898
  9
$TDUPDATE
 40
2461288.5816319445
  9
$TDUUPDATE
 40
2458532.1544311
  9
$TDINDWG
 40
0.0
  9
$TDUSRTIMER
 40
0.0
  9
$USRTIMER
 70
1
  9
$ANGBASE
 50
0.0
  9
$ANGDIR
 70
0
  9
$PDMODE
 70
0
  9
$PDSIZE
 40
0.0
  9
$PLINEWID
 40
0.0
  9
$SPLFRAME
 70
0
  9
$SPLINETYPE
 70
6
  9
$SPLINESEGS
 70
8
  9
$HANDSEED
  5
EE
  9
$SURFTAB1
 70
6
  9
$SURFTAB2
 70
6
  9
$SURFTYPE
 70
6
  9
$SURFU
 70
6
  9
$SURFV
 70
6
  9
$UCSBASE
  2

  9
$UCSNAME
  2

  9
$UCSORG
 10
0.0
 20
0.0
 30
0.0
  9
$UCSXDIR
 10
1.0
 20
0.0
 30
0.0
  9
$UCSYDIR
 10
0.0
 20
1.0
 30
0.0
  9
$UCSORTHOREF
  2

  9
$UCSORTHOVIEW
 70
0
  9
$UCSORGTOP
 10
0.0
 20
0.0
 30
0.0
  9
$UCSORGBOTTOM
 10
0.0
 20
0.0
 30
0.0
  9
$UCSORGLEFT
 10
0.0
 20
0.0
 30
0.0
  9
$UCSORGRIGHT
 10
0.0
 20
0.0
 30
0.0
  9
$UCSORGFRONT
 10
0.0
 20
0.0
 30
0.0
  9
$UCSORGBACK
 10
0.0
 20
0.0
 30
0.0
  9
$PUCSBASE
  2

  9
$PUCSNAME
  2

  9
$PUCSORG
 10
0.0
 20
0.0
 30
0.0
  9
$PUCSXDIR
 10
1.0
 20
0.0
 30
0.0
  9
$PUCSYDIR
 10
0.0
 20
1.0
 30
0.0
  9
$PUCSORTHOREF
  2

  9
$PUCSORTHOVIEW
 70
0
  9
$PUCSORGTOP
 10
0.0
 20
0.0
 30
0.0
  9
$PUCSORGBOTTOM
 10
0.0
 20
0.0
 30
0.0
  9
$PUCSORGLEFT
 10
0.0
 20
0.0
 30
0.0
  9
$PUCSORGRIGHT
 10
0.0
 20
0.0
 30
0.0
  9
$PUCSORGFRONT
 10
0.0
 20
0.0
 30
0.0
  9
$PUCSORGBACK
 10
0.0
 20
0.0
 30
0.0
  9
$USERI1
 70
0
  9
$USERI2
 70
0
  9
$USERI3
 70
0
  9
$USERI4
 70
0
  9
$USERI5
 70
0
  9
$USERR1
 40
0.0
  9
$USERR2
 40
0.0
  9
$USERR3
 40
0.0
  9
$USERR4
 40
0.0
  9
$USERR5
 40
0.0
  9
$WORLDVIEW
 70
1
  9
$SHADEDGE
 70
3
  9
$SHADEDIF
 70
70
  9
$TILEMODE
 70
1
  9
$MAXACTVP
 70
64
  9
$PINSBASE
 10
0.0
 20
0.0
 30
0.0
  9
$PLIMCHECK
 70
0
  9
$PEXTMIN
 10
1e+20
 20
1e+20
 30
1e+20
  9
$PEXTMAX
 10
-1e+20
 20
-1e+20
 30
-1e+20
  9
$PLIMMIN
 10
0.0
 20
0.0
  9
$PLIMMAX
 10
420.0
 20
297.0
  9
$UNITMODE
 70
0
  9
$VISRETAIN
 70
1
  9
$PLINEGEN
 70
0
  9
$PSLTSCALE
 70
1
  9
$TREEDEPTH
 70
3020
  9
$CMLSTYLE
  2
Standard
  9
$CMLJUST
 70
0
  9
$CMLSCALE
 40
20.0
  9
$PROXYGRAPHICS
 70
1
  9
$MEASUREMENT
 70
1
  9
$CELWEIGHT
370
-1
  9
$ENDCAPS
280
0
  9
$JOINSTYLE
280
0
  9
$LWDISPLAY
290
0
  9
$INSUNITS
 70
4
  9
$HYPERLINKBASE
  1

  9
$STYLESHEET
  1

  9
$XEDIT
290
1
  9
$CEPSNTYPE
380
0
  9
$PSTYLEMODE
290
1
  9
$FINGERPRINTGUID
  2
{7A2D3245-2894-406A-BCED-6FADEBCFBB7D}
  9
$VERSIONGUID
  2
{2FADCBD0-B6E7-44F4-96A7-BCAC5CBF05BE}
  9
$EXTNAMES
290
1
  9
$PSVPSCALE
 40
0.0
  9
$OLESTARTUP
290
0
  9
$SORTENTS
280
127
  9
$INDEXCTL
280
0
  9
$HIDETEXT
280
1
  9
$XCLIPFRAME
280
1
  9
$HALOGAP
280
0
  9
$OBSCOLOR
 70
257
  9
$OBSLTYPE
280
0
  9
$INTERSECTIONDISPLAY
280
0
  9
$INTERSECTIONCOLOR
 70
257
  9
$DIMASSOC
280
2
  9
$PROJECTNAME
  1

  9
$CAMERADISPLAY
290
0
  9
$LENSLENGTH
 40
50.0
  9
$CAMERAHEIGHT
 40
0.0
  9
$STEPSPERSEC
 40
24.0
  9
$STEPSIZE
 40
100.0
  9
$3DDWFPREC
 40
2.0
  9
$PSOLWIDTH
 40
0.005
  9
$PSOLHEIGHT
 40
0.08
  9
$LOFTANG1
 40
1.570796326795
  9
$LOFTANG2
 40
1.570796326795
  9
$LOFTMAG1
 40
0.0
  9
$LOFTMAG2
 40
0.0
  9
$LOFTPARAM
 70
7
  9
$LOFTNORMALS
280
1
  9
$LATITUDE
 40
37.795
  9
$LONGITUDE
 40
-122.394
  9
$NORTHDIRECTION
 40
0.0
  9
$TIMEZONE
 70
-8000
  9
$LIGHTGLYPHDISPLAY
280
1
  9
$TILEMODELIGHTSYNCH
280
1
  9
$CMATERIAL
347
20
  9
$SOLIDHIST
280
0
  9
$SHOWHIST
280
1
  9
$DWFFRAME
280
2
  9
$DGNFRAME
280
2
  9
$REALWORLDSCALE
290
1
  9
$INTERFERECOLOR
 62
256
  9
$CSHADOW
280
0
  9
$SHADOWPLANELOCATION
 40
0.0
  0
ENDSEC
  0
SECTION
  2
CLASSES
  0
CLASS
  1
ACDBDICTIONARYWDFLT
  2
AcDbDictionaryWithDefault
  3
ObjectDBX Classes
 90
0
 91
0
280
0
281
0
  0
CLASS
  1
SUN
  2
AcDbSun
  3
SCENEOE
 90
1153
 91
0
280
0
281
0
  0
CLASS
  1
VISUALSTYLE
  2
AcDbVisualStyle
  3
ObjectDBX Classes
 90
4095
 91
0
280
0
281
0
  0
CLASS
  1
MATERIAL
  2
AcDbMaterial
  3
ObjectDBX Classes
 90
1153
 91
0
280
0
281
0
  0
CLASS
  1
SCALE
  2
AcDbScale
  3
ObjectDBX Classes
 90
1153
 91
0
280
0
281
0
  0
CLASS
  1
TABLESTYLE
  2
AcDbTableStyle
  3
ObjectDBX Classes
 90
4095
 91
0
280
0
281
0
  0
CLASS
  1
MLEADERSTYLE
  2
AcDbMLeaderStyle
  3
ACDB_MLEADERSTYLE_CLASS
 90
4095
 91
0
280
0
281
0
  0
CLASS
  1
DICTIONARYVAR
  2
AcDbDictionaryVar
  3
ObjectDBX Classes
 90
0
 91
0
280
0
281
0
  0
CLASS
  1
CELLSTYLEMAP
  2
AcDbCellStyleMap
  3
ObjectDBX Classes
 90
1152
 91
0
280
0
281
0
  0
CLASS
  1
MENTALRAYRENDERSETTINGS
  2
AcDbMentalRayRenderSettings
  3
SCENEOE
 90
1024
 91
0
280
0
281
0
  0
CLASS
  1
ACDBDETAILVIEWSTYLE
  2
AcDbDetailViewStyle
  3
ObjectDBX Classes
 90
1025
 91
0
280
0
281
0
  0
CLASS
  1
ACDBSECTIONVIEWSTYLE
  2
AcDbSectionViewStyle
  3
ObjectDBX Classes
 90
1025
 91
0
280
0
281
0
  0
CLASS
  1
RASTERVARIABLES
  2
AcDbRasterVariables
  3
ISM
 90
0
 91
0
280
0
281
0
  0
CLASS
  1
ACDBPLACEHOLDER
  2
AcDbPlaceHolder
  3
ObjectDBX Classes
 90
0
 91
0
280
0
281
0
  0
CLASS
  1
LAYOUT
  2
AcDbLayout
  3
ObjectDBX Classes
 90
0
 91
0
280
0
281
0
  0
ENDSEC
  0
SECTION
  2
TABLES
  0
TABLE
  2
VPORT
  5
8
330
0
100
AcDbSymbolTable
 70
1
  0
VPORT
  5
EA
330
8
100
AcDbSymbolTableRecord
100
AcDbViewportTableRecord
  2
*Active
 70
0
 10
0.0
 20
0.0
 11
1.0
 21
1.0
 12
82.90375533637378
 22
25.539652060670633
 13
0.0
 23
0.0
 14
0.5
 24
0.5
 15
0.5
 25
0.5
 16
0.0
 26
0.0
 36
1.0
 17
0.0
 27
0.0
 37
0.0
 40
82.90375533637378
 41
1.34
 42
50.0
 43
0.0
 44
0.0
 50
0.0
 51
0.0
 71
0
 72
1000
 73
1
 74
3
 75
0
 76
0
 77
0
 78
0
281
0
 65
1
110
0.0
120
0.0
130
0.0
111
1.0
121
0.0
131
0.0
112
0.0
122
1.0
132
0.0
 79
0
146
0.0
  0
ENDTAB
  0
TABLE
  2
LTYPE
  5
2
330
0
100
AcDbSymbolTable
 70
3
  0
LTYPE
  5
24
330
2
100
AcDbSymbolTableRecord
100
AcDbLinetypeTableRecord
  2
ByBlock
 70
0
  3

 72
65
 73
0
 40
0.0
  0
LTYPE
  5
25
330
2
100
AcDbSymbolTableRecord
100
AcDbLinetypeTableRecord
  2
ByLayer
 70
0
  3

 72
65
 73
0
 40
0.0
  0
LTYPE
  5
26
330
2
100
AcDbSymbolTableRecord
100
AcDbLinetypeTableRecord
  2
Continuous
 70
0
  3

 72
65
 73
0
 40
0.0
  0
ENDTAB
  0
TABLE
  2
LAYER
  5
1
330
0
100
AcDbSymbolTable
 70
3
  0
LAYER
  5
27
330
1
100
AcDbSymbolTableRecord
100
AcDbLayerTableRecord
  2
0
 70
0
 62
7
  6
Continuous
370
-3
390
13
347
21
  0
LAYER
  5
28
330
1
100
AcDbSymbolTableRecord
100
AcDbLayerTableRecord
  2
Defpoints
 70
0
 62
7
  6
Continuous
290
0
370
-3
390
13
347
21
  0
LAYER
  5
2F
330
1
100
AcDbSymbolTableRecord
100
AcDbLayerTableRecord
  2
POCKET
 70
0
 62
7
  6
Continuous
370
-3
390
13
347
21
  0
ENDTAB
  0
TABLE
  2
STYLE
  5
5
330
0
100
AcDbSymbolTable
 70
1
  0
STYLE
  5
29
330
5
100
AcDbSymbolTableRecord
100
AcDbTextStyleTableRecord
  2
Standard
 70
0
 40
0.0
 41
1.0
 50
0.0
 71
0
 42
2.5
  3
txt
  4

  0
ENDTAB
  0
TABLE
  2
VIEW
  5
7
330
0
100
AcDbSymbolTable
 70
0
  0
ENDTAB
  0
TABLE
  2
UCS
  5
6
330
0
100
AcDbSymbolTable
 70
0
  0
ENDTAB
  0
TABLE
  2
APPID
  5
3
330
0
100
AcDbSymbolTable
 70
3
  0
APPID
  5
2A
330
3
100
AcDbSymbolTableRecord
100
AcDbRegAppTableRecord
  2
ACAD
 70
0
  0
APPID
  5
EB
330
3
100
AcDbSymbolTableRecord
100
AcDbRegAppTableRecord
  2
HATCHBACKGROUNDCOLOR
 70
0
  0
APPID
  5
EC
330
3
100
AcDbSymbolTableRecord
100
AcDbRegAppTableRecord
  2
EZDXF
 70
0
  0
ENDTAB
  0
TABLE
  2
DIMSTYLE
  5
4
330
0
100
AcDbSymbolTable
 70
1
100
AcDbDimStyleTable
  0
DIMSTYLE
105
2B
330
4
100
AcDbSymbolTableRecord
100
AcDbDimStyleTableRecord
  2
Standard
 70
0
 40
1.0
 41
2.5
 42
0.625
 43
3.75
 44
1.25
 45
0.0
 46
0.0
 47
0.0
 48
0.0
 49
2.5
140
2.5
141
2.5
142
0.0
143
0.03937007874
144
1.0
145
0.0
146
1.0
147
0.625
148
0.0
 69
0
 70
0
 71
0
 72
0
 73
0
 74
0
 75
0
 76
0
 77
1
 78
8
 79
3
170
0
171
3
172
1
173
0
174
0
175
0
176
0
177
0
178
0
179
2
271
2
272
2
273
2
274
3
275
0
276
0
277
2
278
44
279
0
280
0
281
0
282
0
283
0
284
8
285
0
286
0
288
0
289
3
290
0
371
-2
372
-2
  0
ENDTAB
  0
TABLE
  2
BLOCK_RECORD
  5
9
330
0
100
AcDbSymbolTable
 70
2
  0
BLOCK_RECORD
  5
17
330
9
100
AcDbSymbolTableRecord
100
AcDbBlockTableRecord
  2
*Model_Space
340
1A
 70
0
280
1
281
0
  0
BLOCK_RECORD
  5
1B
330
9
100
AcDbSymbolTableRecord
100
AcDbBlockTableRecord
  2
*Paper_Space
340
1E
 70
0
280
1
281
0
  0
ENDTAB
  0
ENDSEC
  0
SECTION
  2
BLOCKS
  0
BLOCK
  5
18
330
17
100
AcDbEntity
  8
0
100
AcDbBlockBegin
  2
*Model_Space
 70
0
 10
0.0
 20
0.0
 30
0.0
  3
*Model_Space
  1

  0
ENDBLK
  5
19
330
17
100
AcDbEntity
  8
0
100
AcDbBlockEnd
  0
BLOCK
  5
1C
330
1B
100
AcDbEntity
  8
0
100
AcDbBlockBegin
  2
*Paper_Space
 70
0
 10
0.0
 20
0.0
 30
0.0
  3
*Paper_Space
  1

  0
ENDBLK
  5
1D
330
1B
100
AcDbEntity
  8
0
100
AcDbBlockEnd
  0
ENDSEC
  0
SECTION
  2
ENTITIES
  0
LINE
  5
30
330
17
100
AcDbEntity
  8
POCKET
100
AcDbLine
 10
165.67973047432858
 20
34.11693829643552
 30
0.0
 11
165.72707532243805
 21
34.265789358501735
 31
0.0
  0
LINE
  5
31
330
17
100
AcDbEntity
  8
POCKET
100
AcDbLine
 10
165.72707532243805
 20
34.265789358501735
 30
0.0
 11
165.75066321471067
 21
34.420197210176724
 31
0.0
  0
LINE
  5
32
330
17
100
AcDbEntity
  8
POCKET
100
AcDbLine
 10
165.75066321471067
 20
34.420197210176724
 30
0.0
 11
165.80584972007088
 21
35.170579002607155
 31
0.0
  0
LINE
  5
33
330
17
100
AcDbEntity
  8
POCKET
100
AcDbLine
 10
165.80584972007088
 20
35.170579002607155
 30
0.0
 11
165.80751067274755
 21
35.289356628434916
 31
0.0
  0
LINE
  5
34
330
17
100
AcDbEntity
  8
POCKET
100
AcDbLine
 10
165.80751067274755
 20
35.289356628434916
 30
0.0
 11
165.79507531214028
 21
35.407493180643115
 31
0.0
  0
LINE
  5
35
330
17
100
AcDbEntity
  8
POCKET
100
AcDbLine
 10
165.79507531214028
 20
35.407493180643115
 30
0.0
 11
165.50901104192909
 21
37.13284353060606
 31
0.0
  0
LINE
  5
36
330
17
100
AcDbEntity
  8
POCKET
100
AcDbLine
 10
165.50901104192909
 20
37.13284353060606
 30
0.0
 11
165.4783559806961
 21
37.26304285440076
 31
0.0
  0
LINE
  5
37
330
17
100
AcDbEntity
  8
POCKET
100
AcDbLine
 10
165.4783559806961
 20
37.26304285440076
 30
0.0
 11
165.43059875278476
 21
37.387986217081675
 31
0.0
  0
LINE
  5
38
330
17
100
AcDbEntity
  8
POCKET
100
AcDbLine
 10
165.43059875278476
 20
37.387986217081675
 30
0.0
 11
163.80318421143178
 21
40.91760347047477
 31
0.0
  0
LINE
  5
39
330
17
100
AcDbEntity
  8
POCKET
100
AcDbLine
 10
163.80318421143178
 20
40.91760347047477
 30
0.0
 11
163.76594570285647
 21
40.990386458126814
 31
0.0
  0
LINE
  5
3A
330
17
100
AcDbEntity
  8
POCKET
100
AcDbLine
 10
163.76594570285647
 20
40.990386458126814
 30
0.0
 11
163.72288616277987
 21
41.059884269753255
 31
0.0
  0
LINE
  5
3B
330
17
100
AcDbEntity
  8
POCKET
100
AcDbLine
 10
163.72288616277987
 20
41.059884269753255
 30
0.0
 11
161.47683601587553
 21
44.37424867316262
 31
0.0
  0
LINE
  5
3C
330
17
100
AcDbEntity
  8
POCKET
100
AcDbLine
 10
161.47683601587553
 20
44.37424867316262
 30
0.0
 11
161.4043157936864
 21
44.46863490982237
 31
0.0
  0
LINE
  5
3D
330
17
100
AcDbEntity
  8
POCKET
100
AcDbLine
 10
161.4043157936864
 20
44.46863490982237
 30
0.0
 11
161.3210945011845
 21
44.55373579566655
 31
0.0
  0
LINE
  5
3E
330
17
100
AcDbEntity
  8
POCKET
100
AcDbLine
 10
161.3210945011845
 20
44.55373579566655
 30
0.0
 11
159.1472918009112
 21
46.526744141620306
 31
0.0
  0
LINE
  5
3F
330
17
100
AcDbEntity
  8
POCKET
100
AcDbLine
 10
159.1472918009112
 20
46.526744141620306
 30
0.0
 11
159.0812548960283
 21
46.58169744732566
 31
0.0
  0
LINE
  5
40
330
17
100
AcDbEntity
  8
POCKET
100
AcDbLine
 10
159.0812548960283
 20
46.58169744732566
 30
0.0
 11
159.01074494355777
 21
46.63077988020204
 31
0.0
  0
LINE
  5
41
330
17
100
AcDbEntity
  8
POCKET
100
AcDbLine
 10
159.01074494355777
 20
46.63077988020204
 30
0.0
 11
155.5264263343084
 21
48.84029789224487
 31
0.0
  0
LINE
  5
42
330
17
100
AcDbEntity
  8
POCKET
100
AcDbLine
 10
155.5264263343084
 20
48.84029789224487
 30
0.0
 11
155.43773076321452
 21
48.8903988200236
 31
0.0
  0
LINE
  5
43
330
17
100
AcDbEntity
  8
POCKET
100
AcDbLine
 10
155.43773076321452
 20
48.8903988200236
 30
0.0
 11
155.3443983526903
 21
48.931216321682754
 31
0.0
  0
LINE
  5
44
330
17
100
AcDbEntity
  8
POCKET
100
AcDbLine
 10
155.3443983526903
 20
48.931216321682754
 30
0.0
 11
151.89767325455202
 21
50.23375395554801
 31
0.0
  0
LINE
  5
45
330
17
100
AcDbEntity
  8
POCKET
100
AcDbLine
 10
151.89767325455202
 20
50.23375395554801
 30
0.0
 11
151.81838293455067
 21
50.25998986214294
 31
0.0
  0
LINE
  5
46
330
17
100
AcDbEntity
  8
POCKET
100
AcDbLine
 10
151.81838293455067
 20
50.25998986214294
 30
0.0
 11
151.73717988809162
 21
50.27951786476838
 31
0.0
  0
LINE
  5
47
330
17
100
AcDbEntity
  8
POCKET
100
AcDbLine
 10
151.73717988809162
 20
50.27951786476838
 30
0.0
 11
147.76114107795627
 21
51.0616481580317
 31
0.0
  0
LINE
  5
48
330
17
100
AcDbEntity
  8
POCKET
100
AcDbLine
 10
147.76114107795627
 20
51.0616481580317
 30
0.0
 11
147.64122233517304
 21
51.077776878861954
 31
0.0
  0
LINE
  5
49
330
17
100
AcDbEntity
  8
POCKET
100
AcDbLine
 10
147.64122233517304
 20
51.077776878861954
 30
0.0
 11
147.52023345949954
 21
51.079304121341266
 31
0.0
  0
LINE
  5
4A
330
17
100
AcDbEntity
  8
POCKET
100
AcDbLine
 10
147.52023345949954
 20
51.079304121341266
 30
0.0
 11
142.40020421211264
 21
50.833795671527184
 31
0.0
  0
LINE
  5
4B
330
17
100
AcDbEntity
  8
POCKET
100
AcDbLine
 10
142.40020421211264
 20
50.833795671527184
 30
0.0
 11
142.2966040700313
 21
50.823401238200915
 31
0.0
  0
LINE
  5
4C
330
17
100
AcDbEntity
  8
POCKET
100
AcDbLine
 10
142.2966040700313
 20
50.823401238200915
 30
0.0
 11
142.1946462980094
 21
50.80229089931732
 31
0.0
  0
LINE
  5
4D
330
17
100
AcDbEntity
  8
POCKET
100
AcDbLine
 10
142.1946462980094
 20
50.80229089931732
 30
0.0
 11
138.98020616594727
 21
49.96007962664064
 31
0.0
  0
LINE
  5
4E
330
17
100
AcDbEntity
  8
POCKET
100
AcDbLine
 10
138.98020616594727
 20
49.96007962664064
 30
0.0
 11
138.87595534363194
 21
49.92656695667617
 31
0.0
  0
LINE
  5
4F
330
17
100
AcDbEntity
  8
POCKET
100
AcDbLine
 10
138.87595534363194
 20
49.92656695667617
 30
0.0
 11
138.7759938727067
 21
49.88185636137675
 31
0.0
  0
LINE
  5
50
330
17
100
AcDbEntity
  8
POCKET
100
AcDbLine
 10
138.7759938727067
 20
49.88185636137675
 30
0.0
 11
134.8226630654538
 21
47.8469280925542
 31
0.0
  0
LINE
  5
51
330
17
100
AcDbEntity
  8
POCKET
100
AcDbLine
 10
134.8226630654538
 20
47.8469280925542
 30
0.0
 11
134.7451398612324
 21
47.802536140969025
 31
0.0
  0
LINE
  5
52
330
17
100
AcDbEntity
  8
POCKET
100
AcDbLine
 10
134.7451398612324
 20
47.802536140969025
 30
0.0
 11
134.67188772865282
 21
47.751402809072445
 31
0.0
  0
LINE
  5
53
330
17
100
AcDbEntity
  8
POCKET
100
AcDbLine
 10
134.67188772865282
 20
47.751402809072445
 30
0.0
 11
131.83799372635409
 21
45.578696507483684
 31
0.0
  0
LINE
  5
54
330
17
100
AcDbEntity
  8
POCKET
100
AcDbLine
 10
131.83799372635409
 20
45.578696507483684
 30
0.0
 11
131.77390482021997
 21
45.52516732694971
 31
0.0
  0
LINE
  5
55
330
17
100
AcDbEntity
  8
POCKET
100
AcDbLine
 10
131.77390482021997
 20
45.52516732694971
 30
0.0
 11
131.71450530518425
 21
45.46647781620349
 31
0.0
  0
LINE
  5
56
330
17
100
AcDbEntity
  8
POCKET
100
AcDbLine
 10
131.71450530518425
 20
45.46647781620349
 30
0.0
 11
127.52805283207782
 21
40.96944726517948
 31
0.0
  0
LINE
  5
57
330
17
100
AcDbEntity
  8
POCKET
100
AcDbLine
 10
127.52805283207782
 20
40.96944726517948
 30
0.0
 11
127.19563895670234
 21
40.637081852620476
 31
0.0
  0
LINE
  5
58
330
17
100
AcDbEntity
  8
POCKET
100
AcDbLine
 10
127.19563895670234
 20
40.637081852620476
 30
0.0
 11
126.84028486172589
 21
40.32936571851119
 31
0.0
  0
LINE
  5
59
330
17
100
AcDbEntity
  8
POCKET
100
AcDbLine
 10
126.84028486172589
 20
40.32936571851119
 30
0.0
 11
123.61285628477714
 21
37.730911312103544
 31
0.0
  0
LINE
  5
5A
330
17
100
AcDbEntity
  8
POCKET
100
AcDbLine
 10
123.61285628477714
 20
37.730911312103544
 30
0.0
 11
123.30434249222968
 21
37.49717631603319
 31
0.0
  0
LINE
  5
5B
330
17
100
AcDbEntity
  8
POCKET
100
AcDbLine
 10
123.30434249222968
 20
37.49717631603319
 30
0.0
 11
122.98258525347495
 21
37.28203662213888
 31
0.0
  0
LINE
  5
5C
330
17
100
AcDbEntity
  8
POCKET
100
AcDbLine
 10
122.98258525347495
 20
37.28203662213888
 30
0.0
 11
118.11543791685106
 21
34.23144685261216
 31
0.0
  0
LINE
  5
5D
330
17
100
AcDbEntity
  8
POCKET
100
AcDbLine
 10
118.11543791685106
 20
34.23144685261216
 30
0.0
 11
117.69144369318795
 21
33.98722829197726
 31
0.0
  0
LINE
  5
5E
330
17
100
AcDbEntity
  8
POCKET
100
AcDbLine
 10
117.69144369318795
 20
33.98722829197726
 30
0.0
 11
117.25043092503637
 21
33.7752812575899
 31
0.0
  0
LINE
  5
5F
330
17
100
AcDbEntity
  8
POCKET
100
AcDbLine
 10
117.25043092503637
 20
33.7752812575899
 30
0.0
 11
112.11587448072827
 21
31.539306287059617
 31
0.0
  0
LINE
  5
60
330
17
100
AcDbEntity
  8
POCKET
100
AcDbLine
 10
112.11587448072827
 20
31.539306287059617
 30
0.0
 11
111.08783880276002
 21
31.18963925274754
 31
0.0
  0
LINE
  5
61
330
17
100
AcDbEntity
  8
POCKET
100
AcDbLine
 10
111.08783880276002
 20
31.18963925274754
 30
0.0
 11
110.05725534570892
 21
31.02105204574035
 31
0.0
  0
LINE
  5
62
330
17
100
AcDbEntity
  8
POCKET
100
AcDbLine
 10
110.05725534570892
 20
31.02105204574035
 30
0.0
 11
108.97138728449295
 21
31.02491775282089
 31
0.0
  0
LINE
  5
63
330
17
100
AcDbEntity
  8
POCKET
100
AcDbLine
 10
108.97138728449295
 20
31.02491775282089
 30
0.0
 11
103.55362201464038
 21
31.49425752760842
 31
0.0
  0
LINE
  5
64
330
17
100
AcDbEntity
  8
POCKET
100
AcDbLine
 10
103.55362201464038
 20
31.49425752760842
 30
0.0
 11
103.47041638563007
 21
31.497984089520894
 31
0.0
  0
LINE
  5
65
330
17
100
AcDbEntity
  8
POCKET
100
AcDbLine
 10
103.47041638563007
 20
31.497984089520894
 30
0.0
 11
103.38718924550484
 21
31.494773620822624
 31
0.0
  0
LINE
  5
66
330
17
100
AcDbEntity
  8
POCKET
100
AcDbLine
 10
103.38718924550484
 20
31.494773620822624
 30
0.0
 11
57.050118574386744
 21
27.769981956037952
 31
0.0
  0
LINE
  5
67
330
17
100
AcDbEntity
  8
POCKET
100
AcDbLine
 10
57.050118574386744
 20
27.769981956037952
 30
0.0
 11
57.04504946094902
 21
27.769561498783904
 31
0.0
  0
LINE
  5
68
330
17
100
AcDbEntity
  8
POCKET
100
AcDbLine
 10
57.04504946094902
 20
27.769561498783904
 30
0.0
 11
57.039982551744835
 21
27.769115262900737
 31
0.0
  0
LINE
  5
69
330
17
100
AcDbEntity
  8
POCKET
100
AcDbLine
 10
57.039982551744835
 20
27.769115262900737
 30
0.0
 11
12.927938143813712
 21
23.771142546304116
 31
0.0
  0
LINE
  5
6A
330
17
100
AcDbEntity
  8
POCKET
100
AcDbLine
 10
12.92793814381371
 20
23.771142546304116
 30
0.0
 11
12.881481659796503
 21
23.765834420596843
 31
0.0
  0
LINE
  5
6B
330
17
100
AcDbEntity
  8
POCKET
100
AcDbLine
 10
12.881481659796503
 20
23.765834420596843
 30
0.0
 11
12.835324095072487
 21
23.75836044411082
 31
0.0
  0
LINE
  5
6C
330
17
100
AcDbEntity
  8
POCKET
100
AcDbLine
 10
12.835324095072487
 20
23.75836044411082
 30
0.0
 11
8.600256033685845
 21
22.970581643478653
 31
0.0
  0
LINE
  5
6D
330
17
100
AcDbEntity
  8
POCKET
100
AcDbLine
 10
8.600256033685845
 20
22.970581643478653
 30
0.0
 11
8.504270160472469
 21
22.947776845577327
 31
0.0
  0
LINE
  5
6E
330
17
100
AcDbEntity
  8
POCKET
100
AcDbLine
 10
8.504270160472469
 20
22.947776845577327
 30
0.0
 11
8.41099854961191
 21
22.915624811872892
 31
0.0
  0
LINE
  5
6F
330
17
100
AcDbEntity
  8
POCKET
100
AcDbLine
 10
8.41099854961191
 20
22.915624811872892
 30
0.0
 11
7.187173992819558
 21
22.42495821117182
 31
0.0
  0
LINE
  5
70
330
17
100
AcDbEntity
  8
POCKET
100
AcDbLine
 10
7.187173992819558
 20
22.42495821117182
 30
0.0
 11
7.083464273009021
 21
22.376309071558605
 31
0.0
  0
LINE
  5
71
330
17
100
AcDbEntity
  8
POCKET
100
AcDbLine
 10
7.083464273009021
 20
22.376309071558605
 30
0.0
 11
6.985998783498103
 21
22.316118348663107
 31
0.0
  0
LINE
  5
72
330
17
100
AcDbEntity
  8
POCKET
100
AcDbLine
 10
6.985998783498103
 20
22.316118348663107
 30
0.0
 11
6.096448212479826
 21
21.6936809809612
 31
0.0
  0
LINE
  5
73
330
17
100
AcDbEntity
  8
POCKET
100
AcDbLine
 10
6.096448212479826
 20
21.6936809809612
 30
0.0
 11
6.027645155419927
 21
21.64095253141012
 31
0.0
  0
LINE
  5
74
330
17
100
AcDbEntity
  8
POCKET
100
AcDbLine
 10
6.027645155419927
 20
21.64095253141012
 30
0.0
 11
5.9636670247733
 21
21.582463653392058
 31
0.0
  0
LINE
  5
75
330
17
100
AcDbEntity
  8
POCKET
100
AcDbLine
 10
5.9636670247733
 20
21.582463653392058
 30
0.0
 11
2.5981139065183503
 21
18.226566821698178
 31
0.0
  0
LINE
  5
76
330
17
100
AcDbEntity
  8
POCKET
100
AcDbLine
 10
2.5981139065183503
 20
18.226566821698178
 30
0.0
 11
2.498804124191791
 21
18.111176620248603
 31
0.0
  0
LINE
  5
77
330
17
100
AcDbEntity
  8
POCKET
100
AcDbLine
 10
2.498804124191791
 20
18.111176620248603
 30
0.0
 11
2.4181613641285056
 21
17.982048479606462
 31
0.0
  0
LINE
  5
78
330
17
100
AcDbEntity
  8
POCKET
100
AcDbLine
 10
2.4181613641285056
 20
17.982048479606462
 30
0.0
 11
0.9823481649490815
 21
15.23791112356743
 31
0.0
  0
LINE
  5
79
330
17
100
AcDbEntity
  8
POCKET
100
AcDbLine
 10
0.9823481649490814
 20
15.23791112356743
 30
0.0
 11
0.9364128211757908
 21
15.136822184395333
 31
0.0
  0
LINE
  5
7A
330
17
100
AcDbEntity
  8
POCKET
100
AcDbLine
 10
0.9364128211757908
 20
15.136822184395333
 30
0.0
 11
0.9019678626117678
 21
15.031263791739736
 31
0.0
  0
LINE
  5
7B
330
17
100
AcDbEntity
  8
POCKET
100
AcDbLine
 10
0.9019678626117678
 20
15.031263791739736
 30
0.0
 11
0.08606864863087797
 21
11.962633030123717
 31
0.0
  0
LINE
  5
7C
330
17
100
AcDbEntity
  8
POCKET
100
AcDbLine
 10
0.08606864863087804
 20
11.962633030123717
 30
0.0
 11
0.06416304998916633
 21
11.858013594453519
 31
0.0
  0
LINE
  5
7D
330
17
100
AcDbEntity
  8
POCKET
100
AcDbLine
 10
0.06416304998916633
 20
11.858013594453519
 30
0.0
 11
0.05354918667725728
 21
11.751653698452259
 31
0.0
  0
LINE
  5
7E
330
17
100
AcDbEntity
  8
POCKET
100
AcDbLine
 10
0.05354918667725728
 20
11.751653698452259
 30
0.0
 11
-2.0794467539619135e-18
 21
10.588187750864646
 31
0.0
  0
LINE
  5
7F
330
17
100
AcDbEntity
  8
POCKET
100
AcDbLine
 10
0.0
 20
10.588187750864646
 30
0.0
 11
0.010401741770608819
 21
10.391256674434835
 31
0.0
  0
LINE
  5
80
330
17
100
AcDbEntity
  8
POCKET
100
AcDbLine
 10
0.010401741770608819
 20
10.391256674434835
 30
0.0
 11
0.059247878329840575
 21
10.200196212698495
 31
0.0
  0
LINE
  5
81
330
17
100
AcDbEntity
  8
POCKET
100
AcDbLine
 10
0.059247878329840575
 20
10.200196212698495
 30
0.0
 11
0.7594128951591608
 21
8.276473567176902
 31
0.0
  0
LINE
  5
82
330
17
100
AcDbEntity
  8
POCKET
100
AcDbLine
 10
0.7594128951591608
 20
8.276473567176902
 30
0.0
 11
0.8016120043938113
 21
8.177464622845958
 31
0.0
  0
LINE
  5
83
330
17
100
AcDbEntity
  8
POCKET
100
AcDbLine
 10
0.8016120043938113
 20
8.177464622845958
 30
0.0
 11
0.8542072851332533
 21
8.083564290995293
 31
0.0
  0
LINE
  5
84
330
17
100
AcDbEntity
  8
POCKET
100
AcDbLine
 10
0.8542072851332533
 20
8.083564290995293
 30
0.0
 11
2.45781471594234
 21
5.550702587052164
 31
0.0
  0
LINE
  5
85
330
17
100
AcDbEntity
  8
POCKET
100
AcDbLine
 10
2.45781471594234
 20
5.550702587052164
 30
0.0
 11
2.519414925519773
 21
5.463982655170859
 31
0.0
  0
LINE
  5
86
330
17
100
AcDbEntity
  8
POCKET
100
AcDbLine
 10
2.519414925519773
 20
5.463982655170859
 30
0.0
 11
2.5898781219362377
 21
5.384296581379658
 31
0.0
  0
LINE
  5
87
330
17
100
AcDbEntity
  8
POCKET
100
AcDbLine
 10
2.5898781219362377
 20
5.384296581379658
 30
0.0
 11
4.120111350826223
 21
3.8289564018929534
 31
0.0
  0
LINE
  5
88
330
17
100
AcDbEntity
  8
POCKET
100
AcDbLine
 10
4.120111350826223
 20
3.8289564018929534
 30
0.0
 11
4.190636286655087
 21
3.7638429557853774
 31
0.0
  0
LINE
  5
89
330
17
100
AcDbEntity
  8
POCKET
100
AcDbLine
 10
4.190636286655087
 20
3.7638429557853774
 30
0.0
 11
4.267079180733785
 21
3.705791156652686
 31
0.0
  0
LINE
  5
8A
330
17
100
AcDbEntity
  8
POCKET
100
AcDbLine
 10
4.267079180733785
 20
3.705791156652686
 30
0.0
 11
7.588976368367865
 21
1.4259007250222233
 31
0.0
  0
LINE
  5
8B
330
17
100
AcDbEntity
  8
POCKET
100
AcDbLine
 10
7.588976368367865
 20
1.4259007250222235
 30
0.0
 11
7.737997398562511
 21
1.341419668039113
 31
0.0
  0
LINE
  5
8C
330
17
100
AcDbEntity
  8
POCKET
100
AcDbLine
 10
7.737997398562511
 20
1.341419668039113
 30
0.0
 11
7.899250547454805
 21
1.283611896921584
 31
0.0
  0
LINE
  5
8D
330
17
100
AcDbEntity
  8
POCKET
100
AcDbLine
 10
7.899250547454805
 20
1.283611896921584
 30
0.0
 11
12.63416235449616
 21
0.031813212035515306
 31
0.0
  0
LINE
  5
8E
330
17
100
AcDbEntity
  8
POCKET
100
AcDbLine
 10
12.634162354496162
 20
0.031813212035515015
 30
0.0
 11
12.8032015238139
 21
0.0023501872492388545
 31
0.0
  0
LINE
  5
8F
330
17
100
AcDbEntity
  8
POCKET
100
AcDbLine
 10
12.8032015238139
 20
0.0023501872492388554
 30
0.0
 11
12.974789091478184
 21
0.0022189765721004617
 31
0.0
  0
LINE
  5
90
330
17
100
AcDbEntity
  8
POCKET
100
AcDbLine
 10
12.974789091478184
 20
0.0022189765721004617
 30
0.0
 11
18.53556177369458
 21
0.4767808935821223
 31
0.0
  0
LINE
  5
91
330
17
100
AcDbEntity
  8
POCKET
100
AcDbLine
 10
18.53556177369458
 20
0.4767808935821223
 30
0.0
 11
18.67468733221364
 21
0.4986061849647516
 31
0.0
  0
LINE
  5
92
330
17
100
AcDbEntity
  8
POCKET
100
AcDbLine
 10
18.67468733221364
 20
0.4986061849647516
 30
0.0
 11
18.809367340413456
 21
0.5397590678343004
 31
0.0
  0
LINE
  5
93
330
17
100
AcDbEntity
  8
POCKET
100
AcDbLine
 10
18.809367340413456
 20
0.5397590678343004
 30
0.0
 11
19.625751739754648
 21
0.8536109072088001
 31
0.0
  0
LINE
  5
94
330
17
100
AcDbEntity
  8
POCKET
100
AcDbLine
 10
19.625751739754648
 20
0.8536109072088001
 30
0.0
 11
20.36216792252019
 21
1.087962355122038
 31
0.0
  0
LINE
  5
95
330
17
100
AcDbEntity
  8
POCKET
100
AcDbLine
 10
20.36216792252019
 20
1.087962355122038
 30
0.0
 11
21.121030103296306
 21
1.2341047034188037
 31
0.0
  0
LINE
  5
96
330
17
100
AcDbEntity
  8
POCKET
100
AcDbLine
 10
21.121030103296306
 20
1.2341047034188037
 30
0.0
 11
25.07519775781855
 21
1.756404810044745
 31
0.0
  0
LINE
  5
97
330
17
100
AcDbEntity
  8
POCKET
100
AcDbLine
 10
25.07519775781855
 20
1.756404810044745
 30
0.0
 11
25.548089451301575
 21
1.8015248687738357
 31
0.0
  0
LINE
  5
98
330
17
100
AcDbEntity
  8
POCKET
100
AcDbLine
 10
25.548089451301575
 20
1.8015248687738357
 30
0.0
 11
26.02300620026819
 21
1.8123163013011871
 31
0.0
  0
LINE
  5
99
330
17
100
AcDbEntity
  8
POCKET
100
AcDbLine
 10
26.02300620026819
 20
1.8123163013011871
 30
0.0
 11
28.45243094914198
 21
1.7795553540284286
 31
0.0
  0
LINE
  5
9A
330
17
100
AcDbEntity
  8
POCKET
100
AcDbLine
 10
28.45243094914198
 20
1.7795553540284286
 30
0.0
 11
28.512061087921605
 21
1.780529750950604
 31
0.0
  0
LINE
  5
9B
330
17
100
AcDbEntity
  8
POCKET
100
AcDbLine
 10
28.512061087921605
 20
1.780529750950604
 30
0.0
 11
28.57152709801823
 21
1.7850570617889878
 31
0.0
  0
LINE
  5
9C
330
17
100
AcDbEntity
  8
POCKET
100
AcDbLine
 10
28.57152709801823
 20
1.7850570617889878
 30
0.0
 11
68.45523358857334
 21
6.020957259030039
 31
0.0
  0
LINE
  5
9D
330
17
100
AcDbEntity
  8
POCKET
100
AcDbLine
 10
68.45523358857334
 20
6.020957259030038
 30
0.0
 11
68.49495358720027
 21
6.025981741761794
 31
0.0
  0
LINE
  5
9E
330
17
100
AcDbEntity
  8
POCKET
100
AcDbLine
 10
68.49495358720027
 20
6.025981741761794
 30
0.0
 11
68.53444062922082
 21
6.032592129807286
 31
0.0
  0
LINE
  5
9F
330
17
100
AcDbEntity
  8
POCKET
100
AcDbLine
 10
68.53444062922082
 20
6.032592129807286
 30
0.0
 11
68.93402221454205
 21
6.107737098588796
 31
0.0
  0
LINE
  5
A0
330
17
100
AcDbEntity
  8
POCKET
100
AcDbLine
 10
68.93402221454205
 20
6.107737098588796
 30
0.0
 11
69.32256952180641
 21
6.157032054921981
 31
0.0
  0
LINE
  5
A1
330
17
100
AcDbEntity
  8
POCKET
100
AcDbLine
 10
69.32256952180641
 20
6.157032054921981
 30
0.0
 11
105.61606013033887
 21
9.66475362165728
 31
0.0
  0
LINE
  5
A2
330
17
100
AcDbEntity
  8
POCKET
100
AcDbLine
 10
105.61606013033887
 20
9.66475362165728
 30
0.0
 11
105.71277872346968
 21
9.678900932518316
 31
0.0
  0
LINE
  5
A3
330
17
100
AcDbEntity
  8
POCKET
100
AcDbLine
 10
105.71277872346968
 20
9.678900932518316
 30
0.0
 11
105.8076540453424
 21
9.702423389051344
 31
0.0
  0
LINE
  5
A4
330
17
100
AcDbEntity
  8
POCKET
100
AcDbLine
 10
105.8076540453424
 20
9.702423389051344
 30
0.0
 11
110.72497937478165
 21
11.180120350514931
 31
0.0
  0
LINE
  5
A5
330
17
100
AcDbEntity
  8
POCKET
100
AcDbLine
 10
110.72497937478165
 20
11.180120350514931
 30
0.0
 11
112.04780430421307
 21
11.433258464245236
 31
0.0
  0
LINE
  5
A6
330
17
100
AcDbEntity
  8
POCKET
100
AcDbLine
 10
112.04780430421307
 20
11.433258464245236
 30
0.0
 11
113.3427107822297
 21
11.411737379791855
 31
0.0
  0
LINE
  5
A7
330
17
100
AcDbEntity
  8
POCKET
100
AcDbLine
 10
113.3427107822297
 20
11.411737379791855
 30
0.0
 11
114.65639325289148
 21
11.114781044913844
 31
0.0
  0
LINE
  5
A8
330
17
100
AcDbEntity
  8
POCKET
100
AcDbLine
 10
114.65639325289148
 20
11.114781044913844
 30
0.0
 11
127.78664439992293
 21
6.688239117424134
 31
0.0
  0
LINE
  5
A9
330
17
100
AcDbEntity
  8
POCKET
100
AcDbLine
 10
127.78664439992293
 20
6.688239117424134
 30
0.0
 11
128.2911035416742
 21
6.494698745291014
 31
0.0
  0
LINE
  5
AA
330
17
100
AcDbEntity
  8
POCKET
100
AcDbLine
 10
128.2911035416742
 20
6.494698745291014
 30
0.0
 11
128.77793029735247
 21
6.260313141429262
 31
0.0
  0
LINE
  5
AB
330
17
100
AcDbEntity
  8
POCKET
100
AcDbLine
 10
128.77793029735247
 20
6.260313141429262
 30
0.0
 11
138.31416171580275
 21
1.1752266204854955
 31
0.0
  0
LINE
  5
AC
330
17
100
AcDbEntity
  8
POCKET
100
AcDbLine
 10
138.31416171580275
 20
1.1752266204854958
 30
0.0
 11
138.41852635836807
 21
1.1270617760756716
 31
0.0
  0
LINE
  5
AD
330
17
100
AcDbEntity
  8
POCKET
100
AcDbLine
 10
138.41852635836807
 20
1.1270617760756716
 30
0.0
 11
138.5277286250922
 21
1.091191233884108
 31
0.0
  0
LINE
  5
AE
330
17
100
AcDbEntity
  8
POCKET
100
AcDbLine
 10
138.5277286250922
 20
1.091191233884108
 30
0.0
 11
141.59316244302886
 21
0.2761420354436596
 31
0.0
  0
LINE
  5
AF
330
17
100
AcDbEntity
  8
POCKET
100
AcDbLine
 10
141.59316244302886
 20
0.27614203544365956
 30
0.0
 11
141.69435116237221
 21
0.2547713320571827
 31
0.0
  0
LINE
  5
B0
330
17
100
AcDbEntity
  8
POCKET
100
AcDbLine
 10
141.69435116237221
 20
0.2547713320571827
 30
0.0
 11
141.79720594983493
 21
0.2439659361097044
 31
0.0
  0
LINE
  5
B1
330
17
100
AcDbEntity
  8
POCKET
100
AcDbLine
 10
141.79720594983493
 20
0.2439659361097044
 30
0.0
 11
146.40147024657594
 21
6.714894458801097e-18
 31
0.0
  0
LINE
  5
B2
330
17
100
AcDbEntity
  8
POCKET
100
AcDbLine
 10
146.40147024657594
 20
0.0
 30
0.0
 11
146.53169519245816
 21
0.0015922094420007804
 31
0.0
  0
LINE
  5
B3
330
17
100
AcDbEntity
  8
POCKET
100
AcDbLine
 10
146.53169519245816
 20
0.0015922094420007804
 30
0.0
 11
146.66060884023483
 21
0.020094724888498842
 31
0.0
  0
LINE
  5
B4
330
17
100
AcDbEntity
  8
POCKET
100
AcDbLine
 10
146.66060884023483
 20
0.02009472488849884
 30
0.0
 11
150.60548805690573
 21
0.8515024601716932
 31
0.0
  0
LINE
  5
B5
330
17
100
AcDbEntity
  8
POCKET
100
AcDbLine
 10
150.60548805690573
 20
0.8515024601716932
 30
0.0
 11
150.7300056865143
 21
0.8862861867957524
 31
0.0
  0
LINE
  5
B6
330
17
100
AcDbEntity
  8
POCKET
100
AcDbLine
 10
150.7300056865143
 20
0.8862861867957524
 30
0.0
 11
150.84899508815053
 21
0.936843777911742
 31
0.0
  0
LINE
  5
B7
330
17
100
AcDbEntity
  8
POCKET
100
AcDbLine
 10
150.84899508815053
 20
0.936843777911742
 30
0.0
 11
155.06697527818926
 21
3.0607161857839684
 31
0.0
  0
LINE
  5
B8
330
17
100
AcDbEntity
  8
POCKET
100
AcDbLine
 10
155.06697527818926
 20
3.060716185783968
 30
0.0
 11
155.20283947756897
 21
3.1432770148580653
 31
0.0
  0
LINE
  5
B9
330
17
100
AcDbEntity
  8
POCKET
100
AcDbLine
 10
155.20283947756897
 20
3.1432770148580653
 30
0.0
 11
155.32390249292743
 21
3.2463261171482145
 31
0.0
  0
LINE
  5
BA
330
17
100
AcDbEntity
  8
POCKET
100
AcDbLine
 10
155.32390249292743
 20
3.2463261171482145
 30
0.0
 11
159.2495759421125
 21
7.167044697526425
 31
0.0
  0
LINE
  5
BB
330
17
100
AcDbEntity
  8
POCKET
100
AcDbLine
 10
159.2495759421125
 20
7.167044697526425
 30
0.0
 11
159.33134275643604
 21
7.259469439334724
 31
0.0
  0
LINE
  5
BC
330
17
100
AcDbEntity
  8
POCKET
100
AcDbLine
 10
159.33134275643604
 20
7.259469439334724
 30
0.0
 11
159.40110329131474
 21
7.361261445879384
 31
0.0
  0
LINE
  5
BD
330
17
100
AcDbEntity
  8
POCKET
100
AcDbLine
 10
159.40110329131474
 20
7.361261445879384
 30
0.0
 11
160.12322117839946
 21
8.568486368197933
 31
0.0
  0
LINE
  5
BE
330
17
100
AcDbEntity
  8
POCKET
100
AcDbLine
 10
160.12322117839946
 20
8.568486368197933
 30
0.0
 11
160.24369459341926
 21
8.876340705178386
 31
0.0
  0
LINE
  5
BF
330
17
100
AcDbEntity
  8
POCKET
100
AcDbLine
 10
160.24369459341926
 20
8.876340705178386
 30
0.0
 11
160.25721198478328
 21
9.206651795901848
 31
0.0
  0
LINE
  5
C0
330
17
100
AcDbEntity
  8
POCKET
100
AcDbLine
 10
160.25721198478328
 20
9.206651795901848
 30
0.0
 11
160.0696039913819
 21
10.697816188965845
 31
0.0
  0
LINE
  5
C1
330
17
100
AcDbEntity
  8
POCKET
100
AcDbLine
 10
160.0696039913819
 20
10.697816188965845
 30
0.0
 11
160.01591266243045
 21
10.918301909073024
 31
0.0
  0
LINE
  5
C2
330
17
100
AcDbEntity
  8
POCKET
100
AcDbLine
 10
160.01591266243045
 20
10.918301909073024
 30
0.0
 11
159.91389234218624
 21
11.121005056145343
 31
0.0
  0
LINE
  5
C3
330
17
100
AcDbEntity
  8
POCKET
100
AcDbLine
 10
159.91389234218624
 20
11.121005056145343
 30
0.0
 11
159.57722755154617
 21
11.634873073151217
 31
0.0
  0
LINE
  5
C4
330
17
100
AcDbEntity
  8
POCKET
100
AcDbLine
 10
159.57722755154617
 20
11.634873073151217
 30
0.0
 11
159.41169608785106
 21
11.828371221682316
 31
0.0
  0
LINE
  5
C5
330
17
100
AcDbEntity
  8
POCKET
100
AcDbLine
 10
159.41169608785106
 20
11.828371221682316
 30
0.0
 11
159.202659713246
 21
11.973787840574357
 31
0.0
  0
LINE
  5
C6
330
17
100
AcDbEntity
  8
POCKET
100
AcDbLine
 10
159.202659713246
 20
11.973787840574357
 30
0.0
 11
158.02982319019694
 21
12.584580289155085
 31
0.0
  0
LINE
  5
C7
330
17
100
AcDbEntity
  8
POCKET
100
AcDbLine
 10
158.02982319019694
 20
12.584580289155085
 30
0.0
 11
157.91812251171535
 21
12.634323303041057
 31
0.0
  0
LINE
  5
C8
330
17
100
AcDbEntity
  8
POCKET
100
AcDbLine
 10
157.91812251171535
 20
12.634323303041057
 30
0.0
 11
157.8011858781563
 21
12.670061696060213
 31
0.0
  0
LINE
  5
C9
330
17
100
AcDbEntity
  8
POCKET
100
AcDbLine
 10
157.8011858781563
 20
12.670061696060213
 30
0.0
 11
146.2302640344847
 21
15.445679998472277
 31
0.0
  0
LINE
  5
CA
330
17
100
AcDbEntity
  8
POCKET
100
AcDbLine
 10
146.2302640344847
 20
15.445679998472277
 30
0.0
 11
144.92166535059508
 21
15.910785700367525
 31
0.0
  0
LINE
  5
CB
330
17
100
AcDbEntity
  8
POCKET
100
AcDbLine
 10
144.92166535059508
 20
15.910785700367525
 30
0.0
 11
143.78573616431584
 21
16.61291904161934
 31
0.0
  0
LINE
  5
CC
330
17
100
AcDbEntity
  8
POCKET
100
AcDbLine
 10
143.78573616431584
 20
16.61291904161934
 30
0.0
 11
142.82310231458044
 21
17.538479637410788
 31
0.0
  0
LINE
  5
CD
330
17
100
AcDbEntity
  8
POCKET
100
AcDbLine
 10
142.82310231458044
 20
17.538479637410788
 30
0.0
 11
142.0769211014703
 21
18.645972275011584
 31
0.0
  0
LINE
  5
CE
330
17
100
AcDbEntity
  8
POCKET
100
AcDbLine
 10
142.0769211014703
 20
18.645972275011584
 30
0.0
 11
141.58064570818524
 21
19.885745270022426
 31
0.0
  0
LINE
  5
CF
330
17
100
AcDbEntity
  8
POCKET
100
AcDbLine
 10
141.58064570818524
 20
19.885745270022426
 30
0.0
 11
141.34756615417038
 21
21.25484269201739
 31
0.0
  0
LINE
  5
D0
330
17
100
AcDbEntity
  8
POCKET
100
AcDbLine
 10
141.34756615417038
 20
21.25484269201739
 30
0.0
 11
141.1713091262246
 21
24.06860490238898
 31
0.0
  0
LINE
  5
D1
330
17
100
AcDbEntity
  8
POCKET
100
AcDbLine
 10
141.1713091262246
 20
24.06860490238898
 30
0.0
 11
141.21409565031712
 21
25.331106287189858
 31
0.0
  0
LINE
  5
D2
330
17
100
AcDbEntity
  8
POCKET
100
AcDbLine
 10
141.21409565031712
 20
25.331106287189858
 30
0.0
 11
141.49808463962344
 21
26.56199648831292
 31
0.0
  0
LINE
  5
D3
330
17
100
AcDbEntity
  8
POCKET
100
AcDbLine
 10
141.49808463962344
 20
26.56199648831292
 30
0.0
 11
142.62406765025855
 21
29.9238386460816
 31
0.0
  0
LINE
  5
D4
330
17
100
AcDbEntity
  8
POCKET
100
AcDbLine
 10
142.62406765025855
 20
29.9238386460816
 30
0.0
 11
143.11499039131314
 21
31.03527688370023
 31
0.0
  0
LINE
  5
D5
330
17
100
AcDbEntity
  8
POCKET
100
AcDbLine
 10
143.11499039131314
 20
31.03527688370023
 30
0.0
 11
143.77609934800762
 21
31.998684080092765
 31
0.0
  0
LINE
  5
D6
330
17
100
AcDbEntity
  8
POCKET
100
AcDbLine
 10
143.77609934800762
 20
31.998684080092765
 30
0.0
 11
144.60354442216442
 21
32.82364052011628
 31
0.0
  0
LINE
  5
D7
330
17
100
AcDbEntity
  8
POCKET
100
AcDbLine
 10
144.60354442216442
 20
32.82364052011628
 30
0.0
 11
145.60744549643633
 21
33.50809850041981
 31
0.0
  0
LINE
  5
D8
330
17
100
AcDbEntity
  8
POCKET
100
AcDbLine
 10
145.60744549643633
 20
33.50809850041981
 30
0.0
 11
146.70016270614346
 21
34.11311089878595
 31
0.0
  0
LINE
  5
D9
330
17
100
AcDbEntity
  8
POCKET
100
AcDbLine
 10
146.70016270614346
 20
34.11311089878595
 30
0.0
 11
147.8081796820987
 21
34.599058800639426
 31
0.0
  0
LINE
  5
DA
330
17
100
AcDbEntity
  8
POCKET
100
AcDbLine
 10
147.8081796820987
 20
34.599058800639426
 30
0.0
 11
148.94139775486735
 21
34.8627356235859
 31
0.0
  0
LINE
  5
DB
330
17
100
AcDbEntity
  8
POCKET
100
AcDbLine
 10
148.94139775486735
 20
34.8627356235859
 30
0.0
 11
150.1037660433153
 21
34.91381036704318
 31
0.0
  0
LINE
  5
DC
330
17
100
AcDbEntity
  8
POCKET
100
AcDbLine
 10
150.1037660433153
 20
34.91381036704318
 30
0.0
 11
151.30169046025205
 21
34.74403382676873
 31
0.0
  0
LINE
  5
DD
330
17
100
AcDbEntity
  8
POCKET
100
AcDbLine
 10
151.30169046025205
 20
34.74403382676873
 30
0.0
 11
161.98458163925454
 21
32.207319714814574
 31
0.0
  0
LINE
  5
DE
330
17
100
AcDbEntity
  8
POCKET
100
AcDbLine
 10
161.98458163925454
 20
32.207319714814574
 30
0.0
 11
162.1443221600996
 21
32.18281039282813
 31
0.0
  0
LINE
  5
DF
330
17
100
AcDbEntity
  8
POCKET
100
AcDbLine
 10
162.1443221600996
 20
32.18281039282813
 30
0.0
 11
162.30592464526794
 21
32.18435235635128
 31
0.0
  0
LINE
  5
E0
330
17
100
AcDbEntity
  8
POCKET
100
AcDbLine
 10
162.30592464526794
 20
32.18435235635128
 30
0.0
 11
164.1099509037554
 21
32.34794484601233
 31
0.0
  0
LINE
  5
E1
330
17
100
AcDbEntity
  8
POCKET
100
AcDbLine
 10
164.1099509037554
 20
32.34794484601233
 30
0.0
 11
164.3132946086852
 21
32.38794696449758
 31
0.0
  0
LINE
  5
E2
330
17
100
AcDbEntity
  8
POCKET
100
AcDbLine
 10
164.3132946086852
 20
32.38794696449758
 30
0.0
 11
164.50402617357608
 21
32.469004363741334
 31
0.0
  0
LINE
  5
E3
330
17
100
AcDbEntity
  8
POCKET
100
AcDbLine
 10
164.50402617357608
 20
32.469004363741334
 30
0.0
 11
164.5247869768045
 21
32.480499143215525
 31
0.0
  0
LINE
  5
E4
330
17
100
AcDbEntity
  8
POCKET
100
AcDbLine
 10
164.5247869768045
 20
32.480499143215525
 30
0.0
 11
164.65156339167285
 21
32.56384844717923
 31
0.0
  0
LINE
  5
E5
330
17
100
AcDbEntity
  8
POCKET
100
AcDbLine
 10
164.65156339167285
 20
32.56384844717923
 30
0.0
 11
164.7642712218778
 21
32.66541768882551
 31
0.0
  0
LINE
  5
E6
330
17
100
AcDbEntity
  8
POCKET
100
AcDbLine
 10
164.7642712218778
 20
32.66541768882551
 30
0.0
 11
165.20063397096615
 21
33.1232434648296
 31
0.0
  0
LINE
  5
E7
330
17
100
AcDbEntity
  8
POCKET
100
AcDbLine
 10
165.20063397096615
 20
33.1232434648296
 30
0.0
 11
165.31662667785972
 21
33.270381379837616
 31
0.0
  0
LINE
  5
E8
330
17
100
AcDbEntity
  8
POCKET
100
AcDbLine
 10
165.31662667785972
 20
33.270381379837616
 30
0.0
 11
165.40313692092903
 21
33.436573593642876
 31
0.0
  0
LINE
  5
E9
330
17
100
AcDbEntity
  8
POCKET
100
AcDbLine
 10
165.40313692092903
 20
33.436573593642876
 30
0.0
 11
165.67973047432858
 21
34.11693829643552
 31
0.0
  0
ENDSEC
  0
SECTION
  2
OBJECTS
  0
DICTIONARY
  5
A
330
0
100
AcDbDictionary
281
1
  3
ACAD_COLOR
350
B
  3
ACAD_GROUP
350
C
  3
ACAD_LAYOUT
350
D
  3
ACAD_MATERIAL
350
E
  3
ACAD_MLEADERSTYLE
350
F
  3
ACAD_MLINESTYLE
350
10
  3
ACAD_PLOTSETTINGS
350
11
  3
ACAD_PLOTSTYLENAME
350
12
  3
ACAD_SCALELIST
350
14
  3
ACAD_TABLESTYLE
350
15
  3
ACAD_VISUALSTYLE
350
16
  3
EZDXF_META
350
2D
  0
DICTIONARY
  5
B
330
A
100
AcDbDictionary
281
1
  0
DICTIONARY
  5
C
330
A
100
AcDbDictionary
281
1
  0
DICTIONARY
  5
D
330
A
100
AcDbDictionary
281
1
  3
Model
350
1A
  3
Layout1
350
1E
  0
DICTIONARY
  5
E
330
A
100
AcDbDictionary
281
1
  3
ByBlock
350
1F
  3
ByLayer
350
20
  3
Global
350
21
  0
DICTIONARY
  5
F
330
A
100
AcDbDictionary
281
1
  3
Standard
350
2C
  0
DICTIONARY
  5
10
330
A
100
AcDbDictionary
281
1
  3
Standard
350
22
  0
DICTIONARY
  5
11
330
A
100
AcDbDictionary
281
1
  0
ACDBDICTIONARYWDFLT
  5
12
330
A
100
AcDbDictionary
281
1
  3
Normal
350
13
100
AcDbDictionaryWithDefault
340
13
  0
ACDBPLACEHOLDER
  5
13
330
12
  0
DICTIONARY
  5
14
330
A
100
AcDbDictionary
281
1
  0
DICTIONARY
  5
15
330
A
100
AcDbDictionary
281
1
  0
DICTIONARY
  5
16
330
A
100
AcDbDictionary
281
1
  0
LAYOUT
  5
1A
330
D
100
AcDbPlotSettings
  1

  4
A3
  6

 40
7.5
 41
20.0
 42
7.5
 43
20.0
 44
420.0
 45
297.0
 46
0.0
 47
0.0
 48
0.0
 49
0.0
140
0.0
141
0.0
142
1.0
143
1.0
 70
1024
 72
1
 73
0
 74
5
  7

 75
16
 76
0
 77
2
 78
300
147
1.0
148
0.0
149
0.0
100
AcDbLayout
  1
Model
 70
1
 71
0
 10
0.0
 20
0.0
 11
420.0
 21
297.0
 12
0.0
 22
0.0
 32
0.0
 14
1e+20
 24
1e+20
 34
1e+20
 15
-1e+20
 25
-1e+20
 35
-1e+20
146
0.0
 13
0.0
 23
0.0
 33
0.0
 16
1.0
 26
0.0
 36
0.0
 17
0.0
 27
1.0
 37
0.0
 76
1
330
17
  0
LAYOUT
  5
1E
330
D
100
AcDbPlotSettings
  1

  4
A3
  6

 40
7.5
 41
20.0
 42
7.5
 43
20.0
 44
420.0
 45
297.0
 46
0.0
 47
0.0
 48
0.0
 49
0.0
140
0.0
141
0.0
142
1.0
143
1.0
 70
0
 72
1
 73
0
 74
5
  7

 75
16
 76
0
 77
2
 78
300
147
1.0
148
0.0
149
0.0
100
AcDbLayout
  1
Layout1
 70
1
 71
1
 10
0.0
 20
0.0
 11
420.0
 21
297.0
 12
0.0
 22
0.0
 32
0.0
 14
1e+20
 24
1e+20
 34
1e+20
 15
-1e+20
 25
-1e+20
 35
-1e+20
146
0.0
 13
0.0
 23
0.0
 33
0.0
 16
1.0
 26
0.0
 36
0.0
 17
0.0
 27
1.0
 37
0.0
 76
1
330
1B
  0
MATERIAL
  5
1F
102
{ACAD_REACTORS
330
E
102
}
330
E
100
AcDbMaterial
  1
ByBlock
  2

 70
0
 40
1.0
 71
1
 41
1.0
 91
-1023410177
 42
1.0
 72
1
  3

 73
1
 74
1
 75
1
 44
0.5
 73
0
 45
1.0
 46
1.0
 77
1
  4

 78
1
 79
1
170
1
 48
1.0
171
1
  6

172
1
173
1
174
1
140
1.0
141
1.0
175
1
  7

176
1
177
1
178
1
143
1.0
179
1
  8

270
1
271
1
272
1
145
1.0
146
1.0
273
1
  9

274
1
275
1
276
1
 42
1.0
 72
1
  3

 73
1
 74
1
 75
1
 94
63
  0
MATERIAL
  5
20
102
{ACAD_REACTORS
330
E
102
}
330
E
100
AcDbMaterial
  1
ByLayer
  2

 70
0
 40
1.0
 71
1
 41
1.0
 91
-1023410177
 42
1.0
 72
1
  3

 73
1
 74
1
 75
1
 44
0.5
 73
0
 45
1.0
 46
1.0
 77
1
  4

 78
1
 79
1
170
1
 48
1.0
171
1
  6

172
1
173
1
174
1
140
1.0
141
1.0
175
1
  7

176
1
177
1
178
1
143
1.0
179
1
  8

270
1
271
1
272
1
145
1.0
146
1.0
273
1
  9

274
1
275
1
276
1
 42
1.0
 72
1
  3

 73
1
 74
1
 75
1
 94
63
  0
MATERIAL
  5
21
102
{ACAD_REACTORS
330
E
102
}
330
E
100
AcDbMaterial
  1
Global
  2

 70
0
 40
1.0
 71
1
 41
1.0
 91
-1023410177
 42
1.0
 72
1
  3

 73
1
 74
1
 75
1
 44
0.5
 73
0
 45
1.0
 46
1.0
 77
1
  4

 78
1
 79
1
170
1
 48
1.0
171
1
  6

172
1
173
1
174
1
140
1.0
141
1.0
175
1
  7

176
1
177
1
178
1
143
1.0
179
1
  8

270
1
271
1
272
1
145
1.0
146
1.0
273
1
  9

274
1
275
1
276
1
 42
1.0
 72
1
  3

 73
1
 74
1
 75
1
 94
63
  0
MLINESTYLE
  5
22
102
{ACAD_REACTORS
330
10
102
}
330
10
100
AcDbMlineStyle
  2
Standard
 70
0
  3

 62
256
 51
90.0
 52
90.0
 71
2
 49
0.5
 62
256
  6
BYLAYER
 49
-0.5
 62
256
  6
BYLAYER
  0
MLEADERSTYLE
  5
2C
102
{ACAD_REACTORS
330
F
102
}
330
F
100
AcDbMLeaderStyle
179
2
170
2
171
1
172
0
 90
2
 40
0.0
 41
0.0
173
1
 91
-1056964608
 92
-2
290
1
 42
2.0
291
1
 43
8.0
  3
Standard
 44
4.0
300

342
29
174
1
175
1
176
0
178
1
 93
-1056964608
 45
4.0
292
0
297
0
 46
4.0
 94
-1056964608
 47
1.0
 49
1.0
140
1.0
294
1
141
0.0
177
0
142
1.0
295
0
296
0
143
3.75
271
0
272
9
273
9
  0
DICTIONARY
  5
2D
330
A
100
AcDbDictionary
280
1
281
1
  3
CREATED_BY_EZDXF
350
2E
  3
WRITTEN_BY_EZDXF
350
ED
  0
DICTIONARYVAR
  5
2E
330
2D
100
DictionaryVariables
280
0
  1
1.4.4 @ 2026-09-04T20:57:33.356991+00:00
  0
DICTIONARYVAR
  5
ED
330
2D
100
DictionaryVariables
280
0
  1
1.4.4 @ 2026-09-04T20:57:33.363736+00:00
  0
ENDSEC
  0
EOF
