  0
SECTION
  2
HEADER
  9
$ACADVER
  1
AC1027
  9
$ACADMAINTVER
 70
105
  9
$DWGCODEPAGE
  3
ANSI_1252
  9
$LASTSAVEDBY
  1
ezdxf
  9
$REQUIREDVERSIONS
160
0
  9
$INSBASE
 10
0.0
 20
0.0
 30
0.0
  9
$EXTMIN
 10
1e+20
 20
1e+20
 30
1e+20
  9
$EXTMAX
 10
-1e+20
 20
-1e+20
 30
-1e+20
  9
$LIMMIN
 10
0.0
 20
0.0
  9
$LIMMAX
 10
420.0
 20
297.0
  9
$ORTHOMODE
 70
0
  9
$REGENMODE
 70
1
  9
$FILLMODE
 70
1
  9
$QTEXTMODE
 70
0
  9
$MIRRTEXT
 70
1
  9
$LTSCALE
 40
1.0
  9
$ATTMODE
 70
1
  9
$TEXTSIZE
 40
2.5
  9
$TRACEWID
 40
1.0
  9
$TEXTSTYLE
  7
Standard
  9
$CLAYER
  8
0
  9
$CELTYPE
  6
ByLayer
  9
$CECOLOR
 62
256
  9
$CELTSCALE
 40
1.0
  9
$DISPSILH
 70
0
  9
$DIMSCALE
 40
1.0
  9
$DIMASZ
 40
2.5
  9
$DIMEXO
 40
0.625
  9
$DIMDLI
 40
3.75
  9
$DIMRND
 40
0.0
  9
$DIMDLE
 40
0.0
  9
$DIMEXE
 40
1.25
  9
$DIMTP
 40
0.0
  9
$DIMTM
 40
0.0
  9
$DIMTXT
 40
2.5
  9
$DIMCEN
 40
2.5
  9
$DIMTSZ
 40
0.0
  9
$DIMTOL
 70
0
  9
$DIMLIM
 70
0
  9
$DIMTIH
 70
0
  9
$DIMTOH
 70
0
  9
$DIMSE1
 70
0
  9
$DIMSE2
 70
0
  9
$DIMTAD
 70
1
  9
$DIMZIN
 70
8
  9
$DIMBLK
  1

  9
$DIMASO
 70
1
  9
$DIMSHO
 70
1
  9
$DIMPOST
  1

  9
$DIMAPOST
  1

  9
$DIMALT
 70
0
  9
$DIMALTD
 70
3
  9
$DIMALTF
 40
0.03937007874
  9
$DIMLFAC
 40
1.0
  9
$DIMTOFL
 70
1
  9
$DIMTVP
 40
0.0
  9
$DIMTIX
 70
0
  9
$DIMSOXD
 70
0
  9
$DIMSAH
 70
0
  9
$DIMBLK1
  1

  9
$DIMBLK2
  1

  9
$DIMSTYLE
  2
ISO-25
  9
$DIMCLRD
 70
0
  9
$DIMCLRE
 70
0
  9
$DIMCLRT
 70
0
  9
$DIMTFAC
 40
1.0
  9
$DIMGAP
 40
0.625
  9
$DIMJUST
 70
0
  9
$DIMSD1
 70
0
  9
$DIMSD2
 70
0
  9
$DIMTOLJ
 70
0
  9
$DIMTZIN
 70
8
  9
$DIMALTZ
 70
0
  9
$DIMALTTZ
 70
0
  9
$DIMUPT
 70
0
  9
$DIMDEC
 70
2
  9
$DIMTDEC
 70
2
  9
$DIMALTU
 70
2
  9
$DIMALTTD
 70
3
  9
$DIMTXSTY
  7
Standard
  9
$DIMAUNIT
 70
0
  9
$DIMADEC
 70
0
  9
$DIMALTRND
 40
0.0
  9
$DIMAZIN
 70
0
  9
$DIMDSEP
 70
44
  9
$DIMATFIT
 70
3
  9
$DIMFRAC
 70
0
  9
$DIMLDRBLK
  1

  9
$DIMLUNIT
 70
2
  9
$DIMLWD
 70
-2
  9
$DIMLWE
 70
-2
  9
$DIMTMOVE
 70
0
  9
$DIMFXL
 40
1.0
  9
$DIMFXLON
 70
0
  9
$DIMJOGANG
 40
0.785398163397
  9
$DIMTFILL
 70
0
  9
$DIMTFILLCLR
 70
0
  9
$DIMARCSYM
 70
0
  9
$DIMLTYPE
  6

  9
$DIMLTEX1
  6

  9
$DIMLTEX2
  6

  9
$DIMTXTDIRECTION
 70
0
  9
$LUNITS
 70
2
  9
$LUPREC
 70
4
  9
$SKETCHINC
 40
1.0
  9
$FILLETRAD
 40
10.0
  9
$AUNITS
 70
0
  9
$AUPREC
 70
2
  9
$MENU
  1
.
  9
$ELEVATION
 40
0.0
  9
$PELEVATION
 40
0.0
  9
$THICKNESS
 40
0.0
  9
$LIMCHECK
 70
0
  9
$CHAMFERA
 40
0.0
  9
$CHAMFERB
 40
0.0
  9
$CHAMFERC
 40
0.0
  9
$CHAMFERD
 40
0.0
  9
$SKPOLY
 70
0
  9
$TDCREATE
 40
2461302.5435532406
  9
$TDUCREATE
 40
2458532.153996898
  9
$TDUPDATE
 40
2461302.5435532406
  9
$TDUUPDATE
 40
2458532.1544311
  9
$TDINDWG
 40
0.0
  9
$TDUSRTIMER
 40
0.0
  9
$USRTIMER
 70
1
  9
$ANGBASE
 50
0.0
  9
$ANGDIR
 70
0
  9
$PDMODE
 70
0
  9
$PDSIZE
 40
0.0
  9
$PLINEWID
 40
0.0
  9
$SPLFRAME
 70
0
  9
$SPLINETYPE
 70
6
  9
$SPLINESEGS
 70
8
  9
$HANDSEED
  5
F1
  9
$SURFTAB1
 70
6
  9
$SURFTAB2
 70
6
  9
$SURFTYPE
 70
6
  9
$SURFU
 70
6
  9
$SURFV
 70
6
  9
$UCSBASE
  2

  9
$UCSNAME
  2

  9
$UCSORG
 10
0.0
 20
0.0
 30
0.0
  9
$UCSXDIR
 10
1.0
 20
0.0
 30
0.0
  9
$UCSYDIR
 10
0.0
 20
1.0
 30
0.0
  9
$UCSORTHOREF
  2

  9
$UCSORTHOVIEW
 70
0
  9
$UCSORGTOP
 10
0.0
 20
0.0
 30
0.0
  9
$UCSORGBOTTOM
 10
0.0
 20
0.0
 30
0.0
  9
$UCSORGLEFT
 10
0.0
 20
0.0
 30
0.0
  9
$UCSORGRIGHT
 10
0.0
 20
0.0
 30
0.0
  9
$UCSORGFRONT
 10
0.0
 20
0.0
 30
0.0
  9
$UCSORGBACK
 10
0.0
 20
0.0
 30
0.0
  9
$PUCSBASE
  2

  9
$PUCSNAME
  2

  9
$PUCSORG
 10
0.0
 20
0.0
 30
0.0
  9
$PUCSXDIR
 10
1.0
 20
0.0
 30
0.0
  9
$PUCSYDIR
 10
0.0
 20
1.0
 30
0.0
  9
$PUCSORTHOREF
  2

  9
$PUCSORTHOVIEW
 70
0
  9
$PUCSORGTOP
 10
0.0
 20
0.0
 30
0.0
  9
$PUCSORGBOTTOM
 10
0.0
 20
0.0
 30
0.0
  9
$PUCSORGLEFT
 10
0.0
 20
0.0
 30
0.0
  9
$PUCSORGRIGHT
 10
0.0
 20
0.0
 30
0.0
  9
$PUCSORGFRONT
 10
0.0
 20
0.0
 30
0.0
  9
$PUCSORGBACK
 10
0.0
 20
0.0
 30
0.0
  9
$USERI1
 70
0
  9
$USERI2
 70
0
  9
$USERI3
 70
0
  9
$USERI4
 70
0
  9
$USERI5
 70
0
  9
$USERR1
 40
0.0
  9
$USERR2
 40
0.0
  9
$USERR3
 40
0.0
  9
$USERR4
 40
0.0
  9
$USERR5
 40
0.0
  9
$WORLDVIEW
 70
1
  9
$SHADEDGE
 70
3
  9
$SHADEDIF
 70
70
  9
$TILEMODE
 70
1
  9
$MAXACTVP
 70
64
  9
$PINSBASE
 10
0.0
 20
0.0
 30
0.0
  9
$PLIMCHECK
 70
0
  9
$PEXTMIN
 10
1e+20
 20
1e+20
 30
1e+20
  9
$PEXTMAX
 10
-1e+20
 20
-1e+20
 30
-1e+20
  9
$PLIMMIN
 10
0.0
 20
0.0
  9
$PLIMMAX
 10
420.0
 20
297.0
  9
$UNITMODE
 70
0
  9
$VISRETAIN
 70
1
  9
$PLINEGEN
 70
0
  9
$PSLTSCALE
 70
1
  9
$TREEDEPTH
 70
3020
  9
$CMLSTYLE
  2
Standard
  9
$CMLJUST
 70
0
  9
$CMLSCALE
 40
20.0
  9
$PROXYGRAPHICS
 70
1
  9
$MEASUREMENT
 70
1
  9
$CELWEIGHT
370
-1
  9
$ENDCAPS
280
0
  9
$JOINSTYLE
280
0
  9
$LWDISPLAY
290
0
  9
$INSUNITS
 70
4
  9
$HYPERLINKBASE
  1

  9
$STYLESHEET
  1

  9
$XEDIT
290
1
  9
$CEPSNTYPE
380
0
  9
$PSTYLEMODE
290
1
  9
$FINGERPRINTGUID
  2
{9D8B9665-1226-449B-8866-CC2722F51331}
  9
$VERSIONGUID
  2
{1B5998FF-3BC4-4ADE-AA79-6C65775AAC21}
  9
$EXTNAMES
290
1
  9
$PSVPSCALE
 40
0.0
  9
$OLESTARTUP
290
0
  9
$SORTENTS
280
127
  9
$INDEXCTL
280
0
  9
$HIDETEXT
280
1
  9
$XCLIPFRAME
280
1
  9
$HALOGAP
280
0
  9
$OBSCOLOR
 70
257
  9
$OBSLTYPE
280
0
  9
$INTERSECTIONDISPLAY
280
0
  9
$INTERSECTIONCOLOR
 70
257
  9
$DIMASSOC
280
2
  9
$PROJECTNAME
  1

  9
$CAMERADISPLAY
290
0
  9
$LENSLENGTH
 40
50.0
  9
$CAMERAHEIGHT
 40
0.0
  9
$STEPSPERSEC
 40
24.0
  9
$STEPSIZE
 40
100.0
  9
$3DDWFPREC
 40
2.0
  9
$PSOLWIDTH
 40
0.005
  9
$PSOLHEIGHT
 40
0.08
  9
$LOFTANG1
 40
1.570796326795
  9
$LOFTANG2
 40
1.570796326795
  9
$LOFTMAG1
 40
0.0
  9
$LOFTMAG2
 40
0.0
  9
$LOFTPARAM
 70
7
  9
$LOFTNORMALS
280
1
  9
$LATITUDE
 40
37.795
  9
$LONGITUDE
 40
-122.394
  9
$NORTHDIRECTION
 40
0.0
  9
$TIMEZONE
 70
-8000
  9
$LIGHTGLYPHDISPLAY
280
1
  9
$TILEMODELIGHTSYNCH
280
1
  9
$CMATERIAL
347
20
  9
$SOLIDHIST
280
0
  9
$SHOWHIST
280
1
  9
$DWFFRAME
280
2
  9
$DGNFRAME
280
2
  9
$REALWORLDSCALE
290
1
  9
$INTERFERECOLOR
 62
256
  9
$CSHADOW
280
0
  9
$SHADOWPLANELOCATION
 40
0.0
  0
ENDSEC
  0
SECTION
  2
CLASSES
  0
CLASS
  1
ACDBDICTIONARYWDFLT
  2
AcDbDictionaryWithDefault
  3
ObjectDBX Classes
 90
0
 91
0
280
0
281
0
  0
CLASS
  1
SUN
  2
AcDbSun
  3
SCENEOE
 90
1153
 91
0
280
0
281
0
  0
CLASS
  1
VISUALSTYLE
  2
AcDbVisualStyle
  3
ObjectDBX Classes
 90
4095
 91
0
280
0
281
0
  0
CLASS
  1
MATERIAL
  2
AcDbMaterial
  3
ObjectDBX Classes
 90
1153
 91
0
280
0
281
0
  0
CLASS
  1
SCALE
  2
AcDbScale
  3
ObjectDBX Classes
 90
1153
 91
0
280
0
281
0
  0
CLASS
  1
TABLESTYLE
  2
AcDbTableStyle
  3
ObjectDBX Classes
 90
4095
 91
0
280
0
281
0
  0
CLASS
  1
MLEADERSTYLE
  2
AcDbMLeaderStyle
  3
ACDB_MLEADERSTYLE_CLASS
 90
4095
 91
0
280
0
281
0
  0
CLASS
  1
DICTIONARYVAR
  2
AcDbDictionaryVar
  3
ObjectDBX Classes
 90
0
 91
0
280
0
281
0
  0
CLASS
  1
CELLSTYLEMAP
  2
AcDbCellStyleMap
  3
ObjectDBX Classes
 90
1152
 91
0
280
0
281
0
  0
CLASS
  1
MENTALRAYRENDERSETTINGS
  2
AcDbMentalRayRenderSettings
  3
SCENEOE
 90
1024
 91
0
280
0
281
0
  0
CLASS
  1
ACDBDETAILVIEWSTYLE
  2
AcDbDetailViewStyle
  3
ObjectDBX Classes
 90
1025
 91
0
280
0
281
0
  0
CLASS
  1
ACDBSECTIONVIEWSTYLE
  2
AcDbSectionViewStyle
  3
ObjectDBX Classes
 90
1025
 91
0
280
0
281
0
  0
CLASS
  1
RASTERVARIABLES
  2
AcDbRasterVariables
  3
ISM
 90
0
 91
0
280
0
281
0
  0
CLASS
  1
ACDBPLACEHOLDER
  2
AcDbPlaceHolder
  3
ObjectDBX Classes
 90
0
 91
0
280
0
281
0
  0
CLASS
  1
LAYOUT
  2
AcDbLayout
  3
ObjectDBX Classes
 90
0
 91
0
280
0
281
0
  0
ENDSEC
  0
SECTION
  2
TABLES
  0
TABLE
  2
VPORT
  5
8
330
0
100
AcDbSymbolTable
 70
1
  0
VPORT
  5
ED
330
8
100
AcDbSymbolTableRecord
100
AcDbViewportTableRecord
  2
*Active
 70
0
 10
0.0
 20
0.0
 11
1.0
 21
1.0
 12
53.067141778430354
 22
43.33087817309594
 13
0.0
 23
0.0
 14
0.5
 24
0.5
 15
0.5
 25
0.5
 16
0.0
 26
0.0
 36
1.0
 17
0.0
 27
0.0
 37
0.0
 40
86.66175634619188
 41
1.34
 42
50.0
 43
0.0
 44
0.0
 50
0.0
 51
0.0
 71
0
 72
1000
 73
1
 74
3
 75
0
 76
0
 77
0
 78
0
281
0
 65
1
110
0.0
120
0.0
130
0.0
111
1.0
121
0.0
131
0.0
112
0.0
122
1.0
132
0.0
 79
0
146
0.0
  0
ENDTAB
  0
TABLE
  2
LTYPE
  5
2
330
0
100
AcDbSymbolTable
 70
3
  0
LTYPE
  5
24
330
2
100
AcDbSymbolTableRecord
100
AcDbLinetypeTableRecord
  2
ByBlock
 70
0
  3

 72
65
 73
0
 40
0.0
  0
LTYPE
  5
25
330
2
100
AcDbSymbolTableRecord
100
AcDbLinetypeTableRecord
  2
ByLayer
 70
0
  3

 72
65
 73
0
 40
0.0
  0
LTYPE
  5
26
330
2
100
AcDbSymbolTableRecord
100
AcDbLinetypeTableRecord
  2
Continuous
 70
0
  3

 72
65
 73
0
 40
0.0
  0
ENDTAB
  0
TABLE
  2
LAYER
  5
1
330
0
100
AcDbSymbolTable
 70
3
  0
LAYER
  5
27
330
1
100
AcDbSymbolTableRecord
100
AcDbLayerTableRecord
  2
0
 70
0
 62
7
  6
Continuous
370
-3
390
13
347
21
  0
LAYER
  5
28
330
1
100
AcDbSymbolTableRecord
100
AcDbLayerTableRecord
  2
Defpoints
 70
0
 62
7
  6
Continuous
290
0
370
-3
390
13
347
21
  0
LAYER
  5
2F
330
1
100
AcDbSymbolTableRecord
100
AcDbLayerTableRecord
  2
POCKET
 70
0
 62
7
  6
Continuous
370
-3
390
13
347
21
  0
ENDTAB
  0
TABLE
  2
STYLE
  5
5
330
0
100
AcDbSymbolTable
 70
1
  0
STYLE
  5
29
330
5
100
AcDbSymbolTableRecord
100
AcDbTextStyleTableRecord
  2
Standard
 70
0
 40
0.0
 41
1.0
 50
0.0
 71
0
 42
2.5
  3
txt
  4

  0
ENDTAB
  0
TABLE
  2
VIEW
  5
7
330
0
100
AcDbSymbolTable
 70
0
  0
ENDTAB
  0
TABLE
  2
UCS
  5
6
330
0
100
AcDbSymbolTable
 70
0
  0
ENDTAB
  0
TABLE
  2
APPID
  5
3
330
0
100
AcDbSymbolTable
 70
3
  0
APPID
  5
2A
330
3
100
AcDbSymbolTableRecord
100
AcDbRegAppTableRecord
  2
ACAD
 70
0
  0
APPID
  5
EE
330
3
100
AcDbSymbolTableRecord
100
AcDbRegAppTableRecord
  2
HATCHBACKGROUNDCOLOR
 70
0
  0
APPID
  5
EF
330
3
100
AcDbSymbolTableRecord
100
AcDbRegAppTableRecord
  2
EZDXF
 70
0
  0
ENDTAB
  0
TABLE
  2
DIMSTYLE
  5
4
330
0
100
AcDbSymbolTable
 70
1
100
AcDbDimStyleTable
  0
DIMSTYLE
105
2B
330
4
100
AcDbSymbolTableRecord
100
AcDbDimStyleTableRecord
  2
Standard
 70
0
 40
1.0
 41
2.5
 42
0.625
 43
3.75
 44
1.25
 45
0.0
 46
0.0
 47
0.0
 48
0.0
 49
2.5
140
2.5
141
2.5
142
0.0
143
0.03937007874
144
1.0
145
0.0
146
1.0
147
0.625
148
0.0
 69
0
 70
0
 71
0
 72
0
 73
0
 74
0
 75
0
 76
0
 77
1
 78
8
 79
3
170
0
171
3
172
1
173
0
174
0
175
0
176
0
177
0
178
0
179
2
271
2
272
2
273
2
274
3
275
0
276
0
277
2
278
44
279
0
280
0
281
0
282
0
283
0
284
8
285
0
286
0
288
0
289
3
290
0
371
-2
372
-2
  0
ENDTAB
  0
TABLE
  2
BLOCK_RECORD
  5
9
330
0
100
AcDbSymbolTable
 70
2
  0
BLOCK_RECORD
  5
17
330
9
100
AcDbSymbolTableRecord
100
AcDbBlockTableRecord
  2
*Model_Space
340
1A
 70
0
280
1
281
0
  0
BLOCK_RECORD
  5
1B
330
9
100
AcDbSymbolTableRecord
100
AcDbBlockTableRecord
  2
*Paper_Space
340
1E
 70
0
280
1
281
0
  0
ENDTAB
  0
ENDSEC
  0
SECTION
  2
BLOCKS
  0
BLOCK
  5
18
330
17
100
AcDbEntity
  8
0
100
AcDbBlockBegin
  2
*Model_Space
 70
0
 10
0.0
 20
0.0
 30
0.0
  3
*Model_Space
  1

  0
ENDBLK
  5
19
330
17
100
AcDbEntity
  8
0
100
AcDbBlockEnd
  0
BLOCK
  5
1C
330
1B
100
AcDbEntity
  8
0
100
AcDbBlockBegin
  2
*Paper_Space
 70
0
 10
0.0
 20
0.0
 30
0.0
  3
*Paper_Space
  1

  0
ENDBLK
  5
1D
330
1B
100
AcDbEntity
  8
0
100
AcDbBlockEnd
  0
ENDSEC
  0
SECTION
  2
ENTITIES
  0
LINE
  5
30
330
17
100
AcDbEntity
  8
POCKET
100
AcDbLine
 10
90.41301270531696
 20
7.522470183529399
 30
0.0
 11
95.05886056837448
 21
11.588930269811305
 31
0.0
  0
LINE
  5
31
330
17
100
AcDbEntity
  8
POCKET
100
AcDbLine
 10
95.05886056837448
 20
11.588930269811305
 30
0.0
 11
95.12509023227966
 21
11.652500283436007
 31
0.0
  0
LINE
  5
32
330
17
100
AcDbEntity
  8
POCKET
100
AcDbLine
 10
95.12509023227966
 20
11.652500283436007
 30
0.0
 11
95.18521114889705
 21
11.72187600251931
 31
0.0
  0
LINE
  5
33
330
17
100
AcDbEntity
  8
POCKET
100
AcDbLine
 10
95.18521114889705
 20
11.72187600251931
 30
0.0
 11
100.17381518779553
 21
18.042780189665734
 31
0.0
  0
LINE
  5
34
330
17
100
AcDbEntity
  8
POCKET
100
AcDbLine
 10
100.17381518779553
 20
18.042780189665734
 30
0.0
 11
100.23905521147287
 21
18.135873237783983
 31
0.0
  0
LINE
  5
35
330
17
100
AcDbEntity
  8
POCKET
100
AcDbLine
 10
100.23905521147287
 20
18.135873237783983
 30
0.0
 11
100.2933082227558
 21
18.235769118900784
 31
0.0
  0
LINE
  5
36
330
17
100
AcDbEntity
  8
POCKET
100
AcDbLine
 10
100.2933082227558
 20
18.235769118900784
 30
0.0
 11
103.91985246620106
 21
25.925904153497648
 31
0.0
  0
LINE
  5
37
330
17
100
AcDbEntity
  8
POCKET
100
AcDbLine
 10
103.91985246620106
 20
25.925904153497648
 30
0.0
 11
103.95511725286337
 21
26.010538023077668
 31
0.0
  0
LINE
  5
38
330
17
100
AcDbEntity
  8
POCKET
100
AcDbLine
 10
103.95511725286337
 20
26.010538023077668
 30
0.0
 11
103.98248214977872
 21
26.098046076851258
 31
0.0
  0
LINE
  5
39
330
17
100
AcDbEntity
  8
POCKET
100
AcDbLine
 10
103.98248214977872
 20
26.098046076851258
 30
0.0
 11
105.58009810694983
 21
32.17156427089597
 31
0.0
  0
LINE
  5
3A
330
17
100
AcDbEntity
  8
POCKET
100
AcDbLine
 10
105.58009810694983
 20
32.17156427089597
 30
0.0
 11
105.59838721396835
 21
32.25564474859501
 31
0.0
  0
LINE
  5
3B
330
17
100
AcDbEntity
  8
POCKET
100
AcDbLine
 10
105.59838721396835
 20
32.25564474859501
 30
0.0
 11
105.60938047388811
 21
32.34098621801035
 31
0.0
  0
LINE
  5
3C
330
17
100
AcDbEntity
  8
POCKET
100
AcDbLine
 10
105.60938047388811
 20
32.34098621801035
 30
0.0
 11
106.13068578964678
 21
38.45394301221083
 31
0.0
  0
LINE
  5
3D
330
17
100
AcDbEntity
  8
POCKET
100
AcDbLine
 10
106.13068578964678
 20
38.45394301221083
 30
0.0
 11
106.13428355686071
 21
38.5327893991607
 31
0.0
  0
LINE
  5
3E
330
17
100
AcDbEntity
  8
POCKET
100
AcDbLine
 10
106.13428355686071
 20
38.5327893991607
 30
0.0
 11
106.13165174422724
 21
38.61167393646832
 31
0.0
  0
LINE
  5
3F
330
17
100
AcDbEntity
  8
POCKET
100
AcDbLine
 10
106.13165174422724
 20
38.61167393646832
 30
0.0
 11
105.63687975802378
 21
45.393650099923065
 31
0.0
  0
LINE
  5
40
330
17
100
AcDbEntity
  8
POCKET
100
AcDbLine
 10
105.63687975802378
 20
45.393650099923065
 30
0.0
 11
105.62677841077988
 21
45.48007874588411
 31
0.0
  0
LINE
  5
41
330
17
100
AcDbEntity
  8
POCKET
100
AcDbLine
 10
105.62677841077988
 20
45.48007874588411
 30
0.0
 11
105.60920167228826
 21
45.56530201924766
 31
0.0
  0
LINE
  5
42
330
17
100
AcDbEntity
  8
POCKET
100
AcDbLine
 10
105.60920167228826
 20
45.56530201924766
 30
0.0
 11
104.18153134130108
 21
51.229378062700754
 31
0.0
  0
LINE
  5
43
330
17
100
AcDbEntity
  8
POCKET
100
AcDbLine
 10
104.18153134130108
 20
51.229378062700754
 30
0.0
 11
104.16492605366551
 21
51.2877279733348
 31
0.0
  0
LINE
  5
44
330
17
100
AcDbEntity
  8
POCKET
100
AcDbLine
 10
104.16492605366551
 20
51.2877279733348
 30
0.0
 11
104.14481305628166
 21
51.34496358274624
 31
0.0
  0
LINE
  5
45
330
17
100
AcDbEntity
  8
POCKET
100
AcDbLine
 10
104.14481305628166
 20
51.34496358274624
 30
0.0
 11
102.71929360372789
 21
55.0392692401588
 31
0.0
  0
LINE
  5
46
330
17
100
AcDbEntity
  8
POCKET
100
AcDbLine
 10
102.71929360372789
 20
55.0392692401588
 30
0.0
 11
102.69614641267083
 21
55.094305275417064
 31
0.0
  0
LINE
  5
47
330
17
100
AcDbEntity
  8
POCKET
100
AcDbLine
 10
102.69614641267083
 20
55.094305275417064
 30
0.0
 11
102.66975598418193
 21
55.14786181483993
 31
0.0
  0
LINE
  5
48
330
17
100
AcDbEntity
  8
POCKET
100
AcDbLine
 10
102.66975598418193
 20
55.14786181483993
 30
0.0
 11
99.5603001666839
 21
61.00999668218797
 31
0.0
  0
LINE
  5
49
330
17
100
AcDbEntity
  8
POCKET
100
AcDbLine
 10
99.5603001666839
 20
61.00999668218797
 30
0.0
 11
99.84224982019313
 21
61.64625448060517
 31
0.0
  0
LINE
  5
4A
330
17
100
AcDbEntity
  8
POCKET
100
AcDbLine
 10
99.84224982019313
 20
61.64625448060517
 30
0.0
 11
101.68189861817203
 21
61.731887923807506
 31
0.0
  0
LINE
  5
4B
330
17
100
AcDbEntity
  8
POCKET
100
AcDbLine
 10
101.68189861817203
 20
61.731887923807506
 30
0.0
 11
102.2001165735658
 21
61.9055212558708
 31
0.0
  0
LINE
  5
4C
330
17
100
AcDbEntity
  8
POCKET
100
AcDbLine
 10
102.2001165735658
 20
61.9055212558708
 30
0.0
 11
102.5496546514575
 21
62.325665892156586
 31
0.0
  0
LINE
  5
4D
330
17
100
AcDbEntity
  8
POCKET
100
AcDbLine
 10
102.5496546514575
 20
62.325665892156586
 30
0.0
 11
103.07633716329971
 21
63.51419672125595
 31
0.0
  0
LINE
  5
4E
330
17
100
AcDbEntity
  8
POCKET
100
AcDbLine
 10
103.07633716329971
 20
63.51419672125595
 30
0.0
 11
103.14791876421921
 21
64.08704881350918
 31
0.0
  0
LINE
  5
4F
330
17
100
AcDbEntity
  8
POCKET
100
AcDbLine
 10
103.14791876421921
 20
64.08704881350918
 30
0.0
 11
102.89093751839081
 21
64.60400537307834
 31
0.0
  0
LINE
  5
50
330
17
100
AcDbEntity
  8
POCKET
100
AcDbLine
 10
102.89093751839081
 20
64.60400537307834
 30
0.0
 11
99.7330627628375
 21
67.96568056301534
 31
0.0
  0
LINE
  5
51
330
17
100
AcDbEntity
  8
POCKET
100
AcDbLine
 10
99.7330627628375
 20
67.96568056301534
 30
0.0
 11
98.72181696903644
 21
72.44048030623436
 31
0.0
  0
LINE
  5
52
330
17
100
AcDbEntity
  8
POCKET
100
AcDbLine
 10
98.72181696903644
 20
72.44048030623436
 30
0.0
 11
98.66268299092584
 21
72.62061505991166
 31
0.0
  0
LINE
  5
53
330
17
100
AcDbEntity
  8
POCKET
100
AcDbLine
 10
98.66268299092584
 20
72.62061505991166
 30
0.0
 11
98.57061338912851
 21
72.78635143272837
 31
0.0
  0
LINE
  5
54
330
17
100
AcDbEntity
  8
POCKET
100
AcDbLine
 10
98.57061338912851
 20
72.78635143272837
 30
0.0
 11
97.07262671316323
 21
74.96654098524995
 31
0.0
  0
LINE
  5
55
330
17
100
AcDbEntity
  8
POCKET
100
AcDbLine
 10
97.07262671316323
 20
74.96654098524995
 30
0.0
 11
97.42657911772213
 21
77.0022145991271
 31
0.0
  0
LINE
  5
56
330
17
100
AcDbEntity
  8
POCKET
100
AcDbLine
 10
97.42657911772213
 20
77.0022145991271
 30
0.0
 11
97.42422505305498
 21
77.3578511856212
 31
0.0
  0
LINE
  5
57
330
17
100
AcDbEntity
  8
POCKET
100
AcDbLine
 10
97.42422505305498
 20
77.3578511856212
 30
0.0
 11
97.29755547082684
 21
77.69017292763003
 31
0.0
  0
LINE
  5
58
330
17
100
AcDbEntity
  8
POCKET
100
AcDbLine
 10
97.29755547082684
 20
77.69017292763003
 30
0.0
 11
96.0362430541964
 21
79.7804099925712
 31
0.0
  0
LINE
  5
59
330
17
100
AcDbEntity
  8
POCKET
100
AcDbLine
 10
96.0362430541964
 20
79.7804099925712
 30
0.0
 11
95.86512514999538
 21
79.99222737230238
 31
0.0
  0
LINE
  5
5A
330
17
100
AcDbEntity
  8
POCKET
100
AcDbLine
 10
95.86512514999538
 20
79.99222737230238
 30
0.0
 11
95.6432102305987
 21
80.1500301227331
 31
0.0
  0
LINE
  5
5B
330
17
100
AcDbEntity
  8
POCKET
100
AcDbLine
 10
95.6432102305987
 20
80.1500301227331
 30
0.0
 11
92.89004940918369
 21
81.58881624006447
 31
0.0
  0
LINE
  5
5C
330
17
100
AcDbEntity
  8
POCKET
100
AcDbLine
 10
92.89004940918369
 20
81.58881624006447
 30
0.0
 11
92.71137405505263
 21
81.66122252341334
 31
0.0
  0
LINE
  5
5D
330
17
100
AcDbEntity
  8
POCKET
100
AcDbLine
 10
92.71137405505263
 20
81.66122252341334
 30
0.0
 11
92.52212504212608
 21
81.69799701387315
 31
0.0
  0
LINE
  5
5E
330
17
100
AcDbEntity
  8
POCKET
100
AcDbLine
 10
92.52212504212608
 20
81.69799701387315
 30
0.0
 11
91.09801987440673
 21
81.83424420278122
 31
0.0
  0
LINE
  5
5F
330
17
100
AcDbEntity
  8
POCKET
100
AcDbLine
 10
91.09801987440673
 20
81.83424420278122
 30
0.0
 11
90.49792655601505
 21
82.70762792794189
 31
0.0
  0
LINE
  5
60
330
17
100
AcDbEntity
  8
POCKET
100
AcDbLine
 10
90.49792655601505
 20
82.70762792794189
 30
0.0
 11
90.34333868573472
 21
82.88403986192444
 31
0.0
  0
LINE
  5
61
330
17
100
AcDbEntity
  8
POCKET
100
AcDbLine
 10
90.34333868573472
 20
82.88403986192444
 30
0.0
 11
90.15190972847938
 21
83.01958887303627
 31
0.0
  0
LINE
  5
62
330
17
100
AcDbEntity
  8
POCKET
100
AcDbLine
 10
90.15190972847938
 20
83.01958887303627
 30
0.0
 11
85.83411891474873
 21
85.37047859585678
 31
0.0
  0
LINE
  5
63
330
17
100
AcDbEntity
  8
POCKET
100
AcDbLine
 10
85.83411891474873
 20
85.37047859585678
 30
0.0
 11
85.41259134430763
 21
85.49061205703123
 31
0.0
  0
LINE
  5
64
330
17
100
AcDbEntity
  8
POCKET
100
AcDbLine
 10
85.41259134430763
 20
85.49061205703123
 30
0.0
 11
84.98017931438292
 21
85.41893655555327
 31
0.0
  0
LINE
  5
65
330
17
100
AcDbEntity
  8
POCKET
100
AcDbLine
 10
84.98017931438292
 20
85.41893655555327
 30
0.0
 11
81.56222781991596
 21
84.03305846954028
 31
0.0
  0
LINE
  5
66
330
17
100
AcDbEntity
  8
POCKET
100
AcDbLine
 10
81.56222781991596
 20
84.03305846954028
 30
0.0
 11
81.33274631233695
 21
84.16347783924215
 31
0.0
  0
LINE
  5
67
330
17
100
AcDbEntity
  8
POCKET
100
AcDbLine
 10
81.33274631233695
 20
84.16347783924215
 30
0.0
 11
80.4500879510428
 21
85.59869266153343
 31
0.0
  0
LINE
  5
68
330
17
100
AcDbEntity
  8
POCKET
100
AcDbLine
 10
80.4500879510428
 20
85.59869266153343
 30
0.0
 11
80.21600179464542
 21
85.86123201436361
 31
0.0
  0
LINE
  5
69
330
17
100
AcDbEntity
  8
POCKET
100
AcDbLine
 10
80.21600179464542
 20
85.86123201436361
 30
0.0
 11
79.90548956194502
 21
86.02647545219037
 31
0.0
  0
LINE
  5
6A
330
17
100
AcDbEntity
  8
POCKET
100
AcDbLine
 10
79.90548956194502
 20
86.02647545219037
 30
0.0
 11
78.0873779637472
 21
86.61339130348296
 31
0.0
  0
LINE
  5
6B
330
17
100
AcDbEntity
  8
POCKET
100
AcDbLine
 10
78.0873779637472
 20
86.61339130348296
 30
0.0
 11
77.65015891914032
 21
86.65326045589373
 31
0.0
  0
LINE
  5
6C
330
17
100
AcDbEntity
  8
POCKET
100
AcDbLine
 10
77.65015891914032
 20
86.65326045589373
 30
0.0
 11
77.23799993348479
 21
86.50201557887536
 31
0.0
  0
LINE
  5
6D
330
17
100
AcDbEntity
  8
POCKET
100
AcDbLine
 10
77.23799993348479
 20
86.50201557887536
 30
0.0
 11
76.93034466869216
 21
86.18880912886789
 31
0.0
  0
LINE
  5
6E
330
17
100
AcDbEntity
  8
POCKET
100
AcDbLine
 10
76.93034466869216
 20
86.18880912886789
 30
0.0
 11
75.13931053979286
 21
83.30096454321767
 31
0.0
  0
LINE
  5
6F
330
17
100
AcDbEntity
  8
POCKET
100
AcDbLine
 10
75.13931053979286
 20
83.30096454321767
 30
0.0
 11
73.68677463120966
 21
82.40765369882155
 31
0.0
  0
LINE
  5
70
330
17
100
AcDbEntity
  8
POCKET
100
AcDbLine
 10
73.68677463120966
 20
82.40765369882155
 30
0.0
 11
73.45769359353946
 21
82.21393713692633
 31
0.0
  0
LINE
  5
71
330
17
100
AcDbEntity
  8
POCKET
100
AcDbLine
 10
73.45769359353946
 20
82.21393713692633
 30
0.0
 11
73.29638046106564
 21
81.96098990633459
 31
0.0
  0
LINE
  5
72
330
17
100
AcDbEntity
  8
POCKET
100
AcDbLine
 10
73.29638046106564
 20
81.96098990633459
 30
0.0
 11
71.64506264917213
 21
78.2345663324602
 31
0.0
  0
LINE
  5
73
330
17
100
AcDbEntity
  8
POCKET
100
AcDbLine
 10
71.64506264917213
 20
78.2345663324602
 30
0.0
 11
62.03442923838661
 21
77.87128623471555
 31
0.0
  0
LINE
  5
74
330
17
100
AcDbEntity
  8
POCKET
100
AcDbLine
 10
62.03442923838661
 20
77.87128623471555
 30
0.0
 11
61.94051044858641
 21
77.86329061546303
 31
0.0
  0
LINE
  5
75
330
17
100
AcDbEntity
  8
POCKET
100
AcDbLine
 10
61.94051044858641
 20
77.86329061546303
 30
0.0
 11
61.84776169525879
 21
77.8464877061632
 31
0.0
  0
LINE
  5
76
330
17
100
AcDbEntity
  8
POCKET
100
AcDbLine
 10
61.84776169525879
 20
77.8464877061632
 30
0.0
 11
56.00083475502122
 21
76.49984545392098
 31
0.0
  0
LINE
  5
77
330
17
100
AcDbEntity
  8
POCKET
100
AcDbLine
 10
56.00083475502122
 20
76.49984545392098
 30
0.0
 11
55.91467216406481
 21
76.47589737054157
 31
0.0
  0
LINE
  5
78
330
17
100
AcDbEntity
  8
POCKET
100
AcDbLine
 10
55.91467216406481
 20
76.47589737054157
 30
0.0
 11
55.83099362119443
 21
76.44434734295108
 31
0.0
  0
LINE
  5
79
330
17
100
AcDbEntity
  8
POCKET
100
AcDbLine
 10
55.83099362119443
 20
76.44434734295108
 30
0.0
 11
48.80808409993825
 21
73.4312522803536
 31
0.0
  0
LINE
  5
7A
330
17
100
AcDbEntity
  8
POCKET
100
AcDbLine
 10
48.80808409993825
 20
73.4312522803536
 30
0.0
 11
48.71482981579742
 21
73.38536556886802
 31
0.0
  0
LINE
  5
7B
330
17
100
AcDbEntity
  8
POCKET
100
AcDbLine
 10
48.71482981579742
 20
73.38536556886802
 30
0.0
 11
48.626841869797815
 21
73.33004764084873
 31
0.0
  0
LINE
  5
7C
330
17
100
AcDbEntity
  8
POCKET
100
AcDbLine
 10
48.626841869797815
 20
73.33004764084873
 30
0.0
 11
42.5942829996053
 21
69.08457905279604
 31
0.0
  0
LINE
  5
7D
330
17
100
AcDbEntity
  8
POCKET
100
AcDbLine
 10
42.5942829996053
 20
69.08457905279604
 30
0.0
 11
40.41520702007738
 21
68.61633364152412
 31
0.0
  0
LINE
  5
7E
330
17
100
AcDbEntity
  8
POCKET
100
AcDbLine
 10
40.41520702007738
 20
68.61633364152412
 30
0.0
 11
36.587568572947454
 21
70.00943709340798
 31
0.0
  0
LINE
  5
7F
330
17
100
AcDbEntity
  8
POCKET
100
AcDbLine
 10
36.587568572947454
 20
70.00943709340798
 30
0.0
 11
24.81232993500954
 21
75.65364740822223
 31
0.0
  0
LINE
  5
80
330
17
100
AcDbEntity
  8
POCKET
100
AcDbLine
 10
24.81232993500954
 20
75.65364740822223
 30
0.0
 11
24.506830538650945
 21
76.15991861681923
 31
0.0
  0
LINE
  5
81
330
17
100
AcDbEntity
  8
POCKET
100
AcDbLine
 10
24.506830538650945
 20
76.15991861681923
 30
0.0
 11
24.533962937857062
 21
76.44351632060835
 31
0.0
  0
LINE
  5
82
330
17
100
AcDbEntity
  8
POCKET
100
AcDbLine
 10
24.533962937857062
 20
76.44351632060835
 30
0.0
 11
24.749495016458926
 21
76.68009354452322
 31
0.0
  0
LINE
  5
83
330
17
100
AcDbEntity
  8
POCKET
100
AcDbLine
 10
24.749495016458926
 20
76.68009354452322
 30
0.0
 11
25.702292344288537
 21
76.93111989562439
 31
0.0
  0
LINE
  5
84
330
17
100
AcDbEntity
  8
POCKET
100
AcDbLine
 10
25.702292344288537
 20
76.93111989562439
 30
0.0
 11
26.055252599975315
 21
77.10397742427756
 31
0.0
  0
LINE
  5
85
330
17
100
AcDbEntity
  8
POCKET
100
AcDbLine
 10
26.055252599975315
 20
77.10397742427756
 30
0.0
 11
26.31434262768504
 21
77.39949903913497
 31
0.0
  0
LINE
  5
86
330
17
100
AcDbEntity
  8
POCKET
100
AcDbLine
 10
26.31434262768504
 20
77.39949903913497
 30
0.0
 11
27.266960272546672
 21
79.05555447984288
 31
0.0
  0
LINE
  5
87
330
17
100
AcDbEntity
  8
POCKET
100
AcDbLine
 10
27.266960272546672
 20
79.05555447984288
 30
0.0
 11
27.37468457640193
 21
79.3299781446961
 31
0.0
  0
LINE
  5
88
330
17
100
AcDbEntity
  8
POCKET
100
AcDbLine
 10
27.37468457640193
 20
79.3299781446961
 30
0.0
 11
27.397708518370916
 21
79.62388760621235
 31
0.0
  0
LINE
  5
89
330
17
100
AcDbEntity
  8
POCKET
100
AcDbLine
 10
27.397708518370916
 20
79.62388760621235
 30
0.0
 11
27.12952778597457
 21
83.46160556025372
 31
0.0
  0
LINE
  5
8A
330
17
100
AcDbEntity
  8
POCKET
100
AcDbLine
 10
27.12952778597457
 20
83.46160556025372
 30
0.0
 11
26.974258154123053
 21
83.93090797983312
 31
0.0
  0
LINE
  5
8B
330
17
100
AcDbEntity
  8
POCKET
100
AcDbLine
 10
26.974258154123053
 20
83.93090797983312
 30
0.0
 11
26.613170211473694
 21
84.26850080746968
 31
0.0
  0
LINE
  5
8C
330
17
100
AcDbEntity
  8
POCKET
100
AcDbLine
 10
26.613170211473694
 20
84.26850080746968
 30
0.0
 11
22.478230294527588
 21
86.53836245154523
 31
0.0
  0
LINE
  5
8D
330
17
100
AcDbEntity
  8
POCKET
100
AcDbLine
 10
22.478230294527588
 20
86.53836245154523
 30
0.0
 11
22.244880992472332
 21
86.6305527000395
 31
0.0
  0
LINE
  5
8E
330
17
100
AcDbEntity
  8
POCKET
100
AcDbLine
 10
22.244880992472332
 20
86.6305527000395
 30
0.0
 11
21.995928645317484
 21
86.66175634619188
 31
0.0
  0
LINE
  5
8F
330
17
100
AcDbEntity
  8
POCKET
100
AcDbLine
 10
21.995928645317484
 20
86.66175634619188
 30
0.0
 11
20.026158259277004
 21
86.65960546775844
 31
0.0
  0
LINE
  5
90
330
17
100
AcDbEntity
  8
POCKET
100
AcDbLine
 10
20.026158259277004
 20
86.65960546775844
 30
0.0
 11
19.806030672674087
 21
86.63483009956585
 31
0.0
  0
LINE
  5
91
330
17
100
AcDbEntity
  8
POCKET
100
AcDbLine
 10
19.806030672674087
 20
86.63483009956585
 30
0.0
 11
19.596758322475903
 21
86.56220051402914
 31
0.0
  0
LINE
  5
92
330
17
100
AcDbEntity
  8
POCKET
100
AcDbLine
 10
19.596758322475903
 20
86.56220051402914
 30
0.0
 11
17.932456390554137
 21
85.76841270900732
 31
0.0
  0
LINE
  5
93
330
17
100
AcDbEntity
  8
POCKET
100
AcDbLine
 10
17.932456390554137
 20
85.76841270900732
 30
0.0
 11
17.723481774950177
 21
85.6346372240384
 31
0.0
  0
LINE
  5
94
330
17
100
AcDbEntity
  8
POCKET
100
AcDbLine
 10
17.723481774950177
 20
85.6346372240384
 30
0.0
 11
17.55387672648441
 21
85.45352842281544
 31
0.0
  0
LINE
  5
95
330
17
100
AcDbEntity
  8
POCKET
100
AcDbLine
 10
17.55387672648441
 20
85.45352842281544
 30
0.0
 11
15.870930933701425
 21
83.13670010406715
 31
0.0
  0
LINE
  5
96
330
17
100
AcDbEntity
  8
POCKET
100
AcDbLine
 10
15.870930933701425
 20
83.13670010406715
 30
0.0
 11
15.819180219149208
 21
83.0578956674379
 31
0.0
  0
LINE
  5
97
330
17
100
AcDbEntity
  8
POCKET
100
AcDbLine
 10
15.819180219149208
 20
83.0578956674379
 30
0.0
 11
15.775080730149936
 21
82.97456793640482
 31
0.0
  0
LINE
  5
98
330
17
100
AcDbEntity
  8
POCKET
100
AcDbLine
 10
15.775080730149936
 20
82.97456793640482
 30
0.0
 11
11.986480329214768
 21
74.9187311082389
 31
0.0
  0
LINE
  5
99
330
17
100
AcDbEntity
  8
POCKET
100
AcDbLine
 10
11.986480329214768
 20
74.9187311082389
 30
0.0
 11
11.923482232528158
 21
74.7444122913601
 31
0.0
  0
LINE
  5
9A
330
17
100
AcDbEntity
  8
POCKET
100
AcDbLine
 10
11.923482232528158
 20
74.7444122913601
 30
0.0
 11
11.893737806204705
 21
74.56146126182804
 31
0.0
  0
LINE
  5
9B
330
17
100
AcDbEntity
  8
POCKET
100
AcDbLine
 10
11.893737806204705
 20
74.56146126182804
 30
0.0
 11
11.733832527148229
 21
72.22598908221855
 31
0.0
  0
LINE
  5
9C
330
17
100
AcDbEntity
  8
POCKET
100
AcDbLine
 10
11.733832527148229
 20
72.22598908221855
 30
0.0
 11
11.7427185772996
 21
72.00829006609331
 31
0.0
  0
LINE
  5
9D
330
17
100
AcDbEntity
  8
POCKET
100
AcDbLine
 10
11.7427185772996
 20
72.00829006609331
 30
0.0
 11
11.798543732617894
 21
71.79768290680647
 31
0.0
  0
LINE
  5
9E
330
17
100
AcDbEntity
  8
POCKET
100
AcDbLine
 10
11.798543732617894
 20
71.79768290680647
 30
0.0
 11
13.639999711725604
 21
67.02545673387928
 31
0.0
  0
LINE
  5
9F
330
17
100
AcDbEntity
  8
POCKET
100
AcDbLine
 10
13.639999711725604
 20
67.02545673387928
 30
0.0
 11
13.968874364379063
 21
64.5954675992539
 31
0.0
  0
LINE
  5
A0
330
17
100
AcDbEntity
  8
POCKET
100
AcDbLine
 10
13.968874364379063
 20
64.5954675992539
 30
0.0
 11
13.661872712723444
 21
64.27625652557872
 31
0.0
  0
LINE
  5
A1
330
17
100
AcDbEntity
  8
POCKET
100
AcDbLine
 10
13.661872712723444
 20
64.27625652557872
 30
0.0
 11
7.590317817517246
 21
62.22546731458854
 31
0.0
  0
LINE
  5
A2
330
17
100
AcDbEntity
  8
POCKET
100
AcDbLine
 10
7.590317817517246
 20
62.22546731458854
 30
0.0
 11
7.388109639317617
 21
62.13086553989567
 31
0.0
  0
LINE
  5
A3
330
17
100
AcDbEntity
  8
POCKET
100
AcDbLine
 10
7.388109639317617
 20
62.13086553989567
 30
0.0
 11
7.211927499324481
 21
61.993761576957716
 31
0.0
  0
LINE
  5
A4
330
17
100
AcDbEntity
  8
POCKET
100
AcDbLine
 10
7.211927499324481
 20
61.993761576957716
 30
0.0
 11
4.89940093744301
 21
59.73716659765977
 31
0.0
  0
LINE
  5
A5
330
17
100
AcDbEntity
  8
POCKET
100
AcDbLine
 10
4.89940093744301
 20
59.73716659765977
 30
0.0
 11
4.781926491644379
 21
59.599688648485255
 31
0.0
  0
LINE
  5
A6
330
17
100
AcDbEntity
  8
POCKET
100
AcDbLine
 10
4.781926491644379
 20
59.599688648485255
 30
0.0
 11
4.691131447264887
 21
59.44330229408995
 31
0.0
  0
LINE
  5
A7
330
17
100
AcDbEntity
  8
POCKET
100
AcDbLine
 10
4.691131447264887
 20
59.44330229408995
 30
0.0
 11
0.0922502588801323
 21
49.558956498078906
 31
0.0
  0
LINE
  5
A8
330
17
100
AcDbEntity
  8
POCKET
100
AcDbLine
 10
0.09225025888013239
 20
49.558956498078906
 30
0.0
 11
0.017770426864386898
 21
49.33036999158307
 31
0.0
  0
LINE
  5
A9
330
17
100
AcDbEntity
  8
POCKET
100
AcDbLine
 10
0.0177704268643869
 20
49.33036999158307
 30
0.0
 11
-2.503857613698879e-19
 21
49.09061334775829
 31
0.0
  0
LINE
  5
AA
330
17
100
AcDbEntity
  8
POCKET
100
AcDbLine
 10
0.0
 20
49.09061334775829
 30
0.0
 11
0.10397369647299136
 21
46.856963986188376
 31
0.0
  0
LINE
  5
AB
330
17
100
AcDbEntity
  8
POCKET
100
AcDbLine
 10
0.10397369647299137
 20
46.856963986188376
 30
0.0
 11
0.1446381291541654
 21
46.61754390506608
 31
0.0
  0
LINE
  5
AC
330
17
100
AcDbEntity
  8
POCKET
100
AcDbLine
 10
0.1446381291541654
 20
46.61754390506608
 30
0.0
 11
0.24181613480038688
 21
46.3949860327081
 31
0.0
  0
LINE
  5
AD
330
17
100
AcDbEntity
  8
POCKET
100
AcDbLine
 10
0.24181613480038688
 20
46.3949860327081
 30
0.0
 11
1.1166320185671705
 21
44.91353499757083
 31
0.0
  0
LINE
  5
AE
330
17
100
AcDbEntity
  8
POCKET
100
AcDbLine
 10
1.1166320185671705
 20
44.91353499757083
 30
0.0
 11
1.2841669468314678
 21
44.70159423949288
 31
0.0
  0
LINE
  5
AF
330
17
100
AcDbEntity
  8
POCKET
100
AcDbLine
 10
1.2841669468314678
 20
44.70159423949288
 30
0.0
 11
1.5023212387712714
 21
44.542234451492824
 31
0.0
  0
LINE
  5
B0
330
17
100
AcDbEntity
  8
POCKET
100
AcDbLine
 10
1.5023212387712714
 20
44.542234451492824
 30
0.0
 11
6.002962949286439
 21
42.11031664992738
 31
0.0
  0
LINE
  5
B1
330
17
100
AcDbEntity
  8
POCKET
100
AcDbLine
 10
6.002962949286439
 20
42.11031664992738
 30
0.0
 11
6.200185351613544
 21
42.02956009132184
 31
0.0
  0
LINE
  5
B2
330
17
100
AcDbEntity
  8
POCKET
100
AcDbLine
 10
6.200185351613544
 20
42.02956009132184
 30
0.0
 11
6.410041502993182
 21
41.99242932960586
 31
0.0
  0
LINE
  5
B3
330
17
100
AcDbEntity
  8
POCKET
100
AcDbLine
 10
6.410041502993182
 20
41.99242932960586
 30
0.0
 11
8.74551368260265
 21
41.832524050549345
 31
0.0
  0
LINE
  5
B4
330
17
100
AcDbEntity
  8
POCKET
100
AcDbLine
 10
8.74551368260265
 20
41.832524050549345
 30
0.0
 11
9.27238308007026
 21
41.94152551540248
 31
0.0
  0
LINE
  5
B5
330
17
100
AcDbEntity
  8
POCKET
100
AcDbLine
 10
9.27238308007026
 20
41.94152551540248
 30
0.0
 11
9.666511523632723
 21
42.30777058540758
 31
0.0
  0
LINE
  5
B6
330
17
100
AcDbEntity
  8
POCKET
100
AcDbLine
 10
9.666511523632723
 20
42.30777058540758
 30
0.0
 11
10.457073011004443
 21
43.59812423254647
 31
0.0
  0
LINE
  5
B7
330
17
100
AcDbEntity
  8
POCKET
100
AcDbLine
 10
10.457073011004443
 20
43.59812423254647
 30
0.0
 11
10.572902551673446
 21
43.87160322571886
 31
0.0
  0
LINE
  5
B8
330
17
100
AcDbEntity
  8
POCKET
100
AcDbLine
 10
10.572902551673446
 20
43.87160322571886
 30
0.0
 11
10.603301681883877
 21
44.167040418842255
 31
0.0
  0
LINE
  5
B9
330
17
100
AcDbEntity
  8
POCKET
100
AcDbLine
 10
10.603301681883877
 20
44.167040418842255
 30
0.0
 11
10.561712203294675
 21
45.060500163470245
 31
0.0
  0
LINE
  5
BA
330
17
100
AcDbEntity
  8
POCKET
100
AcDbLine
 10
10.561712203294675
 20
45.060500163470245
 30
0.0
 11
10.404790009628964
 21
45.553485218035995
 31
0.0
  0
LINE
  5
BB
330
17
100
AcDbEntity
  8
POCKET
100
AcDbLine
 10
10.404790009628964
 20
45.553485218035995
 30
0.0
 11
10.022500099177247
 21
45.902072743998815
 31
0.0
  0
LINE
  5
BC
330
17
100
AcDbEntity
  8
POCKET
100
AcDbLine
 10
10.022500099177247
 20
45.902072743998815
 30
0.0
 11
7.401339086756225
 21
47.25890578801754
 31
0.0
  0
LINE
  5
BD
330
17
100
AcDbEntity
  8
POCKET
100
AcDbLine
 10
7.401339086756225
 20
47.25890578801754
 30
0.0
 11
7.075824565145144
 21
48.00434690155256
 31
0.0
  0
LINE
  5
BE
330
17
100
AcDbEntity
  8
POCKET
100
AcDbLine
 10
7.075824565145144
 20
48.00434690155256
 30
0.0
 11
8.000389601120723
 21
49.916128489889886
 31
0.0
  0
LINE
  5
BF
330
17
100
AcDbEntity
  8
POCKET
100
AcDbLine
 10
8.000389601120723
 20
49.916128489889886
 30
0.0
 11
8.89321510695426
 21
50.220235672568045
 31
0.0
  0
LINE
  5
C0
330
17
100
AcDbEntity
  8
POCKET
100
AcDbLine
 10
8.89321510695426
 20
50.220235672568045
 30
0.0
 11
26.951005578659412
 21
41.58068760549109
 31
0.0
  0
LINE
  5
C1
330
17
100
AcDbEntity
  8
POCKET
100
AcDbLine
 10
26.951005578659412
 20
41.58068760549109
 30
0.0
 11
27.957116126246277
 21
40.52858634720599
 31
0.0
  0
LINE
  5
C2
330
17
100
AcDbEntity
  8
POCKET
100
AcDbLine
 10
27.957116126246277
 20
40.52858634720599
 30
0.0
 11
28.339524111236916
 21
39.5375567405178
 31
0.0
  0
LINE
  5
C3
330
17
100
AcDbEntity
  8
POCKET
100
AcDbLine
 10
28.339524111236916
 20
39.5375567405178
 30
0.0
 11
28.773264324986897
 21
33.03914602907212
 31
0.0
  0
LINE
  5
C4
330
17
100
AcDbEntity
  8
POCKET
100
AcDbLine
 10
28.773264324986897
 20
33.03914602907212
 30
0.0
 11
28.781147647750792
 21
32.963952354427605
 31
0.0
  0
LINE
  5
C5
330
17
100
AcDbEntity
  8
POCKET
100
AcDbLine
 10
28.781147647750792
 20
32.963952354427605
 30
0.0
 11
28.79468945261865
 21
32.88956919097467
 31
0.0
  0
LINE
  5
C6
330
17
100
AcDbEntity
  8
POCKET
100
AcDbLine
 10
28.79468945261865
 20
32.88956919097467
 30
0.0
 11
29.815068511447613
 21
28.281009049639493
 31
0.0
  0
LINE
  5
C7
330
17
100
AcDbEntity
  8
POCKET
100
AcDbLine
 10
29.815068511447613
 20
28.281009049639493
 30
0.0
 11
29.834064731709944
 21
28.20828097544698
 31
0.0
  0
LINE
  5
C8
330
17
100
AcDbEntity
  8
POCKET
100
AcDbLine
 10
29.834064731709944
 20
28.20828097544698
 30
0.0
 11
29.85847024734141
 21
28.13718526554287
 31
0.0
  0
LINE
  5
C9
330
17
100
AcDbEntity
  8
POCKET
100
AcDbLine
 10
29.85847024734141
 20
28.13718526554287
 30
0.0
 11
31.589458154013847
 21
23.65124268154183
 31
0.0
  0
LINE
  5
CA
330
17
100
AcDbEntity
  8
POCKET
100
AcDbLine
 10
31.589458154013847
 20
23.65124268154183
 30
0.0
 11
31.613004836312076
 21
23.595332026017086
 31
0.0
  0
LINE
  5
CB
330
17
100
AcDbEntity
  8
POCKET
100
AcDbLine
 10
31.613004836312076
 20
23.595332026017086
 30
0.0
 11
31.639898541193183
 21
23.540952100619673
 31
0.0
  0
LINE
  5
CC
330
17
100
AcDbEntity
  8
POCKET
100
AcDbLine
 10
31.639898541193183
 20
23.540952100619673
 30
0.0
 11
34.38696374982775
 21
18.385990147364392
 31
0.0
  0
LINE
  5
CD
330
17
100
AcDbEntity
  8
POCKET
100
AcDbLine
 10
34.38696374982775
 20
18.385990147364392
 30
0.0
 11
34.4316320758283
 21
18.310369565404017
 31
0.0
  0
LINE
  5
CE
330
17
100
AcDbEntity
  8
POCKET
100
AcDbLine
 10
34.4316320758283
 20
18.310369565404017
 30
0.0
 11
34.48276330841889
 21
18.238959980490762
 31
0.0
  0
LINE
  5
CF
330
17
100
AcDbEntity
  8
POCKET
100
AcDbLine
 10
34.48276330841889
 20
18.238959980490762
 30
0.0
 11
38.95651466685902
 21
12.537596215315348
 31
0.0
  0
LINE
  5
D0
330
17
100
AcDbEntity
  8
POCKET
100
AcDbLine
 10
38.95651466685902
 20
12.537596215315348
 30
0.0
 11
39.00147178312982
 21
12.48424515038814
 31
0.0
  0
LINE
  5
D1
330
17
100
AcDbEntity
  8
POCKET
100
AcDbLine
 10
39.00147178312982
 20
12.48424515038814
 30
0.0
 11
39.05003938074726
 21
12.43415855643402
 31
0.0
  0
LINE
  5
D2
330
17
100
AcDbEntity
  8
POCKET
100
AcDbLine
 10
39.05003938074726
 20
12.43415855643402
 30
0.0
 11
42.424534480046894
 21
9.188733649768828
 31
0.0
  0
LINE
  5
D3
330
17
100
AcDbEntity
  8
POCKET
100
AcDbLine
 10
42.424534480046894
 20
9.188733649768828
 30
0.0
 11
42.48690871447336
 21
9.133556140431082
 31
0.0
  0
LINE
  5
D4
330
17
100
AcDbEntity
  8
POCKET
100
AcDbLine
 10
42.48690871447336
 20
9.133556140431082
 30
0.0
 11
42.55365770993294
 21
9.083759812633327
 31
0.0
  0
LINE
  5
D5
330
17
100
AcDbEntity
  8
POCKET
100
AcDbLine
 10
42.55365770993294
 20
9.083759812633327
 30
0.0
 11
48.93479523652974
 21
4.724736542833309
 31
0.0
  0
LINE
  5
D6
330
17
100
AcDbEntity
  8
POCKET
100
AcDbLine
 10
48.93479523652974
 20
4.724736542833309
 30
0.0
 11
49.01224044430074
 21
4.676853049164011
 31
0.0
  0
LINE
  5
D7
330
17
100
AcDbEntity
  8
POCKET
100
AcDbLine
 10
49.01224044430074
 20
4.676853049164011
 30
0.0
 11
49.093720018307415
 21
4.636212328299821
 31
0.0
  0
LINE
  5
D8
330
17
100
AcDbEntity
  8
POCKET
100
AcDbLine
 10
49.093720018307415
 20
4.636212328299821
 30
0.0
 11
54.487821473450545
 21
2.2458840053235485
 31
0.0
  0
LINE
  5
D9
330
17
100
AcDbEntity
  8
POCKET
100
AcDbLine
 10
54.487821473450545
 20
2.2458840053235485
 30
0.0
 11
54.547922133989935
 21
2.2215504099891143
 31
0.0
  0
LINE
  5
DA
330
17
100
AcDbEntity
  8
POCKET
100
AcDbLine
 10
54.547922133989935
 20
2.2215504099891143
 30
0.0
 11
54.609473415150525
 21
2.2011628391023947
 31
0.0
  0
LINE
  5
DB
330
17
100
AcDbEntity
  8
POCKET
100
AcDbLine
 10
54.609473415150525
 20
2.2011628391023947
 30
0.0
 11
59.058128277429226
 21
0.886069718321875
 31
0.0
  0
LINE
  5
DC
330
17
100
AcDbEntity
  8
POCKET
100
AcDbLine
 10
59.058128277429226
 20
0.886069718321875
 30
0.0
 11
59.137889167684506
 21
0.8660177485408885
 31
0.0
  0
LINE
  5
DD
330
17
100
AcDbEntity
  8
POCKET
100
AcDbLine
 10
59.137889167684506
 20
0.8660177485408885
 30
0.0
 11
59.21902804694569
 21
0.8525878051809672
 31
0.0
  0
LINE
  5
DE
330
17
100
AcDbEntity
  8
POCKET
100
AcDbLine
 10
59.21902804694569
 20
0.8525878051809672
 30
0.0
 11
66.06338842828421
 21
0.00717017444247117
 31
0.0
  0
LINE
  5
DF
330
17
100
AcDbEntity
  8
POCKET
100
AcDbLine
 10
66.06338842828421
 20
0.0071701744424711444
 30
0.0
 11
66.13818981878171
 21
0.0007702029793944521
 31
0.0
  0
LINE
  5
E0
330
17
100
AcDbEntity
  8
POCKET
100
AcDbLine
 10
66.13818981878171
 20
0.000770202979394452
 30
0.0
 11
66.21326054838025
 21
-5.867814325039354e-20
 31
0.0
  0
LINE
  5
E1
330
17
100
AcDbEntity
  8
POCKET
100
AcDbLine
 10
66.21326054838025
 20
0.0
 30
0.0
 11
70.86341016830463
 21
0.12691931420100744
 31
0.0
  0
LINE
  5
E2
330
17
100
AcDbEntity
  8
POCKET
100
AcDbLine
 10
70.86341016830463
 20
0.12691931420100744
 30
0.0
 11
70.92445330520977
 21
0.13045548172064714
 31
0.0
  0
LINE
  5
E3
330
17
100
AcDbEntity
  8
POCKET
100
AcDbLine
 10
70.92445330520977
 20
0.13045548172064714
 30
0.0
 11
70.98516620945244
 21
0.13771580556791496
 31
0.0
  0
LINE
  5
E4
330
17
100
AcDbEntity
  8
POCKET
100
AcDbLine
 10
70.98516620945244
 20
0.13771580556791496
 30
0.0
 11
76.14227904114114
 21
0.9150106281620158
 31
0.0
  0
LINE
  5
E5
330
17
100
AcDbEntity
  8
POCKET
100
AcDbLine
 10
76.14227904114114
 20
0.9150106281620158
 30
0.0
 11
76.24928719075973
 21
0.9371777073916313
 31
0.0
  0
LINE
  5
E6
330
17
100
AcDbEntity
  8
POCKET
100
AcDbLine
 10
76.24928719075973
 20
0.9371777073916313
 30
0.0
 11
76.35323758798211
 21
0.9708888094749643
 31
0.0
  0
LINE
  5
E7
330
17
100
AcDbEntity
  8
POCKET
100
AcDbLine
 10
76.35323758798211
 20
0.9708888094749643
 30
0.0
 11
86.11675968257259
 21
4.7383330769384955
 31
0.0
  0
LINE
  5
E8
330
17
100
AcDbEntity
  8
POCKET
100
AcDbLine
 10
86.11675968257259
 20
4.7383330769384955
 30
0.0
 11
86.21212229932394
 21
4.7809790683202555
 31
0.0
  0
LINE
  5
E9
330
17
100
AcDbEntity
  8
POCKET
100
AcDbLine
 10
86.21212229932394
 20
4.7809790683202555
 30
0.0
 11
86.3025156977796
 21
4.833340721944241
 31
0.0
  0
LINE
  5
EA
330
17
100
AcDbEntity
  8
POCKET
100
AcDbLine
 10
86.3025156977796
 20
4.833340721944241
 30
0.0
 11
90.30013893087744
 21
7.436993633950053
 31
0.0
  0
LINE
  5
EB
330
17
100
AcDbEntity
  8
POCKET
100
AcDbLine
 10
90.30013893087744
 20
7.436993633950053
 30
0.0
 11
90.35809050867093
 21
7.477731724560484
 31
0.0
  0
LINE
  5
EC
330
17
100
AcDbEntity
  8
POCKET
100
AcDbLine
 10
90.35809050867093
 20
7.477731724560484
 30
0.0
 11
90.41301270531696
 21
7.522470183529399
 31
0.0
  0
ENDSEC
  0
SECTION
  2
OBJECTS
  0
DICTIONARY
  5
A
330
0
100
AcDbDictionary
281
1
  3
ACAD_COLOR
350
B
  3
ACAD_GROUP
350
C
  3
ACAD_LAYOUT
350
D
  3
ACAD_MATERIAL
350
E
  3
ACAD_MLEADERSTYLE
350
F
  3
ACAD_MLINESTYLE
350
10
  3
ACAD_PLOTSETTINGS
350
11
  3
ACAD_PLOTSTYLENAME
350
12
  3
ACAD_SCALELIST
350
14
  3
ACAD_TABLESTYLE
350
15
  3
ACAD_VISUALSTYLE
350
16
  3
EZDXF_META
350
2D
  0
DICTIONARY
  5
B
330
A
100
AcDbDictionary
281
1
  0
DICTIONARY
  5
C
330
A
100
AcDbDictionary
281
1
  0
DICTIONARY
  5
D
330
A
100
AcDbDictionary
281
1
  3
Model
350
1A
  3
Layout1
350
1E
  0
DICTIONARY
  5
E
330
A
100
AcDbDictionary
281
1
  3
ByBlock
350
1F
  3
ByLayer
350
20
  3
Global
350
21
  0
DICTIONARY
  5
F
330
A
100
AcDbDictionary
281
1
  3
Standard
350
2C
  0
DICTIONARY
  5
10
330
A
100
AcDbDictionary
281
1
  3
Standard
350
22
  0
DICTIONARY
  5
11
330
A
100
AcDbDictionary
281
1
  0
ACDBDICTIONARYWDFLT
  5
12
330
A
100
AcDbDictionary
281
1
  3
Normal
350
13
100
AcDbDictionaryWithDefault
340
13
  0
ACDBPLACEHOLDER
  5
13
330
12
  0
DICTIONARY
  5
14
330
A
100
AcDbDictionary
281
1
  0
DICTIONARY
  5
15
330
A
100
AcDbDictionary
281
1
  0
DICTIONARY
  5
16
330
A
100
AcDbDictionary
281
1
  0
LAYOUT
  5
1A
330
D
100
AcDbPlotSettings
  1

  4
A3
  6

 40
7.5
 41
20.0
 42
7.5
 43
20.0
 44
420.0
 45
297.0
 46
0.0
 47
0.0
 48
0.0
 49
0.0
140
0.0
141
0.0
142
1.0
143
1.0
 70
1024
 72
1
 73
0
 74
5
  7

 75
16
 76
0
 77
2
 78
300
147
1.0
148
0.0
149
0.0
100
AcDbLayout
  1
Model
 70
1
 71
0
 10
0.0
 20
0.0
 11
420.0
 21
297.0
 12
0.0
 22
0.0
 32
0.0
 14
1e+20
 24
1e+20
 34
1e+20
 15
-1e+20
 25
-1e+20
 35
-1e+20
146
0.0
 13
0.0
 23
0.0
 33
0.0
 16
1.0
 26
0.0
 36
0.0
 17
0.0
 27
1.0
 37
0.0
 76
1
330
17
  0
LAYOUT
  5
1E
330
D
100
AcDbPlotSettings
  1

  4
A3
  6

 40
7.5
 41
20.0
 42
7.5
 43
20.0
 44
420.0
 45
297.0
 46
0.0
 47
0.0
 48
0.0
 49
0.0
140
0.0
141
0.0
142
1.0
143
1.0
 70
0
 72
1
 73
0
 74
5
  7

 75
16
 76
0
 77
2
 78
300
147
1.0
148
0.0
149
0.0
100
AcDbLayout
  1
Layout1
 70
1
 71
1
 10
0.0
 20
0.0
 11
420.0
 21
297.0
 12
0.0
 22
0.0
 32
0.0
 14
1e+20
 24
1e+20
 34
1e+20
 15
-1e+20
 25
-1e+20
 35
-1e+20
146
0.0
 13
0.0
 23
0.0
 33
0.0
 16
1.0
 26
0.0
 36
0.0
 17
0.0
 27
1.0
 37
0.0
 76
1
330
1B
  0
MATERIAL
  5
1F
102
{ACAD_REACTORS
330
E
102
}
330
E
100
AcDbMaterial
  1
ByBlock
  2

 70
0
 40
1.0
 71
1
 41
1.0
 91
-1023410177
 42
1.0
 72
1
  3

 73
1
 74
1
 75
1
 44
0.5
 73
0
 45
1.0
 46
1.0
 77
1
  4

 78
1
 79
1
170
1
 48
1.0
171
1
  6

172
1
173
1
174
1
140
1.0
141
1.0
175
1
  7

176
1
177
1
178
1
143
1.0
179
1
  8

270
1
271
1
272
1
145
1.0
146
1.0
273
1
  9

274
1
275
1
276
1
 42
1.0
 72
1
  3

 73
1
 74
1
 75
1
 94
63
  0
MATERIAL
  5
20
102
{ACAD_REACTORS
330
E
102
}
330
E
100
AcDbMaterial
  1
ByLayer
  2

 70
0
 40
1.0
 71
1
 41
1.0
 91
-1023410177
 42
1.0
 72
1
  3

 73
1
 74
1
 75
1
 44
0.5
 73
0
 45
1.0
 46
1.0
 77
1
  4

 78
1
 79
1
170
1
 48
1.0
171
1
  6

172
1
173
1
174
1
140
1.0
141
1.0
175
1
  7

176
1
177
1
178
1
143
1.0
179
1
  8

270
1
271
1
272
1
145
1.0
146
1.0
273
1
  9

274
1
275
1
276
1
 42
1.0
 72
1
  3

 73
1
 74
1
 75
1
 94
63
  0
MATERIAL
  5
21
102
{ACAD_REACTORS
330
E
102
}
330
E
100
AcDbMaterial
  1
Global
  2

 70
0
 40
1.0
 71
1
 41
1.0
 91
-1023410177
 42
1.0
 72
1
  3

 73
1
 74
1
 75
1
 44
0.5
 73
0
 45
1.0
 46
1.0
 77
1
  4

 78
1
 79
1
170
1
 48
1.0
171
1
  6

172
1
173
1
174
1
140
1.0
141
1.0
175
1
  7

176
1
177
1
178
1
143
1.0
179
1
  8

270
1
271
1
272
1
145
1.0
146
1.0
273
1
  9

274
1
275
1
276
1
 42
1.0
 72
1
  3

 73
1
 74
1
 75
1
 94
63
  0
MLINESTYLE
  5
22
102
{ACAD_REACTORS
330
10
102
}
330
10
100
AcDbMlineStyle
  2
Standard
 70
0
  3

 62
256
 51
90.0
 52
90.0
 71
2
 49
0.5
 62
256
  6
BYLAYER
 49
-0.5
 62
256
  6
BYLAYER
  0
MLEADERSTYLE
  5
2C
102
{ACAD_REACTORS
330
F
102
}
330
F
100
AcDbMLeaderStyle
179
2
170
2
171
1
172
0
 90
2
 40
0.0
 41
0.0
173
1
 91
-1056964608
 92
-2
290
1
 42
2.0
291
1
 43
8.0
  3
Standard
 44
4.0
300

342
29
174
1
175
1
176
0
178
1
 93
-1056964608
 45
4.0
292
0
297
0
 46
4.0
 94
-1056964608
 47
1.0
 49
1.0
140
1.0
294
1
141
0.0
177
0
142
1.0
295
0
296
0
143
3.75
271
0
272
9
273
9
  0
DICTIONARY
  5
2D
330
A
100
AcDbDictionary
280
1
281
1
  3
CREATED_BY_EZDXF
350
2E
  3
WRITTEN_BY_EZDXF
350
F0
  0
DICTIONARYVAR
  5
2E
330
2D
100
DictionaryVariables
280
0
  1
1.4.4 @ 2026-09-18T20:02:43.525740+00:00
  0
DICTIONARYVAR
  5
F0
330
2D
100
DictionaryVariables
280
0
  1
1.4.4 @ 2026-09-18T20:02:43.533416+00:00
  0
ENDSEC
  0
EOF
