  0
SECTION
  2
HEADER
  9
$ACADVER
  1
AC1027
  9
$ACADMAINTVER
 70
105
  9
$DWGCODEPAGE
  3
ANSI_1252
  9
$LASTSAVEDBY
  1
ezdxf
  9
$REQUIREDVERSIONS
160
0
  9
$INSBASE
 10
0.0
 20
0.0
 30
0.0
  9
$EXTMIN
 10
1e+20
 20
1e+20
 30
1e+20
  9
$EXTMAX
 10
-1e+20
 20
-1e+20
 30
-1e+20
  9
$LIMMIN
 10
0.0
 20
0.0
  9
$LIMMAX
 10
420.0
 20
297.0
  9
$ORTHOMODE
 70
0
  9
$REGENMODE
 70
1
  9
$FILLMODE
 70
1
  9
$QTEXTMODE
 70
0
  9
$MIRRTEXT
 70
1
  9
$LTSCALE
 40
1.0
  9
$ATTMODE
 70
1
  9
$TEXTSIZE
 40
2.5
  9
$TRACEWID
 40
1.0
  9
$TEXTSTYLE
  7
Standard
  9
$CLAYER
  8
0
  9
$CELTYPE
  6
ByLayer
  9
$CECOLOR
 62
256
  9
$CELTSCALE
 40
1.0
  9
$DISPSILH
 70
0
  9
$DIMSCALE
 40
1.0
  9
$DIMASZ
 40
2.5
  9
$DIMEXO
 40
0.625
  9
$DIMDLI
 40
3.75
  9
$DIMRND
 40
0.0
  9
$DIMDLE
 40
0.0
  9
$DIMEXE
 40
1.25
  9
$DIMTP
 40
0.0
  9
$DIMTM
 40
0.0
  9
$DIMTXT
 40
2.5
  9
$DIMCEN
 40
2.5
  9
$DIMTSZ
 40
0.0
  9
$DIMTOL
 70
0
  9
$DIMLIM
 70
0
  9
$DIMTIH
 70
0
  9
$DIMTOH
 70
0
  9
$DIMSE1
 70
0
  9
$DIMSE2
 70
0
  9
$DIMTAD
 70
1
  9
$DIMZIN
 70
8
  9
$DIMBLK
  1

  9
$DIMASO
 70
1
  9
$DIMSHO
 70
1
  9
$DIMPOST
  1

  9
$DIMAPOST
  1

  9
$DIMALT
 70
0
  9
$DIMALTD
 70
3
  9
$DIMALTF
 40
0.03937007874
  9
$DIMLFAC
 40
1.0
  9
$DIMTOFL
 70
1
  9
$DIMTVP
 40
0.0
  9
$DIMTIX
 70
0
  9
$DIMSOXD
 70
0
  9
$DIMSAH
 70
0
  9
$DIMBLK1
  1

  9
$DIMBLK2
  1

  9
$DIMSTYLE
  2
ISO-25
  9
$DIMCLRD
 70
0
  9
$DIMCLRE
 70
0
  9
$DIMCLRT
 70
0
  9
$DIMTFAC
 40
1.0
  9
$DIMGAP
 40
0.625
  9
$DIMJUST
 70
0
  9
$DIMSD1
 70
0
  9
$DIMSD2
 70
0
  9
$DIMTOLJ
 70
0
  9
$DIMTZIN
 70
8
  9
$DIMALTZ
 70
0
  9
$DIMALTTZ
 70
0
  9
$DIMUPT
 70
0
  9
$DIMDEC
 70
2
  9
$DIMTDEC
 70
2
  9
$DIMALTU
 70
2
  9
$DIMALTTD
 70
3
  9
$DIMTXSTY
  7
Standard
  9
$DIMAUNIT
 70
0
  9
$DIMADEC
 70
0
  9
$DIMALTRND
 40
0.0
  9
$DIMAZIN
 70
0
  9
$DIMDSEP
 70
44
  9
$DIMATFIT
 70
3
  9
$DIMFRAC
 70
0
  9
$DIMLDRBLK
  1

  9
$DIMLUNIT
 70
2
  9
$DIMLWD
 70
-2
  9
$DIMLWE
 70
-2
  9
$DIMTMOVE
 70
0
  9
$DIMFXL
 40
1.0
  9
$DIMFXLON
 70
0
  9
$DIMJOGANG
 40
0.785398163397
  9
$DIMTFILL
 70
0
  9
$DIMTFILLCLR
 70
0
  9
$DIMARCSYM
 70
0
  9
$DIMLTYPE
  6

  9
$DIMLTEX1
  6

  9
$DIMLTEX2
  6

  9
$DIMTXTDIRECTION
 70
0
  9
$LUNITS
 70
2
  9
$LUPREC
 70
4
  9
$SKETCHINC
 40
1.0
  9
$FILLETRAD
 40
10.0
  9
$AUNITS
 70
0
  9
$AUPREC
 70
2
  9
$MENU
  1
.
  9
$ELEVATION
 40
0.0
  9
$PELEVATION
 40
0.0
  9
$THICKNESS
 40
0.0
  9
$LIMCHECK
 70
0
  9
$CHAMFERA
 40
0.0
  9
$CHAMFERB
 40
0.0
  9
$CHAMFERC
 40
0.0
  9
$CHAMFERD
 40
0.0
  9
$SKPOLY
 70
0
  9
$TDCREATE
 40
2461305.5644444446
  9
$TDUCREATE
 40
2458532.153996898
  9
$TDUPDATE
 40
2461305.5644444446
  9
$TDUUPDATE
 40
2458532.1544311
  9
$TDINDWG
 40
0.0
  9
$TDUSRTIMER
 40
0.0
  9
$USRTIMER
 70
1
  9
$ANGBASE
 50
0.0
  9
$ANGDIR
 70
0
  9
$PDMODE
 70
0
  9
$PDSIZE
 40
0.0
  9
$PLINEWID
 40
0.0
  9
$SPLFRAME
 70
0
  9
$SPLINETYPE
 70
6
  9
$SPLINESEGS
 70
8
  9
$HANDSEED
  5
F6
  9
$SURFTAB1
 70
6
  9
$SURFTAB2
 70
6
  9
$SURFTYPE
 70
6
  9
$SURFU
 70
6
  9
$SURFV
 70
6
  9
$UCSBASE
  2

  9
$UCSNAME
  2

  9
$UCSORG
 10
0.0
 20
0.0
 30
0.0
  9
$UCSXDIR
 10
1.0
 20
0.0
 30
0.0
  9
$UCSYDIR
 10
0.0
 20
1.0
 30
0.0
  9
$UCSORTHOREF
  2

  9
$UCSORTHOVIEW
 70
0
  9
$UCSORGTOP
 10
0.0
 20
0.0
 30
0.0
  9
$UCSORGBOTTOM
 10
0.0
 20
0.0
 30
0.0
  9
$UCSORGLEFT
 10
0.0
 20
0.0
 30
0.0
  9
$UCSORGRIGHT
 10
0.0
 20
0.0
 30
0.0
  9
$UCSORGFRONT
 10
0.0
 20
0.0
 30
0.0
  9
$UCSORGBACK
 10
0.0
 20
0.0
 30
0.0
  9
$PUCSBASE
  2

  9
$PUCSNAME
  2

  9
$PUCSORG
 10
0.0
 20
0.0
 30
0.0
  9
$PUCSXDIR
 10
1.0
 20
0.0
 30
0.0
  9
$PUCSYDIR
 10
0.0
 20
1.0
 30
0.0
  9
$PUCSORTHOREF
  2

  9
$PUCSORTHOVIEW
 70
0
  9
$PUCSORGTOP
 10
0.0
 20
0.0
 30
0.0
  9
$PUCSORGBOTTOM
 10
0.0
 20
0.0
 30
0.0
  9
$PUCSORGLEFT
 10
0.0
 20
0.0
 30
0.0
  9
$PUCSORGRIGHT
 10
0.0
 20
0.0
 30
0.0
  9
$PUCSORGFRONT
 10
0.0
 20
0.0
 30
0.0
  9
$PUCSORGBACK
 10
0.0
 20
0.0
 30
0.0
  9
$USERI1
 70
0
  9
$USERI2
 70
0
  9
$USERI3
 70
0
  9
$USERI4
 70
0
  9
$USERI5
 70
0
  9
$USERR1
 40
0.0
  9
$USERR2
 40
0.0
  9
$USERR3
 40
0.0
  9
$USERR4
 40
0.0
  9
$USERR5
 40
0.0
  9
$WORLDVIEW
 70
1
  9
$SHADEDGE
 70
3
  9
$SHADEDIF
 70
70
  9
$TILEMODE
 70
1
  9
$MAXACTVP
 70
64
  9
$PINSBASE
 10
0.0
 20
0.0
 30
0.0
  9
$PLIMCHECK
 70
0
  9
$PEXTMIN
 10
1e+20
 20
1e+20
 30
1e+20
  9
$PEXTMAX
 10
-1e+20
 20
-1e+20
 30
-1e+20
  9
$PLIMMIN
 10
0.0
 20
0.0
  9
$PLIMMAX
 10
420.0
 20
297.0
  9
$UNITMODE
 70
0
  9
$VISRETAIN
 70
1
  9
$PLINEGEN
 70
0
  9
$PSLTSCALE
 70
1
  9
$TREEDEPTH
 70
3020
  9
$CMLSTYLE
  2
Standard
  9
$CMLJUST
 70
0
  9
$CMLSCALE
 40
20.0
  9
$PROXYGRAPHICS
 70
1
  9
$MEASUREMENT
 70
1
  9
$CELWEIGHT
370
-1
  9
$ENDCAPS
280
0
  9
$JOINSTYLE
280
0
  9
$LWDISPLAY
290
0
  9
$INSUNITS
 70
4
  9
$HYPERLINKBASE
  1

  9
$STYLESHEET
  1

  9
$XEDIT
290
1
  9
$CEPSNTYPE
380
0
  9
$PSTYLEMODE
290
1
  9
$FINGERPRINTGUID
  2
{AA303C6A-3DBE-4825-8B21-DD1420701272}
  9
$VERSIONGUID
  2
{A87F9410-8FDE-4678-A7BB-2156A214E14B}
  9
$EXTNAMES
290
1
  9
$PSVPSCALE
 40
0.0
  9
$OLESTARTUP
290
0
  9
$SORTENTS
280
127
  9
$INDEXCTL
280
0
  9
$HIDETEXT
280
1
  9
$XCLIPFRAME
280
1
  9
$HALOGAP
280
0
  9
$OBSCOLOR
 70
257
  9
$OBSLTYPE
280
0
  9
$INTERSECTIONDISPLAY
280
0
  9
$INTERSECTIONCOLOR
 70
257
  9
$DIMASSOC
280
2
  9
$PROJECTNAME
  1

  9
$CAMERADISPLAY
290
0
  9
$LENSLENGTH
 40
50.0
  9
$CAMERAHEIGHT
 40
0.0
  9
$STEPSPERSEC
 40
24.0
  9
$STEPSIZE
 40
100.0
  9
$3DDWFPREC
 40
2.0
  9
$PSOLWIDTH
 40
0.005
  9
$PSOLHEIGHT
 40
0.08
  9
$LOFTANG1
 40
1.570796326795
  9
$LOFTANG2
 40
1.570796326795
  9
$LOFTMAG1
 40
0.0
  9
$LOFTMAG2
 40
0.0
  9
$LOFTPARAM
 70
7
  9
$LOFTNORMALS
280
1
  9
$LATITUDE
 40
37.795
  9
$LONGITUDE
 40
-122.394
  9
$NORTHDIRECTION
 40
0.0
  9
$TIMEZONE
 70
-8000
  9
$LIGHTGLYPHDISPLAY
280
1
  9
$TILEMODELIGHTSYNCH
280
1
  9
$CMATERIAL
347
20
  9
$SOLIDHIST
280
0
  9
$SHOWHIST
280
1
  9
$DWFFRAME
280
2
  9
$DGNFRAME
280
2
  9
$REALWORLDSCALE
290
1
  9
$INTERFERECOLOR
 62
256
  9
$CSHADOW
280
0
  9
$SHADOWPLANELOCATION
 40
0.0
  0
ENDSEC
  0
SECTION
  2
CLASSES
  0
CLASS
  1
ACDBDICTIONARYWDFLT
  2
AcDbDictionaryWithDefault
  3
ObjectDBX Classes
 90
0
 91
0
280
0
281
0
  0
CLASS
  1
SUN
  2
AcDbSun
  3
SCENEOE
 90
1153
 91
0
280
0
281
0
  0
CLASS
  1
VISUALSTYLE
  2
AcDbVisualStyle
  3
ObjectDBX Classes
 90
4095
 91
0
280
0
281
0
  0
CLASS
  1
MATERIAL
  2
AcDbMaterial
  3
ObjectDBX Classes
 90
1153
 91
0
280
0
281
0
  0
CLASS
  1
SCALE
  2
AcDbScale
  3
ObjectDBX Classes
 90
1153
 91
0
280
0
281
0
  0
CLASS
  1
TABLESTYLE
  2
AcDbTableStyle
  3
ObjectDBX Classes
 90
4095
 91
0
280
0
281
0
  0
CLASS
  1
MLEADERSTYLE
  2
AcDbMLeaderStyle
  3
ACDB_MLEADERSTYLE_CLASS
 90
4095
 91
0
280
0
281
0
  0
CLASS
  1
DICTIONARYVAR
  2
AcDbDictionaryVar
  3
ObjectDBX Classes
 90
0
 91
0
280
0
281
0
  0
CLASS
  1
CELLSTYLEMAP
  2
AcDbCellStyleMap
  3
ObjectDBX Classes
 90
1152
 91
0
280
0
281
0
  0
CLASS
  1
MENTALRAYRENDERSETTINGS
  2
AcDbMentalRayRenderSettings
  3
SCENEOE
 90
1024
 91
0
280
0
281
0
  0
CLASS
  1
ACDBDETAILVIEWSTYLE
  2
AcDbDetailViewStyle
  3
ObjectDBX Classes
 90
1025
 91
0
280
0
281
0
  0
CLASS
  1
ACDBSECTIONVIEWSTYLE
  2
AcDbSectionViewStyle
  3
ObjectDBX Classes
 90
1025
 91
0
280
0
281
0
  0
CLASS
  1
RASTERVARIABLES
  2
AcDbRasterVariables
  3
ISM
 90
0
 91
0
280
0
281
0
  0
CLASS
  1
ACDBPLACEHOLDER
  2
AcDbPlaceHolder
  3
ObjectDBX Classes
 90
0
 91
0
280
0
281
0
  0
CLASS
  1
LAYOUT
  2
AcDbLayout
  3
ObjectDBX Classes
 90
0
 91
0
280
0
281
0
  0
ENDSEC
  0
SECTION
  2
TABLES
  0
TABLE
  2
VPORT
  5
8
330
0
100
AcDbSymbolTable
 70
1
  0
VPORT
  5
F2
330
8
100
AcDbSymbolTableRecord
100
AcDbViewportTableRecord
  2
*Active
 70
0
 10
0.0
 20
0.0
 11
1.0
 21
1.0
 12
52.87198204575349
 22
43.49243111453803
 13
0.0
 23
0.0
 14
0.5
 24
0.5
 15
0.5
 25
0.5
 16
0.0
 26
0.0
 36
1.0
 17
0.0
 27
0.0
 37
0.0
 40
86.98486222907606
 41
1.34
 42
50.0
 43
0.0
 44
0.0
 50
0.0
 51
0.0
 71
0
 72
1000
 73
1
 74
3
 75
0
 76
0
 77
0
 78
0
281
0
 65
1
110
0.0
120
0.0
130
0.0
111
1.0
121
0.0
131
0.0
112
0.0
122
1.0
132
0.0
 79
0
146
0.0
  0
ENDTAB
  0
TABLE
  2
LTYPE
  5
2
330
0
100
AcDbSymbolTable
 70
3
  0
LTYPE
  5
24
330
2
100
AcDbSymbolTableRecord
100
AcDbLinetypeTableRecord
  2
ByBlock
 70
0
  3

 72
65
 73
0
 40
0.0
  0
LTYPE
  5
25
330
2
100
AcDbSymbolTableRecord
100
AcDbLinetypeTableRecord
  2
ByLayer
 70
0
  3

 72
65
 73
0
 40
0.0
  0
LTYPE
  5
26
330
2
100
AcDbSymbolTableRecord
100
AcDbLinetypeTableRecord
  2
Continuous
 70
0
  3

 72
65
 73
0
 40
0.0
  0
ENDTAB
  0
TABLE
  2
LAYER
  5
1
330
0
100
AcDbSymbolTable
 70
3
  0
LAYER
  5
27
330
1
100
AcDbSymbolTableRecord
100
AcDbLayerTableRecord
  2
0
 70
0
 62
7
  6
Continuous
370
-3
390
13
347
21
  0
LAYER
  5
28
330
1
100
AcDbSymbolTableRecord
100
AcDbLayerTableRecord
  2
Defpoints
 70
0
 62
7
  6
Continuous
290
0
370
-3
390
13
347
21
  0
LAYER
  5
2F
330
1
100
AcDbSymbolTableRecord
100
AcDbLayerTableRecord
  2
POCKET
 70
0
 62
7
  6
Continuous
370
-3
390
13
347
21
  0
ENDTAB
  0
TABLE
  2
STYLE
  5
5
330
0
100
AcDbSymbolTable
 70
1
  0
STYLE
  5
29
330
5
100
AcDbSymbolTableRecord
100
AcDbTextStyleTableRecord
  2
Standard
 70
0
 40
0.0
 41
1.0
 50
0.0
 71
0
 42
2.5
  3
txt
  4

  0
ENDTAB
  0
TABLE
  2
VIEW
  5
7
330
0
100
AcDbSymbolTable
 70
0
  0
ENDTAB
  0
TABLE
  2
UCS
  5
6
330
0
100
AcDbSymbolTable
 70
0
  0
ENDTAB
  0
TABLE
  2
APPID
  5
3
330
0
100
AcDbSymbolTable
 70
3
  0
APPID
  5
2A
330
3
100
AcDbSymbolTableRecord
100
AcDbRegAppTableRecord
  2
ACAD
 70
0
  0
APPID
  5
F3
330
3
100
AcDbSymbolTableRecord
100
AcDbRegAppTableRecord
  2
HATCHBACKGROUNDCOLOR
 70
0
  0
APPID
  5
F4
330
3
100
AcDbSymbolTableRecord
100
AcDbRegAppTableRecord
  2
EZDXF
 70
0
  0
ENDTAB
  0
TABLE
  2
DIMSTYLE
  5
4
330
0
100
AcDbSymbolTable
 70
1
100
AcDbDimStyleTable
  0
DIMSTYLE
105
2B
330
4
100
AcDbSymbolTableRecord
100
AcDbDimStyleTableRecord
  2
Standard
 70
0
 40
1.0
 41
2.5
 42
0.625
 43
3.75
 44
1.25
 45
0.0
 46
0.0
 47
0.0
 48
0.0
 49
2.5
140
2.5
141
2.5
142
0.0
143
0.03937007874
144
1.0
145
0.0
146
1.0
147
0.625
148
0.0
 69
0
 70
0
 71
0
 72
0
 73
0
 74
0
 75
0
 76
0
 77
1
 78
8
 79
3
170
0
171
3
172
1
173
0
174
0
175
0
176
0
177
0
178
0
179
2
271
2
272
2
273
2
274
3
275
0
276
0
277
2
278
44
279
0
280
0
281
0
282
0
283
0
284
8
285
0
286
0
288
0
289
3
290
0
371
-2
372
-2
  0
ENDTAB
  0
TABLE
  2
BLOCK_RECORD
  5
9
330
0
100
AcDbSymbolTable
 70
2
  0
BLOCK_RECORD
  5
17
330
9
100
AcDbSymbolTableRecord
100
AcDbBlockTableRecord
  2
*Model_Space
340
1A
 70
0
280
1
281
0
  0
BLOCK_RECORD
  5
1B
330
9
100
AcDbSymbolTableRecord
100
AcDbBlockTableRecord
  2
*Paper_Space
340
1E
 70
0
280
1
281
0
  0
ENDTAB
  0
ENDSEC
  0
SECTION
  2
BLOCKS
  0
BLOCK
  5
18
330
17
100
AcDbEntity
  8
0
100
AcDbBlockBegin
  2
*Model_Space
 70
0
 10
0.0
 20
0.0
 30
0.0
  3
*Model_Space
  1

  0
ENDBLK
  5
19
330
17
100
AcDbEntity
  8
0
100
AcDbBlockEnd
  0
BLOCK
  5
1C
330
1B
100
AcDbEntity
  8
0
100
AcDbBlockBegin
  2
*Paper_Space
 70
0
 10
0.0
 20
0.0
 30
0.0
  3
*Paper_Space
  1

  0
ENDBLK
  5
1D
330
1B
100
AcDbEntity
  8
0
100
AcDbBlockEnd
  0
ENDSEC
  0
SECTION
  2
ENTITIES
  0
LINE
  5
30
330
17
100
AcDbEntity
  8
POCKET
100
AcDbLine
 10
1.8593718672219447e-19
 20
38.854764461823635
 30
0.0
 11
0.005078467711678858
 21
38.748988577096824
 31
0.0
  0
LINE
  5
31
330
17
100
AcDbEntity
  8
POCKET
100
AcDbLine
 10
0.005078467711678858
 20
38.748988577096824
 30
0.0
 11
0.7253345380831249
 21
31.638346468743077
 31
0.0
  0
LINE
  5
32
330
17
100
AcDbEntity
  8
POCKET
100
AcDbLine
 10
0.7253345380831249
 20
31.638346468743077
 30
0.0
 11
0.7360564299741482
 21
31.561991718257318
 31
0.0
  0
LINE
  5
33
330
17
100
AcDbEntity
  8
POCKET
100
AcDbLine
 10
0.7360564299741482
 20
31.561991718257318
 30
0.0
 11
0.7526293212264666
 21
31.486690017326964
 31
0.0
  0
LINE
  5
34
330
17
100
AcDbEntity
  8
POCKET
100
AcDbLine
 10
0.7526293212264666
 20
31.486690017326964
 30
0.0
 11
2.030850292231351
 21
26.587082772936526
 31
0.0
  0
LINE
  5
35
330
17
100
AcDbEntity
  8
POCKET
100
AcDbLine
 10
2.0308502922313507
 20
26.587082772936526
 30
0.0
 11
2.0607183432218794
 21
26.49219497794425
 31
0.0
  0
LINE
  5
36
330
17
100
AcDbEntity
  8
POCKET
100
AcDbLine
 10
2.0607183432218794
 20
26.49219497794425
 30
0.0
 11
2.099866137570404
 21
26.400744202627063
 31
0.0
  0
LINE
  5
37
330
17
100
AcDbEntity
  8
POCKET
100
AcDbLine
 10
2.099866137570404
 20
26.400744202627063
 30
0.0
 11
6.447253470580323
 21
17.49736150969596
 31
0.0
  0
LINE
  5
38
330
17
100
AcDbEntity
  8
POCKET
100
AcDbLine
 10
6.447253470580323
 20
17.49736150969596
 30
0.0
 11
6.503688781022509
 21
17.396910664219604
 31
0.0
  0
LINE
  5
39
330
17
100
AcDbEntity
  8
POCKET
100
AcDbLine
 10
6.503688781022509
 20
17.396910664219604
 30
0.0
 11
6.571304073250006
 21
17.30361817321089
 31
0.0
  0
LINE
  5
3A
330
17
100
AcDbEntity
  8
POCKET
100
AcDbLine
 10
6.571304073250006
 20
17.30361817321089
 30
0.0
 11
11.29784898643881
 21
11.515719315800835
 31
0.0
  0
LINE
  5
3B
330
17
100
AcDbEntity
  8
POCKET
100
AcDbLine
 10
11.29784898643881
 20
11.515719315800835
 30
0.0
 11
11.366085820329904
 21
11.440332992329685
 31
0.0
  0
LINE
  5
3C
330
17
100
AcDbEntity
  8
POCKET
100
AcDbLine
 10
11.366085820329904
 20
11.440332992329685
 30
0.0
 11
11.44162545994762
 21
11.372265921639052
 31
0.0
  0
LINE
  5
3D
330
17
100
AcDbEntity
  8
POCKET
100
AcDbLine
 10
11.44162545994762
 20
11.372265921639052
 30
0.0
 11
17.896640932082438
 21
6.12509761344648
 31
0.0
  0
LINE
  5
3E
330
17
100
AcDbEntity
  8
POCKET
100
AcDbLine
 10
17.896640932082438
 20
6.12509761344648
 30
0.0
 11
17.990605943154577
 21
6.057360878002198
 31
0.0
  0
LINE
  5
3F
330
17
100
AcDbEntity
  8
POCKET
100
AcDbLine
 10
17.990605943154577
 20
6.057360878002198
 30
0.0
 11
18.091773654313904
 21
6.000944720270409
 31
0.0
  0
LINE
  5
40
330
17
100
AcDbEntity
  8
POCKET
100
AcDbLine
 10
18.091773654313904
 20
6.000944720270409
 30
0.0
 11
26.13666605702492
 21
2.107397978698842
 31
0.0
  0
LINE
  5
41
330
17
100
AcDbEntity
  8
POCKET
100
AcDbLine
 10
26.13666605702492
 20
2.107397978698842
 30
0.0
 11
26.232887867324916
 21
2.066883557269231
 31
0.0
  0
LINE
  5
42
330
17
100
AcDbEntity
  8
POCKET
100
AcDbLine
 10
26.232887867324916
 20
2.066883557269231
 30
0.0
 11
26.332809339461164
 21
2.0366221209631004
 31
0.0
  0
LINE
  5
43
330
17
100
AcDbEntity
  8
POCKET
100
AcDbLine
 10
26.332809339461164
 20
2.0366221209631004
 30
0.0
 11
32.702370638872964
 21
0.4654159432017158
 31
0.0
  0
LINE
  5
44
330
17
100
AcDbEntity
  8
POCKET
100
AcDbLine
 10
32.702370638872964
 20
0.46541594320171575
 30
0.0
 11
32.790221355580925
 21
0.44787837754581883
 31
0.0
  0
LINE
  5
45
330
17
100
AcDbEntity
  8
POCKET
100
AcDbLine
 10
32.790221355580925
 20
0.44787837754581883
 30
0.0
 11
32.87928906801144
 21
0.43827331442101547
 31
0.0
  0
LINE
  5
46
330
17
100
AcDbEntity
  8
POCKET
100
AcDbLine
 10
32.87928906801144
 20
0.43827331442101547
 30
0.0
 11
39.84272037228746
 21
0.0016676907413489478
 31
0.0
  0
LINE
  5
47
330
17
100
AcDbEntity
  8
POCKET
100
AcDbLine
 10
39.84272037228746
 20
0.0016676907413489817
 30
0.0
 11
39.929468380968146
 21
-6.554922965261445e-20
 31
0.0
  0
LINE
  5
48
330
17
100
AcDbEntity
  8
POCKET
100
AcDbLine
 10
39.929468380968146
 20
0.0
 30
0.0
 11
40.0160344295815
 21
0.005858108051496114
 31
0.0
  0
LINE
  5
49
330
17
100
AcDbEntity
  8
POCKET
100
AcDbLine
 10
40.0160344295815
 20
0.005858108051496114
 30
0.0
 11
46.680017337148705
 21
0.7483753183923427
 31
0.0
  0
LINE
  5
4A
330
17
100
AcDbEntity
  8
POCKET
100
AcDbLine
 10
46.680017337148705
 20
0.7483753183923427
 30
0.0
 11
46.7700026441252
 21
0.7625768993120091
 31
0.0
  0
LINE
  5
4B
330
17
100
AcDbEntity
  8
POCKET
100
AcDbLine
 10
46.7700026441252
 20
0.7625768993120091
 30
0.0
 11
46.85832214726199
 21
0.78490861975497
 31
0.0
  0
LINE
  5
4C
330
17
100
AcDbEntity
  8
POCKET
100
AcDbLine
 10
46.85832214726199
 20
0.78490861975497
 30
0.0
 11
53.22285665812032
 21
2.70654866411628
 31
0.0
  0
LINE
  5
4D
330
17
100
AcDbEntity
  8
POCKET
100
AcDbLine
 10
53.22285665812032
 20
2.7065486641162804
 30
0.0
 11
53.29643164148811
 21
2.731926816750029
 31
0.0
  0
LINE
  5
4E
330
17
100
AcDbEntity
  8
POCKET
100
AcDbLine
 10
53.29643164148811
 20
2.731926816750029
 30
0.0
 11
53.36781013474973
 21
2.7629500259388404
 31
0.0
  0
LINE
  5
4F
330
17
100
AcDbEntity
  8
POCKET
100
AcDbLine
 10
53.36781013474973
 20
2.7629500259388404
 30
0.0
 11
58.50618613737214
 21
5.238246383079634
 31
0.0
  0
LINE
  5
50
330
17
100
AcDbEntity
  8
POCKET
100
AcDbLine
 10
58.50618613737214
 20
5.238246383079634
 30
0.0
 11
58.5638207035743
 21
5.268357260710591
 31
0.0
  0
LINE
  5
51
330
17
100
AcDbEntity
  8
POCKET
100
AcDbLine
 10
58.5638207035743
 20
5.268357260710591
 30
0.0
 11
58.619376457420465
 21
5.302150253883758
 31
0.0
  0
LINE
  5
52
330
17
100
AcDbEntity
  8
POCKET
100
AcDbLine
 10
58.619376457420465
 20
5.302150253883758
 30
0.0
 11
62.69244872014597
 21
7.964871107187003
 31
0.0
  0
LINE
  5
53
330
17
100
AcDbEntity
  8
POCKET
100
AcDbLine
 10
62.69244872014597
 20
7.964871107187003
 30
0.0
 11
62.76600857663746
 21
8.017870264452208
 31
0.0
  0
LINE
  5
54
330
17
100
AcDbEntity
  8
POCKET
100
AcDbLine
 10
62.76600857663746
 20
8.017870264452208
 30
0.0
 11
62.834465926992344
 21
8.077313971774842
 31
0.0
  0
LINE
  5
55
330
17
100
AcDbEntity
  8
POCKET
100
AcDbLine
 10
62.834465926992344
 20
8.077313971774842
 30
0.0
 11
68.38108263189378
 21
13.353206609889183
 31
0.0
  0
LINE
  5
56
330
17
100
AcDbEntity
  8
POCKET
100
AcDbLine
 10
68.38108263189378
 20
13.353206609889183
 30
0.0
 11
68.43978010971988
 21
13.413964034143852
 31
0.0
  0
LINE
  5
57
330
17
100
AcDbEntity
  8
POCKET
100
AcDbLine
 10
68.43978010971988
 20
13.413964034143852
 30
0.0
 11
68.49313992786283
 21
13.479458982902967
 31
0.0
  0
LINE
  5
58
330
17
100
AcDbEntity
  8
POCKET
100
AcDbLine
 10
68.49313992786283
 20
13.479458982902967
 30
0.0
 11
72.61935164623507
 21
19.005250949233865
 31
0.0
  0
LINE
  5
59
330
17
100
AcDbEntity
  8
POCKET
100
AcDbLine
 10
72.61935164623507
 20
19.005250949233865
 30
0.0
 11
72.65433594947379
 21
19.05521025356561
 31
0.0
  0
LINE
  5
5A
330
17
100
AcDbEntity
  8
POCKET
100
AcDbLine
 10
72.65433594947379
 20
19.05521025356561
 30
0.0
 11
72.68620956209183
 21
19.107209353375943
 31
0.0
  0
LINE
  5
5B
330
17
100
AcDbEntity
  8
POCKET
100
AcDbLine
 10
72.68620956209183
 20
19.107209353375943
 30
0.0
 11
76.02179140302994
 21
24.94106689212368
 31
0.0
  0
LINE
  5
5C
330
17
100
AcDbEntity
  8
POCKET
100
AcDbLine
 10
76.02179140302994
 20
24.94106689212368
 30
0.0
 11
76.06152875097239
 21
25.01814132493997
 31
0.0
  0
LINE
  5
5D
330
17
100
AcDbEntity
  8
POCKET
100
AcDbLine
 10
76.06152875097239
 20
25.01814132493997
 30
0.0
 11
76.0944394565367
 21
25.09836856766157
 31
0.0
  0
LINE
  5
5E
330
17
100
AcDbEntity
  8
POCKET
100
AcDbLine
 10
76.0944394565367
 20
25.09836856766157
 30
0.0
 11
77.96509403100693
 21
30.28880703305285
 31
0.0
  0
LINE
  5
5F
330
17
100
AcDbEntity
  8
POCKET
100
AcDbLine
 10
77.96509403100693
 20
30.28880703305285
 30
0.0
 11
77.98719615796166
 21
30.35789158922174
 31
0.0
  0
LINE
  5
60
330
17
100
AcDbEntity
  8
POCKET
100
AcDbLine
 10
77.98719615796166
 20
30.35789158922174
 30
0.0
 11
78.00423246121791
 21
30.428396513080546
 31
0.0
  0
LINE
  5
61
330
17
100
AcDbEntity
  8
POCKET
100
AcDbLine
 10
78.00423246121791
 20
30.428396513080546
 30
0.0
 11
78.83435783003735
 21
34.506495564359554
 31
0.0
  0
LINE
  5
62
330
17
100
AcDbEntity
  8
POCKET
100
AcDbLine
 10
78.83435783003735
 20
34.506495564359554
 30
0.0
 11
78.8470320229497
 21
34.58435930206356
 31
0.0
  0
LINE
  5
63
330
17
100
AcDbEntity
  8
POCKET
100
AcDbLine
 10
78.8470320229497
 20
34.58435930206356
 30
0.0
 11
78.85352900374586
 21
34.66297982136834
 31
0.0
  0
LINE
  5
64
330
17
100
AcDbEntity
  8
POCKET
100
AcDbLine
 10
78.85352900374586
 20
34.66297982136834
 30
0.0
 11
79.12342666218929
 21
40.9364746247343
 31
0.0
  0
LINE
  5
65
330
17
100
AcDbEntity
  8
POCKET
100
AcDbLine
 10
79.12342666218929
 20
40.9364746247343
 30
0.0
 11
80.4860362315177
 21
42.85921984736888
 31
0.0
  0
LINE
  5
66
330
17
100
AcDbEntity
  8
POCKET
100
AcDbLine
 10
80.4860362315177
 20
42.85921984736888
 30
0.0
 11
98.51884394936351
 21
51.30726284905186
 31
0.0
  0
LINE
  5
67
330
17
100
AcDbEntity
  8
POCKET
100
AcDbLine
 10
98.51884394936351
 20
51.30726284905186
 30
0.0
 11
99.20565676757654
 21
51.03964915264986
 31
0.0
  0
LINE
  5
68
330
17
100
AcDbEntity
  8
POCKET
100
AcDbLine
 10
99.20565676757654
 20
51.03964915264986
 30
0.0
 11
99.88000266976002
 21
49.663002889188796
 31
0.0
  0
LINE
  5
69
330
17
100
AcDbEntity
  8
POCKET
100
AcDbLine
 10
99.88000266976002
 20
49.663002889188796
 30
0.0
 11
99.30526194282005
 21
48.43618762032889
 31
0.0
  0
LINE
  5
6A
330
17
100
AcDbEntity
  8
POCKET
100
AcDbLine
 10
99.30526194282005
 20
48.43618762032889
 30
0.0
 11
96.73177688814395
 21
46.807569563893075
 31
0.0
  0
LINE
  5
6B
330
17
100
AcDbEntity
  8
POCKET
100
AcDbLine
 10
96.73177688814395
 20
46.807569563893075
 30
0.0
 11
96.35618328266203
 21
46.376400362896156
 31
0.0
  0
LINE
  5
6C
330
17
100
AcDbEntity
  8
POCKET
100
AcDbLine
 10
96.35618328266203
 20
46.376400362896156
 30
0.0
 11
96.27825402928842
 21
45.80991605787451
 31
0.0
  0
LINE
  5
6D
330
17
100
AcDbEntity
  8
POCKET
100
AcDbLine
 10
96.27825402928842
 20
45.80991605787451
 30
0.0
 11
96.51522759394312
 21
44.27569197722172
 31
0.0
  0
LINE
  5
6E
330
17
100
AcDbEntity
  8
POCKET
100
AcDbLine
 10
96.51522759394312
 20
44.27569197722172
 30
0.0
 11
96.65776938015887
 21
43.89474298762942
 31
0.0
  0
LINE
  5
6F
330
17
100
AcDbEntity
  8
POCKET
100
AcDbLine
 10
96.65776938015887
 20
43.89474298762942
 30
0.0
 11
96.94023044525505
 21
43.60207245581302
 31
0.0
  0
LINE
  5
70
330
17
100
AcDbEntity
  8
POCKET
100
AcDbLine
 10
96.94023044525505
 20
43.60207245581302
 30
0.0
 11
98.49922906015394
 21
42.53928211019292
 31
0.0
  0
LINE
  5
71
330
17
100
AcDbEntity
  8
POCKET
100
AcDbLine
 10
98.49922906015394
 20
42.53928211019292
 30
0.0
 11
98.9907165693183
 21
42.36812997221251
 31
0.0
  0
LINE
  5
72
330
17
100
AcDbEntity
  8
POCKET
100
AcDbLine
 10
98.9907165693183
 20
42.36812997221251
 30
0.0
 11
99.50164868424446
 21
42.46713199207544
 31
0.0
  0
LINE
  5
73
330
17
100
AcDbEntity
  8
POCKET
100
AcDbLine
 10
99.50164868424446
 20
42.46713199207544
 30
0.0
 11
103.90756105363289
 21
44.62071881253796
 31
0.0
  0
LINE
  5
74
330
17
100
AcDbEntity
  8
POCKET
100
AcDbLine
 10
103.90756105363289
 20
44.62071881253796
 30
0.0
 11
104.13398206672686
 21
44.77279476438888
 31
0.0
  0
LINE
  5
75
330
17
100
AcDbEntity
  8
POCKET
100
AcDbLine
 10
104.13398206672686
 20
44.77279476438888
 30
0.0
 11
104.31088948087556
 21
44.98039374589187
 31
0.0
  0
LINE
  5
76
330
17
100
AcDbEntity
  8
POCKET
100
AcDbLine
 10
104.31088948087556
 20
44.98039374589187
 30
0.0
 11
105.4763683506346
 21
46.80293565326881
 31
0.0
  0
LINE
  5
77
330
17
100
AcDbEntity
  8
POCKET
100
AcDbLine
 10
105.4763683506346
 20
46.80293565326881
 30
0.0
 11
105.58642330143235
 21
47.03721883720562
 31
0.0
  0
LINE
  5
78
330
17
100
AcDbEntity
  8
POCKET
100
AcDbLine
 10
105.58642330143235
 20
47.03721883720562
 30
0.0
 11
105.63265839166012
 21
47.29190102916708
 31
0.0
  0
LINE
  5
79
330
17
100
AcDbEntity
  8
POCKET
100
AcDbLine
 10
105.63265839166012
 20
47.29190102916708
 30
0.0
 11
105.74396409150698
 21
49.52519703309973
 31
0.0
  0
LINE
  5
7A
330
17
100
AcDbEntity
  8
POCKET
100
AcDbLine
 10
105.74396409150698
 20
49.52519703309973
 30
0.0
 11
105.72694823587211
 21
49.765179018349045
 31
0.0
  0
LINE
  5
7B
330
17
100
AcDbEntity
  8
POCKET
100
AcDbLine
 10
105.72694823587211
 20
49.765179018349045
 30
0.0
 11
105.65310813343653
 21
49.99415179371654
 31
0.0
  0
LINE
  5
7C
330
17
100
AcDbEntity
  8
POCKET
100
AcDbLine
 10
105.65310813343653
 20
49.99415179371654
 30
0.0
 11
101.16712717205694
 21
59.710425504051145
 31
0.0
  0
LINE
  5
7D
330
17
100
AcDbEntity
  8
POCKET
100
AcDbLine
 10
101.16712717205694
 20
59.710425504051145
 30
0.0
 11
101.08071049133521
 21
59.86147440477512
 31
0.0
  0
LINE
  5
7E
330
17
100
AcDbEntity
  8
POCKET
100
AcDbLine
 10
101.08071049133521
 20
59.86147440477512
 30
0.0
 11
100.96941619501898
 21
59.99525479468472
 31
0.0
  0
LINE
  5
7F
330
17
100
AcDbEntity
  8
POCKET
100
AcDbLine
 10
100.96941619501898
 20
59.99525479468472
 30
0.0
 11
99.00828065927237
 21
61.973624681847305
 31
0.0
  0
LINE
  5
80
330
17
100
AcDbEntity
  8
POCKET
100
AcDbLine
 10
99.00828065927237
 20
61.973624681847305
 30
0.0
 11
98.84666374397901
 21
62.10571842941874
 31
0.0
  0
LINE
  5
81
330
17
100
AcDbEntity
  8
POCKET
100
AcDbLine
 10
98.84666374397901
 20
62.10571842941874
 30
0.0
 11
98.66114601748974
 21
62.20138429906234
 31
0.0
  0
LINE
  5
82
330
17
100
AcDbEntity
  8
POCKET
100
AcDbLine
 10
98.66114601748974
 20
62.20138429906234
 30
0.0
 11
96.36512693696324
 21
63.096018378181434
 31
0.0
  0
LINE
  5
83
330
17
100
AcDbEntity
  8
POCKET
100
AcDbLine
 10
96.36512693696324
 20
63.096018378181434
 30
0.0
 11
95.52553023470081
 21
64.6307444794573
 31
0.0
  0
LINE
  5
84
330
17
100
AcDbEntity
  8
POCKET
100
AcDbLine
 10
95.52553023470081
 20
64.6307444794573
 30
0.0
 11
95.39143181146038
 21
65.78811206886238
 31
0.0
  0
LINE
  5
85
330
17
100
AcDbEntity
  8
POCKET
100
AcDbLine
 10
95.39143181146038
 20
65.78811206886238
 30
0.0
 11
95.30891993204345
 21
66.08577088807704
 31
0.0
  0
LINE
  5
86
330
17
100
AcDbEntity
  8
POCKET
100
AcDbLine
 10
95.30891993204345
 20
66.08577088807704
 30
0.0
 11
95.13950548610794
 21
66.34404928130716
 31
0.0
  0
LINE
  5
87
330
17
100
AcDbEntity
  8
POCKET
100
AcDbLine
 10
95.13950548610794
 20
66.34404928130716
 30
0.0
 11
94.71510742529082
 21
66.8129696220631
 31
0.0
  0
LINE
  5
88
330
17
100
AcDbEntity
  8
POCKET
100
AcDbLine
 10
94.71510742529082
 20
66.8129696220631
 30
0.0
 11
94.44989142386852
 21
67.02126778496918
 31
0.0
  0
LINE
  5
89
330
17
100
AcDbEntity
  8
POCKET
100
AcDbLine
 10
94.44989142386852
 20
67.02126778496918
 30
0.0
 11
94.13051693187438
 21
67.1295617642292
 31
0.0
  0
LINE
  5
8A
330
17
100
AcDbEntity
  8
POCKET
100
AcDbLine
 10
94.13051693187438
 20
67.1295617642292
 30
0.0
 11
92.83486875154922
 21
67.33531451488966
 31
0.0
  0
LINE
  5
8B
330
17
100
AcDbEntity
  8
POCKET
100
AcDbLine
 10
92.83486875154922
 20
67.33531451488966
 30
0.0
 11
92.68990175514836
 21
67.49548954778157
 31
0.0
  0
LINE
  5
8C
330
17
100
AcDbEntity
  8
POCKET
100
AcDbLine
 10
92.68990175514836
 20
67.49548954778157
 30
0.0
 11
92.68173466413559
 21
68.40719256050117
 31
0.0
  0
LINE
  5
8D
330
17
100
AcDbEntity
  8
POCKET
100
AcDbLine
 10
92.68173466413559
 20
68.40719256050117
 30
0.0
 11
94.23194266185611
 21
71.6536892767272
 31
0.0
  0
LINE
  5
8E
330
17
100
AcDbEntity
  8
POCKET
100
AcDbLine
 10
94.23194266185611
 20
71.6536892767272
 30
0.0
 11
94.31847017450592
 21
71.9361922995575
 31
0.0
  0
LINE
  5
8F
330
17
100
AcDbEntity
  8
POCKET
100
AcDbLine
 10
94.31847017450592
 20
71.9361922995575
 30
0.0
 11
94.31866923278164
 21
72.23164945166153
 31
0.0
  0
LINE
  5
90
330
17
100
AcDbEntity
  8
POCKET
100
AcDbLine
 10
94.31866923278164
 20
72.23164945166153
 30
0.0
 11
93.98331573184203
 21
74.48720659556355
 31
0.0
  0
LINE
  5
91
330
17
100
AcDbEntity
  8
POCKET
100
AcDbLine
 10
93.98331573184203
 20
74.48720659556355
 30
0.0
 11
93.95179639867696
 21
74.62821916620325
 31
0.0
  0
LINE
  5
92
330
17
100
AcDbEntity
  8
POCKET
100
AcDbLine
 10
93.95179639867696
 20
74.62821916620325
 30
0.0
 11
93.90028411475011
 21
74.76321730710241
 31
0.0
  0
LINE
  5
93
330
17
100
AcDbEntity
  8
POCKET
100
AcDbLine
 10
93.90028411475011
 20
74.76321730710241
 30
0.0
 11
90.21857699506603
 21
82.64833193435213
 31
0.0
  0
LINE
  5
94
330
17
100
AcDbEntity
  8
POCKET
100
AcDbLine
 10
90.21857699506603
 20
82.64833193435213
 30
0.0
 11
90.17291498672043
 21
82.73482153578387
 31
0.0
  0
LINE
  5
95
330
17
100
AcDbEntity
  8
POCKET
100
AcDbLine
 10
90.17291498672043
 20
82.73482153578387
 30
0.0
 11
90.11902252630328
 21
82.8164369318324
 31
0.0
  0
LINE
  5
96
330
17
100
AcDbEntity
  8
POCKET
100
AcDbLine
 10
90.11902252630328
 20
82.8164369318324
 30
0.0
 11
87.93886597801729
 21
85.790813744707
 31
0.0
  0
LINE
  5
97
330
17
100
AcDbEntity
  8
POCKET
100
AcDbLine
 10
87.93886597801729
 20
85.790813744707
 30
0.0
 11
87.688737277183
 21
86.03054203796196
 31
0.0
  0
LINE
  5
98
330
17
100
AcDbEntity
  8
POCKET
100
AcDbLine
 10
87.688737277183
 20
86.03054203796196
 30
0.0
 11
87.37182015186336
 21
86.17053331357276
 31
0.0
  0
LINE
  5
99
330
17
100
AcDbEntity
  8
POCKET
100
AcDbLine
 10
87.37182015186336
 20
86.17053331357276
 30
0.0
 11
84.18703950215748
 21
86.95613640245345
 31
0.0
  0
LINE
  5
9A
330
17
100
AcDbEntity
  8
POCKET
100
AcDbLine
 10
84.18703950215748
 20
86.95613640245345
 30
0.0
 11
83.92010019774048
 21
86.98486222907606
 31
0.0
  0
LINE
  5
9B
330
17
100
AcDbEntity
  8
POCKET
100
AcDbLine
 10
83.92010019774048
 20
86.98486222907606
 30
0.0
 11
83.65513910355432
 21
86.94153344043097
 31
0.0
  0
LINE
  5
9C
330
17
100
AcDbEntity
  8
POCKET
100
AcDbLine
 10
83.65513910355432
 20
86.94153344043097
 30
0.0
 11
80.38131389397088
 21
85.94049972616553
 31
0.0
  0
LINE
  5
9D
330
17
100
AcDbEntity
  8
POCKET
100
AcDbLine
 10
80.38131389397088
 20
85.94049972616553
 30
0.0
 11
80.16415274595883
 21
85.84463661539418
 31
0.0
  0
LINE
  5
9E
330
17
100
AcDbEntity
  8
POCKET
100
AcDbLine
 10
80.16415274595883
 20
85.84463661539418
 30
0.0
 11
79.97570499200853
 21
85.70028931114588
 31
0.0
  0
LINE
  5
9F
330
17
100
AcDbEntity
  8
POCKET
100
AcDbLine
 10
79.97570499200853
 20
85.70028931114588
 30
0.0
 11
77.20725771735991
 21
83.00170296913815
 31
0.0
  0
LINE
  5
A0
330
17
100
AcDbEntity
  8
POCKET
100
AcDbLine
 10
77.20725771735991
 20
83.00170296913815
 30
0.0
 11
76.13002842035633
 21
83.00015265642604
 31
0.0
  0
LINE
  5
A1
330
17
100
AcDbEntity
  8
POCKET
100
AcDbLine
 10
76.13002842035633
 20
83.00015265642604
 30
0.0
 11
74.61725002560887
 21
83.85319500472504
 31
0.0
  0
LINE
  5
A2
330
17
100
AcDbEntity
  8
POCKET
100
AcDbLine
 10
74.61725002560887
 20
83.85319500472504
 30
0.0
 11
74.1173122860277
 21
83.98209940635192
 31
0.0
  0
LINE
  5
A3
330
17
100
AcDbEntity
  8
POCKET
100
AcDbLine
 10
74.1173122860277
 20
83.98209940635192
 30
0.0
 11
73.61970856304204
 21
83.84445993858513
 31
0.0
  0
LINE
  5
A4
330
17
100
AcDbEntity
  8
POCKET
100
AcDbLine
 10
73.61970856304204
 20
83.84445993858513
 30
0.0
 11
72.44889207899936
 21
83.15695054045263
 31
0.0
  0
LINE
  5
A5
330
17
100
AcDbEntity
  8
POCKET
100
AcDbLine
 10
72.44889207899936
 20
83.15695054045263
 30
0.0
 11
70.57675602864906
 21
83.43887500913917
 31
0.0
  0
LINE
  5
A6
330
17
100
AcDbEntity
  8
POCKET
100
AcDbLine
 10
70.57675602864906
 20
83.43887500913917
 30
0.0
 11
70.43023754186952
 21
83.45002150813607
 31
0.0
  0
LINE
  5
A7
330
17
100
AcDbEntity
  8
POCKET
100
AcDbLine
 10
70.43023754186952
 20
83.45002150813607
 30
0.0
 11
70.28366740146451
 21
83.43957615750966
 31
0.0
  0
LINE
  5
A8
330
17
100
AcDbEntity
  8
POCKET
100
AcDbLine
 10
70.28366740146451
 20
83.43957615750966
 30
0.0
 11
67.30677719431323
 21
83.0058427202851
 31
0.0
  0
LINE
  5
A9
330
17
100
AcDbEntity
  8
POCKET
100
AcDbLine
 10
67.30677719431323
 20
83.0058427202851
 30
0.0
 11
66.96182711081234
 21
82.88850297206059
 31
0.0
  0
LINE
  5
AA
330
17
100
AcDbEntity
  8
POCKET
100
AcDbLine
 10
66.96182711081234
 20
82.88850297206059
 30
0.0
 11
66.6818132520811
 21
82.65536907161042
 31
0.0
  0
LINE
  5
AB
330
17
100
AcDbEntity
  8
POCKET
100
AcDbLine
 10
66.6818132520811
 20
82.65536907161042
 30
0.0
 11
66.11020438718623
 21
81.96742771831524
 31
0.0
  0
LINE
  5
AC
330
17
100
AcDbEntity
  8
POCKET
100
AcDbLine
 10
66.11020438718623
 20
81.96742771831524
 30
0.0
 11
65.94757995619959
 21
81.69140833793544
 31
0.0
  0
LINE
  5
AD
330
17
100
AcDbEntity
  8
POCKET
100
AcDbLine
 10
65.94757995619959
 20
81.69140833793544
 30
0.0
 11
65.88058586670243
 21
81.37812700132021
 31
0.0
  0
LINE
  5
AE
330
17
100
AcDbEntity
  8
POCKET
100
AcDbLine
 10
65.88058586670243
 20
81.37812700132021
 30
0.0
 11
65.7757723040227
 21
79.27509264627318
 31
0.0
  0
LINE
  5
AF
330
17
100
AcDbEntity
  8
POCKET
100
AcDbLine
 10
65.7757723040227
 20
79.27509264627318
 30
0.0
 11
64.50806702090719
 21
77.85944129380472
 31
0.0
  0
LINE
  5
B0
330
17
100
AcDbEntity
  8
POCKET
100
AcDbLine
 10
64.50806702090719
 20
77.85944129380472
 30
0.0
 11
62.98982350967893
 21
76.99271837918086
 31
0.0
  0
LINE
  5
B1
330
17
100
AcDbEntity
  8
POCKET
100
AcDbLine
 10
62.98982350967893
 20
76.99271837918086
 30
0.0
 11
62.7810204867165
 21
76.83389406725131
 31
0.0
  0
LINE
  5
B2
330
17
100
AcDbEntity
  8
POCKET
100
AcDbLine
 10
62.7810204867165
 20
76.83389406725131
 30
0.0
 11
62.62070921910149
 21
76.62623048851444
 31
0.0
  0
LINE
  5
B3
330
17
100
AcDbEntity
  8
POCKET
100
AcDbLine
 10
62.62070921910149
 20
76.62623048851444
 30
0.0
 11
61.12668383088316
 21
74.05200669305661
 31
0.0
  0
LINE
  5
B4
330
17
100
AcDbEntity
  8
POCKET
100
AcDbLine
 10
61.12668383088316
 20
74.05200669305661
 30
0.0
 11
59.57891797799313
 21
73.06756547161227
 31
0.0
  0
LINE
  5
B5
330
17
100
AcDbEntity
  8
POCKET
100
AcDbLine
 10
59.57891797799313
 20
73.06756547161227
 30
0.0
 11
54.69764477727801
 21
75.38262764409615
 31
0.0
  0
LINE
  5
B6
330
17
100
AcDbEntity
  8
POCKET
100
AcDbLine
 10
54.69764477727801
 20
75.38262764409615
 30
0.0
 11
54.62462835409209
 21
75.4137704296672
 31
0.0
  0
LINE
  5
B7
330
17
100
AcDbEntity
  8
POCKET
100
AcDbLine
 10
54.62462835409209
 20
75.4137704296672
 30
0.0
 11
54.54937179567496
 21
75.43902357923707
 31
0.0
  0
LINE
  5
B8
330
17
100
AcDbEntity
  8
POCKET
100
AcDbLine
 10
54.54937179567496
 20
75.43902357923707
 30
0.0
 11
46.78166664970341
 21
77.7067882860016
 31
0.0
  0
LINE
  5
B9
330
17
100
AcDbEntity
  8
POCKET
100
AcDbLine
 10
46.78166664970341
 20
77.7067882860016
 30
0.0
 11
46.71418054955897
 21
77.72396478373167
 31
0.0
  0
LINE
  5
BA
330
17
100
AcDbEntity
  8
POCKET
100
AcDbLine
 10
46.71418054955897
 20
77.72396478373167
 30
0.0
 11
46.645662677075
 21
77.73640290807775
 31
0.0
  0
LINE
  5
BB
330
17
100
AcDbEntity
  8
POCKET
100
AcDbLine
 10
46.645662677075
 20
77.73640290807775
 30
0.0
 11
42.91153430244362
 21
78.28072384444978
 31
0.0
  0
LINE
  5
BC
330
17
100
AcDbEntity
  8
POCKET
100
AcDbLine
 10
42.91153430244362
 20
78.28072384444978
 30
0.0
 11
42.85381836209549
 21
78.2874311522746
 31
0.0
  0
LINE
  5
BD
330
17
100
AcDbEntity
  8
POCKET
100
AcDbLine
 10
42.85381836209549
 20
78.2874311522746
 30
0.0
 11
42.79581029026476
 21
78.29077500499362
 31
0.0
  0
LINE
  5
BE
330
17
100
AcDbEntity
  8
POCKET
100
AcDbLine
 10
42.79581029026476
 20
78.29077500499362
 30
0.0
 11
34.81627011058077
 21
78.5184500734386
 31
0.0
  0
LINE
  5
BF
330
17
100
AcDbEntity
  8
POCKET
100
AcDbLine
 10
34.81627011058077
 20
78.5184500734386
 30
0.0
 11
34.66592957474888
 21
78.68456236706213
 31
0.0
  0
LINE
  5
C0
330
17
100
AcDbEntity
  8
POCKET
100
AcDbLine
 10
34.66592957474888
 20
78.68456236706213
 30
0.0
 11
34.40609945516748
 21
80.33096517421771
 31
0.0
  0
LINE
  5
C1
330
17
100
AcDbEntity
  8
POCKET
100
AcDbLine
 10
34.40609945516748
 20
80.33096517421771
 30
0.0
 11
34.224843133387196
 21
80.76628652163288
 31
0.0
  0
LINE
  5
C2
330
17
100
AcDbEntity
  8
POCKET
100
AcDbLine
 10
34.224843133387196
 20
80.76628652163288
 30
0.0
 11
33.86425054567552
 21
81.07014753490718
 31
0.0
  0
LINE
  5
C3
330
17
100
AcDbEntity
  8
POCKET
100
AcDbLine
 10
33.86425054567552
 20
81.07014753490718
 30
0.0
 11
32.05984149194599
 21
81.9691083387461
 31
0.0
  0
LINE
  5
C4
330
17
100
AcDbEntity
  8
POCKET
100
AcDbLine
 10
32.05984149194599
 20
81.9691083387461
 30
0.0
 11
30.00488969990319
 21
85.95252224590233
 31
0.0
  0
LINE
  5
C5
330
17
100
AcDbEntity
  8
POCKET
100
AcDbLine
 10
30.00488969990319
 20
85.95252224590233
 30
0.0
 11
29.836305774603268
 21
86.18789742610191
 31
0.0
  0
LINE
  5
C6
330
17
100
AcDbEntity
  8
POCKET
100
AcDbLine
 10
29.836305774603268
 20
86.18789742610191
 30
0.0
 11
29.607359270308066
 21
86.36511343411057
 31
0.0
  0
LINE
  5
C7
330
17
100
AcDbEntity
  8
POCKET
100
AcDbLine
 10
29.607359270308066
 20
86.36511343411057
 30
0.0
 11
28.736302008704385
 21
86.85629491483586
 31
0.0
  0
LINE
  5
C8
330
17
100
AcDbEntity
  8
POCKET
100
AcDbLine
 10
28.736302008704385
 20
86.85629491483586
 30
0.0
 11
28.20883109203829
 21
86.98457897472304
 31
0.0
  0
LINE
  5
C9
330
17
100
AcDbEntity
  8
POCKET
100
AcDbLine
 10
28.20883109203829
 20
86.98457897472304
 30
0.0
 11
27.69205403228679
 21
86.81837476760329
 31
0.0
  0
LINE
  5
CA
330
17
100
AcDbEntity
  8
POCKET
100
AcDbLine
 10
27.69205403228679
 20
86.81837476760329
 30
0.0
 11
24.234562122100435
 21
84.52316681003359
 31
0.0
  0
LINE
  5
CB
330
17
100
AcDbEntity
  8
POCKET
100
AcDbLine
 10
24.234562122100435
 20
84.52316681003359
 30
0.0
 11
22.082790007625032
 21
85.36159567172511
 31
0.0
  0
LINE
  5
CC
330
17
100
AcDbEntity
  8
POCKET
100
AcDbLine
 10
22.082790007625032
 20
85.36159567172511
 30
0.0
 11
21.81620294291096
 21
85.42516515388898
 31
0.0
  0
LINE
  5
CD
330
17
100
AcDbEntity
  8
POCKET
100
AcDbLine
 10
21.81620294291096
 20
85.42516515388898
 30
0.0
 11
21.54236991412746
 21
85.41397522615445
 31
0.0
  0
LINE
  5
CE
330
17
100
AcDbEntity
  8
POCKET
100
AcDbLine
 10
21.54236991412746
 20
85.41397522615445
 30
0.0
 11
19.012138907762687
 21
84.95798064896046
 31
0.0
  0
LINE
  5
CF
330
17
100
AcDbEntity
  8
POCKET
100
AcDbLine
 10
19.012138907762687
 20
84.95798064896046
 30
0.0
 11
18.775924156209133
 21
84.88430440896961
 31
0.0
  0
LINE
  5
D0
330
17
100
AcDbEntity
  8
POCKET
100
AcDbLine
 10
18.775924156209133
 20
84.88430440896961
 30
0.0
 11
18.565030847517434
 21
84.75488412640246
 31
0.0
  0
LINE
  5
D1
330
17
100
AcDbEntity
  8
POCKET
100
AcDbLine
 10
18.565030847517434
 20
84.75488412640246
 30
0.0
 11
15.105766866289326
 21
81.98911179205493
 31
0.0
  0
LINE
  5
D2
330
17
100
AcDbEntity
  8
POCKET
100
AcDbLine
 10
15.105766866289326
 20
81.98911179205493
 30
0.0
 11
13.244666216542758
 21
81.56192131866939
 31
0.0
  0
LINE
  5
D3
330
17
100
AcDbEntity
  8
POCKET
100
AcDbLine
 10
13.244666216542758
 20
81.56192131866939
 30
0.0
 11
12.879350269175111
 21
81.39537539889511
 31
0.0
  0
LINE
  5
D4
330
17
100
AcDbEntity
  8
POCKET
100
AcDbLine
 10
12.879350269175111
 20
81.39537539889511
 30
0.0
 11
12.608982733480817
 21
81.09856791846853
 31
0.0
  0
LINE
  5
D5
330
17
100
AcDbEntity
  8
POCKET
100
AcDbLine
 10
12.608982733480817
 20
81.09856791846853
 30
0.0
 11
11.85874729616135
 21
79.8375598831729
 31
0.0
  0
LINE
  5
D6
330
17
100
AcDbEntity
  8
POCKET
100
AcDbLine
 10
11.85874729616135
 20
79.8375598831729
 30
0.0
 11
9.30711536760902
 21
78.3142567206038
 31
0.0
  0
LINE
  5
D7
330
17
100
AcDbEntity
  8
POCKET
100
AcDbLine
 10
9.30711536760902
 20
78.3142567206038
 30
0.0
 11
9.123554971317935
 21
78.17351723794879
 31
0.0
  0
LINE
  5
D8
330
17
100
AcDbEntity
  8
POCKET
100
AcDbLine
 10
9.123554971317935
 20
78.17351723794879
 30
0.0
 11
8.977240308297654
 21
77.99436914153189
 31
0.0
  0
LINE
  5
D9
330
17
100
AcDbEntity
  8
POCKET
100
AcDbLine
 10
8.977240308297654
 20
77.99436914153189
 30
0.0
 11
7.811761438538567
 21
76.17182723415497
 31
0.0
  0
LINE
  5
DA
330
17
100
AcDbEntity
  8
POCKET
100
AcDbLine
 10
7.811761438538567
 20
76.17182723415497
 30
0.0
 11
7.707504904542736
 21
75.95512218507464
 31
0.0
  0
LINE
  5
DB
330
17
100
AcDbEntity
  8
POCKET
100
AcDbLine
 10
7.707504904542736
 20
75.95512218507464
 30
0.0
 11
7.657998059422754
 21
75.71979353092476
 31
0.0
  0
LINE
  5
DC
330
17
100
AcDbEntity
  8
POCKET
100
AcDbLine
 10
7.657998059422754
 20
75.71979353092476
 30
0.0
 11
7.146571508358411
 21
69.84381993821093
 31
0.0
  0
LINE
  5
DD
330
17
100
AcDbEntity
  8
POCKET
100
AcDbLine
 10
7.146571508358411
 20
69.84381993821093
 30
0.0
 11
6.23306363919996
 21
67.49936252623276
 31
0.0
  0
LINE
  5
DE
330
17
100
AcDbEntity
  8
POCKET
100
AcDbLine
 10
6.23306363919996
 20
67.49936252623276
 30
0.0
 11
4.208621939936836
 21
65.12629397336316
 31
0.0
  0
LINE
  5
DF
330
17
100
AcDbEntity
  8
POCKET
100
AcDbLine
 10
4.208621939936836
 20
65.12629397336316
 30
0.0
 11
1.9380546147047808
 21
63.71618066349925
 31
0.0
  0
LINE
  5
E0
330
17
100
AcDbEntity
  8
POCKET
100
AcDbLine
 10
1.9380546147047806
 20
63.71618066349925
 30
0.0
 11
1.607281627738327
 21
63.37973728354499
 31
0.0
  0
LINE
  5
E1
330
17
100
AcDbEntity
  8
POCKET
100
AcDbLine
 10
1.607281627738327
 20
63.37973728354499
 30
0.0
 11
1.4675817333269487
 21
62.929083473705106
 31
0.0
  0
LINE
  5
E2
330
17
100
AcDbEntity
  8
POCKET
100
AcDbLine
 10
1.4675817333269487
 20
62.929083473705106
 30
0.0
 11
1.5500528148460995
 21
62.46453698783441
 31
0.0
  0
LINE
  5
E3
330
17
100
AcDbEntity
  8
POCKET
100
AcDbLine
 10
1.5500528148460995
 20
62.46453698783441
 30
0.0
 11
2.0728308119481955
 21
61.2742835838292
 31
0.0
  0
LINE
  5
E4
330
17
100
AcDbEntity
  8
POCKET
100
AcDbLine
 10
2.0728308119481955
 20
61.2742835838292
 30
0.0
 11
2.326720417978175
 21
60.92664291816113
 31
0.0
  0
LINE
  5
E5
330
17
100
AcDbEntity
  8
POCKET
100
AcDbLine
 10
2.326720417978175
 20
60.92664291816113
 30
0.0
 11
2.703230409211969
 21
60.7179465095257
 31
0.0
  0
LINE
  5
E6
330
17
100
AcDbEntity
  8
POCKET
100
AcDbLine
 10
2.703230409211969
 20
60.7179465095257
 30
0.0
 11
3.1325882265091463
 21
60.686868716779095
 31
0.0
  0
LINE
  5
E7
330
17
100
AcDbEntity
  8
POCKET
100
AcDbLine
 10
3.1325882265091463
 20
60.686868716779095
 30
0.0
 11
5.78122982844431
 21
61.072776273337155
 31
0.0
  0
LINE
  5
E8
330
17
100
AcDbEntity
  8
POCKET
100
AcDbLine
 10
5.78122982844431
 20
61.072776273337155
 30
0.0
 11
6.190526221103166
 21
60.85134884168468
 31
0.0
  0
LINE
  5
E9
330
17
100
AcDbEntity
  8
POCKET
100
AcDbLine
 10
6.190526221103166
 20
60.85134884168468
 30
0.0
 11
6.265282669827281
 21
60.68114443740896
 31
0.0
  0
LINE
  5
EA
330
17
100
AcDbEntity
  8
POCKET
100
AcDbLine
 10
6.265282669827281
 20
60.68114443740896
 30
0.0
 11
3.7935729893102255
 21
55.77277982686464
 31
0.0
  0
LINE
  5
EB
330
17
100
AcDbEntity
  8
POCKET
100
AcDbLine
 10
3.7935729893102255
 20
55.77277982686464
 30
0.0
 11
3.7663582822043336
 21
55.71408285040273
 31
0.0
  0
LINE
  5
EC
330
17
100
AcDbEntity
  8
POCKET
100
AcDbLine
 10
3.7663582822043336
 20
55.71408285040273
 30
0.0
 11
3.7429961898806945
 21
55.65374888011325
 31
0.0
  0
LINE
  5
ED
330
17
100
AcDbEntity
  8
POCKET
100
AcDbLine
 10
3.7429961898806945
 20
55.65374888011325
 30
0.0
 11
1.028572282329612
 21
47.908304874111074
 31
0.0
  0
LINE
  5
EE
330
17
100
AcDbEntity
  8
POCKET
100
AcDbLine
 10
1.0285722823296122
 20
47.908304874111074
 30
0.0
 11
0.9972830093955153
 21
47.79971650394582
 31
0.0
  0
LINE
  5
EF
330
17
100
AcDbEntity
  8
POCKET
100
AcDbLine
 10
0.9972830093955153
 20
47.79971650394582
 30
0.0
 11
0.9784451051393382
 21
47.68829125501575
 31
0.0
  0
LINE
  5
F0
330
17
100
AcDbEntity
  8
POCKET
100
AcDbLine
 10
0.9784451051393382
 20
47.68829125501575
 30
0.0
 11
0.006135720795648797
 21
38.96048428756297
 31
0.0
  0
LINE
  5
F1
330
17
100
AcDbEntity
  8
POCKET
100
AcDbLine
 10
0.006135720795648836
 20
38.96048428756297
 30
0.0
 11
1.8593718672219447e-19
 21
38.854764461823635
 31
0.0
  0
ENDSEC
  0
SECTION
  2
OBJECTS
  0
DICTIONARY
  5
A
330
0
100
AcDbDictionary
281
1
  3
ACAD_COLOR
350
B
  3
ACAD_GROUP
350
C
  3
ACAD_LAYOUT
350
D
  3
ACAD_MATERIAL
350
E
  3
ACAD_MLEADERSTYLE
350
F
  3
ACAD_MLINESTYLE
350
10
  3
ACAD_PLOTSETTINGS
350
11
  3
ACAD_PLOTSTYLENAME
350
12
  3
ACAD_SCALELIST
350
14
  3
ACAD_TABLESTYLE
350
15
  3
ACAD_VISUALSTYLE
350
16
  3
EZDXF_META
350
2D
  0
DICTIONARY
  5
B
330
A
100
AcDbDictionary
281
1
  0
DICTIONARY
  5
C
330
A
100
AcDbDictionary
281
1
  0
DICTIONARY
  5
D
330
A
100
AcDbDictionary
281
1
  3
Model
350
1A
  3
Layout1
350
1E
  0
DICTIONARY
  5
E
330
A
100
AcDbDictionary
281
1
  3
ByBlock
350
1F
  3
ByLayer
350
20
  3
Global
350
21
  0
DICTIONARY
  5
F
330
A
100
AcDbDictionary
281
1
  3
Standard
350
2C
  0
DICTIONARY
  5
10
330
A
100
AcDbDictionary
281
1
  3
Standard
350
22
  0
DICTIONARY
  5
11
330
A
100
AcDbDictionary
281
1
  0
ACDBDICTIONARYWDFLT
  5
12
330
A
100
AcDbDictionary
281
1
  3
Normal
350
13
100
AcDbDictionaryWithDefault
340
13
  0
ACDBPLACEHOLDER
  5
13
330
12
  0
DICTIONARY
  5
14
330
A
100
AcDbDictionary
281
1
  0
DICTIONARY
  5
15
330
A
100
AcDbDictionary
281
1
  0
DICTIONARY
  5
16
330
A
100
AcDbDictionary
281
1
  0
LAYOUT
  5
1A
330
D
100
AcDbPlotSettings
  1

  4
A3
  6

 40
7.5
 41
20.0
 42
7.5
 43
20.0
 44
420.0
 45
297.0
 46
0.0
 47
0.0
 48
0.0
 49
0.0
140
0.0
141
0.0
142
1.0
143
1.0
 70
1024
 72
1
 73
0
 74
5
  7

 75
16
 76
0
 77
2
 78
300
147
1.0
148
0.0
149
0.0
100
AcDbLayout
  1
Model
 70
1
 71
0
 10
0.0
 20
0.0
 11
420.0
 21
297.0
 12
0.0
 22
0.0
 32
0.0
 14
1e+20
 24
1e+20
 34
1e+20
 15
-1e+20
 25
-1e+20
 35
-1e+20
146
0.0
 13
0.0
 23
0.0
 33
0.0
 16
1.0
 26
0.0
 36
0.0
 17
0.0
 27
1.0
 37
0.0
 76
1
330
17
  0
LAYOUT
  5
1E
330
D
100
AcDbPlotSettings
  1

  4
A3
  6

 40
7.5
 41
20.0
 42
7.5
 43
20.0
 44
420.0
 45
297.0
 46
0.0
 47
0.0
 48
0.0
 49
0.0
140
0.0
141
0.0
142
1.0
143
1.0
 70
0
 72
1
 73
0
 74
5
  7

 75
16
 76
0
 77
2
 78
300
147
1.0
148
0.0
149
0.0
100
AcDbLayout
  1
Layout1
 70
1
 71
1
 10
0.0
 20
0.0
 11
420.0
 21
297.0
 12
0.0
 22
0.0
 32
0.0
 14
1e+20
 24
1e+20
 34
1e+20
 15
-1e+20
 25
-1e+20
 35
-1e+20
146
0.0
 13
0.0
 23
0.0
 33
0.0
 16
1.0
 26
0.0
 36
0.0
 17
0.0
 27
1.0
 37
0.0
 76
1
330
1B
  0
MATERIAL
  5
1F
102
{ACAD_REACTORS
330
E
102
}
330
E
100
AcDbMaterial
  1
ByBlock
  2

 70
0
 40
1.0
 71
1
 41
1.0
 91
-1023410177
 42
1.0
 72
1
  3

 73
1
 74
1
 75
1
 44
0.5
 73
0
 45
1.0
 46
1.0
 77
1
  4

 78
1
 79
1
170
1
 48
1.0
171
1
  6

172
1
173
1
174
1
140
1.0
141
1.0
175
1
  7

176
1
177
1
178
1
143
1.0
179
1
  8

270
1
271
1
272
1
145
1.0
146
1.0
273
1
  9

274
1
275
1
276
1
 42
1.0
 72
1
  3

 73
1
 74
1
 75
1
 94
63
  0
MATERIAL
  5
20
102
{ACAD_REACTORS
330
E
102
}
330
E
100
AcDbMaterial
  1
ByLayer
  2

 70
0
 40
1.0
 71
1
 41
1.0
 91
-1023410177
 42
1.0
 72
1
  3

 73
1
 74
1
 75
1
 44
0.5
 73
0
 45
1.0
 46
1.0
 77
1
  4

 78
1
 79
1
170
1
 48
1.0
171
1
  6

172
1
173
1
174
1
140
1.0
141
1.0
175
1
  7

176
1
177
1
178
1
143
1.0
179
1
  8

270
1
271
1
272
1
145
1.0
146
1.0
273
1
  9

274
1
275
1
276
1
 42
1.0
 72
1
  3

 73
1
 74
1
 75
1
 94
63
  0
MATERIAL
  5
21
102
{ACAD_REACTORS
330
E
102
}
330
E
100
AcDbMaterial
  1
Global
  2

 70
0
 40
1.0
 71
1
 41
1.0
 91
-1023410177
 42
1.0
 72
1
  3

 73
1
 74
1
 75
1
 44
0.5
 73
0
 45
1.0
 46
1.0
 77
1
  4

 78
1
 79
1
170
1
 48
1.0
171
1
  6

172
1
173
1
174
1
140
1.0
141
1.0
175
1
  7

176
1
177
1
178
1
143
1.0
179
1
  8

270
1
271
1
272
1
145
1.0
146
1.0
273
1
  9

274
1
275
1
276
1
 42
1.0
 72
1
  3

 73
1
 74
1
 75
1
 94
63
  0
MLINESTYLE
  5
22
102
{ACAD_REACTORS
330
10
102
}
330
10
100
AcDbMlineStyle
  2
Standard
 70
0
  3

 62
256
 51
90.0
 52
90.0
 71
2
 49
0.5
 62
256
  6
BYLAYER
 49
-0.5
 62
256
  6
BYLAYER
  0
MLEADERSTYLE
  5
2C
102
{ACAD_REACTORS
330
F
102
}
330
F
100
AcDbMLeaderStyle
179
2
170
2
171
1
172
0
 90
2
 40
0.0
 41
0.0
173
1
 91
-1056964608
 92
-2
290
1
 42
2.0
291
1
 43
8.0
  3
Standard
 44
4.0
300

342
29
174
1
175
1
176
0
178
1
 93
-1056964608
 45
4.0
292
0
297
0
 46
4.0
 94
-1056964608
 47
1.0
 49
1.0
140
1.0
294
1
141
0.0
177
0
142
1.0
295
0
296
0
143
3.75
271
0
272
9
273
9
  0
DICTIONARY
  5
2D
330
A
100
AcDbDictionary
280
1
281
1
  3
CREATED_BY_EZDXF
350
2E
  3
WRITTEN_BY_EZDXF
350
F5
  0
DICTIONARYVAR
  5
2E
330
2D
100
DictionaryVariables
280
0
  1
1.4.4 @ 2026-09-21T20:32:48.421221+00:00
  0
DICTIONARYVAR
  5
F5
330
2D
100
DictionaryVariables
280
0
  1
1.4.4 @ 2026-09-21T20:32:48.428245+00:00
  0
ENDSEC
  0
EOF
