  0
SECTION
  2
HEADER
  9
$ACADVER
  1
AC1027
  9
$ACADMAINTVER
 70
105
  9
$DWGCODEPAGE
  3
ANSI_1252
  9
$LASTSAVEDBY
  1
ezdxf
  9
$REQUIREDVERSIONS
160
0
  9
$INSBASE
 10
0.0
 20
0.0
 30
0.0
  9
$EXTMIN
 10
1e+20
 20
1e+20
 30
1e+20
  9
$EXTMAX
 10
-1e+20
 20
-1e+20
 30
-1e+20
  9
$LIMMIN
 10
0.0
 20
0.0
  9
$LIMMAX
 10
420.0
 20
297.0
  9
$ORTHOMODE
 70
0
  9
$REGENMODE
 70
1
  9
$FILLMODE
 70
1
  9
$QTEXTMODE
 70
0
  9
$MIRRTEXT
 70
1
  9
$LTSCALE
 40
1.0
  9
$ATTMODE
 70
1
  9
$TEXTSIZE
 40
2.5
  9
$TRACEWID
 40
1.0
  9
$TEXTSTYLE
  7
Standard
  9
$CLAYER
  8
0
  9
$CELTYPE
  6
ByLayer
  9
$CECOLOR
 62
256
  9
$CELTSCALE
 40
1.0
  9
$DISPSILH
 70
0
  9
$DIMSCALE
 40
1.0
  9
$DIMASZ
 40
2.5
  9
$DIMEXO
 40
0.625
  9
$DIMDLI
 40
3.75
  9
$DIMRND
 40
0.0
  9
$DIMDLE
 40
0.0
  9
$DIMEXE
 40
1.25
  9
$DIMTP
 40
0.0
  9
$DIMTM
 40
0.0
  9
$DIMTXT
 40
2.5
  9
$DIMCEN
 40
2.5
  9
$DIMTSZ
 40
0.0
  9
$DIMTOL
 70
0
  9
$DIMLIM
 70
0
  9
$DIMTIH
 70
0
  9
$DIMTOH
 70
0
  9
$DIMSE1
 70
0
  9
$DIMSE2
 70
0
  9
$DIMTAD
 70
1
  9
$DIMZIN
 70
8
  9
$DIMBLK
  1

  9
$DIMASO
 70
1
  9
$DIMSHO
 70
1
  9
$DIMPOST
  1

  9
$DIMAPOST
  1

  9
$DIMALT
 70
0
  9
$DIMALTD
 70
3
  9
$DIMALTF
 40
0.03937007874
  9
$DIMLFAC
 40
1.0
  9
$DIMTOFL
 70
1
  9
$DIMTVP
 40
0.0
  9
$DIMTIX
 70
0
  9
$DIMSOXD
 70
0
  9
$DIMSAH
 70
0
  9
$DIMBLK1
  1

  9
$DIMBLK2
  1

  9
$DIMSTYLE
  2
ISO-25
  9
$DIMCLRD
 70
0
  9
$DIMCLRE
 70
0
  9
$DIMCLRT
 70
0
  9
$DIMTFAC
 40
1.0
  9
$DIMGAP
 40
0.625
  9
$DIMJUST
 70
0
  9
$DIMSD1
 70
0
  9
$DIMSD2
 70
0
  9
$DIMTOLJ
 70
0
  9
$DIMTZIN
 70
8
  9
$DIMALTZ
 70
0
  9
$DIMALTTZ
 70
0
  9
$DIMUPT
 70
0
  9
$DIMDEC
 70
2
  9
$DIMTDEC
 70
2
  9
$DIMALTU
 70
2
  9
$DIMALTTD
 70
3
  9
$DIMTXSTY
  7
Standard
  9
$DIMAUNIT
 70
0
  9
$DIMADEC
 70
0
  9
$DIMALTRND
 40
0.0
  9
$DIMAZIN
 70
0
  9
$DIMDSEP
 70
44
  9
$DIMATFIT
 70
3
  9
$DIMFRAC
 70
0
  9
$DIMLDRBLK
  1

  9
$DIMLUNIT
 70
2
  9
$DIMLWD
 70
-2
  9
$DIMLWE
 70
-2
  9
$DIMTMOVE
 70
0
  9
$DIMFXL
 40
1.0
  9
$DIMFXLON
 70
0
  9
$DIMJOGANG
 40
0.785398163397
  9
$DIMTFILL
 70
0
  9
$DIMTFILLCLR
 70
0
  9
$DIMARCSYM
 70
0
  9
$DIMLTYPE
  6

  9
$DIMLTEX1
  6

  9
$DIMLTEX2
  6

  9
$DIMTXTDIRECTION
 70
0
  9
$LUNITS
 70
2
  9
$LUPREC
 70
4
  9
$SKETCHINC
 40
1.0
  9
$FILLETRAD
 40
10.0
  9
$AUNITS
 70
0
  9
$AUPREC
 70
2
  9
$MENU
  1
.
  9
$ELEVATION
 40
0.0
  9
$PELEVATION
 40
0.0
  9
$THICKNESS
 40
0.0
  9
$LIMCHECK
 70
0
  9
$CHAMFERA
 40
0.0
  9
$CHAMFERB
 40
0.0
  9
$CHAMFERC
 40
0.0
  9
$CHAMFERD
 40
0.0
  9
$SKPOLY
 70
0
  9
$TDCREATE
 40
2461305.5644675926
  9
$TDUCREATE
 40
2458532.153996898
  9
$TDUPDATE
 40
2461305.5644675926
  9
$TDUUPDATE
 40
2458532.1544311
  9
$TDINDWG
 40
0.0
  9
$TDUSRTIMER
 40
0.0
  9
$USRTIMER
 70
1
  9
$ANGBASE
 50
0.0
  9
$ANGDIR
 70
0
  9
$PDMODE
 70
0
  9
$PDSIZE
 40
0.0
  9
$PLINEWID
 40
0.0
  9
$SPLFRAME
 70
0
  9
$SPLINETYPE
 70
6
  9
$SPLINESEGS
 70
8
  9
$HANDSEED
  5
147
  9
$SURFTAB1
 70
6
  9
$SURFTAB2
 70
6
  9
$SURFTYPE
 70
6
  9
$SURFU
 70
6
  9
$SURFV
 70
6
  9
$UCSBASE
  2

  9
$UCSNAME
  2

  9
$UCSORG
 10
0.0
 20
0.0
 30
0.0
  9
$UCSXDIR
 10
1.0
 20
0.0
 30
0.0
  9
$UCSYDIR
 10
0.0
 20
1.0
 30
0.0
  9
$UCSORTHOREF
  2

  9
$UCSORTHOVIEW
 70
0
  9
$UCSORGTOP
 10
0.0
 20
0.0
 30
0.0
  9
$UCSORGBOTTOM
 10
0.0
 20
0.0
 30
0.0
  9
$UCSORGLEFT
 10
0.0
 20
0.0
 30
0.0
  9
$UCSORGRIGHT
 10
0.0
 20
0.0
 30
0.0
  9
$UCSORGFRONT
 10
0.0
 20
0.0
 30
0.0
  9
$UCSORGBACK
 10
0.0
 20
0.0
 30
0.0
  9
$PUCSBASE
  2

  9
$PUCSNAME
  2

  9
$PUCSORG
 10
0.0
 20
0.0
 30
0.0
  9
$PUCSXDIR
 10
1.0
 20
0.0
 30
0.0
  9
$PUCSYDIR
 10
0.0
 20
1.0
 30
0.0
  9
$PUCSORTHOREF
  2

  9
$PUCSORTHOVIEW
 70
0
  9
$PUCSORGTOP
 10
0.0
 20
0.0
 30
0.0
  9
$PUCSORGBOTTOM
 10
0.0
 20
0.0
 30
0.0
  9
$PUCSORGLEFT
 10
0.0
 20
0.0
 30
0.0
  9
$PUCSORGRIGHT
 10
0.0
 20
0.0
 30
0.0
  9
$PUCSORGFRONT
 10
0.0
 20
0.0
 30
0.0
  9
$PUCSORGBACK
 10
0.0
 20
0.0
 30
0.0
  9
$USERI1
 70
0
  9
$USERI2
 70
0
  9
$USERI3
 70
0
  9
$USERI4
 70
0
  9
$USERI5
 70
0
  9
$USERR1
 40
0.0
  9
$USERR2
 40
0.0
  9
$USERR3
 40
0.0
  9
$USERR4
 40
0.0
  9
$USERR5
 40
0.0
  9
$WORLDVIEW
 70
1
  9
$SHADEDGE
 70
3
  9
$SHADEDIF
 70
70
  9
$TILEMODE
 70
1
  9
$MAXACTVP
 70
64
  9
$PINSBASE
 10
0.0
 20
0.0
 30
0.0
  9
$PLIMCHECK
 70
0
  9
$PEXTMIN
 10
1e+20
 20
1e+20
 30
1e+20
  9
$PEXTMAX
 10
-1e+20
 20
-1e+20
 30
-1e+20
  9
$PLIMMIN
 10
0.0
 20
0.0
  9
$PLIMMAX
 10
420.0
 20
297.0
  9
$UNITMODE
 70
0
  9
$VISRETAIN
 70
1
  9
$PLINEGEN
 70
0
  9
$PSLTSCALE
 70
1
  9
$TREEDEPTH
 70
3020
  9
$CMLSTYLE
  2
Standard
  9
$CMLJUST
 70
0
  9
$CMLSCALE
 40
20.0
  9
$PROXYGRAPHICS
 70
1
  9
$MEASUREMENT
 70
1
  9
$CELWEIGHT
370
-1
  9
$ENDCAPS
280
0
  9
$JOINSTYLE
280
0
  9
$LWDISPLAY
290
0
  9
$INSUNITS
 70
4
  9
$HYPERLINKBASE
  1

  9
$STYLESHEET
  1

  9
$XEDIT
290
1
  9
$CEPSNTYPE
380
0
  9
$PSTYLEMODE
290
1
  9
$FINGERPRINTGUID
  2
{2A32858E-124E-4879-B248-3A1C887463C7}
  9
$VERSIONGUID
  2
{A404D244-6DDD-405C-A37E-A9159B08B016}
  9
$EXTNAMES
290
1
  9
$PSVPSCALE
 40
0.0
  9
$OLESTARTUP
290
0
  9
$SORTENTS
280
127
  9
$INDEXCTL
280
0
  9
$HIDETEXT
280
1
  9
$XCLIPFRAME
280
1
  9
$HALOGAP
280
0
  9
$OBSCOLOR
 70
257
  9
$OBSLTYPE
280
0
  9
$INTERSECTIONDISPLAY
280
0
  9
$INTERSECTIONCOLOR
 70
257
  9
$DIMASSOC
280
2
  9
$PROJECTNAME
  1

  9
$CAMERADISPLAY
290
0
  9
$LENSLENGTH
 40
50.0
  9
$CAMERAHEIGHT
 40
0.0
  9
$STEPSPERSEC
 40
24.0
  9
$STEPSIZE
 40
100.0
  9
$3DDWFPREC
 40
2.0
  9
$PSOLWIDTH
 40
0.005
  9
$PSOLHEIGHT
 40
0.08
  9
$LOFTANG1
 40
1.570796326795
  9
$LOFTANG2
 40
1.570796326795
  9
$LOFTMAG1
 40
0.0
  9
$LOFTMAG2
 40
0.0
  9
$LOFTPARAM
 70
7
  9
$LOFTNORMALS
280
1
  9
$LATITUDE
 40
37.795
  9
$LONGITUDE
 40
-122.394
  9
$NORTHDIRECTION
 40
0.0
  9
$TIMEZONE
 70
-8000
  9
$LIGHTGLYPHDISPLAY
280
1
  9
$TILEMODELIGHTSYNCH
280
1
  9
$CMATERIAL
347
20
  9
$SOLIDHIST
280
0
  9
$SHOWHIST
280
1
  9
$DWFFRAME
280
2
  9
$DGNFRAME
280
2
  9
$REALWORLDSCALE
290
1
  9
$INTERFERECOLOR
 62
256
  9
$CSHADOW
280
0
  9
$SHADOWPLANELOCATION
 40
0.0
  0
ENDSEC
  0
SECTION
  2
CLASSES
  0
CLASS
  1
ACDBDICTIONARYWDFLT
  2
AcDbDictionaryWithDefault
  3
ObjectDBX Classes
 90
0
 91
0
280
0
281
0
  0
CLASS
  1
SUN
  2
AcDbSun
  3
SCENEOE
 90
1153
 91
0
280
0
281
0
  0
CLASS
  1
VISUALSTYLE
  2
AcDbVisualStyle
  3
ObjectDBX Classes
 90
4095
 91
0
280
0
281
0
  0
CLASS
  1
MATERIAL
  2
AcDbMaterial
  3
ObjectDBX Classes
 90
1153
 91
0
280
0
281
0
  0
CLASS
  1
SCALE
  2
AcDbScale
  3
ObjectDBX Classes
 90
1153
 91
0
280
0
281
0
  0
CLASS
  1
TABLESTYLE
  2
AcDbTableStyle
  3
ObjectDBX Classes
 90
4095
 91
0
280
0
281
0
  0
CLASS
  1
MLEADERSTYLE
  2
AcDbMLeaderStyle
  3
ACDB_MLEADERSTYLE_CLASS
 90
4095
 91
0
280
0
281
0
  0
CLASS
  1
DICTIONARYVAR
  2
AcDbDictionaryVar
  3
ObjectDBX Classes
 90
0
 91
0
280
0
281
0
  0
CLASS
  1
CELLSTYLEMAP
  2
AcDbCellStyleMap
  3
ObjectDBX Classes
 90
1152
 91
0
280
0
281
0
  0
CLASS
  1
MENTALRAYRENDERSETTINGS
  2
AcDbMentalRayRenderSettings
  3
SCENEOE
 90
1024
 91
0
280
0
281
0
  0
CLASS
  1
ACDBDETAILVIEWSTYLE
  2
AcDbDetailViewStyle
  3
ObjectDBX Classes
 90
1025
 91
0
280
0
281
0
  0
CLASS
  1
ACDBSECTIONVIEWSTYLE
  2
AcDbSectionViewStyle
  3
ObjectDBX Classes
 90
1025
 91
0
280
0
281
0
  0
CLASS
  1
RASTERVARIABLES
  2
AcDbRasterVariables
  3
ISM
 90
0
 91
0
280
0
281
0
  0
CLASS
  1
LAYOUT
  2
AcDbLayout
  3
ObjectDBX Classes
 90
0
 91
0
280
0
281
0
  0
CLASS
  1
ACDBPLACEHOLDER
  2
AcDbPlaceHolder
  3
ObjectDBX Classes
 90
0
 91
0
280
0
281
0
  0
ENDSEC
  0
SECTION
  2
TABLES
  0
TABLE
  2
VPORT
  5
8
330
0
100
AcDbSymbolTable
 70
1
  0
VPORT
  5
143
330
8
100
AcDbSymbolTableRecord
100
AcDbViewportTableRecord
  2
*Active
 70
0
 10
0.0
 20
0.0
 11
1.0
 21
1.0
 12
112.58185503273515
 22
33.64585520725042
 13
0.0
 23
0.0
 14
0.5
 24
0.5
 15
0.5
 25
0.5
 16
0.0
 26
0.0
 36
1.0
 17
0.0
 27
0.0
 37
0.0
 40
112.58185503273515
 41
1.34
 42
50.0
 43
0.0
 44
0.0
 50
0.0
 51
0.0
 71
0
 72
1000
 73
1
 74
3
 75
0
 76
0
 77
0
 78
0
281
0
 65
1
110
0.0
120
0.0
130
0.0
111
1.0
121
0.0
131
0.0
112
0.0
122
1.0
132
0.0
 79
0
146
0.0
  0
ENDTAB
  0
TABLE
  2
LTYPE
  5
2
330
0
100
AcDbSymbolTable
 70
3
  0
LTYPE
  5
24
330
2
100
AcDbSymbolTableRecord
100
AcDbLinetypeTableRecord
  2
ByBlock
 70
0
  3

 72
65
 73
0
 40
0.0
  0
LTYPE
  5
25
330
2
100
AcDbSymbolTableRecord
100
AcDbLinetypeTableRecord
  2
ByLayer
 70
0
  3

 72
65
 73
0
 40
0.0
  0
LTYPE
  5
26
330
2
100
AcDbSymbolTableRecord
100
AcDbLinetypeTableRecord
  2
Continuous
 70
0
  3

 72
65
 73
0
 40
0.0
  0
ENDTAB
  0
TABLE
  2
LAYER
  5
1
330
0
100
AcDbSymbolTable
 70
3
  0
LAYER
  5
27
330
1
100
AcDbSymbolTableRecord
100
AcDbLayerTableRecord
  2
0
 70
0
 62
7
  6
Continuous
370
-3
390
13
347
21
  0
LAYER
  5
28
330
1
100
AcDbSymbolTableRecord
100
AcDbLayerTableRecord
  2
Defpoints
 70
0
 62
7
  6
Continuous
290
0
370
-3
390
13
347
21
  0
LAYER
  5
2F
330
1
100
AcDbSymbolTableRecord
100
AcDbLayerTableRecord
  2
POCKET
 70
0
 62
7
  6
Continuous
370
-3
390
13
347
21
  0
ENDTAB
  0
TABLE
  2
STYLE
  5
5
330
0
100
AcDbSymbolTable
 70
1
  0
STYLE
  5
29
330
5
100
AcDbSymbolTableRecord
100
AcDbTextStyleTableRecord
  2
Standard
 70
0
 40
0.0
 41
1.0
 50
0.0
 71
0
 42
2.5
  3
txt
  4

  0
ENDTAB
  0
TABLE
  2
VIEW
  5
7
330
0
100
AcDbSymbolTable
 70
0
  0
ENDTAB
  0
TABLE
  2
UCS
  5
6
330
0
100
AcDbSymbolTable
 70
0
  0
ENDTAB
  0
TABLE
  2
APPID
  5
3
330
0
100
AcDbSymbolTable
 70
3
  0
APPID
  5
2A
330
3
100
AcDbSymbolTableRecord
100
AcDbRegAppTableRecord
  2
ACAD
 70
0
  0
APPID
  5
144
330
3
100
AcDbSymbolTableRecord
100
AcDbRegAppTableRecord
  2
HATCHBACKGROUNDCOLOR
 70
0
  0
APPID
  5
145
330
3
100
AcDbSymbolTableRecord
100
AcDbRegAppTableRecord
  2
EZDXF
 70
0
  0
ENDTAB
  0
TABLE
  2
DIMSTYLE
  5
4
330
0
100
AcDbSymbolTable
 70
1
100
AcDbDimStyleTable
  0
DIMSTYLE
105
2B
330
4
100
AcDbSymbolTableRecord
100
AcDbDimStyleTableRecord
  2
Standard
 70
0
 40
1.0
 41
2.5
 42
0.625
 43
3.75
 44
1.25
 45
0.0
 46
0.0
 47
0.0
 48
0.0
 49
2.5
140
2.5
141
2.5
142
0.0
143
0.03937007874
144
1.0
145
0.0
146
1.0
147
0.625
148
0.0
 69
0
 70
0
 71
0
 72
0
 73
0
 74
0
 75
0
 76
0
 77
1
 78
8
 79
3
170
0
171
3
172
1
173
0
174
0
175
0
176
0
177
0
178
0
179
2
271
2
272
2
273
2
274
3
275
0
276
0
277
2
278
44
279
0
280
0
281
0
282
0
283
0
284
8
285
0
286
0
288
0
289
3
290
0
371
-2
372
-2
  0
ENDTAB
  0
TABLE
  2
BLOCK_RECORD
  5
9
330
0
100
AcDbSymbolTable
 70
2
  0
BLOCK_RECORD
  5
17
330
9
100
AcDbSymbolTableRecord
100
AcDbBlockTableRecord
  2
*Model_Space
340
1A
 70
0
280
1
281
0
  0
BLOCK_RECORD
  5
1B
330
9
100
AcDbSymbolTableRecord
100
AcDbBlockTableRecord
  2
*Paper_Space
340
1E
 70
0
280
1
281
0
  0
ENDTAB
  0
ENDSEC
  0
SECTION
  2
BLOCKS
  0
BLOCK
  5
18
330
17
100
AcDbEntity
  8
0
100
AcDbBlockBegin
  2
*Model_Space
 70
0
 10
0.0
 20
0.0
 30
0.0
  3
*Model_Space
  1

  0
ENDBLK
  5
19
330
17
100
AcDbEntity
  8
0
100
AcDbBlockEnd
  0
BLOCK
  5
1C
330
1B
100
AcDbEntity
  8
0
100
AcDbBlockBegin
  2
*Paper_Space
 70
0
 10
0.0
 20
0.0
 30
0.0
  3
*Paper_Space
  1

  0
ENDBLK
  5
1D
330
1B
100
AcDbEntity
  8
0
100
AcDbBlockEnd
  0
ENDSEC
  0
SECTION
  2
ENTITIES
  0
LINE
  5
30
330
17
100
AcDbEntity
  8
POCKET
100
AcDbLine
 10
222.81329861636453
 20
7.184164778624907
 30
0.0
 11
224.82382564263492
 21
12.179941102344396
 31
0.0
  0
LINE
  5
31
330
17
100
AcDbEntity
  8
POCKET
100
AcDbLine
 10
224.82382564263492
 20
12.179941102344396
 30
0.0
 11
224.87708884540038
 21
12.359054374946195
 31
0.0
  0
LINE
  5
32
330
17
100
AcDbEntity
  8
POCKET
100
AcDbLine
 10
224.87708884540038
 20
12.359054374946195
 30
0.0
 11
224.89609851830357
 21
12.544949951889489
 31
0.0
  0
LINE
  5
33
330
17
100
AcDbEntity
  8
POCKET
100
AcDbLine
 10
224.89609851830357
 20
12.544949951889489
 30
0.0
 11
225.1637100654703
 21
44.644457487984596
 31
0.0
  0
LINE
  5
34
330
17
100
AcDbEntity
  8
POCKET
100
AcDbLine
 10
225.1637100654703
 20
44.64445748798459
 30
0.0
 11
225.1636296729097
 21
44.667968874888686
 31
0.0
  0
LINE
  5
35
330
17
100
AcDbEntity
  8
POCKET
100
AcDbLine
 10
225.1636296729097
 20
44.667968874888686
 30
0.0
 11
225.16299655222207
 21
44.69147187332108
 31
0.0
  0
LINE
  5
36
330
17
100
AcDbEntity
  8
POCKET
100
AcDbLine
 10
225.16299655222207
 20
44.69147187332108
 30
0.0
 11
224.7836391064942
 21
54.49229265162173
 31
0.0
  0
LINE
  5
37
330
17
100
AcDbEntity
  8
POCKET
100
AcDbLine
 10
224.7836391064942
 20
54.49229265162173
 30
0.0
 11
224.76838006273064
 21
54.63182372575113
 31
0.0
  0
LINE
  5
38
330
17
100
AcDbEntity
  8
POCKET
100
AcDbLine
 10
224.76838006273064
 20
54.63182372575113
 30
0.0
 11
224.7337346320175
 21
54.76784377278459
 31
0.0
  0
LINE
  5
39
330
17
100
AcDbEntity
  8
POCKET
100
AcDbLine
 10
224.7337346320175
 20
54.76784377278459
 30
0.0
 11
223.74005572790026
 21
57.7699434106235
 31
0.0
  0
LINE
  5
3A
330
17
100
AcDbEntity
  8
POCKET
100
AcDbLine
 10
223.74005572790026
 20
57.7699434106235
 30
0.0
 11
223.62839681092146
 21
58.00186309901336
 31
0.0
  0
LINE
  5
3B
330
17
100
AcDbEntity
  8
POCKET
100
AcDbLine
 10
223.62839681092146
 20
58.00186309901336
 30
0.0
 11
223.46123730868865
 21
58.19759801265174
 31
0.0
  0
LINE
  5
3C
330
17
100
AcDbEntity
  8
POCKET
100
AcDbLine
 10
223.46123730868865
 20
58.19759801265174
 30
0.0
 11
222.6520510600924
 21
58.92895643552736
 31
0.0
  0
LINE
  5
3D
330
17
100
AcDbEntity
  8
POCKET
100
AcDbLine
 10
222.6520510600924
 20
58.92895643552736
 30
0.0
 11
222.13987763421304
 21
60.389912017247454
 31
0.0
  0
LINE
  5
3E
330
17
100
AcDbEntity
  8
POCKET
100
AcDbLine
 10
222.13987763421304
 20
60.389912017247454
 30
0.0
 11
222.043316458801
 21
60.59046760834312
 31
0.0
  0
LINE
  5
3F
330
17
100
AcDbEntity
  8
POCKET
100
AcDbLine
 10
222.043316458801
 20
60.59046760834312
 30
0.0
 11
221.90478296227252
 21
60.76469469021125
 31
0.0
  0
LINE
  5
40
330
17
100
AcDbEntity
  8
POCKET
100
AcDbLine
 10
221.90478296227252
 20
60.76469469021125
 30
0.0
 11
218.31237360109978
 21
64.37226935773485
 31
0.0
  0
LINE
  5
41
330
17
100
AcDbEntity
  8
POCKET
100
AcDbLine
 10
218.31237360109978
 20
64.37226935773485
 30
0.0
 11
218.19957388377932
 21
64.46979016596175
 31
0.0
  0
LINE
  5
42
330
17
100
AcDbEntity
  8
POCKET
100
AcDbLine
 10
218.19957388377932
 20
64.46979016596175
 30
0.0
 11
218.0735272131352
 21
64.54945396630002
 31
0.0
  0
LINE
  5
43
330
17
100
AcDbEntity
  8
POCKET
100
AcDbLine
 10
218.0735272131352
 20
64.54945396630002
 30
0.0
 11
214.67732608172741
 21
66.35661136813978
 31
0.0
  0
LINE
  5
44
330
17
100
AcDbEntity
  8
POCKET
100
AcDbLine
 10
214.67732608172741
 20
66.35661136813978
 30
0.0
 11
214.45067347962444
 21
66.44381325624914
 31
0.0
  0
LINE
  5
45
330
17
100
AcDbEntity
  8
POCKET
100
AcDbLine
 10
214.45067347962444
 20
66.44381325624914
 30
0.0
 11
214.20968417583993
 21
66.47380870242598
 31
0.0
  0
LINE
  5
46
330
17
100
AcDbEntity
  8
POCKET
100
AcDbLine
 10
214.20968417583993
 20
66.47380870242598
 30
0.0
 11
210.11163428231544
 21
66.48244041352817
 31
0.0
  0
LINE
  5
47
330
17
100
AcDbEntity
  8
POCKET
100
AcDbLine
 10
210.11163428231544
 20
66.48244041352817
 30
0.0
 11
208.39927404337635
 21
67.20768412904043
 31
0.0
  0
LINE
  5
48
330
17
100
AcDbEntity
  8
POCKET
100
AcDbLine
 10
208.39927404337635
 20
67.20768412904043
 30
0.0
 11
208.2092860726554
 21
67.26666213771375
 31
0.0
  0
LINE
  5
49
330
17
100
AcDbEntity
  8
POCKET
100
AcDbLine
 10
208.2092860726554
 20
67.26666213771375
 30
0.0
 11
208.01138296294587
 21
67.2868659416388
 31
0.0
  0
LINE
  5
4A
330
17
100
AcDbEntity
  8
POCKET
100
AcDbLine
 10
208.01138296294587
 20
67.2868659416388
 30
0.0
 11
205.71138806489006
 21
67.29171041450084
 31
0.0
  0
LINE
  5
4B
330
17
100
AcDbEntity
  8
POCKET
100
AcDbLine
 10
205.71138806489006
 20
67.29171041450084
 30
0.0
 11
205.5661529164538
 21
67.28141669487539
 31
0.0
  0
LINE
  5
4C
330
17
100
AcDbEntity
  8
POCKET
100
AcDbLine
 10
205.5661529164538
 20
67.28141669487539
 30
0.0
 11
205.42395198654813
 21
67.25014203198354
 31
0.0
  0
LINE
  5
4D
330
17
100
AcDbEntity
  8
POCKET
100
AcDbLine
 10
205.42395198654813
 20
67.25014203198354
 30
0.0
 11
201.8723267646579
 21
66.1928033646004
 31
0.0
  0
LINE
  5
4E
330
17
100
AcDbEntity
  8
POCKET
100
AcDbLine
 10
201.8723267646579
 20
66.1928033646004
 30
0.0
 11
200.76532422123702
 21
66.93417777316611
 31
0.0
  0
LINE
  5
4F
330
17
100
AcDbEntity
  8
POCKET
100
AcDbLine
 10
200.76532422123702
 20
66.93417777316611
 30
0.0
 11
200.43213413255373
 21
67.07805629092762
 31
0.0
  0
LINE
  5
50
330
17
100
AcDbEntity
  8
POCKET
100
AcDbLine
 10
200.43213413255373
 20
67.07805629092762
 30
0.0
 11
200.06953679484377
 21
67.09354285787062
 31
0.0
  0
LINE
  5
51
330
17
100
AcDbEntity
  8
POCKET
100
AcDbLine
 10
200.06953679484377
 20
67.09354285787062
 30
0.0
 11
195.4381401246376
 21
66.44186594938564
 31
0.0
  0
LINE
  5
52
330
17
100
AcDbEntity
  8
POCKET
100
AcDbLine
 10
195.4381401246376
 20
66.44186594938564
 30
0.0
 11
193.99158395774452
 21
67.04107329306653
 31
0.0
  0
LINE
  5
53
330
17
100
AcDbEntity
  8
POCKET
100
AcDbLine
 10
193.99158395774452
 20
67.04107329306653
 30
0.0
 11
193.805017468874
 21
67.09777709596341
 31
0.0
  0
LINE
  5
54
330
17
100
AcDbEntity
  8
POCKET
100
AcDbLine
 10
193.805017468874
 20
67.09777709596341
 30
0.0
 11
193.6109936470433
 21
67.11719699798776
 31
0.0
  0
LINE
  5
55
330
17
100
AcDbEntity
  8
POCKET
100
AcDbLine
 10
193.6109936470433
 20
67.11719699798776
 30
0.0
 11
186.31100984017058
 21
67.13257293359342
 31
0.0
  0
LINE
  5
56
330
17
100
AcDbEntity
  8
POCKET
100
AcDbLine
 10
186.31100984017058
 20
67.13257293359342
 30
0.0
 11
186.2347532957634
 21
67.12982223262262
 31
0.0
  0
LINE
  5
57
330
17
100
AcDbEntity
  8
POCKET
100
AcDbLine
 10
186.2347532957634
 20
67.12982223262262
 30
0.0
 11
186.15892850060885
 21
67.12126493395255
 31
0.0
  0
LINE
  5
58
330
17
100
AcDbEntity
  8
POCKET
100
AcDbLine
 10
186.15892850060885
 20
67.12126493395255
 30
0.0
 11
183.55809175100455
 21
66.72674218187385
 31
0.0
  0
LINE
  5
59
330
17
100
AcDbEntity
  8
POCKET
100
AcDbLine
 10
183.55809175100455
 20
66.72674218187385
 30
0.0
 11
183.34811178686218
 21
66.67102206160757
 31
0.0
  0
LINE
  5
5A
330
17
100
AcDbEntity
  8
POCKET
100
AcDbLine
 10
183.34811178686218
 20
66.67102206160757
 30
0.0
 11
183.15512037358377
 21
66.57126920929485
 31
0.0
  0
LINE
  5
5B
330
17
100
AcDbEntity
  8
POCKET
100
AcDbLine
 10
183.15512037358377
 20
66.57126920929485
 30
0.0
 11
181.8859381961012
 21
65.72900374014452
 31
0.0
  0
LINE
  5
5C
330
17
100
AcDbEntity
  8
POCKET
100
AcDbLine
 10
181.8859381961012
 20
65.72900374014452
 30
0.0
 11
175.2397678889748
 21
65.45819112610963
 31
0.0
  0
LINE
  5
5D
330
17
100
AcDbEntity
  8
POCKET
100
AcDbLine
 10
175.2397678889748
 20
65.45819112610963
 30
0.0
 11
168.816003442012
 21
66.16367152621388
 31
0.0
  0
LINE
  5
5E
330
17
100
AcDbEntity
  8
POCKET
100
AcDbLine
 10
168.816003442012
 20
66.16367152621388
 30
0.0
 11
168.6235288514085
 21
66.16617201209957
 31
0.0
  0
LINE
  5
5F
330
17
100
AcDbEntity
  8
POCKET
100
AcDbLine
 10
168.6235288514085
 20
66.16617201209957
 30
0.0
 11
168.43414102826287
 21
66.13174857674207
 31
0.0
  0
LINE
  5
60
330
17
100
AcDbEntity
  8
POCKET
100
AcDbLine
 10
168.43414102826287
 20
66.13174857674207
 30
0.0
 11
165.84934900018717
 21
65.39912180319659
 31
0.0
  0
LINE
  5
61
330
17
100
AcDbEntity
  8
POCKET
100
AcDbLine
 10
165.84934900018717
 20
65.39912180319659
 30
0.0
 11
163.67248157064972
 21
65.76664719088724
 31
0.0
  0
LINE
  5
62
330
17
100
AcDbEntity
  8
POCKET
100
AcDbLine
 10
163.67248157064972
 20
65.76664719088724
 30
0.0
 11
163.49509393338982
 21
65.78054219658847
 31
0.0
  0
LINE
  5
63
330
17
100
AcDbEntity
  8
POCKET
100
AcDbLine
 10
163.49509393338982
 20
65.78054219658847
 30
0.0
 11
163.31805174437983
 21
65.76277964196835
 31
0.0
  0
LINE
  5
64
330
17
100
AcDbEntity
  8
POCKET
100
AcDbLine
 10
163.31805174437983
 20
65.76277964196835
 30
0.0
 11
160.38933149313095
 21
65.20232779605269
 31
0.0
  0
LINE
  5
65
330
17
100
AcDbEntity
  8
POCKET
100
AcDbLine
 10
160.38933149313095
 20
65.20232779605269
 30
0.0
 11
156.93890276850644
 21
65.7545836254671
 31
0.0
  0
LINE
  5
66
330
17
100
AcDbEntity
  8
POCKET
100
AcDbLine
 10
156.93890276850644
 20
65.7545836254671
 30
0.0
 11
155.2956139899204
 21
66.67205668535605
 31
0.0
  0
LINE
  5
67
330
17
100
AcDbEntity
  8
POCKET
100
AcDbLine
 10
155.2956139899204
 20
66.67205668535605
 30
0.0
 11
155.06101060753983
 21
66.76642198364272
 31
0.0
  0
LINE
  5
68
330
17
100
AcDbEntity
  8
POCKET
100
AcDbLine
 10
155.06101060753983
 20
66.76642198364272
 30
0.0
 11
154.81023719760432
 21
66.79892203617287
 31
0.0
  0
LINE
  5
69
330
17
100
AcDbEntity
  8
POCKET
100
AcDbLine
 10
154.81023719760432
 20
66.79892203617287
 30
0.0
 11
151.31024496143246
 21
66.80629406009336
 31
0.0
  0
LINE
  5
6A
330
17
100
AcDbEntity
  8
POCKET
100
AcDbLine
 10
151.31024496143246
 20
66.80629406009336
 30
0.0
 11
151.08043620507732
 21
66.78002703576577
 31
0.0
  0
LINE
  5
6B
330
17
100
AcDbEntity
  8
POCKET
100
AcDbLine
 10
151.08043620507732
 20
66.78002703576577
 30
0.0
 11
150.86280999073716
 21
66.70166344794266
 31
0.0
  0
LINE
  5
6C
330
17
100
AcDbEntity
  8
POCKET
100
AcDbLine
 10
150.86280999073716
 20
66.70166344794266
 30
0.0
 11
150.08893880568507
 21
66.31676321528833
 31
0.0
  0
LINE
  5
6D
330
17
100
AcDbEntity
  8
POCKET
100
AcDbLine
 10
150.08893880568507
 20
66.31676321528833
 30
0.0
 11
147.34272490450357
 21
66.41409485501471
 31
0.0
  0
LINE
  5
6E
330
17
100
AcDbEntity
  8
POCKET
100
AcDbLine
 10
147.34272490450357
 20
66.41409485501471
 30
0.0
 11
147.24474900117372
 21
66.41276378982167
 31
0.0
  0
LINE
  5
6F
330
17
100
AcDbEntity
  8
POCKET
100
AcDbLine
 10
147.24474900117372
 20
66.41276378982167
 30
0.0
 11
147.14737370131508
 21
66.4018504793576
 31
0.0
  0
LINE
  5
70
330
17
100
AcDbEntity
  8
POCKET
100
AcDbLine
 10
147.14737370131508
 20
66.4018504793576
 30
0.0
 11
140.5278143058217
 21
65.32937077952394
 31
0.0
  0
LINE
  5
71
330
17
100
AcDbEntity
  8
POCKET
100
AcDbLine
 10
140.5278143058217
 20
65.32937077952394
 30
0.0
 11
118.51189371898141
 21
65.47536379346414
 31
0.0
  0
LINE
  5
72
330
17
100
AcDbEntity
  8
POCKET
100
AcDbLine
 10
118.51189371898141
 20
65.47536379346414
 30
0.0
 11
118.32517362485673
 21
65.45903610083244
 31
0.0
  0
LINE
  5
73
330
17
100
AcDbEntity
  8
POCKET
100
AcDbLine
 10
118.32517362485673
 20
65.45903610083244
 30
0.0
 11
118.14478023480802
 21
65.40815180145302
 31
0.0
  0
LINE
  5
74
330
17
100
AcDbEntity
  8
POCKET
100
AcDbLine
 10
118.14478023480802
 20
65.40815180145302
 30
0.0
 11
116.69647396357838
 21
64.84843062467762
 31
0.0
  0
LINE
  5
75
330
17
100
AcDbEntity
  8
POCKET
100
AcDbLine
 10
116.69647396357838
 20
64.84843062467762
 30
0.0
 11
115.152951842038
 21
65.42079194061839
 31
0.0
  0
LINE
  5
76
330
17
100
AcDbEntity
  8
POCKET
100
AcDbLine
 10
115.152951842038
 20
65.42079194061839
 30
0.0
 11
114.94100116906385
 21
65.47392487878079
 31
0.0
  0
LINE
  5
77
330
17
100
AcDbEntity
  8
POCKET
100
AcDbLine
 10
114.94100116906385
 20
65.47392487878079
 30
0.0
 11
114.72256988835554
 21
65.47975347210003
 31
0.0
  0
LINE
  5
78
330
17
100
AcDbEntity
  8
POCKET
100
AcDbLine
 10
114.72256988835554
 20
65.47975347210003
 30
0.0
 11
110.06980768962866
 21
65.09364302449856
 31
0.0
  0
LINE
  5
79
330
17
100
AcDbEntity
  8
POCKET
100
AcDbLine
 10
110.06980768962866
 20
65.09364302449856
 30
0.0
 11
92.71849821104975
 21
65.32963609173406
 31
0.0
  0
LINE
  5
7A
330
17
100
AcDbEntity
  8
POCKET
100
AcDbLine
 10
92.71849821104975
 20
65.32963609173406
 30
0.0
 11
92.62129405129777
 21
65.32622758300421
 31
0.0
  0
LINE
  5
7B
330
17
100
AcDbEntity
  8
POCKET
100
AcDbLine
 10
92.62129405129777
 20
65.32622758300421
 30
0.0
 11
92.52488081276628
 21
65.31339192794803
 31
0.0
  0
LINE
  5
7C
330
17
100
AcDbEntity
  8
POCKET
100
AcDbLine
 10
92.52488081276628
 20
65.31339192794803
 30
0.0
 11
89.94227061382533
 21
64.84075487914433
 31
0.0
  0
LINE
  5
7D
330
17
100
AcDbEntity
  8
POCKET
100
AcDbLine
 10
89.94227061382533
 20
64.84075487914433
 30
0.0
 11
84.76311118988538
 21
65.14485995237494
 31
0.0
  0
LINE
  5
7E
330
17
100
AcDbEntity
  8
POCKET
100
AcDbLine
 10
84.76311118988538
 20
65.14485995237494
 30
0.0
 11
84.47295623615769
 21
65.11940501515502
 31
0.0
  0
LINE
  5
7F
330
17
100
AcDbEntity
  8
POCKET
100
AcDbLine
 10
84.47295623615769
 20
65.11940501515502
 30
0.0
 11
84.2024445400981
 21
65.01141763951995
 31
0.0
  0
LINE
  5
80
330
17
100
AcDbEntity
  8
POCKET
100
AcDbLine
 10
84.2024445400981
 20
65.01141763951995
 30
0.0
 11
83.3786671119181
 21
64.5332034955108
 31
0.0
  0
LINE
  5
81
330
17
100
AcDbEntity
  8
POCKET
100
AcDbLine
 10
83.3786671119181
 20
64.5332034955108
 30
0.0
 11
81.4976788456657
 21
65.11000986557949
 31
0.0
  0
LINE
  5
82
330
17
100
AcDbEntity
  8
POCKET
100
AcDbLine
 10
81.4976788456657
 20
65.11000986557949
 30
0.0
 11
81.33830712249565
 21
65.14495915586886
 31
0.0
  0
LINE
  5
83
330
17
100
AcDbEntity
  8
POCKET
100
AcDbLine
 10
81.33830712249565
 20
65.14495915586886
 30
0.0
 11
81.17537342242902
 21
65.15352702728045
 31
0.0
  0
LINE
  5
84
330
17
100
AcDbEntity
  8
POCKET
100
AcDbLine
 10
81.17537342242902
 20
65.15352702728045
 30
0.0
 11
68.42787151431294
 21
64.78204207229942
 31
0.0
  0
LINE
  5
85
330
17
100
AcDbEntity
  8
POCKET
100
AcDbLine
 10
68.42787151431294
 20
64.78204207229942
 30
0.0
 11
63.18190081265332
 21
65.18907866782558
 31
0.0
  0
LINE
  5
86
330
17
100
AcDbEntity
  8
POCKET
100
AcDbLine
 10
63.18190081265332
 20
65.18907866782558
 30
0.0
 11
62.99161570142721
 21
65.18567852843817
 31
0.0
  0
LINE
  5
87
330
17
100
AcDbEntity
  8
POCKET
100
AcDbLine
 10
62.99161570142721
 20
65.18567852843817
 30
0.0
 11
62.80542081487079
 21
65.146290094572
 31
0.0
  0
LINE
  5
88
330
17
100
AcDbEntity
  8
POCKET
100
AcDbLine
 10
62.80542081487079
 20
65.146290094572
 30
0.0
 11
61.14057434426079
 21
64.62440289678568
 31
0.0
  0
LINE
  5
89
330
17
100
AcDbEntity
  8
POCKET
100
AcDbLine
 10
61.14057434426079
 20
64.62440289678568
 30
0.0
 11
58.085511884845836
 21
65.18651893778481
 31
0.0
  0
LINE
  5
8A
330
17
100
AcDbEntity
  8
POCKET
100
AcDbLine
 10
58.085511884845836
 20
65.18651893778481
 30
0.0
 11
57.74756630396741
 21
65.19062847023193
 31
0.0
  0
LINE
  5
8B
330
17
100
AcDbEntity
  8
POCKET
100
AcDbLine
 10
57.74756630396741
 20
65.19062847023193
 30
0.0
 11
57.42755256202609
 21
65.08193022341581
 31
0.0
  0
LINE
  5
8C
330
17
100
AcDbEntity
  8
POCKET
100
AcDbLine
 10
57.42755256202609
 20
65.08193022341581
 30
0.0
 11
56.633013408582755
 21
64.65071418577128
 31
0.0
  0
LINE
  5
8D
330
17
100
AcDbEntity
  8
POCKET
100
AcDbLine
 10
56.633013408582755
 20
64.65071418577128
 30
0.0
 11
54.67755674794425
 21
64.99503850826692
 31
0.0
  0
LINE
  5
8E
330
17
100
AcDbEntity
  8
POCKET
100
AcDbLine
 10
54.67755674794425
 20
64.99503850826692
 30
0.0
 11
54.4768005840873
 21
65.00981601969971
 31
0.0
  0
LINE
  5
8F
330
17
100
AcDbEntity
  8
POCKET
100
AcDbLine
 10
54.4768005840873
 20
65.00981601969971
 30
0.0
 11
54.27715228475653
 21
64.98408726642568
 31
0.0
  0
LINE
  5
90
330
17
100
AcDbEntity
  8
POCKET
100
AcDbLine
 10
54.27715228475653
 20
64.98408726642568
 30
0.0
 11
52.78208010863099
 21
64.63562734080658
 31
0.0
  0
LINE
  5
91
330
17
100
AcDbEntity
  8
POCKET
100
AcDbLine
 10
52.78208010863099
 20
64.63562734080658
 30
0.0
 11
49.79093127957765
 21
65.20299206448419
 31
0.0
  0
LINE
  5
92
330
17
100
AcDbEntity
  8
POCKET
100
AcDbLine
 10
49.79093127957765
 20
65.20299206448419
 30
0.0
 11
49.66546899465914
 21
65.21865433628102
 31
0.0
  0
LINE
  5
93
330
17
100
AcDbEntity
  8
POCKET
100
AcDbLine
 10
49.66546899465914
 20
65.21865433628102
 30
0.0
 11
49.539033219778396
 21
65.21836018476407
 31
0.0
  0
LINE
  5
94
330
17
100
AcDbEntity
  8
POCKET
100
AcDbLine
 10
49.539033219778396
 20
65.21836018476407
 30
0.0
 11
43.712754234522855
 21
64.8356847408786
 31
0.0
  0
LINE
  5
95
330
17
100
AcDbEntity
  8
POCKET
100
AcDbLine
 10
43.712754234522855
 20
64.8356847408786
 30
0.0
 11
38.88805803226917
 21
65.23976921563339
 31
0.0
  0
LINE
  5
96
330
17
100
AcDbEntity
  8
POCKET
100
AcDbLine
 10
38.88805803226917
 20
65.23976921563339
 30
0.0
 11
38.828685661559675
 21
65.24296800642283
 31
0.0
  0
LINE
  5
97
330
17
100
AcDbEntity
  8
POCKET
100
AcDbLine
 10
38.828685661559675
 20
65.24296800642283
 30
0.0
 11
38.769228129572994
 21
65.24263251241004
 31
0.0
  0
LINE
  5
98
330
17
100
AcDbEntity
  8
POCKET
100
AcDbLine
 10
38.769228129572994
 20
65.24263251241004
 30
0.0
 11
30.86275917375369
 21
64.96281540183138
 31
0.0
  0
LINE
  5
99
330
17
100
AcDbEntity
  8
POCKET
100
AcDbLine
 10
30.86275917375369
 20
64.96281540183138
 30
0.0
 11
27.656930789721706
 21
65.45545662210598
 31
0.0
  0
LINE
  5
9A
330
17
100
AcDbEntity
  8
POCKET
100
AcDbLine
 10
27.656930789721706
 20
65.45545662210598
 30
0.0
 11
27.42946791941836
 21
65.46419894260413
 31
0.0
  0
LINE
  5
9B
330
17
100
AcDbEntity
  8
POCKET
100
AcDbLine
 10
27.42946791941836
 20
65.46419894260413
 30
0.0
 11
27.205921042603823
 21
65.42127366565923
 31
0.0
  0
LINE
  5
9C
330
17
100
AcDbEntity
  8
POCKET
100
AcDbLine
 10
27.205921042603823
 20
65.42127366565923
 30
0.0
 11
23.839601604530948
 21
64.36601779107653
 31
0.0
  0
LINE
  5
9D
330
17
100
AcDbEntity
  8
POCKET
100
AcDbLine
 10
23.839601604530948
 20
64.36601779107653
 30
0.0
 11
22.930102119144184
 21
64.92835434935613
 31
0.0
  0
LINE
  5
9E
330
17
100
AcDbEntity
  8
POCKET
100
AcDbLine
 10
22.930102119144184
 20
64.92835434935613
 30
0.0
 11
22.73780401679273
 21
65.0205193726994
 31
0.0
  0
LINE
  5
9F
330
17
100
AcDbEntity
  8
POCKET
100
AcDbLine
 10
22.73780401679273
 20
65.0205193726994
 30
0.0
 11
22.530336501434242
 21
65.06981624650302
 31
0.0
  0
LINE
  5
A0
330
17
100
AcDbEntity
  8
POCKET
100
AcDbLine
 10
22.530336501434242
 20
65.06981624650302
 30
0.0
 11
20.930761309122538
 21
65.27318587093367
 31
0.0
  0
LINE
  5
A1
330
17
100
AcDbEntity
  8
POCKET
100
AcDbLine
 10
20.930761309122538
 20
65.27318587093367
 30
0.0
 11
20.855203834314633
 21
65.2798921190637
 31
0.0
  0
LINE
  5
A2
330
17
100
AcDbEntity
  8
POCKET
100
AcDbLine
 10
20.855203834314633
 20
65.2798921190637
 30
0.0
 11
20.77935540168414
 21
65.28085182257293
 31
0.0
  0
LINE
  5
A3
330
17
100
AcDbEntity
  8
POCKET
100
AcDbLine
 10
20.77935540168414
 20
65.28085182257293
 30
0.0
 11
13.748495895329297
 21
65.10304487523217
 31
0.0
  0
LINE
  5
A4
330
17
100
AcDbEntity
  8
POCKET
100
AcDbLine
 10
13.748495895329297
 20
65.10304487523217
 30
0.0
 11
12.886198145757822
 21
65.5757484417385
 31
0.0
  0
LINE
  5
A5
330
17
100
AcDbEntity
  8
POCKET
100
AcDbLine
 10
12.886198145757822
 20
65.5757484417385
 30
0.0
 11
12.65462586872352
 21
65.66733401278667
 31
0.0
  0
LINE
  5
A6
330
17
100
AcDbEntity
  8
POCKET
100
AcDbLine
 10
12.65462586872352
 20
65.66733401278667
 30
0.0
 11
12.40760426492948
 21
65.69886120064241
 31
0.0
  0
LINE
  5
A7
330
17
100
AcDbEntity
  8
POCKET
100
AcDbLine
 10
12.40760426492948
 20
65.69886120064241
 30
0.0
 11
10.907607592284355
 21
65.70202063946547
 31
0.0
  0
LINE
  5
A8
330
17
100
AcDbEntity
  8
POCKET
100
AcDbLine
 10
10.907607592284355
 20
65.70202063946547
 30
0.0
 11
10.667669807591158
 21
65.67332928790027
 31
0.0
  0
LINE
  5
A9
330
17
100
AcDbEntity
  8
POCKET
100
AcDbLine
 10
10.667669807591158
 20
65.67332928790027
 30
0.0
 11
10.441619796696834
 21
65.58792011536714
 31
0.0
  0
LINE
  5
AA
330
17
100
AcDbEntity
  8
POCKET
100
AcDbLine
 10
10.441619796696834
 20
65.58792011536714
 30
0.0
 11
6.637415640898546
 21
63.59592846352551
 31
0.0
  0
LINE
  5
AB
330
17
100
AcDbEntity
  8
POCKET
100
AcDbLine
 10
6.637415640898546
 20
63.59592846352551
 30
0.0
 11
6.280186979562408
 21
63.28080094749026
 31
0.0
  0
LINE
  5
AC
330
17
100
AcDbEntity
  8
POCKET
100
AcDbLine
 10
6.280186979562408
 20
63.28080094749026
 30
0.0
 11
6.109282721768046
 21
62.836155692809285
 31
0.0
  0
LINE
  5
AD
330
17
100
AcDbEntity
  8
POCKET
100
AcDbLine
 10
6.109282721768046
 20
62.836155692809285
 30
0.0
 11
5.846655126125087
 21
60.77049525810576
 31
0.0
  0
LINE
  5
AE
330
17
100
AcDbEntity
  8
POCKET
100
AcDbLine
 10
5.846655126125087
 20
60.77049525810576
 30
0.0
 11
1.9733040774874426
 21
56.81935591732303
 31
0.0
  0
LINE
  5
AF
330
17
100
AcDbEntity
  8
POCKET
100
AcDbLine
 10
1.9733040774874433
 20
56.81935591732303
 30
0.0
 11
1.7272489460822025
 21
56.3987766529408
 31
0.0
  0
LINE
  5
B0
330
17
100
AcDbEntity
  8
POCKET
100
AcDbLine
 10
1.7272489460822025
 20
56.3987766529408
 30
0.0
 11
1.709163798718257
 21
55.91184444742963
 31
0.0
  0
LINE
  5
B1
330
17
100
AcDbEntity
  8
POCKET
100
AcDbLine
 10
1.709163798718257
 20
55.91184444742963
 30
0.0
 11
1.9658469550850832
 21
54.701552640103685
 31
0.0
  0
LINE
  5
B2
330
17
100
AcDbEntity
  8
POCKET
100
AcDbLine
 10
1.9658469550850832
 20
54.701552640103685
 30
0.0
 11
1.2913670821716359
 21
50.89462274063878
 31
0.0
  0
LINE
  5
B3
330
17
100
AcDbEntity
  8
POCKET
100
AcDbLine
 10
1.2913670821716359
 20
50.89462274063878
 30
0.0
 11
1.2769738776581512
 21
50.76355359029995
 31
0.0
  0
LINE
  5
B4
330
17
100
AcDbEntity
  8
POCKET
100
AcDbLine
 10
1.2769738776581512
 20
50.76355359029995
 30
0.0
 11
1.2799505887801588
 21
50.631730126160946
 31
0.0
  0
LINE
  5
B5
330
17
100
AcDbEntity
  8
POCKET
100
AcDbLine
 10
1.2799505887801588
 20
50.631730126160946
 30
0.0
 11
1.5453942735173283
 21
47.64202111720839
 31
0.0
  0
LINE
  5
B6
330
17
100
AcDbEntity
  8
POCKET
100
AcDbLine
 10
1.5453942735173283
 20
47.64202111720839
 30
0.0
 11
0.3947147697795908
 21
45.61617656879633
 31
0.0
  0
LINE
  5
B7
330
17
100
AcDbEntity
  8
POCKET
100
AcDbLine
 10
0.39471476977959064
 20
45.61617656879633
 30
0.0
 11
0.2698318214696731
 21
45.22789850668766
 31
0.0
  0
LINE
  5
B8
330
17
100
AcDbEntity
  8
POCKET
100
AcDbLine
 10
0.2698318214696731
 20
45.22789850668766
 30
0.0
 11
0.3103741236521157
 21
44.82205133591128
 31
0.0
  0
LINE
  5
B9
330
17
100
AcDbEntity
  8
POCKET
100
AcDbLine
 10
0.3103741236521157
 20
44.82205133591128
 30
0.0
 11
1.5266448116944233
 21
40.95788949162963
 31
0.0
  0
LINE
  5
BA
330
17
100
AcDbEntity
  8
POCKET
100
AcDbLine
 10
1.5266448116944236
 20
40.95788949162963
 30
0.0
 11
1.098255016163903
 21
38.67149240389316
 31
0.0
  0
LINE
  5
BB
330
17
100
AcDbEntity
  8
POCKET
100
AcDbLine
 10
1.098255016163903
 20
38.67149240389316
 30
0.0
 11
0.3797714595458399
 21
37.42027154501165
 31
0.0
  0
LINE
  5
BC
330
17
100
AcDbEntity
  8
POCKET
100
AcDbLine
 10
0.3797714595458399
 20
37.42027154501165
 30
0.0
 11
0.2710939476514055
 21
37.140640669425636
 31
0.0
  0
LINE
  5
BD
330
17
100
AcDbEntity
  8
POCKET
100
AcDbLine
 10
0.2710939476514055
 20
37.140640669425636
 30
0.0
 11
0.25024919620654507
 21
36.841358654413426
 31
0.0
  0
LINE
  5
BE
330
17
100
AcDbEntity
  8
POCKET
100
AcDbLine
 10
0.25024919620654507
 20
36.841358654413426
 30
0.0
 11
0.6315474376901343
 21
32.14630652618384
 31
0.0
  0
LINE
  5
BF
330
17
100
AcDbEntity
  8
POCKET
100
AcDbLine
 10
0.6315474376901343
 20
32.14630652618384
 30
0.0
 11
0.23882182925648313
 21
29.152382485306845
 31
0.0
  0
LINE
  5
C0
330
17
100
AcDbEntity
  8
POCKET
100
AcDbLine
 10
0.2388218292564831
 20
29.152382485306845
 30
0.0
 11
0.23376894506903745
 21
28.93943610091271
 31
0.0
  0
LINE
  5
C1
330
17
100
AcDbEntity
  8
POCKET
100
AcDbLine
 10
0.23376894506903745
 20
28.93943610091271
 30
0.0
 11
0.2739316314075977
 21
28.73025041093556
 31
0.0
  0
LINE
  5
C2
330
17
100
AcDbEntity
  8
POCKET
100
AcDbLine
 10
0.2739316314075977
 20
28.73025041093556
 30
0.0
 11
0.5813242418669691
 21
27.72368656821142
 31
0.0
  0
LINE
  5
C3
330
17
100
AcDbEntity
  8
POCKET
100
AcDbLine
 10
0.5813242418669691
 20
27.72368656821142
 30
0.0
 11
0.2696941324450919
 21
26.718426571321896
 31
0.0
  0
LINE
  5
C4
330
17
100
AcDbEntity
  8
POCKET
100
AcDbLine
 10
0.2696941324450919
 20
26.718426571321896
 30
0.0
 11
0.22599883745055427
 21
26.374441082903274
 31
0.0
  0
LINE
  5
C5
330
17
100
AcDbEntity
  8
POCKET
100
AcDbLine
 10
0.22599883745055427
 20
26.374441082903274
 30
0.0
 11
0.3024008978905266
 21
26.036213319099385
 31
0.0
  0
LINE
  5
C6
330
17
100
AcDbEntity
  8
POCKET
100
AcDbLine
 10
0.3024008978905266
 20
26.036213319099385
 30
0.0
 11
0.9603836018751566
 21
24.46425483701216
 31
0.0
  0
LINE
  5
C7
330
17
100
AcDbEntity
  8
POCKET
100
AcDbLine
 10
0.9603836018751566
 20
24.46425483701216
 30
0.0
 11
0.2569650317315237
 21
22.108445637357224
 31
0.0
  0
LINE
  5
C8
330
17
100
AcDbEntity
  8
POCKET
100
AcDbLine
 10
0.25696503173152363
 20
22.108445637357224
 30
0.0
 11
0.21797780606728523
 21
21.747355776752904
 31
0.0
  0
LINE
  5
C9
330
17
100
AcDbEntity
  8
POCKET
100
AcDbLine
 10
0.21797780606728523
 20
21.747355776752904
 30
0.0
 11
0.3105251351995184
 21
21.396156569654238
 31
0.0
  0
LINE
  5
CA
330
17
100
AcDbEntity
  8
POCKET
100
AcDbLine
 10
0.3105251351995184
 20
21.396156569654238
 30
0.0
 11
0.9886348118594339
 21
19.95676294896923
 31
0.0
  0
LINE
  5
CB
330
17
100
AcDbEntity
  8
POCKET
100
AcDbLine
 10
0.9886348118594339
 20
19.95676294896923
 30
0.0
 11
0.131749644023483
 21
18.406531585954795
 31
0.0
  0
LINE
  5
CC
330
17
100
AcDbEntity
  8
POCKET
100
AcDbLine
 10
0.131749644023483
 20
18.406531585954795
 30
0.0
 11
0.03891496954677943
 21
18.173588976430313
 31
0.0
  0
LINE
  5
CD
330
17
100
AcDbEntity
  8
POCKET
100
AcDbLine
 10
0.03891496954677942
 20
18.173588976430313
 30
0.0
 11
0.006950765410812411
 21
17.924874630701677
 31
0.0
  0
LINE
  5
CE
330
17
100
AcDbEntity
  8
POCKET
100
AcDbLine
 10
0.0069507654108124095
 20
17.924874630701677
 30
0.0
 11
-2.151929470712302e-19
 21
14.624881950882495
 31
0.0
  0
LINE
  5
CF
330
17
100
AcDbEntity
  8
POCKET
100
AcDbLine
 10
0.0
 20
14.624881950882495
 30
0.0
 11
0.016420242559697984
 21
14.442289580272295
 31
0.0
  0
LINE
  5
D0
330
17
100
AcDbEntity
  8
POCKET
100
AcDbLine
 10
0.016420242559697984
 20
14.442289580272295
 30
0.0
 11
0.06589813098182817
 21
14.26576327422116
 31
0.0
  0
LINE
  5
D1
330
17
100
AcDbEntity
  8
POCKET
100
AcDbLine
 10
0.06589813098182817
 20
14.26576327422116
 30
0.0
 11
1.0604195521185387
 21
11.663662749087637
 31
0.0
  0
LINE
  5
D2
330
17
100
AcDbEntity
  8
POCKET
100
AcDbLine
 10
1.0604195521185387
 20
11.663662749087637
 30
0.0
 11
1.134655535436011
 21
11.510151408604404
 31
0.0
  0
LINE
  5
D3
330
17
100
AcDbEntity
  8
POCKET
100
AcDbLine
 10
1.134655535436011
 20
11.510151408604404
 30
0.0
 11
1.2338935277249061
 21
11.37148441987767
 31
0.0
  0
LINE
  5
D4
330
17
100
AcDbEntity
  8
POCKET
100
AcDbLine
 10
1.2338935277249061
 20
11.37148441987767
 30
0.0
 11
2.153289243300913
 21
10.294272481133085
 31
0.0
  0
LINE
  5
D5
330
17
100
AcDbEntity
  8
POCKET
100
AcDbLine
 10
2.153289243300913
 20
10.294272481133085
 30
0.0
 11
1.9925301909577033
 21
8.720175720373646
 31
0.0
  0
LINE
  5
D6
330
17
100
AcDbEntity
  8
POCKET
100
AcDbLine
 10
1.9925301909577033
 20
8.720175720373646
 30
0.0
 11
2.000348001255284
 21
8.457902739003297
 31
0.0
  0
LINE
  5
D7
330
17
100
AcDbEntity
  8
POCKET
100
AcDbLine
 10
2.000348001255284
 20
8.457902739003297
 30
0.0
 11
2.0761195418852405
 21
8.206691854395755
 31
0.0
  0
LINE
  5
D8
330
17
100
AcDbEntity
  8
POCKET
100
AcDbLine
 10
2.0761195418852405
 20
8.206691854395755
 30
0.0
 11
3.0714834800414175
 21
6.004590441967563
 31
0.0
  0
LINE
  5
D9
330
17
100
AcDbEntity
  8
POCKET
100
AcDbLine
 10
3.0714834800414175
 20
6.004590441967563
 30
0.0
 11
3.150547491285282
 21
5.861957431232179
 31
0.0
  0
LINE
  5
DA
330
17
100
AcDbEntity
  8
POCKET
100
AcDbLine
 10
3.150547491285282
 20
5.861957431232179
 30
0.0
 11
3.2517433621965255
 21
5.734071977266823
 31
0.0
  0
LINE
  5
DB
330
17
100
AcDbEntity
  8
POCKET
100
AcDbLine
 10
3.2517433621965255
 20
5.734071977266823
 30
0.0
 11
6.2449965713308355
 21
2.527760197977799
 31
0.0
  0
LINE
  5
DC
330
17
100
AcDbEntity
  8
POCKET
100
AcDbLine
 10
6.2449965713308355
 20
2.527760197977799
 30
0.0
 11
6.39148988512434
 21
2.3987571301244284
 31
0.0
  0
LINE
  5
DD
330
17
100
AcDbEntity
  8
POCKET
100
AcDbLine
 10
6.39148988512434
 20
2.3987571301244284
 30
0.0
 11
6.5602532127718725
 21
2.300670322942652
 31
0.0
  0
LINE
  5
DE
330
17
100
AcDbEntity
  8
POCKET
100
AcDbLine
 10
6.5602532127718725
 20
2.300670322942652
 30
0.0
 11
10.956030867433274
 21
0.29140707220149714
 31
0.0
  0
LINE
  5
DF
330
17
100
AcDbEntity
  8
POCKET
100
AcDbLine
 10
10.956030867433274
 20
0.2914070722014974
 30
0.0
 11
11.115840123527578
 21
0.2341993999494547
 31
0.0
  0
LINE
  5
E0
330
17
100
AcDbEntity
  8
POCKET
100
AcDbLine
 10
11.115840123527578
 20
0.2341993999494547
 30
0.0
 11
11.283022593622201
 21
0.20484402921473988
 31
0.0
  0
LINE
  5
E1
330
17
100
AcDbEntity
  8
POCKET
100
AcDbLine
 10
11.283022593622201
 20
0.20484402921473988
 30
0.0
 11
13.582596233168255
 21
5.105295141553257e-18
 31
0.0
  0
LINE
  5
E2
330
17
100
AcDbEntity
  8
POCKET
100
AcDbLine
 10
13.582596233168255
 20
0.0
 30
0.0
 11
13.899644298556545
 21
0.02246983073662079
 31
0.0
  0
LINE
  5
E3
330
17
100
AcDbEntity
  8
POCKET
100
AcDbLine
 10
13.899644298556545
 20
0.02246983073662079
 30
0.0
 11
14.193626453021455
 21
0.1432955809555152
 31
0.0
  0
LINE
  5
E4
330
17
100
AcDbEntity
  8
POCKET
100
AcDbLine
 10
14.193626453021455
 20
0.1432955809555152
 30
0.0
 11
15.259616982411227
 21
0.7961981788118846
 31
0.0
  0
LINE
  5
E5
330
17
100
AcDbEntity
  8
POCKET
100
AcDbLine
 10
15.259616982411227
 20
0.7961981788118847
 30
0.0
 11
23.027374875025355
 21
0.8757331493361061
 31
0.0
  0
LINE
  5
E6
330
17
100
AcDbEntity
  8
POCKET
100
AcDbLine
 10
23.027374875025355
 20
0.8757331493361061
 30
0.0
 11
27.970535268190506
 21
0.37089901194650876
 31
0.0
  0
LINE
  5
E7
330
17
100
AcDbEntity
  8
POCKET
100
AcDbLine
 10
27.970535268190506
 20
0.37089901194650876
 30
0.0
 11
28.112856697316424
 21
0.36655389937645566
 31
0.0
  0
LINE
  5
E8
330
17
100
AcDbEntity
  8
POCKET
100
AcDbLine
 10
28.112856697316424
 20
0.36655389937645566
 30
0.0
 11
28.25435251579908
 21
0.3824662387271832
 31
0.0
  0
LINE
  5
E9
330
17
100
AcDbEntity
  8
POCKET
100
AcDbLine
 10
28.25435251579908
 20
0.3824662387271832
 30
0.0
 11
32.94623207648979
 21
1.2519677706030163
 31
0.0
  0
LINE
  5
EA
330
17
100
AcDbEntity
  8
POCKET
100
AcDbLine
 10
32.94623207648979
 20
1.2519677706030163
 30
0.0
 11
40.833791597423094
 21
0.9395460668824392
 31
0.0
  0
LINE
  5
EB
330
17
100
AcDbEntity
  8
POCKET
100
AcDbLine
 10
40.833791597423094
 20
0.9395460668824392
 30
0.0
 11
40.98260525779612
 21
0.944746612090554
 31
0.0
  0
LINE
  5
EC
330
17
100
AcDbEntity
  8
POCKET
100
AcDbLine
 10
40.98260525779612
 20
0.944746612090554
 30
0.0
 11
41.128996893558686
 21
0.9719870262365042
 31
0.0
  0
LINE
  5
ED
330
17
100
AcDbEntity
  8
POCKET
100
AcDbLine
 10
41.128996893558686
 20
0.9719870262365042
 30
0.0
 11
42.44976814141257
 21
1.321214601636218
 31
0.0
  0
LINE
  5
EE
330
17
100
AcDbEntity
  8
POCKET
100
AcDbLine
 10
42.44976814141257
 20
1.321214601636218
 30
0.0
 11
45.96378275772223
 21
0.9338313601932592
 31
0.0
  0
LINE
  5
EF
330
17
100
AcDbEntity
  8
POCKET
100
AcDbLine
 10
45.96378275772223
 20
0.9338313601932592
 30
0.0
 11
46.24832577211891
 21
0.9432355725267485
 31
0.0
  0
LINE
  5
F0
330
17
100
AcDbEntity
  8
POCKET
100
AcDbLine
 10
46.24832577211891
 20
0.9432355725267485
 30
0.0
 11
46.51868713132492
 21
1.0324426445549655
 31
0.0
  0
LINE
  5
F1
330
17
100
AcDbEntity
  8
POCKET
100
AcDbLine
 10
46.51868713132492
 20
1.0324426445549655
 30
0.0
 11
47.371665018932966
 21
1.4566881698192813
 31
0.0
  0
LINE
  5
F2
330
17
100
AcDbEntity
  8
POCKET
100
AcDbLine
 10
47.371665018932966
 20
1.4566881698192813
 30
0.0
 11
49.09660536377021
 21
0.9599158770683064
 31
0.0
  0
LINE
  5
F3
330
17
100
AcDbEntity
  8
POCKET
100
AcDbLine
 10
49.09660536377021
 20
0.9599158770683064
 30
0.0
 11
49.23256429507856
 21
0.9308191171031719
 31
0.0
  0
LINE
  5
F4
330
17
100
AcDbEntity
  8
POCKET
100
AcDbLine
 10
49.23256429507856
 20
0.9308191171031719
 30
0.0
 11
49.37124484044874
 21
0.9208612669934481
 31
0.0
  0
LINE
  5
F5
330
17
100
AcDbEntity
  8
POCKET
100
AcDbLine
 10
49.37124484044874
 20
0.9208612669934481
 30
0.0
 11
53.871234858384
 21
0.9113829505241935
 31
0.0
  0
LINE
  5
F6
330
17
100
AcDbEntity
  8
POCKET
100
AcDbLine
 10
53.871234858384
 20
0.9113829505241935
 30
0.0
 11
54.03144394366061
 21
0.9239580735787388
 31
0.0
  0
LINE
  5
F7
330
17
100
AcDbEntity
  8
POCKET
100
AcDbLine
 10
54.03144394366061
 20
0.9239580735787388
 30
0.0
 11
54.18757001091977
 21
0.9620334704538314
 31
0.0
  0
LINE
  5
F8
330
17
100
AcDbEntity
  8
POCKET
100
AcDbLine
 10
54.18757001091977
 20
0.9620334704538314
 30
0.0
 11
55.785779226752815
 21
1.4910321626099117
 31
0.0
  0
LINE
  5
F9
330
17
100
AcDbEntity
  8
POCKET
100
AcDbLine
 10
55.785779226752815
 20
1.4910321626099117
 30
0.0
 11
59.572150205952454
 21
1.1043383928175423
 31
0.0
  0
LINE
  5
FA
330
17
100
AcDbEntity
  8
POCKET
100
AcDbLine
 10
59.572150205952454
 20
1.1043383928175423
 30
0.0
 11
59.73731137948125
 21
1.101185889783515
 31
0.0
  0
LINE
  5
FB
330
17
100
AcDbEntity
  8
POCKET
100
AcDbLine
 10
59.73731137948125
 20
1.101185889783515
 30
0.0
 11
59.90073806800375
 21
1.1252663589516945
 31
0.0
  0
LINE
  5
FC
330
17
100
AcDbEntity
  8
POCKET
100
AcDbLine
 10
59.90073806800375
 20
1.1252663589516945
 30
0.0
 11
61.37462896655726
 21
1.4687895152795358
 31
0.0
  0
LINE
  5
FD
330
17
100
AcDbEntity
  8
POCKET
100
AcDbLine
 10
61.37462896655726
 20
1.4687895152795358
 30
0.0
 11
63.74640738592078
 21
0.9161917631845596
 31
0.0
  0
LINE
  5
FE
330
17
100
AcDbEntity
  8
POCKET
100
AcDbLine
 10
63.74640738592078
 20
0.9161917631845596
 30
0.0
 11
63.9341477168698
 21
0.890874656848391
 31
0.0
  0
LINE
  5
FF
330
17
100
AcDbEntity
  8
POCKET
100
AcDbLine
 10
63.9341477168698
 20
0.890874656848391
 30
0.0
 11
64.12329379375596
 21
0.901417395422982
 31
0.0
  0
LINE
  5
100
330
17
100
AcDbEntity
  8
POCKET
100
AcDbLine
 10
64.12329379375596
 20
0.901417395422982
 30
0.0
 11
66.5689837341722
 21
1.2724058191181415
 31
0.0
  0
LINE
  5
101
330
17
100
AcDbEntity
  8
POCKET
100
AcDbLine
 10
66.5689837341722
 20
1.2724058191181415
 30
0.0
 11
68.91323744424457
 21
0.8922594182224856
 31
0.0
  0
LINE
  5
102
330
17
100
AcDbEntity
  8
POCKET
100
AcDbLine
 10
68.91323744424457
 20
0.8922594182224856
 30
0.0
 11
69.03345468132963
 21
0.8801595220488484
 31
0.0
  0
LINE
  5
103
330
17
100
AcDbEntity
  8
POCKET
100
AcDbLine
 10
69.03345468132963
 20
0.8801595220488484
 30
0.0
 11
69.1542537124704
 21
0.8826466198009655
 31
0.0
  0
LINE
  5
104
330
17
100
AcDbEntity
  8
POCKET
100
AcDbLine
 10
69.1542537124704
 20
0.8826466198009655
 30
0.0
 11
71.55466964721232
 21
1.077591074036687
 31
0.0
  0
LINE
  5
105
330
17
100
AcDbEntity
  8
POCKET
100
AcDbLine
 10
71.55466964721232
 20
1.077591074036687
 30
0.0
 11
71.79315824757671
 21
1.1267013095444414
 31
0.0
  0
LINE
  5
106
330
17
100
AcDbEntity
  8
POCKET
100
AcDbLine
 10
71.79315824757671
 20
1.1267013095444414
 30
0.0
 11
72.01270799230853
 21
1.231993936653791
 31
0.0
  0
LINE
  5
107
330
17
100
AcDbEntity
  8
POCKET
100
AcDbLine
 10
72.01270799230853
 20
1.231993936653791
 30
0.0
 11
73.05940006509195
 21
1.9017558774510213
 31
0.0
  0
LINE
  5
108
330
17
100
AcDbEntity
  8
POCKET
100
AcDbLine
 10
73.05940006509195
 20
1.9017558774510213
 30
0.0
 11
76.54680025100194
 21
1.0892307749135361
 31
0.0
  0
LINE
  5
109
330
17
100
AcDbEntity
  8
POCKET
100
AcDbLine
 10
76.54680025100194
 20
1.0892307749135361
 30
0.0
 11
76.66522214973517
 21
1.0690485901345963
 31
0.0
  0
LINE
  5
10A
330
17
100
AcDbEntity
  8
POCKET
100
AcDbLine
 10
76.66522214973517
 20
1.0690485901345963
 30
0.0
 11
76.7852096671301
 21
1.0632122940972977
 31
0.0
  0
LINE
  5
10B
330
17
100
AcDbEntity
  8
POCKET
100
AcDbLine
 10
76.7852096671301
 20
1.0632122940972977
 30
0.0
 11
91.48559831756164
 21
1.2322493499837586
 31
0.0
  0
LINE
  5
10C
330
17
100
AcDbEntity
  8
POCKET
100
AcDbLine
 10
91.48559831756164
 20
1.2322493499837586
 30
0.0
 11
91.60868780186647
 21
1.2412815375322044
 31
0.0
  0
LINE
  5
10D
330
17
100
AcDbEntity
  8
POCKET
100
AcDbLine
 10
91.60868780186647
 20
1.2412815375322044
 30
0.0
 11
91.72972716780568
 21
1.2654077359764346
 31
0.0
  0
LINE
  5
10E
330
17
100
AcDbEntity
  8
POCKET
100
AcDbLine
 10
91.72972716780568
 20
1.2654077359764346
 30
0.0
 11
93.02159738108352
 21
1.606993535218495
 31
0.0
  0
LINE
  5
10F
330
17
100
AcDbEntity
  8
POCKET
100
AcDbLine
 10
93.02159738108352
 20
1.606993535218495
 30
0.0
 11
96.40719143393784
 21
1.0353961333946866
 31
0.0
  0
LINE
  5
110
330
17
100
AcDbEntity
  8
POCKET
100
AcDbLine
 10
96.40719143393784
 20
1.0353961333946866
 30
0.0
 11
96.48908822642802
 21
1.0250248595873876
 31
0.0
  0
LINE
  5
111
330
17
100
AcDbEntity
  8
POCKET
100
AcDbLine
 10
96.48908822642802
 20
1.0250248595873876
 30
0.0
 11
96.5715613981905
 21
1.0214438150463465
 31
0.0
  0
LINE
  5
112
330
17
100
AcDbEntity
  8
POCKET
100
AcDbLine
 10
96.5715613981905
 20
1.0214438150463465
 30
0.0
 11
102.07154919788915
 21
1.0098592060283746
 31
0.0
  0
LINE
  5
113
330
17
100
AcDbEntity
  8
POCKET
100
AcDbLine
 10
102.07154919788915
 20
1.0098592060283746
 30
0.0
 11
102.20662761073453
 21
1.0187372093472966
 31
0.0
  0
LINE
  5
114
330
17
100
AcDbEntity
  8
POCKET
100
AcDbLine
 10
102.20662761073453
 20
1.0187372093472966
 30
0.0
 11
102.33926930993293
 21
1.0457774791965235
 31
0.0
  0
LINE
  5
115
330
17
100
AcDbEntity
  8
POCKET
100
AcDbLine
 10
102.33926930993293
 20
1.0457774791965235
 30
0.0
 11
103.99090425241137
 21
1.5008198917486077
 31
0.0
  0
LINE
  5
116
330
17
100
AcDbEntity
  8
POCKET
100
AcDbLine
 10
103.99090425241137
 20
1.5008198917486077
 30
0.0
 11
112.03538885749398
 21
1.1895414167878564
 31
0.0
  0
LINE
  5
117
330
17
100
AcDbEntity
  8
POCKET
100
AcDbLine
 10
112.03538885749398
 20
1.1895414167878564
 30
0.0
 11
112.13358508837109
 21
1.1905671328457736
 31
0.0
  0
LINE
  5
118
330
17
100
AcDbEntity
  8
POCKET
100
AcDbLine
 10
112.13358508837109
 20
1.1905671328457736
 30
0.0
 11
112.23120723357454
 21
1.2012192977795522
 31
0.0
  0
LINE
  5
119
330
17
100
AcDbEntity
  8
POCKET
100
AcDbLine
 10
112.23120723357454
 20
1.2012192977795522
 30
0.0
 11
115.17031369242767
 21
1.66891920534172
 31
0.0
  0
LINE
  5
11A
330
17
100
AcDbEntity
  8
POCKET
100
AcDbLine
 10
115.17031369242767
 20
1.66891920534172
 30
0.0
 11
118.00756477853677
 21
1.189899770694939
 31
0.0
  0
LINE
  5
11B
330
17
100
AcDbEntity
  8
POCKET
100
AcDbLine
 10
118.00756477853677
 20
1.189899770694939
 30
0.0
 11
118.09512412075092
 21
1.1790640372805816
 31
0.0
  0
LINE
  5
11C
330
17
100
AcDbEntity
  8
POCKET
100
AcDbLine
 10
118.09512412075092
 20
1.1790640372805816
 30
0.0
 11
118.1832977562946
 21
1.175988078469242
 31
0.0
  0
LINE
  5
11D
330
17
100
AcDbEntity
  8
POCKET
100
AcDbLine
 10
118.1832977562946
 20
1.175988078469242
 30
0.0
 11
135.62750397126024
 21
1.3374711463466245
 31
0.0
  0
LINE
  5
11E
330
17
100
AcDbEntity
  8
POCKET
100
AcDbLine
 10
135.62750397126024
 20
1.3374711463466245
 30
0.0
 11
136.77747950546666
 21
0.9809792908405677
 31
0.0
  0
LINE
  5
11F
330
17
100
AcDbEntity
  8
POCKET
100
AcDbLine
 10
136.77747950546666
 20
0.9809792908405677
 30
0.0
 11
137.05680662496817
 21
0.9362773955079142
 31
0.0
  0
LINE
  5
120
330
17
100
AcDbEntity
  8
POCKET
100
AcDbLine
 10
137.05680662496817
 20
0.9362773955079142
 30
0.0
 11
137.3374758099201
 21
0.9715861444768339
 31
0.0
  0
LINE
  5
121
330
17
100
AcDbEntity
  8
POCKET
100
AcDbLine
 10
137.3374758099201
 20
0.9715861444768339
 30
0.0
 11
140.01313223858494
 21
1.703637178599163
 31
0.0
  0
LINE
  5
122
330
17
100
AcDbEntity
  8
POCKET
100
AcDbLine
 10
140.01313223858494
 20
1.703637178599163
 30
0.0
 11
145.98062574854774
 21
0.5355929426433189
 31
0.0
  0
LINE
  5
123
330
17
100
AcDbEntity
  8
POCKET
100
AcDbLine
 10
145.98062574854774
 20
0.5355929426433188
 30
0.0
 11
146.08483764312854
 21
0.5208390851872816
 31
0.0
  0
LINE
  5
124
330
17
100
AcDbEntity
  8
POCKET
100
AcDbLine
 10
146.08483764312854
 20
0.5208390851872816
 30
0.0
 11
146.1900230267313
 21
0.5171201662192002
 31
0.0
  0
LINE
  5
125
330
17
100
AcDbEntity
  8
POCKET
100
AcDbLine
 10
146.1900230267313
 20
0.5171201662192002
 30
0.0
 11
156.49042143740397
 21
0.695424909319994
 31
0.0
  0
LINE
  5
126
330
17
100
AcDbEntity
  8
POCKET
100
AcDbLine
 10
156.49042143740397
 20
0.695424909319994
 30
0.0
 11
156.72301637753452
 21
0.727004193071074
 31
0.0
  0
LINE
  5
127
330
17
100
AcDbEntity
  8
POCKET
100
AcDbLine
 10
156.72301637753452
 20
0.727004193071074
 30
0.0
 11
156.9418422578492
 21
0.8119329363861039
 31
0.0
  0
LINE
  5
128
330
17
100
AcDbEntity
  8
POCKET
100
AcDbLine
 10
156.9418422578492
 20
0.8119329363861039
 30
0.0
 11
158.21944928259964
 21
1.489870762229332
 31
0.0
  0
LINE
  5
129
330
17
100
AcDbEntity
  8
POCKET
100
AcDbLine
 10
158.21944928259964
 20
1.489870762229332
 30
0.0
 11
186.7956497625206
 21
1.2325998087167755
 31
0.0
  0
LINE
  5
12A
330
17
100
AcDbEntity
  8
POCKET
100
AcDbLine
 10
186.7956497625206
 20
1.2325998087167755
 30
0.0
 11
189.43387794066223
 21
0.2841050624690527
 31
0.0
  0
LINE
  5
12B
330
17
100
AcDbEntity
  8
POCKET
100
AcDbLine
 10
189.43387794066223
 20
0.28410506246905276
 30
0.0
 11
189.5994498355317
 21
0.24017029197236006
 31
0.0
  0
LINE
  5
12C
330
17
100
AcDbEntity
  8
POCKET
100
AcDbLine
 10
189.5994498355317
 20
0.24017029197236006
 30
0.0
 11
189.77009088300917
 21
0.2251386804472516
 31
0.0
  0
LINE
  5
12D
330
17
100
AcDbEntity
  8
POCKET
100
AcDbLine
 10
189.77009088300917
 20
0.2251386804472516
 30
0.0
 11
198.47007158435065
 21
0.20681393527336756
 31
0.0
  0
LINE
  5
12E
330
17
100
AcDbEntity
  8
POCKET
100
AcDbLine
 10
198.47007158435065
 20
0.20681393527336756
 30
0.0
 11
198.62243974372754
 21
0.2181654853758478
 31
0.0
  0
LINE
  5
12F
330
17
100
AcDbEntity
  8
POCKET
100
AcDbLine
 10
198.62243974372754
 20
0.2181654853758478
 30
0.0
 11
198.77130005279366
 21
0.25259689641811955
 31
0.0
  0
LINE
  5
130
330
17
100
AcDbEntity
  8
POCKET
100
AcDbLine
 10
198.77130005279366
 20
0.25259689641811955
 30
0.0
 11
200.47871810047772
 21
0.7878292052742439
 31
0.0
  0
LINE
  5
131
330
17
100
AcDbEntity
  8
POCKET
100
AcDbLine
 10
200.47871810047772
 20
0.7878292052742439
 30
0.0
 11
202.1720717820275
 21
0.6229576467344349
 31
0.0
  0
LINE
  5
132
330
17
100
AcDbEntity
  8
POCKET
100
AcDbLine
 10
202.1720717820275
 20
0.6229576467344349
 30
0.0
 11
203.09104513200586
 21
0.11918504582610523
 31
0.0
  0
LINE
  5
133
330
17
100
AcDbEntity
  8
POCKET
100
AcDbLine
 10
203.09104513200586
 20
0.11918504582610523
 30
0.0
 11
203.42425381578263
 21
0.0070067438698916355
 31
0.0
  0
LINE
  5
134
330
17
100
AcDbEntity
  8
POCKET
100
AcDbLine
 10
203.42425381578263
 20
0.007006743869891641
 30
0.0
 11
203.77569421733207
 21
0.017088536012607958
 31
0.0
  0
LINE
  5
135
330
17
100
AcDbEntity
  8
POCKET
100
AcDbLine
 10
203.77569421733207
 20
0.017088536012607958
 30
0.0
 11
205.55099210838566
 21
0.3869321553068925
 31
0.0
  0
LINE
  5
136
330
17
100
AcDbEntity
  8
POCKET
100
AcDbLine
 10
205.55099210838566
 20
0.3869321553068925
 30
0.0
 11
209.62248408022896
 21
0.184455504612278
 31
0.0
  0
LINE
  5
137
330
17
100
AcDbEntity
  8
POCKET
100
AcDbLine
 10
209.62248408022896
 20
0.184455504612278
 30
0.0
 11
209.82918940388714
 21
0.19562842049464324
 31
0.0
  0
LINE
  5
138
330
17
100
AcDbEntity
  8
POCKET
100
AcDbLine
 10
209.82918940388714
 20
0.19562842049464324
 30
0.0
 11
210.0291654167619
 21
0.2491215897094906
 31
0.0
  0
LINE
  5
139
330
17
100
AcDbEntity
  8
POCKET
100
AcDbLine
 10
210.0291654167619
 20
0.2491215897094906
 30
0.0
 11
212.41731867317512
 21
1.1618724798152396
 31
0.0
  0
LINE
  5
13A
330
17
100
AcDbEntity
  8
POCKET
100
AcDbLine
 10
212.41731867317512
 20
1.1618724798152396
 30
0.0
 11
214.58868266296096
 21
0.9763193735629533
 31
0.0
  0
LINE
  5
13B
330
17
100
AcDbEntity
  8
POCKET
100
AcDbLine
 10
214.58868266296096
 20
0.9763193735629533
 30
0.0
 11
214.86086578975443
 21
0.9903354788755941
 31
0.0
  0
LINE
  5
13C
330
17
100
AcDbEntity
  8
POCKET
100
AcDbLine
 10
214.86086578975443
 20
0.9903354788755941
 30
0.0
 11
215.11915565365186
 21
1.0773208335454614
 31
0.0
  0
LINE
  5
13D
330
17
100
AcDbEntity
  8
POCKET
100
AcDbLine
 10
215.11915565365186
 20
1.0773208335454614
 30
0.0
 11
219.52377973701797
 21
3.268048266210547
 31
0.0
  0
LINE
  5
13E
330
17
100
AcDbEntity
  8
POCKET
100
AcDbLine
 10
219.52377973701797
 20
3.268048266210547
 30
0.0
 11
219.69994912481462
 21
3.3799997390001377
 31
0.0
  0
LINE
  5
13F
330
17
100
AcDbEntity
  8
POCKET
100
AcDbLine
 10
219.69994912481462
 20
3.3799997390001377
 30
0.0
 11
219.84904059671462
 21
3.526083682207796
 31
0.0
  0
LINE
  5
140
330
17
100
AcDbEntity
  8
POCKET
100
AcDbLine
 10
219.84904059671462
 20
3.526083682207796
 30
0.0
 11
222.6561957803178
 21
6.9201785210668705
 31
0.0
  0
LINE
  5
141
330
17
100
AcDbEntity
  8
POCKET
100
AcDbLine
 10
222.6561957803178
 20
6.9201785210668705
 30
0.0
 11
222.74494467928216
 21
7.04610295069775
 31
0.0
  0
LINE
  5
142
330
17
100
AcDbEntity
  8
POCKET
100
AcDbLine
 10
222.74494467928216
 20
7.04610295069775
 30
0.0
 11
222.81329861636453
 21
7.184164778624907
 31
0.0
  0
ENDSEC
  0
SECTION
  2
OBJECTS
  0
DICTIONARY
  5
A
330
0
100
AcDbDictionary
281
1
  3
ACAD_COLOR
350
B
  3
ACAD_GROUP
350
C
  3
ACAD_LAYOUT
350
D
  3
ACAD_MATERIAL
350
E
  3
ACAD_MLEADERSTYLE
350
F
  3
ACAD_MLINESTYLE
350
10
  3
ACAD_PLOTSETTINGS
350
11
  3
ACAD_PLOTSTYLENAME
350
12
  3
ACAD_SCALELIST
350
14
  3
ACAD_TABLESTYLE
350
15
  3
ACAD_VISUALSTYLE
350
16
  3
EZDXF_META
350
2D
  0
DICTIONARY
  5
B
330
A
100
AcDbDictionary
281
1
  0
DICTIONARY
  5
C
330
A
100
AcDbDictionary
281
1
  0
DICTIONARY
  5
D
330
A
100
AcDbDictionary
281
1
  3
Model
350
1A
  3
Layout1
350
1E
  0
DICTIONARY
  5
E
330
A
100
AcDbDictionary
281
1
  3
ByBlock
350
1F
  3
ByLayer
350
20
  3
Global
350
21
  0
DICTIONARY
  5
F
330
A
100
AcDbDictionary
281
1
  3
Standard
350
2C
  0
DICTIONARY
  5
10
330
A
100
AcDbDictionary
281
1
  3
Standard
350
22
  0
DICTIONARY
  5
11
330
A
100
AcDbDictionary
281
1
  0
ACDBDICTIONARYWDFLT
  5
12
330
A
100
AcDbDictionary
281
1
  3
Normal
350
13
100
AcDbDictionaryWithDefault
340
13
  0
ACDBPLACEHOLDER
  5
13
330
12
  0
DICTIONARY
  5
14
330
A
100
AcDbDictionary
281
1
  0
DICTIONARY
  5
15
330
A
100
AcDbDictionary
281
1
  0
DICTIONARY
  5
16
330
A
100
AcDbDictionary
281
1
  0
LAYOUT
  5
1A
330
D
100
AcDbPlotSettings
  1

  4
A3
  6

 40
7.5
 41
20.0
 42
7.5
 43
20.0
 44
420.0
 45
297.0
 46
0.0
 47
0.0
 48
0.0
 49
0.0
140
0.0
141
0.0
142
1.0
143
1.0
 70
1024
 72
1
 73
0
 74
5
  7

 75
16
 76
0
 77
2
 78
300
147
1.0
148
0.0
149
0.0
100
AcDbLayout
  1
Model
 70
1
 71
0
 10
0.0
 20
0.0
 11
420.0
 21
297.0
 12
0.0
 22
0.0
 32
0.0
 14
1e+20
 24
1e+20
 34
1e+20
 15
-1e+20
 25
-1e+20
 35
-1e+20
146
0.0
 13
0.0
 23
0.0
 33
0.0
 16
1.0
 26
0.0
 36
0.0
 17
0.0
 27
1.0
 37
0.0
 76
1
330
17
  0
LAYOUT
  5
1E
330
D
100
AcDbPlotSettings
  1

  4
A3
  6

 40
7.5
 41
20.0
 42
7.5
 43
20.0
 44
420.0
 45
297.0
 46
0.0
 47
0.0
 48
0.0
 49
0.0
140
0.0
141
0.0
142
1.0
143
1.0
 70
0
 72
1
 73
0
 74
5
  7

 75
16
 76
0
 77
2
 78
300
147
1.0
148
0.0
149
0.0
100
AcDbLayout
  1
Layout1
 70
1
 71
1
 10
0.0
 20
0.0
 11
420.0
 21
297.0
 12
0.0
 22
0.0
 32
0.0
 14
1e+20
 24
1e+20
 34
1e+20
 15
-1e+20
 25
-1e+20
 35
-1e+20
146
0.0
 13
0.0
 23
0.0
 33
0.0
 16
1.0
 26
0.0
 36
0.0
 17
0.0
 27
1.0
 37
0.0
 76
1
330
1B
  0
MATERIAL
  5
1F
102
{ACAD_REACTORS
330
E
102
}
330
E
100
AcDbMaterial
  1
ByBlock
  2

 70
0
 40
1.0
 71
1
 41
1.0
 91
-1023410177
 42
1.0
 72
1
  3

 73
1
 74
1
 75
1
 44
0.5
 73
0
 45
1.0
 46
1.0
 77
1
  4

 78
1
 79
1
170
1
 48
1.0
171
1
  6

172
1
173
1
174
1
140
1.0
141
1.0
175
1
  7

176
1
177
1
178
1
143
1.0
179
1
  8

270
1
271
1
272
1
145
1.0
146
1.0
273
1
  9

274
1
275
1
276
1
 42
1.0
 72
1
  3

 73
1
 74
1
 75
1
 94
63
  0
MATERIAL
  5
20
102
{ACAD_REACTORS
330
E
102
}
330
E
100
AcDbMaterial
  1
ByLayer
  2

 70
0
 40
1.0
 71
1
 41
1.0
 91
-1023410177
 42
1.0
 72
1
  3

 73
1
 74
1
 75
1
 44
0.5
 73
0
 45
1.0
 46
1.0
 77
1
  4

 78
1
 79
1
170
1
 48
1.0
171
1
  6

172
1
173
1
174
1
140
1.0
141
1.0
175
1
  7

176
1
177
1
178
1
143
1.0
179
1
  8

270
1
271
1
272
1
145
1.0
146
1.0
273
1
  9

274
1
275
1
276
1
 42
1.0
 72
1
  3

 73
1
 74
1
 75
1
 94
63
  0
MATERIAL
  5
21
102
{ACAD_REACTORS
330
E
102
}
330
E
100
AcDbMaterial
  1
Global
  2

 70
0
 40
1.0
 71
1
 41
1.0
 91
-1023410177
 42
1.0
 72
1
  3

 73
1
 74
1
 75
1
 44
0.5
 73
0
 45
1.0
 46
1.0
 77
1
  4

 78
1
 79
1
170
1
 48
1.0
171
1
  6

172
1
173
1
174
1
140
1.0
141
1.0
175
1
  7

176
1
177
1
178
1
143
1.0
179
1
  8

270
1
271
1
272
1
145
1.0
146
1.0
273
1
  9

274
1
275
1
276
1
 42
1.0
 72
1
  3

 73
1
 74
1
 75
1
 94
63
  0
MLINESTYLE
  5
22
102
{ACAD_REACTORS
330
10
102
}
330
10
100
AcDbMlineStyle
  2
Standard
 70
0
  3

 62
256
 51
90.0
 52
90.0
 71
2
 49
0.5
 62
256
  6
BYLAYER
 49
-0.5
 62
256
  6
BYLAYER
  0
MLEADERSTYLE
  5
2C
102
{ACAD_REACTORS
330
F
102
}
330
F
100
AcDbMLeaderStyle
179
2
170
2
171
1
172
0
 90
2
 40
0.0
 41
0.0
173
1
 91
-1056964608
 92
-2
290
1
 42
2.0
291
1
 43
8.0
  3
Standard
 44
4.0
300

342
29
174
1
175
1
176
0
178
1
 93
-1056964608
 45
4.0
292
0
297
0
 46
4.0
 94
-1056964608
 47
1.0
 49
1.0
140
1.0
294
1
141
0.0
177
0
142
1.0
295
0
296
0
143
3.75
271
0
272
9
273
9
  0
DICTIONARY
  5
2D
330
A
100
AcDbDictionary
280
1
281
1
  3
CREATED_BY_EZDXF
350
2E
  3
WRITTEN_BY_EZDXF
350
146
  0
DICTIONARYVAR
  5
2E
330
2D
100
DictionaryVariables
280
0
  1
1.4.4 @ 2026-09-21T20:32:50.784409+00:00
  0
DICTIONARYVAR
  5
146
330
2D
100
DictionaryVariables
280
0
  1
1.4.4 @ 2026-09-21T20:32:50.795542+00:00
  0
ENDSEC
  0
EOF
