  0
SECTION
  2
HEADER
  9
$ACADVER
  1
AC1027
  9
$ACADMAINTVER
 70
105
  9
$DWGCODEPAGE
  3
ANSI_1252
  9
$LASTSAVEDBY
  1
ezdxf
  9
$REQUIREDVERSIONS
160
0
  9
$INSBASE
 10
0.0
 20
0.0
 30
0.0
  9
$EXTMIN
 10
1e+20
 20
1e+20
 30
1e+20
  9
$EXTMAX
 10
-1e+20
 20
-1e+20
 30
-1e+20
  9
$LIMMIN
 10
0.0
 20
0.0
  9
$LIMMAX
 10
420.0
 20
297.0
  9
$ORTHOMODE
 70
0
  9
$REGENMODE
 70
1
  9
$FILLMODE
 70
1
  9
$QTEXTMODE
 70
0
  9
$MIRRTEXT
 70
1
  9
$LTSCALE
 40
1.0
  9
$ATTMODE
 70
1
  9
$TEXTSIZE
 40
2.5
  9
$TRACEWID
 40
1.0
  9
$TEXTSTYLE
  7
Standard
  9
$CLAYER
  8
0
  9
$CELTYPE
  6
ByLayer
  9
$CECOLOR
 62
256
  9
$CELTSCALE
 40
1.0
  9
$DISPSILH
 70
0
  9
$DIMSCALE
 40
1.0
  9
$DIMASZ
 40
2.5
  9
$DIMEXO
 40
0.625
  9
$DIMDLI
 40
3.75
  9
$DIMRND
 40
0.0
  9
$DIMDLE
 40
0.0
  9
$DIMEXE
 40
1.25
  9
$DIMTP
 40
0.0
  9
$DIMTM
 40
0.0
  9
$DIMTXT
 40
2.5
  9
$DIMCEN
 40
2.5
  9
$DIMTSZ
 40
0.0
  9
$DIMTOL
 70
0
  9
$DIMLIM
 70
0
  9
$DIMTIH
 70
0
  9
$DIMTOH
 70
0
  9
$DIMSE1
 70
0
  9
$DIMSE2
 70
0
  9
$DIMTAD
 70
1
  9
$DIMZIN
 70
8
  9
$DIMBLK
  1

  9
$DIMASO
 70
1
  9
$DIMSHO
 70
1
  9
$DIMPOST
  1

  9
$DIMAPOST
  1

  9
$DIMALT
 70
0
  9
$DIMALTD
 70
3
  9
$DIMALTF
 40
0.03937007874
  9
$DIMLFAC
 40
1.0
  9
$DIMTOFL
 70
1
  9
$DIMTVP
 40
0.0
  9
$DIMTIX
 70
0
  9
$DIMSOXD
 70
0
  9
$DIMSAH
 70
0
  9
$DIMBLK1
  1

  9
$DIMBLK2
  1

  9
$DIMSTYLE
  2
ISO-25
  9
$DIMCLRD
 70
0
  9
$DIMCLRE
 70
0
  9
$DIMCLRT
 70
0
  9
$DIMTFAC
 40
1.0
  9
$DIMGAP
 40
0.625
  9
$DIMJUST
 70
0
  9
$DIMSD1
 70
0
  9
$DIMSD2
 70
0
  9
$DIMTOLJ
 70
0
  9
$DIMTZIN
 70
8
  9
$DIMALTZ
 70
0
  9
$DIMALTTZ
 70
0
  9
$DIMUPT
 70
0
  9
$DIMDEC
 70
2
  9
$DIMTDEC
 70
2
  9
$DIMALTU
 70
2
  9
$DIMALTTD
 70
3
  9
$DIMTXSTY
  7
Standard
  9
$DIMAUNIT
 70
0
  9
$DIMADEC
 70
0
  9
$DIMALTRND
 40
0.0
  9
$DIMAZIN
 70
0
  9
$DIMDSEP
 70
44
  9
$DIMATFIT
 70
3
  9
$DIMFRAC
 70
0
  9
$DIMLDRBLK
  1

  9
$DIMLUNIT
 70
2
  9
$DIMLWD
 70
-2
  9
$DIMLWE
 70
-2
  9
$DIMTMOVE
 70
0
  9
$DIMFXL
 40
1.0
  9
$DIMFXLON
 70
0
  9
$DIMJOGANG
 40
0.785398163397
  9
$DIMTFILL
 70
0
  9
$DIMTFILLCLR
 70
0
  9
$DIMARCSYM
 70
0
  9
$DIMLTYPE
  6

  9
$DIMLTEX1
  6

  9
$DIMLTEX2
  6

  9
$DIMTXTDIRECTION
 70
0
  9
$LUNITS
 70
2
  9
$LUPREC
 70
4
  9
$SKETCHINC
 40
1.0
  9
$FILLETRAD
 40
10.0
  9
$AUNITS
 70
0
  9
$AUPREC
 70
2
  9
$MENU
  1
.
  9
$ELEVATION
 40
0.0
  9
$PELEVATION
 40
0.0
  9
$THICKNESS
 40
0.0
  9
$LIMCHECK
 70
0
  9
$CHAMFERA
 40
0.0
  9
$CHAMFERB
 40
0.0
  9
$CHAMFERC
 40
0.0
  9
$CHAMFERD
 40
0.0
  9
$SKPOLY
 70
0
  9
$TDCREATE
 40
2461302.522337963
  9
$TDUCREATE
 40
2458532.153996898
  9
$TDUPDATE
 40
2461302.522337963
  9
$TDUUPDATE
 40
2458532.1544311
  9
$TDINDWG
 40
0.0
  9
$TDUSRTIMER
 40
0.0
  9
$USRTIMER
 70
1
  9
$ANGBASE
 50
0.0
  9
$ANGDIR
 70
0
  9
$PDMODE
 70
0
  9
$PDSIZE
 40
0.0
  9
$PLINEWID
 40
0.0
  9
$SPLFRAME
 70
0
  9
$SPLINETYPE
 70
6
  9
$SPLINESEGS
 70
8
  9
$HANDSEED
  5
CA
  9
$SURFTAB1
 70
6
  9
$SURFTAB2
 70
6
  9
$SURFTYPE
 70
6
  9
$SURFU
 70
6
  9
$SURFV
 70
6
  9
$UCSBASE
  2

  9
$UCSNAME
  2

  9
$UCSORG
 10
0.0
 20
0.0
 30
0.0
  9
$UCSXDIR
 10
1.0
 20
0.0
 30
0.0
  9
$UCSYDIR
 10
0.0
 20
1.0
 30
0.0
  9
$UCSORTHOREF
  2

  9
$UCSORTHOVIEW
 70
0
  9
$UCSORGTOP
 10
0.0
 20
0.0
 30
0.0
  9
$UCSORGBOTTOM
 10
0.0
 20
0.0
 30
0.0
  9
$UCSORGLEFT
 10
0.0
 20
0.0
 30
0.0
  9
$UCSORGRIGHT
 10
0.0
 20
0.0
 30
0.0
  9
$UCSORGFRONT
 10
0.0
 20
0.0
 30
0.0
  9
$UCSORGBACK
 10
0.0
 20
0.0
 30
0.0
  9
$PUCSBASE
  2

  9
$PUCSNAME
  2

  9
$PUCSORG
 10
0.0
 20
0.0
 30
0.0
  9
$PUCSXDIR
 10
1.0
 20
0.0
 30
0.0
  9
$PUCSYDIR
 10
0.0
 20
1.0
 30
0.0
  9
$PUCSORTHOREF
  2

  9
$PUCSORTHOVIEW
 70
0
  9
$PUCSORGTOP
 10
0.0
 20
0.0
 30
0.0
  9
$PUCSORGBOTTOM
 10
0.0
 20
0.0
 30
0.0
  9
$PUCSORGLEFT
 10
0.0
 20
0.0
 30
0.0
  9
$PUCSORGRIGHT
 10
0.0
 20
0.0
 30
0.0
  9
$PUCSORGFRONT
 10
0.0
 20
0.0
 30
0.0
  9
$PUCSORGBACK
 10
0.0
 20
0.0
 30
0.0
  9
$USERI1
 70
0
  9
$USERI2
 70
0
  9
$USERI3
 70
0
  9
$USERI4
 70
0
  9
$USERI5
 70
0
  9
$USERR1
 40
0.0
  9
$USERR2
 40
0.0
  9
$USERR3
 40
0.0
  9
$USERR4
 40
0.0
  9
$USERR5
 40
0.0
  9
$WORLDVIEW
 70
1
  9
$SHADEDGE
 70
3
  9
$SHADEDIF
 70
70
  9
$TILEMODE
 70
1
  9
$MAXACTVP
 70
64
  9
$PINSBASE
 10
0.0
 20
0.0
 30
0.0
  9
$PLIMCHECK
 70
0
  9
$PEXTMIN
 10
1e+20
 20
1e+20
 30
1e+20
  9
$PEXTMAX
 10
-1e+20
 20
-1e+20
 30
-1e+20
  9
$PLIMMIN
 10
0.0
 20
0.0
  9
$PLIMMAX
 10
420.0
 20
297.0
  9
$UNITMODE
 70
0
  9
$VISRETAIN
 70
1
  9
$PLINEGEN
 70
0
  9
$PSLTSCALE
 70
1
  9
$TREEDEPTH
 70
3020
  9
$CMLSTYLE
  2
Standard
  9
$CMLJUST
 70
0
  9
$CMLSCALE
 40
20.0
  9
$PROXYGRAPHICS
 70
1
  9
$MEASUREMENT
 70
1
  9
$CELWEIGHT
370
-1
  9
$ENDCAPS
280
0
  9
$JOINSTYLE
280
0
  9
$LWDISPLAY
290
0
  9
$INSUNITS
 70
4
  9
$HYPERLINKBASE
  1

  9
$STYLESHEET
  1

  9
$XEDIT
290
1
  9
$CEPSNTYPE
380
0
  9
$PSTYLEMODE
290
1
  9
$FINGERPRINTGUID
  2
{486E4C33-1A71-4CC2-AC34-93B1A8B64936}
  9
$VERSIONGUID
  2
{B119C145-1D6A-4A89-B63B-16730B206F04}
  9
$EXTNAMES
290
1
  9
$PSVPSCALE
 40
0.0
  9
$OLESTARTUP
290
0
  9
$SORTENTS
280
127
  9
$INDEXCTL
280
0
  9
$HIDETEXT
280
1
  9
$XCLIPFRAME
280
1
  9
$HALOGAP
280
0
  9
$OBSCOLOR
 70
257
  9
$OBSLTYPE
280
0
  9
$INTERSECTIONDISPLAY
280
0
  9
$INTERSECTIONCOLOR
 70
257
  9
$DIMASSOC
280
2
  9
$PROJECTNAME
  1

  9
$CAMERADISPLAY
290
0
  9
$LENSLENGTH
 40
50.0
  9
$CAMERAHEIGHT
 40
0.0
  9
$STEPSPERSEC
 40
24.0
  9
$STEPSIZE
 40
100.0
  9
$3DDWFPREC
 40
2.0
  9
$PSOLWIDTH
 40
0.005
  9
$PSOLHEIGHT
 40
0.08
  9
$LOFTANG1
 40
1.570796326795
  9
$LOFTANG2
 40
1.570796326795
  9
$LOFTMAG1
 40
0.0
  9
$LOFTMAG2
 40
0.0
  9
$LOFTPARAM
 70
7
  9
$LOFTNORMALS
280
1
  9
$LATITUDE
 40
37.795
  9
$LONGITUDE
 40
-122.394
  9
$NORTHDIRECTION
 40
0.0
  9
$TIMEZONE
 70
-8000
  9
$LIGHTGLYPHDISPLAY
280
1
  9
$TILEMODELIGHTSYNCH
280
1
  9
$CMATERIAL
347
20
  9
$SOLIDHIST
280
0
  9
$SHOWHIST
280
1
  9
$DWFFRAME
280
2
  9
$DGNFRAME
280
2
  9
$REALWORLDSCALE
290
1
  9
$INTERFERECOLOR
 62
256
  9
$CSHADOW
280
0
  9
$SHADOWPLANELOCATION
 40
0.0
  0
ENDSEC
  0
SECTION
  2
CLASSES
  0
CLASS
  1
ACDBDICTIONARYWDFLT
  2
AcDbDictionaryWithDefault
  3
ObjectDBX Classes
 90
0
 91
0
280
0
281
0
  0
CLASS
  1
SUN
  2
AcDbSun
  3
SCENEOE
 90
1153
 91
0
280
0
281
0
  0
CLASS
  1
VISUALSTYLE
  2
AcDbVisualStyle
  3
ObjectDBX Classes
 90
4095
 91
0
280
0
281
0
  0
CLASS
  1
MATERIAL
  2
AcDbMaterial
  3
ObjectDBX Classes
 90
1153
 91
0
280
0
281
0
  0
CLASS
  1
SCALE
  2
AcDbScale
  3
ObjectDBX Classes
 90
1153
 91
0
280
0
281
0
  0
CLASS
  1
TABLESTYLE
  2
AcDbTableStyle
  3
ObjectDBX Classes
 90
4095
 91
0
280
0
281
0
  0
CLASS
  1
MLEADERSTYLE
  2
AcDbMLeaderStyle
  3
ACDB_MLEADERSTYLE_CLASS
 90
4095
 91
0
280
0
281
0
  0
CLASS
  1
DICTIONARYVAR
  2
AcDbDictionaryVar
  3
ObjectDBX Classes
 90
0
 91
0
280
0
281
0
  0
CLASS
  1
CELLSTYLEMAP
  2
AcDbCellStyleMap
  3
ObjectDBX Classes
 90
1152
 91
0
280
0
281
0
  0
CLASS
  1
MENTALRAYRENDERSETTINGS
  2
AcDbMentalRayRenderSettings
  3
SCENEOE
 90
1024
 91
0
280
0
281
0
  0
CLASS
  1
ACDBDETAILVIEWSTYLE
  2
AcDbDetailViewStyle
  3
ObjectDBX Classes
 90
1025
 91
0
280
0
281
0
  0
CLASS
  1
ACDBSECTIONVIEWSTYLE
  2
AcDbSectionViewStyle
  3
ObjectDBX Classes
 90
1025
 91
0
280
0
281
0
  0
CLASS
  1
RASTERVARIABLES
  2
AcDbRasterVariables
  3
ISM
 90
0
 91
0
280
0
281
0
  0
CLASS
  1
ACDBPLACEHOLDER
  2
AcDbPlaceHolder
  3
ObjectDBX Classes
 90
0
 91
0
280
0
281
0
  0
CLASS
  1
LAYOUT
  2
AcDbLayout
  3
ObjectDBX Classes
 90
0
 91
0
280
0
281
0
  0
ENDSEC
  0
SECTION
  2
TABLES
  0
TABLE
  2
VPORT
  5
8
330
0
100
AcDbSymbolTable
 70
1
  0
VPORT
  5
C6
330
8
100
AcDbSymbolTableRecord
100
AcDbViewportTableRecord
  2
*Active
 70
0
 10
0.0
 20
0.0
 11
1.0
 21
1.0
 12
112.57634609129694
 22
33.78754308202934
 13
0.0
 23
0.0
 14
0.5
 24
0.5
 15
0.5
 25
0.5
 16
0.0
 26
0.0
 36
1.0
 17
0.0
 27
0.0
 37
0.0
 40
112.57634609129694
 41
1.34
 42
50.0
 43
0.0
 44
0.0
 50
0.0
 51
0.0
 71
0
 72
1000
 73
1
 74
3
 75
0
 76
0
 77
0
 78
0
281
0
 65
1
110
0.0
120
0.0
130
0.0
111
1.0
121
0.0
131
0.0
112
0.0
122
1.0
132
0.0
 79
0
146
0.0
  0
ENDTAB
  0
TABLE
  2
LTYPE
  5
2
330
0
100
AcDbSymbolTable
 70
3
  0
LTYPE
  5
24
330
2
100
AcDbSymbolTableRecord
100
AcDbLinetypeTableRecord
  2
ByBlock
 70
0
  3

 72
65
 73
0
 40
0.0
  0
LTYPE
  5
25
330
2
100
AcDbSymbolTableRecord
100
AcDbLinetypeTableRecord
  2
ByLayer
 70
0
  3

 72
65
 73
0
 40
0.0
  0
LTYPE
  5
26
330
2
100
AcDbSymbolTableRecord
100
AcDbLinetypeTableRecord
  2
Continuous
 70
0
  3

 72
65
 73
0
 40
0.0
  0
ENDTAB
  0
TABLE
  2
LAYER
  5
1
330
0
100
AcDbSymbolTable
 70
3
  0
LAYER
  5
27
330
1
100
AcDbSymbolTableRecord
100
AcDbLayerTableRecord
  2
0
 70
0
 62
7
  6
Continuous
370
-3
390
13
347
21
  0
LAYER
  5
28
330
1
100
AcDbSymbolTableRecord
100
AcDbLayerTableRecord
  2
Defpoints
 70
0
 62
7
  6
Continuous
290
0
370
-3
390
13
347
21
  0
LAYER
  5
2F
330
1
100
AcDbSymbolTableRecord
100
AcDbLayerTableRecord
  2
POCKET
 70
0
 62
7
  6
Continuous
370
-3
390
13
347
21
  0
ENDTAB
  0
TABLE
  2
STYLE
  5
5
330
0
100
AcDbSymbolTable
 70
1
  0
STYLE
  5
29
330
5
100
AcDbSymbolTableRecord
100
AcDbTextStyleTableRecord
  2
Standard
 70
0
 40
0.0
 41
1.0
 50
0.0
 71
0
 42
2.5
  3
txt
  4

  0
ENDTAB
  0
TABLE
  2
VIEW
  5
7
330
0
100
AcDbSymbolTable
 70
0
  0
ENDTAB
  0
TABLE
  2
UCS
  5
6
330
0
100
AcDbSymbolTable
 70
0
  0
ENDTAB
  0
TABLE
  2
APPID
  5
3
330
0
100
AcDbSymbolTable
 70
3
  0
APPID
  5
2A
330
3
100
AcDbSymbolTableRecord
100
AcDbRegAppTableRecord
  2
ACAD
 70
0
  0
APPID
  5
C7
330
3
100
AcDbSymbolTableRecord
100
AcDbRegAppTableRecord
  2
HATCHBACKGROUNDCOLOR
 70
0
  0
APPID
  5
C8
330
3
100
AcDbSymbolTableRecord
100
AcDbRegAppTableRecord
  2
EZDXF
 70
0
  0
ENDTAB
  0
TABLE
  2
DIMSTYLE
  5
4
330
0
100
AcDbSymbolTable
 70
1
100
AcDbDimStyleTable
  0
DIMSTYLE
105
2B
330
4
100
AcDbSymbolTableRecord
100
AcDbDimStyleTableRecord
  2
Standard
 70
0
 40
1.0
 41
2.5
 42
0.625
 43
3.75
 44
1.25
 45
0.0
 46
0.0
 47
0.0
 48
0.0
 49
2.5
140
2.5
141
2.5
142
0.0
143
0.03937007874
144
1.0
145
0.0
146
1.0
147
0.625
148
0.0
 69
0
 70
0
 71
0
 72
0
 73
0
 74
0
 75
0
 76
0
 77
1
 78
8
 79
3
170
0
171
3
172
1
173
0
174
0
175
0
176
0
177
0
178
0
179
2
271
2
272
2
273
2
274
3
275
0
276
0
277
2
278
44
279
0
280
0
281
0
282
0
283
0
284
8
285
0
286
0
288
0
289
3
290
0
371
-2
372
-2
  0
ENDTAB
  0
TABLE
  2
BLOCK_RECORD
  5
9
330
0
100
AcDbSymbolTable
 70
2
  0
BLOCK_RECORD
  5
17
330
9
100
AcDbSymbolTableRecord
100
AcDbBlockTableRecord
  2
*Model_Space
340
1A
 70
0
280
1
281
0
  0
BLOCK_RECORD
  5
1B
330
9
100
AcDbSymbolTableRecord
100
AcDbBlockTableRecord
  2
*Paper_Space
340
1E
 70
0
280
1
281
0
  0
ENDTAB
  0
ENDSEC
  0
SECTION
  2
BLOCKS
  0
BLOCK
  5
18
330
17
100
AcDbEntity
  8
0
100
AcDbBlockBegin
  2
*Model_Space
 70
0
 10
0.0
 20
0.0
 30
0.0
  3
*Model_Space
  1

  0
ENDBLK
  5
19
330
17
100
AcDbEntity
  8
0
100
AcDbBlockEnd
  0
BLOCK
  5
1C
330
1B
100
AcDbEntity
  8
0
100
AcDbBlockBegin
  2
*Paper_Space
 70
0
 10
0.0
 20
0.0
 30
0.0
  3
*Paper_Space
  1

  0
ENDBLK
  5
1D
330
1B
100
AcDbEntity
  8
0
100
AcDbBlockEnd
  0
ENDSEC
  0
SECTION
  2
ENTITIES
  0
LINE
  5
30
330
17
100
AcDbEntity
  8
POCKET
100
AcDbLine
 10
0.788643940198142
 20
58.40619487264811
 30
0.0
 11
0.005522071236309386
 21
51.004389678078745
 31
0.0
  0
LINE
  5
31
330
17
100
AcDbEntity
  8
POCKET
100
AcDbLine
 10
0.005522071236309434
 20
51.004389678078745
 30
0.0
 11
0.0011689608393318227
 21
50.948095655556784
 31
0.0
  0
LINE
  5
32
330
17
100
AcDbEntity
  8
POCKET
100
AcDbLine
 10
0.001168960839331823
 20
50.948095655556784
 30
0.0
 11
2.9862543828945823e-20
 21
50.89164567705913
 31
0.0
  0
LINE
  5
33
330
17
100
AcDbEntity
  8
POCKET
100
AcDbLine
 10
0.0
 20
50.89164567705913
 30
0.0
 11
0.28688833542183834
 21
12.792200863741968
 31
0.0
  0
LINE
  5
34
330
17
100
AcDbEntity
  8
POCKET
100
AcDbLine
 10
0.28688833542183834
 20
12.792200863741972
 30
0.0
 11
0.30379347890911157
 21
12.61648151178873
 31
0.0
  0
LINE
  5
35
330
17
100
AcDbEntity
  8
POCKET
100
AcDbLine
 10
0.30379347890911157
 20
12.61648151178873
 30
0.0
 11
0.35133399723055425
 21
12.446472765999228
 31
0.0
  0
LINE
  5
36
330
17
100
AcDbEntity
  8
POCKET
100
AcDbLine
 10
0.35133399723055425
 20
12.446472765999228
 30
0.0
 11
0.8909234443826939
 21
11.01748846911536
 31
0.0
  0
LINE
  5
37
330
17
100
AcDbEntity
  8
POCKET
100
AcDbLine
 10
0.8909234443826939
 20
11.01748846911536
 30
0.0
 11
0.8946148875755255
 21
9.398827260148913
 31
0.0
  0
LINE
  5
38
330
17
100
AcDbEntity
  8
POCKET
100
AcDbLine
 10
0.8946148875755255
 20
9.398827260148913
 30
0.0
 11
0.9218897909661045
 21
9.169135944010112
 31
0.0
  0
LINE
  5
39
330
17
100
AcDbEntity
  8
POCKET
100
AcDbLine
 10
0.9218897909661045
 20
9.169135944010112
 30
0.0
 11
1.001207313836075
 21
8.951855591400149
 31
0.0
  0
LINE
  5
3A
330
17
100
AcDbEntity
  8
POCKET
100
AcDbLine
 10
1.001207313836075
 20
8.951855591400149
 30
0.0
 11
2.2066775070272326
 21
6.554598489350439
 31
0.0
  0
LINE
  5
3B
330
17
100
AcDbEntity
  8
POCKET
100
AcDbLine
 10
2.2066775070272326
 20
6.554598489350439
 30
0.0
 11
2.4511768161225933
 21
6.242981834407768
 31
0.0
  0
LINE
  5
3C
330
17
100
AcDbEntity
  8
POCKET
100
AcDbLine
 10
2.4511768161225933
 20
6.242981834407768
 30
0.0
 11
2.7974795941677417
 21
6.05073397953292
 31
0.0
  0
LINE
  5
3D
330
17
100
AcDbEntity
  8
POCKET
100
AcDbLine
 10
2.7974795941677417
 20
6.05073397953292
 30
0.0
 11
5.1066253284586
 21
5.317608492692767
 31
0.0
  0
LINE
  5
3E
330
17
100
AcDbEntity
  8
POCKET
100
AcDbLine
 10
5.1066253284586
 20
5.317608492692767
 30
0.0
 11
7.056941781006061
 21
3.653609196127819
 31
0.0
  0
LINE
  5
3F
330
17
100
AcDbEntity
  8
POCKET
100
AcDbLine
 10
7.056941781006061
 20
3.6536091961278188
 30
0.0
 11
7.16607648705057
 21
3.57263386252178
 31
0.0
  0
LINE
  5
40
330
17
100
AcDbEntity
  8
POCKET
100
AcDbLine
 10
7.16607648705057
 20
3.57263386252178
 30
0.0
 11
7.285182169404349
 21
3.507202790796864
 31
0.0
  0
LINE
  5
41
330
17
100
AcDbEntity
  8
POCKET
100
AcDbLine
 10
7.285182169404349
 20
3.507202790796864
 30
0.0
 11
10.288367134393892
 21
2.114048073595366
 31
0.0
  0
LINE
  5
42
330
17
100
AcDbEntity
  8
POCKET
100
AcDbLine
 10
10.288367134393892
 20
2.114048073595366
 30
0.0
 11
10.456776352582224
 21
2.0535725142918477
 31
0.0
  0
LINE
  5
43
330
17
100
AcDbEntity
  8
POCKET
100
AcDbLine
 10
10.456776352582224
 20
2.0535725142918477
 30
0.0
 11
10.633267429666382
 21
2.0240791632860535
 31
0.0
  0
LINE
  5
44
330
17
100
AcDbEntity
  8
POCKET
100
AcDbLine
 10
10.633267429666382
 20
2.0240791632860535
 30
0.0
 11
20.835065342971326
 21
1.2473428270127793
 31
0.0
  0
LINE
  5
45
330
17
100
AcDbEntity
  8
POCKET
100
AcDbLine
 10
20.835065342971326
 20
1.2473428270127793
 30
0.0
 11
20.97782603563099
 21
1.2466934399164795
 31
0.0
  0
LINE
  5
46
330
17
100
AcDbEntity
  8
POCKET
100
AcDbLine
 10
20.97782603563099
 20
1.2466934399164795
 30
0.0
 11
21.119224394229615
 21
1.2663795075248867
 31
0.0
  0
LINE
  5
47
330
17
100
AcDbEntity
  8
POCKET
100
AcDbLine
 10
21.119224394229615
 20
1.2663795075248867
 30
0.0
 11
22.87240948364862
 21
1.6396485499940638
 31
0.0
  0
LINE
  5
48
330
17
100
AcDbEntity
  8
POCKET
100
AcDbLine
 10
22.87240948364862
 20
1.6396485499940638
 30
0.0
 11
27.224698207672418
 21
1.2627804648222594
 31
0.0
  0
LINE
  5
49
330
17
100
AcDbEntity
  8
POCKET
100
AcDbLine
 10
27.224698207672418
 20
1.2627804648222594
 30
0.0
 11
27.27577493962955
 21
1.259671837882767
 31
0.0
  0
LINE
  5
4A
330
17
100
AcDbEntity
  8
POCKET
100
AcDbLine
 10
27.27577493962955
 20
1.259671837882767
 30
0.0
 11
27.326943819704418
 21
1.2591800851467019
 31
0.0
  0
LINE
  5
4B
330
17
100
AcDbEntity
  8
POCKET
100
AcDbLine
 10
27.326943819704418
 20
1.2591800851467019
 30
0.0
 11
49.11118627338433
 21
1.607285366736848
 31
0.0
  0
LINE
  5
4C
330
17
100
AcDbEntity
  8
POCKET
100
AcDbLine
 10
49.11118627338433
 20
1.607285366736848
 30
0.0
 11
52.20034466816063
 21
0.938910391228571
 31
0.0
  0
LINE
  5
4D
330
17
100
AcDbEntity
  8
POCKET
100
AcDbLine
 10
52.20034466816063
 20
0.938910391228571
 30
0.0
 11
52.39130539872509
 21
0.9165055196244899
 31
0.0
  0
LINE
  5
4E
330
17
100
AcDbEntity
  8
POCKET
100
AcDbLine
 10
52.39130539872509
 20
0.9165055196244899
 30
0.0
 11
52.58302425846208
 21
0.9310608523396191
 31
0.0
  0
LINE
  5
4F
330
17
100
AcDbEntity
  8
POCKET
100
AcDbLine
 10
52.58302425846208
 20
0.9310608523396191
 30
0.0
 11
55.97832643203717
 21
1.5210864928684946
 31
0.0
  0
LINE
  5
50
330
17
100
AcDbEntity
  8
POCKET
100
AcDbLine
 10
55.97832643203717
 20
1.5210864928684946
 30
0.0
 11
60.712161918170125
 21
1.346257285381329
 31
0.0
  0
LINE
  5
51
330
17
100
AcDbEntity
  8
POCKET
100
AcDbLine
 10
60.712161918170125
 20
1.346257285381329
 30
0.0
 11
61.79054578333475
 21
0.6860223424081499
 31
0.0
  0
LINE
  5
52
330
17
100
AcDbEntity
  8
POCKET
100
AcDbLine
 10
61.79054578333475
 20
0.6860223424081499
 30
0.0
 11
62.04255140790997
 21
0.5760549184874559
 31
0.0
  0
LINE
  5
53
330
17
100
AcDbEntity
  8
POCKET
100
AcDbLine
 10
62.04255140790997
 20
0.5760549184874559
 30
0.0
 11
62.31498014634761
 21
0.5388762738836155
 31
0.0
  0
LINE
  5
54
330
17
100
AcDbEntity
  8
POCKET
100
AcDbLine
 10
62.31498014634761
 20
0.5388762738836155
 30
0.0
 11
63.61497676576056
 21
0.5418409854890275
 31
0.0
  0
LINE
  5
55
330
17
100
AcDbEntity
  8
POCKET
100
AcDbLine
 10
63.61497676576056
 20
0.5418409854890275
 30
0.0
 11
63.84466808189936
 21
0.5691158888796078
 31
0.0
  0
LINE
  5
56
330
17
100
AcDbEntity
  8
POCKET
100
AcDbLine
 10
63.84466808189936
 20
0.5691158888796078
 30
0.0
 11
64.06194843450932
 21
0.6484334117495725
 31
0.0
  0
LINE
  5
57
330
17
100
AcDbEntity
  8
POCKET
100
AcDbLine
 10
64.06194843450932
 20
0.6484334117495725
 30
0.0
 11
65.66011983587576
 21
1.452080207210339
 31
0.0
  0
LINE
  5
58
330
17
100
AcDbEntity
  8
POCKET
100
AcDbLine
 10
65.66011983587576
 20
1.452080207210339
 30
0.0
 11
65.8413170342966
 21
1.5692548437533684
 31
0.0
  0
LINE
  5
59
330
17
100
AcDbEntity
  8
POCKET
100
AcDbLine
 10
65.8413170342966
 20
1.5692548437533684
 30
0.0
 11
65.99315904522919
 21
1.7225725657573465
 31
0.0
  0
LINE
  5
5A
330
17
100
AcDbEntity
  8
POCKET
100
AcDbLine
 10
65.99315904522919
 20
1.7225725657573465
 30
0.0
 11
66.54805032563252
 21
2.419438675813256
 31
0.0
  0
LINE
  5
5B
330
17
100
AcDbEntity
  8
POCKET
100
AcDbLine
 10
66.54805032563252
 20
2.419438675813256
 30
0.0
 11
67.14796145422261
 21
2.5131336982187404
 31
0.0
  0
LINE
  5
5C
330
17
100
AcDbEntity
  8
POCKET
100
AcDbLine
 10
67.14796145422261
 20
2.5131336982187404
 30
0.0
 11
68.06431806086702
 21
2.057564669727466
 31
0.0
  0
LINE
  5
5D
330
17
100
AcDbEntity
  8
POCKET
100
AcDbLine
 10
68.06431806086702
 20
2.057564669727466
 30
0.0
 11
68.26980641696409
 21
1.9821585421997208
 31
0.0
  0
LINE
  5
5E
330
17
100
AcDbEntity
  8
POCKET
100
AcDbLine
 10
68.26980641696409
 20
1.9821585421997208
 30
0.0
 11
68.48677841869718
 21
1.9532673839651258
 31
0.0
  0
LINE
  5
5F
330
17
100
AcDbEntity
  8
POCKET
100
AcDbLine
 10
68.48677841869718
 20
1.9532673839651258
 30
0.0
 11
76.08767021626058
 21
1.780589173090811
 31
0.0
  0
LINE
  5
60
330
17
100
AcDbEntity
  8
POCKET
100
AcDbLine
 10
76.08767021626058
 20
1.780589173090811
 30
0.0
 11
77.40807837891325
 21
0.46618982944222026
 31
0.0
  0
LINE
  5
61
330
17
100
AcDbEntity
  8
POCKET
100
AcDbLine
 10
77.40807837891325
 20
0.4661898294422202
 30
0.0
 11
77.73112217759137
 21
0.25093057467908264
 31
0.0
  0
LINE
  5
62
330
17
100
AcDbEntity
  8
POCKET
100
AcDbLine
 10
77.73112217759137
 20
0.25093057467908264
 30
0.0
 11
78.11179861835602
 21
0.17490893254770778
 31
0.0
  0
LINE
  5
63
330
17
100
AcDbEntity
  8
POCKET
100
AcDbLine
 10
78.11179861835602
 20
0.17490893254770778
 30
0.0
 11
176.81245417274081
 21
6.224030307112925e-18
 31
0.0
  0
LINE
  5
64
330
17
100
AcDbEntity
  8
POCKET
100
AcDbLine
 10
176.81245417274081
 20
0.0
 30
0.0
 11
176.92359575358302
 21
0.0059972631191994585
 31
0.0
  0
LINE
  5
65
330
17
100
AcDbEntity
  8
POCKET
100
AcDbLine
 10
176.92359575358302
 20
0.0059972631191994585
 30
0.0
 11
177.03338241971682
 21
0.024308628339900884
 31
0.0
  0
LINE
  5
66
330
17
100
AcDbEntity
  8
POCKET
100
AcDbLine
 10
177.03338241971682
 20
0.024308628339900884
 30
0.0
 11
178.71798723936232
 21
0.4026988502801224
 31
0.0
  0
LINE
  5
67
330
17
100
AcDbEntity
  8
POCKET
100
AcDbLine
 10
178.71798723936232
 20
0.4026988502801224
 30
0.0
 11
192.00108727007358
 21
0.23474216073413956
 31
0.0
  0
LINE
  5
68
330
17
100
AcDbEntity
  8
POCKET
100
AcDbLine
 10
192.00108727007358
 20
0.23474216073413956
 30
0.0
 11
192.0910461684286
 21
0.2376555548091882
 31
0.0
  0
LINE
  5
69
330
17
100
AcDbEntity
  8
POCKET
100
AcDbLine
 10
192.0910461684286
 20
0.2376555548091882
 30
0.0
 11
192.1803787267036
 21
0.24864579094529515
 31
0.0
  0
LINE
  5
6A
330
17
100
AcDbEntity
  8
POCKET
100
AcDbLine
 10
192.1803787267036
 20
0.24864579094529515
 30
0.0
 11
194.9529330260007
 21
0.7172392407960818
 31
0.0
  0
LINE
  5
6B
330
17
100
AcDbEntity
  8
POCKET
100
AcDbLine
 10
194.9529330260007
 20
0.7172392407960818
 30
0.0
 11
196.43374071495788
 21
0.2853743022926705
 31
0.0
  0
LINE
  5
6C
330
17
100
AcDbEntity
  8
POCKET
100
AcDbLine
 10
196.43374071495788
 20
0.2853743022926706
 30
0.0
 11
196.58149099640877
 21
0.2541613988483967
 31
0.0
  0
LINE
  5
6D
330
17
100
AcDbEntity
  8
POCKET
100
AcDbLine
 10
196.58149099640877
 20
0.2541613988483967
 30
0.0
 11
196.73225664388232
 21
0.2455526502677179
 31
0.0
  0
LINE
  5
6E
330
17
100
AcDbEntity
  8
POCKET
100
AcDbLine
 10
196.73225664388232
 20
0.2455526502677179
 30
0.0
 11
209.0317685488501
 21
0.4736028630592889
 31
0.0
  0
LINE
  5
6F
330
17
100
AcDbEntity
  8
POCKET
100
AcDbLine
 10
209.0317685488501
 20
0.4736028630592889
 30
0.0
 11
209.27039135889856
 21
0.5070624491724288
 31
0.0
  0
LINE
  5
70
330
17
100
AcDbEntity
  8
POCKET
100
AcDbLine
 10
209.27039135889856
 20
0.5070624491724288
 30
0.0
 11
209.49408329957308
 21
0.5966297705321149
 31
0.0
  0
LINE
  5
71
330
17
100
AcDbEntity
  8
POCKET
100
AcDbLine
 10
209.49408329957308
 20
0.5966297705321149
 30
0.0
 11
210.4010152726983
 21
1.0940069508744774
 31
0.0
  0
LINE
  5
72
330
17
100
AcDbEntity
  8
POCKET
100
AcDbLine
 10
210.4010152726983
 20
1.0940069508744774
 30
0.0
 11
213.08247254788995
 21
1.2850802970359392
 31
0.0
  0
LINE
  5
73
330
17
100
AcDbEntity
  8
POCKET
100
AcDbLine
 10
213.08247254788995
 20
1.2850802970359392
 30
0.0
 11
213.21405910024382
 21
1.303302707904324
 31
0.0
  0
LINE
  5
74
330
17
100
AcDbEntity
  8
POCKET
100
AcDbLine
 10
213.21405910024382
 20
1.303302707904324
 30
0.0
 11
213.34206923229337
 21
1.3388059910045778
 31
0.0
  0
LINE
  5
75
330
17
100
AcDbEntity
  8
POCKET
100
AcDbLine
 10
213.34206923229337
 20
1.3388059910045778
 30
0.0
 11
217.938408394394
 21
2.949292348270392
 31
0.0
  0
LINE
  5
76
330
17
100
AcDbEntity
  8
POCKET
100
AcDbLine
 10
217.938408394394
 20
2.949292348270392
 30
0.0
 11
218.11848429884117
 21
3.0333079894627146
 31
0.0
  0
LINE
  5
77
330
17
100
AcDbEntity
  8
POCKET
100
AcDbLine
 10
218.11848429884117
 20
3.0333079894627146
 30
0.0
 11
218.27839276358765
 21
3.151270874430143
 31
0.0
  0
LINE
  5
78
330
17
100
AcDbEntity
  8
POCKET
100
AcDbLine
 10
218.27839276358765
 20
3.151270874430143
 30
0.0
 11
220.27428257738472
 21
4.955827288394833
 31
0.0
  0
LINE
  5
79
330
17
100
AcDbEntity
  8
POCKET
100
AcDbLine
 10
220.27428257738472
 20
4.955827288394833
 30
0.0
 11
220.3835289581152
 21
5.071695353023933
 31
0.0
  0
LINE
  5
7A
330
17
100
AcDbEntity
  8
POCKET
100
AcDbLine
 10
220.3835289581152
 20
5.071695353023933
 30
0.0
 11
220.4729968205089
 21
5.203436317428716
 31
0.0
  0
LINE
  5
7B
330
17
100
AcDbEntity
  8
POCKET
100
AcDbLine
 10
220.4729968205089
 20
5.203436317428716
 30
0.0
 11
221.0685939961711
 21
6.251271543131936
 31
0.0
  0
LINE
  5
7C
330
17
100
AcDbEntity
  8
POCKET
100
AcDbLine
 10
221.0685939961711
 20
6.251271543131936
 30
0.0
 11
222.07642697598155
 21
6.541711486718652
 31
0.0
  0
LINE
  5
7D
330
17
100
AcDbEntity
  8
POCKET
100
AcDbLine
 10
222.07642697598155
 20
6.541711486718652
 30
0.0
 11
222.47789448731874
 21
6.767895870343687
 31
0.0
  0
LINE
  5
7E
330
17
100
AcDbEntity
  8
POCKET
100
AcDbLine
 10
222.47789448731874
 20
6.767895870343687
 30
0.0
 11
222.73531766224468
 21
7.1500854137199275
 31
0.0
  0
LINE
  5
7F
330
17
100
AcDbEntity
  8
POCKET
100
AcDbLine
 10
222.73531766224468
 20
7.1500854137199275
 30
0.0
 11
224.9220847663963
 21
12.955087535356093
 31
0.0
  0
LINE
  5
80
330
17
100
AcDbEntity
  8
POCKET
100
AcDbLine
 10
224.9220847663963
 20
12.955087535356093
 30
0.0
 11
224.96907077685893
 21
13.122881741320949
 31
0.0
  0
LINE
  5
81
330
17
100
AcDbEntity
  8
POCKET
100
AcDbLine
 10
224.96907077685893
 20
13.122881741320949
 30
0.0
 11
224.98621674929907
 21
13.296284729656364
 31
0.0
  0
LINE
  5
82
330
17
100
AcDbEntity
  8
POCKET
100
AcDbLine
 10
224.98621674929907
 20
13.296284729656364
 30
0.0
 11
225.15269218259388
 21
27.996702612495895
 31
0.0
  0
LINE
  5
83
330
17
100
AcDbEntity
  8
POCKET
100
AcDbLine
 10
225.15269218259388
 20
27.996702612495895
 30
0.0
 11
225.15079512015834
 21
28.07062443874445
 31
0.0
  0
LINE
  5
84
330
17
100
AcDbEntity
  8
POCKET
100
AcDbLine
 10
225.15079512015834
 20
28.07062443874445
 30
0.0
 11
225.143440746276
 21
28.144203976841702
 31
0.0
  0
LINE
  5
85
330
17
100
AcDbEntity
  8
POCKET
100
AcDbLine
 10
225.143440746276
 20
28.144203976841702
 30
0.0
 11
224.65835997889153
 21
31.673140732539025
 31
0.0
  0
LINE
  5
86
330
17
100
AcDbEntity
  8
POCKET
100
AcDbLine
 10
224.65835997889153
 20
31.673140732539025
 30
0.0
 11
225.11828796121813
 21
33.906289448634254
 31
0.0
  0
LINE
  5
87
330
17
100
AcDbEntity
  8
POCKET
100
AcDbLine
 10
225.11828796121813
 20
33.906289448634254
 30
0.0
 11
225.1338073936054
 21
34.00776209194376
 31
0.0
  0
LINE
  5
88
330
17
100
AcDbEntity
  8
POCKET
100
AcDbLine
 10
225.1338073936054
 20
34.00776209194376
 30
0.0
 11
225.13884235947847
 21
34.110291108521984
 31
0.0
  0
LINE
  5
89
330
17
100
AcDbEntity
  8
POCKET
100
AcDbLine
 10
225.13884235947847
 20
34.110291108521984
 30
0.0
 11
225.11945770667393
 21
42.61026900468358
 31
0.0
  0
LINE
  5
8A
330
17
100
AcDbEntity
  8
POCKET
100
AcDbLine
 10
225.11945770667393
 20
42.61026900468358
 30
0.0
 11
225.1180495074788
 21
42.66108844729265
 31
0.0
  0
LINE
  5
8B
330
17
100
AcDbEntity
  8
POCKET
100
AcDbLine
 10
225.1180495074788
 20
42.66108844729265
 30
0.0
 11
225.11406035586262
 21
42.71177064773278
 31
0.0
  0
LINE
  5
8C
330
17
100
AcDbEntity
  8
POCKET
100
AcDbLine
 10
225.11406035586262
 20
42.71177064773278
 30
0.0
 11
224.61090822744535
 21
47.53374568346982
 31
0.0
  0
LINE
  5
8D
330
17
100
AcDbEntity
  8
POCKET
100
AcDbLine
 10
224.61090822744535
 20
47.53374568346982
 30
0.0
 11
224.89402212027963
 21
53.15722348186737
 31
0.0
  0
LINE
  5
8E
330
17
100
AcDbEntity
  8
POCKET
100
AcDbLine
 10
224.89402212027963
 20
53.15722348186737
 30
0.0
 11
224.89196483204222
 21
53.28895015576459
 31
0.0
  0
LINE
  5
8F
330
17
100
AcDbEntity
  8
POCKET
100
AcDbLine
 10
224.89196483204222
 20
53.28895015576459
 30
0.0
 11
224.8726090552282
 21
53.419263251633126
 31
0.0
  0
LINE
  5
90
330
17
100
AcDbEntity
  8
POCKET
100
AcDbLine
 10
224.8726090552282
 20
53.419263251633126
 30
0.0
 11
224.26622508281062
 21
56.217887641935434
 31
0.0
  0
LINE
  5
91
330
17
100
AcDbEntity
  8
POCKET
100
AcDbLine
 10
224.26622508281062
 20
56.217887641935434
 30
0.0
 11
224.23177404076193
 21
56.339287243099875
 31
0.0
  0
LINE
  5
92
330
17
100
AcDbEntity
  8
POCKET
100
AcDbLine
 10
224.23177404076193
 20
56.339287243099875
 30
0.0
 11
224.18230802576508
 21
56.45538138947021
 31
0.0
  0
LINE
  5
93
330
17
100
AcDbEntity
  8
POCKET
100
AcDbLine
 10
224.18230802576508
 20
56.45538138947021
 30
0.0
 11
222.37410273597834
 21
60.051267042544744
 31
0.0
  0
LINE
  5
94
330
17
100
AcDbEntity
  8
POCKET
100
AcDbLine
 10
222.37410273597834
 20
60.051267042544744
 30
0.0
 11
222.3005926760762
 21
60.17452887078006
 31
0.0
  0
LINE
  5
95
330
17
100
AcDbEntity
  8
POCKET
100
AcDbLine
 10
222.3005926760762
 20
60.17452887078006
 30
0.0
 11
222.21019507075536
 21
60.28599850861467
 31
0.0
  0
LINE
  5
96
330
17
100
AcDbEntity
  8
POCKET
100
AcDbLine
 10
222.21019507075536
 20
60.28599850861467
 30
0.0
 11
219.40336070985353
 21
63.27960517457139
 31
0.0
  0
LINE
  5
97
330
17
100
AcDbEntity
  8
POCKET
100
AcDbLine
 10
219.40336070985353
 20
63.27960517457139
 30
0.0
 11
219.30535901108627
 21
63.371000944914634
 31
0.0
  0
LINE
  5
98
330
17
100
AcDbEntity
  8
POCKET
100
AcDbLine
 10
219.30535901108627
 20
63.371000944914634
 30
0.0
 11
219.19601721741273
 21
63.4484728233878
 31
0.0
  0
LINE
  5
99
330
17
100
AcDbEntity
  8
POCKET
100
AcDbLine
 10
219.19601721741273
 20
63.4484728233878
 30
0.0
 11
213.98873298811677
 21
66.63660565552118
 31
0.0
  0
LINE
  5
9A
330
17
100
AcDbEntity
  8
POCKET
100
AcDbLine
 10
213.98873298811677
 20
66.63660565552118
 30
0.0
 11
213.70655168579873
 21
66.75453400746225
 31
0.0
  0
LINE
  5
9B
330
17
100
AcDbEntity
  8
POCKET
100
AcDbLine
 10
213.70655168579873
 20
66.75453400746225
 30
0.0
 11
213.4019249423475
 21
66.78166205095516
 31
0.0
  0
LINE
  5
9C
330
17
100
AcDbEntity
  8
POCKET
100
AcDbLine
 10
213.4019249423475
 20
66.78166205095516
 30
0.0
 11
212.03094096026706
 21
66.69283628926132
 31
0.0
  0
LINE
  5
9D
330
17
100
AcDbEntity
  8
POCKET
100
AcDbLine
 10
212.03094096026706
 20
66.69283628926132
 30
0.0
 11
210.04128572370766
 21
67.50149420357192
 31
0.0
  0
LINE
  5
9E
330
17
100
AcDbEntity
  8
POCKET
100
AcDbLine
 10
210.04128572370766
 20
67.50149420357192
 30
0.0
 11
209.85658737440403
 21
67.55651574863033
 31
0.0
  0
LINE
  5
9F
330
17
100
AcDbEntity
  8
POCKET
100
AcDbLine
 10
209.85658737440403
 20
67.55651574863033
 30
0.0
 11
209.6647645646891
 21
67.57508616405867
 31
0.0
  0
LINE
  5
A0
330
17
100
AcDbEntity
  8
POCKET
100
AcDbLine
 10
209.6647645646891
 20
67.57508616405867
 30
0.0
 11
121.96453651481468
 21
67.57508163797316
 31
0.0
  0
LINE
  5
A1
330
17
100
AcDbEntity
  8
POCKET
100
AcDbLine
 10
121.96453651481468
 20
67.57508163797316
 30
0.0
 11
121.89717155502382
 21
67.57281003550385
 31
0.0
  0
LINE
  5
A2
330
17
100
AcDbEntity
  8
POCKET
100
AcDbLine
 10
121.89717155502382
 20
67.57281003550385
 30
0.0
 11
121.83011264781705
 21
67.56600555538888
 31
0.0
  0
LINE
  5
A3
330
17
100
AcDbEntity
  8
POCKET
100
AcDbLine
 10
121.83011264781705
 20
67.56600555538888
 30
0.0
 11
118.90676174379733
 21
67.16943799144892
 31
0.0
  0
LINE
  5
A4
330
17
100
AcDbEntity
  8
POCKET
100
AcDbLine
 10
118.90676174379733
 20
67.16943799144892
 30
0.0
 11
108.98274233955642
 21
67.34527810388616
 31
0.0
  0
LINE
  5
A5
330
17
100
AcDbEntity
  8
POCKET
100
AcDbLine
 10
108.98274233955642
 20
67.34527810388616
 30
0.0
 11
108.93946330247825
 21
67.34510825054535
 31
0.0
  0
LINE
  5
A6
330
17
100
AcDbEntity
  8
POCKET
100
AcDbLine
 10
108.93946330247825
 20
67.34510825054535
 30
0.0
 11
108.89623214789091
 21
67.34306590541833
 31
0.0
  0
LINE
  5
A7
330
17
100
AcDbEntity
  8
POCKET
100
AcDbLine
 10
108.89623214789091
 20
67.34306590541833
 30
0.0
 11
102.89715996955587
 21
66.92938366126634
 31
0.0
  0
LINE
  5
A8
330
17
100
AcDbEntity
  8
POCKET
100
AcDbLine
 10
102.89715996955587
 20
66.92938366126634
 30
0.0
 11
102.70174072309038
 21
66.89621699312896
 31
0.0
  0
LINE
  5
A9
330
17
100
AcDbEntity
  8
POCKET
100
AcDbLine
 10
102.70174072309038
 20
66.89621699312896
 30
0.0
 11
102.51670208729894
 21
66.82515777114534
 31
0.0
  0
LINE
  5
AA
330
17
100
AcDbEntity
  8
POCKET
100
AcDbLine
 10
102.51670208729894
 20
66.82515777114534
 30
0.0
 11
101.72403898043984
 21
66.42656400006254
 31
0.0
  0
LINE
  5
AB
330
17
100
AcDbEntity
  8
POCKET
100
AcDbLine
 10
101.72403898043984
 20
66.42656400006254
 30
0.0
 11
92.20745505292122
 21
66.30969241840491
 31
0.0
  0
LINE
  5
AC
330
17
100
AcDbEntity
  8
POCKET
100
AcDbLine
 10
92.20745505292122
 20
66.30969241840491
 30
0.0
 11
90.52880275404661
 21
67.1883107743679
 31
0.0
  0
LINE
  5
AD
330
17
100
AcDbEntity
  8
POCKET
100
AcDbLine
 10
90.52880275404661
 20
67.1883107743679
 30
0.0
 11
90.091717146329
 21
67.3019777481796
 31
0.0
  0
LINE
  5
AE
330
17
100
AcDbEntity
  8
POCKET
100
AcDbLine
 10
90.091717146329
 20
67.3019777481796
 30
0.0
 11
89.64919762818668
 21
67.21175310923626
 31
0.0
  0
LINE
  5
AF
330
17
100
AcDbEntity
  8
POCKET
100
AcDbLine
 10
89.64919762818668
 20
67.21175310923626
 30
0.0
 11
87.64847271986265
 21
66.29682150457299
 31
0.0
  0
LINE
  5
B0
330
17
100
AcDbEntity
  8
POCKET
100
AcDbLine
 10
87.64847271986265
 20
66.29682150457299
 30
0.0
 11
84.03739959735836
 21
66.28858625977746
 31
0.0
  0
LINE
  5
B1
330
17
100
AcDbEntity
  8
POCKET
100
AcDbLine
 10
84.03739959735836
 20
66.28858625977746
 30
0.0
 11
82.5701495601774
 21
67.14717657441679
 31
0.0
  0
LINE
  5
B2
330
17
100
AcDbEntity
  8
POCKET
100
AcDbLine
 10
82.5701495601774
 20
67.14717657441679
 30
0.0
 11
82.30788664243768
 21
67.25416713603246
 31
0.0
  0
LINE
  5
B3
330
17
100
AcDbEntity
  8
POCKET
100
AcDbLine
 10
82.30788664243768
 20
67.25416713603246
 30
0.0
 11
82.02614495317462
 21
67.28332942036319
 31
0.0
  0
LINE
  5
B4
330
17
100
AcDbEntity
  8
POCKET
100
AcDbLine
 10
82.02614495317462
 20
67.28332942036319
 30
0.0
 11
71.12708551705231
 21
66.85847249400625
 31
0.0
  0
LINE
  5
B5
330
17
100
AcDbEntity
  8
POCKET
100
AcDbLine
 10
71.12708551705231
 20
66.85847249400625
 30
0.0
 11
71.06807504679973
 21
66.85442155169646
 31
0.0
  0
LINE
  5
B6
330
17
100
AcDbEntity
  8
POCKET
100
AcDbLine
 10
71.06807504679973
 20
66.85442155169646
 30
0.0
 11
71.009407310709
 21
66.84688879157703
 31
0.0
  0
LINE
  5
B7
330
17
100
AcDbEntity
  8
POCKET
100
AcDbLine
 10
71.009407310709
 20
66.84688879157703
 30
0.0
 11
64.74868201309415
 21
65.85401875017442
 31
0.0
  0
LINE
  5
B8
330
17
100
AcDbEntity
  8
POCKET
100
AcDbLine
 10
64.74868201309415
 20
65.85401875017442
 30
0.0
 11
61.58549762877921
 21
66.23011726335798
 31
0.0
  0
LINE
  5
B9
330
17
100
AcDbEntity
  8
POCKET
100
AcDbLine
 10
61.58549762877921
 20
66.23011726335798
 30
0.0
 11
61.52230929265666
 21
66.23560466784534
 31
0.0
  0
LINE
  5
BA
330
17
100
AcDbEntity
  8
POCKET
100
AcDbLine
 10
61.52230929265666
 20
66.23560466784534
 30
0.0
 11
61.45890018608134
 21
66.23707525727302
 31
0.0
  0
LINE
  5
BB
330
17
100
AcDbEntity
  8
POCKET
100
AcDbLine
 10
61.45890018608134
 20
66.23707525727302
 30
0.0
 11
29.478776709741577
 21
65.9642632202873
 31
0.0
  0
LINE
  5
BC
330
17
100
AcDbEntity
  8
POCKET
100
AcDbLine
 10
29.47877670974158
 20
65.9642632202873
 30
0.0
 11
10.996785609886427
 21
66.52148876713137
 31
0.0
  0
LINE
  5
BD
330
17
100
AcDbEntity
  8
POCKET
100
AcDbLine
 10
10.996785609886427
 20
66.52148876713137
 30
0.0
 11
10.690225466928949
 21
66.48297868516929
 31
0.0
  0
LINE
  5
BE
330
17
100
AcDbEntity
  8
POCKET
100
AcDbLine
 10
10.690225466928949
 20
66.48297868516929
 30
0.0
 11
10.41005337057908
 21
66.35272606872816
 31
0.0
  0
LINE
  5
BF
330
17
100
AcDbEntity
  8
POCKET
100
AcDbLine
 10
10.41005337057908
 20
66.35272606872816
 30
0.0
 11
5.434175776559694
 21
63.01905818030662
 31
0.0
  0
LINE
  5
C0
330
17
100
AcDbEntity
  8
POCKET
100
AcDbLine
 10
5.434175776559694
 20
63.01905818030662
 30
0.0
 11
3.069300733973056
 21
62.25634833490069
 31
0.0
  0
LINE
  5
C1
330
17
100
AcDbEntity
  8
POCKET
100
AcDbLine
 10
3.0693007339730554
 20
62.25634833490069
 30
0.0
 11
2.7339046582112694
 21
62.07103896589485
 31
0.0
  0
LINE
  5
C2
330
17
100
AcDbEntity
  8
POCKET
100
AcDbLine
 10
2.7339046582112694
 20
62.07103896589485
 30
0.0
 11
2.4928238714926487
 21
61.77319648377908
 31
0.0
  0
LINE
  5
C3
330
17
100
AcDbEntity
  8
POCKET
100
AcDbLine
 10
2.4928238714926487
 20
61.77319648377908
 30
0.0
 11
0.8996696743814924
 21
58.76955540931179
 31
0.0
  0
LINE
  5
C4
330
17
100
AcDbEntity
  8
POCKET
100
AcDbLine
 10
0.8996696743814921
 20
58.76955540931179
 30
0.0
 11
0.8267411422737504
 21
58.59319654162641
 31
0.0
  0
LINE
  5
C5
330
17
100
AcDbEntity
  8
POCKET
100
AcDbLine
 10
0.8267411422737504
 20
58.59319654162641
 30
0.0
 11
0.788643940198142
 21
58.40619487264811
 31
0.0
  0
ENDSEC
  0
SECTION
  2
OBJECTS
  0
DICTIONARY
  5
A
330
0
100
AcDbDictionary
281
1
  3
ACAD_COLOR
350
B
  3
ACAD_GROUP
350
C
  3
ACAD_LAYOUT
350
D
  3
ACAD_MATERIAL
350
E
  3
ACAD_MLEADERSTYLE
350
F
  3
ACAD_MLINESTYLE
350
10
  3
ACAD_PLOTSETTINGS
350
11
  3
ACAD_PLOTSTYLENAME
350
12
  3
ACAD_SCALELIST
350
14
  3
ACAD_TABLESTYLE
350
15
  3
ACAD_VISUALSTYLE
350
16
  3
EZDXF_META
350
2D
  0
DICTIONARY
  5
B
330
A
100
AcDbDictionary
281
1
  0
DICTIONARY
  5
C
330
A
100
AcDbDictionary
281
1
  0
DICTIONARY
  5
D
330
A
100
AcDbDictionary
281
1
  3
Model
350
1A
  3
Layout1
350
1E
  0
DICTIONARY
  5
E
330
A
100
AcDbDictionary
281
1
  3
ByBlock
350
1F
  3
ByLayer
350
20
  3
Global
350
21
  0
DICTIONARY
  5
F
330
A
100
AcDbDictionary
281
1
  3
Standard
350
2C
  0
DICTIONARY
  5
10
330
A
100
AcDbDictionary
281
1
  3
Standard
350
22
  0
DICTIONARY
  5
11
330
A
100
AcDbDictionary
281
1
  0
ACDBDICTIONARYWDFLT
  5
12
330
A
100
AcDbDictionary
281
1
  3
Normal
350
13
100
AcDbDictionaryWithDefault
340
13
  0
ACDBPLACEHOLDER
  5
13
330
12
  0
DICTIONARY
  5
14
330
A
100
AcDbDictionary
281
1
  0
DICTIONARY
  5
15
330
A
100
AcDbDictionary
281
1
  0
DICTIONARY
  5
16
330
A
100
AcDbDictionary
281
1
  0
LAYOUT
  5
1A
330
D
100
AcDbPlotSettings
  1

  4
A3
  6

 40
7.5
 41
20.0
 42
7.5
 43
20.0
 44
420.0
 45
297.0
 46
0.0
 47
0.0
 48
0.0
 49
0.0
140
0.0
141
0.0
142
1.0
143
1.0
 70
1024
 72
1
 73
0
 74
5
  7

 75
16
 76
0
 77
2
 78
300
147
1.0
148
0.0
149
0.0
100
AcDbLayout
  1
Model
 70
1
 71
0
 10
0.0
 20
0.0
 11
420.0
 21
297.0
 12
0.0
 22
0.0
 32
0.0
 14
1e+20
 24
1e+20
 34
1e+20
 15
-1e+20
 25
-1e+20
 35
-1e+20
146
0.0
 13
0.0
 23
0.0
 33
0.0
 16
1.0
 26
0.0
 36
0.0
 17
0.0
 27
1.0
 37
0.0
 76
1
330
17
  0
LAYOUT
  5
1E
330
D
100
AcDbPlotSettings
  1

  4
A3
  6

 40
7.5
 41
20.0
 42
7.5
 43
20.0
 44
420.0
 45
297.0
 46
0.0
 47
0.0
 48
0.0
 49
0.0
140
0.0
141
0.0
142
1.0
143
1.0
 70
0
 72
1
 73
0
 74
5
  7

 75
16
 76
0
 77
2
 78
300
147
1.0
148
0.0
149
0.0
100
AcDbLayout
  1
Layout1
 70
1
 71
1
 10
0.0
 20
0.0
 11
420.0
 21
297.0
 12
0.0
 22
0.0
 32
0.0
 14
1e+20
 24
1e+20
 34
1e+20
 15
-1e+20
 25
-1e+20
 35
-1e+20
146
0.0
 13
0.0
 23
0.0
 33
0.0
 16
1.0
 26
0.0
 36
0.0
 17
0.0
 27
1.0
 37
0.0
 76
1
330
1B
  0
MATERIAL
  5
1F
102
{ACAD_REACTORS
330
E
102
}
330
E
100
AcDbMaterial
  1
ByBlock
  2

 70
0
 40
1.0
 71
1
 41
1.0
 91
-1023410177
 42
1.0
 72
1
  3

 73
1
 74
1
 75
1
 44
0.5
 73
0
 45
1.0
 46
1.0
 77
1
  4

 78
1
 79
1
170
1
 48
1.0
171
1
  6

172
1
173
1
174
1
140
1.0
141
1.0
175
1
  7

176
1
177
1
178
1
143
1.0
179
1
  8

270
1
271
1
272
1
145
1.0
146
1.0
273
1
  9

274
1
275
1
276
1
 42
1.0
 72
1
  3

 73
1
 74
1
 75
1
 94
63
  0
MATERIAL
  5
20
102
{ACAD_REACTORS
330
E
102
}
330
E
100
AcDbMaterial
  1
ByLayer
  2

 70
0
 40
1.0
 71
1
 41
1.0
 91
-1023410177
 42
1.0
 72
1
  3

 73
1
 74
1
 75
1
 44
0.5
 73
0
 45
1.0
 46
1.0
 77
1
  4

 78
1
 79
1
170
1
 48
1.0
171
1
  6

172
1
173
1
174
1
140
1.0
141
1.0
175
1
  7

176
1
177
1
178
1
143
1.0
179
1
  8

270
1
271
1
272
1
145
1.0
146
1.0
273
1
  9

274
1
275
1
276
1
 42
1.0
 72
1
  3

 73
1
 74
1
 75
1
 94
63
  0
MATERIAL
  5
21
102
{ACAD_REACTORS
330
E
102
}
330
E
100
AcDbMaterial
  1
Global
  2

 70
0
 40
1.0
 71
1
 41
1.0
 91
-1023410177
 42
1.0
 72
1
  3

 73
1
 74
1
 75
1
 44
0.5
 73
0
 45
1.0
 46
1.0
 77
1
  4

 78
1
 79
1
170
1
 48
1.0
171
1
  6

172
1
173
1
174
1
140
1.0
141
1.0
175
1
  7

176
1
177
1
178
1
143
1.0
179
1
  8

270
1
271
1
272
1
145
1.0
146
1.0
273
1
  9

274
1
275
1
276
1
 42
1.0
 72
1
  3

 73
1
 74
1
 75
1
 94
63
  0
MLINESTYLE
  5
22
102
{ACAD_REACTORS
330
10
102
}
330
10
100
AcDbMlineStyle
  2
Standard
 70
0
  3

 62
256
 51
90.0
 52
90.0
 71
2
 49
0.5
 62
256
  6
BYLAYER
 49
-0.5
 62
256
  6
BYLAYER
  0
MLEADERSTYLE
  5
2C
102
{ACAD_REACTORS
330
F
102
}
330
F
100
AcDbMLeaderStyle
179
2
170
2
171
1
172
0
 90
2
 40
0.0
 41
0.0
173
1
 91
-1056964608
 92
-2
290
1
 42
2.0
291
1
 43
8.0
  3
Standard
 44
4.0
300

342
29
174
1
175
1
176
0
178
1
 93
-1056964608
 45
4.0
292
0
297
0
 46
4.0
 94
-1056964608
 47
1.0
 49
1.0
140
1.0
294
1
141
0.0
177
0
142
1.0
295
0
296
0
143
3.75
271
0
272
9
273
9
  0
DICTIONARY
  5
2D
330
A
100
AcDbDictionary
280
1
281
1
  3
CREATED_BY_EZDXF
350
2E
  3
WRITTEN_BY_EZDXF
350
C9
  0
DICTIONARYVAR
  5
2E
330
2D
100
DictionaryVariables
280
0
  1
1.4.4 @ 2026-09-18T19:32:10.283056+00:00
  0
DICTIONARYVAR
  5
C9
330
2D
100
DictionaryVariables
280
0
  1
1.4.4 @ 2026-09-18T19:32:10.287709+00:00
  0
ENDSEC
  0
EOF
