  0
SECTION
  2
HEADER
  9
$ACADVER
  1
AC1027
  9
$ACADMAINTVER
 70
105
  9
$DWGCODEPAGE
  3
ANSI_1252
  9
$LASTSAVEDBY
  1
ezdxf
  9
$REQUIREDVERSIONS
160
0
  9
$INSBASE
 10
0.0
 20
0.0
 30
0.0
  9
$EXTMIN
 10
1e+20
 20
1e+20
 30
1e+20
  9
$EXTMAX
 10
-1e+20
 20
-1e+20
 30
-1e+20
  9
$LIMMIN
 10
0.0
 20
0.0
  9
$LIMMAX
 10
420.0
 20
297.0
  9
$ORTHOMODE
 70
0
  9
$REGENMODE
 70
1
  9
$FILLMODE
 70
1
  9
$QTEXTMODE
 70
0
  9
$MIRRTEXT
 70
1
  9
$LTSCALE
 40
1.0
  9
$ATTMODE
 70
1
  9
$TEXTSIZE
 40
2.5
  9
$TRACEWID
 40
1.0
  9
$TEXTSTYLE
  7
Standard
  9
$CLAYER
  8
0
  9
$CELTYPE
  6
ByLayer
  9
$CECOLOR
 62
256
  9
$CELTSCALE
 40
1.0
  9
$DISPSILH
 70
0
  9
$DIMSCALE
 40
1.0
  9
$DIMASZ
 40
2.5
  9
$DIMEXO
 40
0.625
  9
$DIMDLI
 40
3.75
  9
$DIMRND
 40
0.0
  9
$DIMDLE
 40
0.0
  9
$DIMEXE
 40
1.25
  9
$DIMTP
 40
0.0
  9
$DIMTM
 40
0.0
  9
$DIMTXT
 40
2.5
  9
$DIMCEN
 40
2.5
  9
$DIMTSZ
 40
0.0
  9
$DIMTOL
 70
0
  9
$DIMLIM
 70
0
  9
$DIMTIH
 70
0
  9
$DIMTOH
 70
0
  9
$DIMSE1
 70
0
  9
$DIMSE2
 70
0
  9
$DIMTAD
 70
1
  9
$DIMZIN
 70
8
  9
$DIMBLK
  1

  9
$DIMASO
 70
1
  9
$DIMSHO
 70
1
  9
$DIMPOST
  1

  9
$DIMAPOST
  1

  9
$DIMALT
 70
0
  9
$DIMALTD
 70
3
  9
$DIMALTF
 40
0.03937007874
  9
$DIMLFAC
 40
1.0
  9
$DIMTOFL
 70
1
  9
$DIMTVP
 40
0.0
  9
$DIMTIX
 70
0
  9
$DIMSOXD
 70
0
  9
$DIMSAH
 70
0
  9
$DIMBLK1
  1

  9
$DIMBLK2
  1

  9
$DIMSTYLE
  2
ISO-25
  9
$DIMCLRD
 70
0
  9
$DIMCLRE
 70
0
  9
$DIMCLRT
 70
0
  9
$DIMTFAC
 40
1.0
  9
$DIMGAP
 40
0.625
  9
$DIMJUST
 70
0
  9
$DIMSD1
 70
0
  9
$DIMSD2
 70
0
  9
$DIMTOLJ
 70
0
  9
$DIMTZIN
 70
8
  9
$DIMALTZ
 70
0
  9
$DIMALTTZ
 70
0
  9
$DIMUPT
 70
0
  9
$DIMDEC
 70
2
  9
$DIMTDEC
 70
2
  9
$DIMALTU
 70
2
  9
$DIMALTTD
 70
3
  9
$DIMTXSTY
  7
Standard
  9
$DIMAUNIT
 70
0
  9
$DIMADEC
 70
0
  9
$DIMALTRND
 40
0.0
  9
$DIMAZIN
 70
0
  9
$DIMDSEP
 70
44
  9
$DIMATFIT
 70
3
  9
$DIMFRAC
 70
0
  9
$DIMLDRBLK
  1

  9
$DIMLUNIT
 70
2
  9
$DIMLWD
 70
-2
  9
$DIMLWE
 70
-2
  9
$DIMTMOVE
 70
0
  9
$DIMFXL
 40
1.0
  9
$DIMFXLON
 70
0
  9
$DIMJOGANG
 40
0.785398163397
  9
$DIMTFILL
 70
0
  9
$DIMTFILLCLR
 70
0
  9
$DIMARCSYM
 70
0
  9
$DIMLTYPE
  6

  9
$DIMLTEX1
  6

  9
$DIMLTEX2
  6

  9
$DIMTXTDIRECTION
 70
0
  9
$LUNITS
 70
2
  9
$LUPREC
 70
4
  9
$SKETCHINC
 40
1.0
  9
$FILLETRAD
 40
10.0
  9
$AUNITS
 70
0
  9
$AUPREC
 70
2
  9
$MENU
  1
.
  9
$ELEVATION
 40
0.0
  9
$PELEVATION
 40
0.0
  9
$THICKNESS
 40
0.0
  9
$LIMCHECK
 70
0
  9
$CHAMFERA
 40
0.0
  9
$CHAMFERB
 40
0.0
  9
$CHAMFERC
 40
0.0
  9
$CHAMFERD
 40
0.0
  9
$SKPOLY
 70
0
  9
$TDCREATE
 40
2461300.5058333334
  9
$TDUCREATE
 40
2458532.153996898
  9
$TDUPDATE
 40
2461300.5058333334
  9
$TDUUPDATE
 40
2458532.1544311
  9
$TDINDWG
 40
0.0
  9
$TDUSRTIMER
 40
0.0
  9
$USRTIMER
 70
1
  9
$ANGBASE
 50
0.0
  9
$ANGDIR
 70
0
  9
$PDMODE
 70
0
  9
$PDSIZE
 40
0.0
  9
$PLINEWID
 40
0.0
  9
$SPLFRAME
 70
0
  9
$SPLINETYPE
 70
6
  9
$SPLINESEGS
 70
8
  9
$HANDSEED
  5
E2
  9
$SURFTAB1
 70
6
  9
$SURFTAB2
 70
6
  9
$SURFTYPE
 70
6
  9
$SURFU
 70
6
  9
$SURFV
 70
6
  9
$UCSBASE
  2

  9
$UCSNAME
  2

  9
$UCSORG
 10
0.0
 20
0.0
 30
0.0
  9
$UCSXDIR
 10
1.0
 20
0.0
 30
0.0
  9
$UCSYDIR
 10
0.0
 20
1.0
 30
0.0
  9
$UCSORTHOREF
  2

  9
$UCSORTHOVIEW
 70
0
  9
$UCSORGTOP
 10
0.0
 20
0.0
 30
0.0
  9
$UCSORGBOTTOM
 10
0.0
 20
0.0
 30
0.0
  9
$UCSORGLEFT
 10
0.0
 20
0.0
 30
0.0
  9
$UCSORGRIGHT
 10
0.0
 20
0.0
 30
0.0
  9
$UCSORGFRONT
 10
0.0
 20
0.0
 30
0.0
  9
$UCSORGBACK
 10
0.0
 20
0.0
 30
0.0
  9
$PUCSBASE
  2

  9
$PUCSNAME
  2

  9
$PUCSORG
 10
0.0
 20
0.0
 30
0.0
  9
$PUCSXDIR
 10
1.0
 20
0.0
 30
0.0
  9
$PUCSYDIR
 10
0.0
 20
1.0
 30
0.0
  9
$PUCSORTHOREF
  2

  9
$PUCSORTHOVIEW
 70
0
  9
$PUCSORGTOP
 10
0.0
 20
0.0
 30
0.0
  9
$PUCSORGBOTTOM
 10
0.0
 20
0.0
 30
0.0
  9
$PUCSORGLEFT
 10
0.0
 20
0.0
 30
0.0
  9
$PUCSORGRIGHT
 10
0.0
 20
0.0
 30
0.0
  9
$PUCSORGFRONT
 10
0.0
 20
0.0
 30
0.0
  9
$PUCSORGBACK
 10
0.0
 20
0.0
 30
0.0
  9
$USERI1
 70
0
  9
$USERI2
 70
0
  9
$USERI3
 70
0
  9
$USERI4
 70
0
  9
$USERI5
 70
0
  9
$USERR1
 40
0.0
  9
$USERR2
 40
0.0
  9
$USERR3
 40
0.0
  9
$USERR4
 40
0.0
  9
$USERR5
 40
0.0
  9
$WORLDVIEW
 70
1
  9
$SHADEDGE
 70
3
  9
$SHADEDIF
 70
70
  9
$TILEMODE
 70
1
  9
$MAXACTVP
 70
64
  9
$PINSBASE
 10
0.0
 20
0.0
 30
0.0
  9
$PLIMCHECK
 70
0
  9
$PEXTMIN
 10
1e+20
 20
1e+20
 30
1e+20
  9
$PEXTMAX
 10
-1e+20
 20
-1e+20
 30
-1e+20
  9
$PLIMMIN
 10
0.0
 20
0.0
  9
$PLIMMAX
 10
420.0
 20
297.0
  9
$UNITMODE
 70
0
  9
$VISRETAIN
 70
1
  9
$PLINEGEN
 70
0
  9
$PSLTSCALE
 70
1
  9
$TREEDEPTH
 70
3020
  9
$CMLSTYLE
  2
Standard
  9
$CMLJUST
 70
0
  9
$CMLSCALE
 40
20.0
  9
$PROXYGRAPHICS
 70
1
  9
$MEASUREMENT
 70
1
  9
$CELWEIGHT
370
-1
  9
$ENDCAPS
280
0
  9
$JOINSTYLE
280
0
  9
$LWDISPLAY
290
0
  9
$INSUNITS
 70
4
  9
$HYPERLINKBASE
  1

  9
$STYLESHEET
  1

  9
$XEDIT
290
1
  9
$CEPSNTYPE
380
0
  9
$PSTYLEMODE
290
1
  9
$FINGERPRINTGUID
  2
{151A43F0-C49A-4939-93B8-C380E71FB84C}
  9
$VERSIONGUID
  2
{629B6FC6-D385-4613-81CB-2F1BE6DBB05C}
  9
$EXTNAMES
290
1
  9
$PSVPSCALE
 40
0.0
  9
$OLESTARTUP
290
0
  9
$SORTENTS
280
127
  9
$INDEXCTL
280
0
  9
$HIDETEXT
280
1
  9
$XCLIPFRAME
280
1
  9
$HALOGAP
280
0
  9
$OBSCOLOR
 70
257
  9
$OBSLTYPE
280
0
  9
$INTERSECTIONDISPLAY
280
0
  9
$INTERSECTIONCOLOR
 70
257
  9
$DIMASSOC
280
2
  9
$PROJECTNAME
  1

  9
$CAMERADISPLAY
290
0
  9
$LENSLENGTH
 40
50.0
  9
$CAMERAHEIGHT
 40
0.0
  9
$STEPSPERSEC
 40
24.0
  9
$STEPSIZE
 40
100.0
  9
$3DDWFPREC
 40
2.0
  9
$PSOLWIDTH
 40
0.005
  9
$PSOLHEIGHT
 40
0.08
  9
$LOFTANG1
 40
1.570796326795
  9
$LOFTANG2
 40
1.570796326795
  9
$LOFTMAG1
 40
0.0
  9
$LOFTMAG2
 40
0.0
  9
$LOFTPARAM
 70
7
  9
$LOFTNORMALS
280
1
  9
$LATITUDE
 40
37.795
  9
$LONGITUDE
 40
-122.394
  9
$NORTHDIRECTION
 40
0.0
  9
$TIMEZONE
 70
-8000
  9
$LIGHTGLYPHDISPLAY
280
1
  9
$TILEMODELIGHTSYNCH
280
1
  9
$CMATERIAL
347
20
  9
$SOLIDHIST
280
0
  9
$SHOWHIST
280
1
  9
$DWFFRAME
280
2
  9
$DGNFRAME
280
2
  9
$REALWORLDSCALE
290
1
  9
$INTERFERECOLOR
 62
256
  9
$CSHADOW
280
0
  9
$SHADOWPLANELOCATION
 40
0.0
  0
ENDSEC
  0
SECTION
  2
CLASSES
  0
CLASS
  1
ACDBDICTIONARYWDFLT
  2
AcDbDictionaryWithDefault
  3
ObjectDBX Classes
 90
0
 91
0
280
0
281
0
  0
CLASS
  1
SUN
  2
AcDbSun
  3
SCENEOE
 90
1153
 91
0
280
0
281
0
  0
CLASS
  1
VISUALSTYLE
  2
AcDbVisualStyle
  3
ObjectDBX Classes
 90
4095
 91
0
280
0
281
0
  0
CLASS
  1
MATERIAL
  2
AcDbMaterial
  3
ObjectDBX Classes
 90
1153
 91
0
280
0
281
0
  0
CLASS
  1
SCALE
  2
AcDbScale
  3
ObjectDBX Classes
 90
1153
 91
0
280
0
281
0
  0
CLASS
  1
TABLESTYLE
  2
AcDbTableStyle
  3
ObjectDBX Classes
 90
4095
 91
0
280
0
281
0
  0
CLASS
  1
MLEADERSTYLE
  2
AcDbMLeaderStyle
  3
ACDB_MLEADERSTYLE_CLASS
 90
4095
 91
0
280
0
281
0
  0
CLASS
  1
DICTIONARYVAR
  2
AcDbDictionaryVar
  3
ObjectDBX Classes
 90
0
 91
0
280
0
281
0
  0
CLASS
  1
CELLSTYLEMAP
  2
AcDbCellStyleMap
  3
ObjectDBX Classes
 90
1152
 91
0
280
0
281
0
  0
CLASS
  1
MENTALRAYRENDERSETTINGS
  2
AcDbMentalRayRenderSettings
  3
SCENEOE
 90
1024
 91
0
280
0
281
0
  0
CLASS
  1
ACDBDETAILVIEWSTYLE
  2
AcDbDetailViewStyle
  3
ObjectDBX Classes
 90
1025
 91
0
280
0
281
0
  0
CLASS
  1
ACDBSECTIONVIEWSTYLE
  2
AcDbSectionViewStyle
  3
ObjectDBX Classes
 90
1025
 91
0
280
0
281
0
  0
CLASS
  1
RASTERVARIABLES
  2
AcDbRasterVariables
  3
ISM
 90
0
 91
0
280
0
281
0
  0
CLASS
  1
ACDBPLACEHOLDER
  2
AcDbPlaceHolder
  3
ObjectDBX Classes
 90
0
 91
0
280
0
281
0
  0
CLASS
  1
LAYOUT
  2
AcDbLayout
  3
ObjectDBX Classes
 90
0
 91
0
280
0
281
0
  0
ENDSEC
  0
SECTION
  2
TABLES
  0
TABLE
  2
VPORT
  5
8
330
0
100
AcDbSymbolTable
 70
1
  0
VPORT
  5
DE
330
8
100
AcDbSymbolTableRecord
100
AcDbViewportTableRecord
  2
*Active
 70
0
 10
0.0
 20
0.0
 11
1.0
 21
1.0
 12
39.06910065954337
 22
38.56431869389409
 13
0.0
 23
0.0
 14
0.5
 24
0.5
 15
0.5
 25
0.5
 16
0.0
 26
0.0
 36
1.0
 17
0.0
 27
0.0
 37
0.0
 40
77.12863738778817
 41
1.34
 42
50.0
 43
0.0
 44
0.0
 50
0.0
 51
0.0
 71
0
 72
1000
 73
1
 74
3
 75
0
 76
0
 77
0
 78
0
281
0
 65
1
110
0.0
120
0.0
130
0.0
111
1.0
121
0.0
131
0.0
112
0.0
122
1.0
132
0.0
 79
0
146
0.0
  0
ENDTAB
  0
TABLE
  2
LTYPE
  5
2
330
0
100
AcDbSymbolTable
 70
3
  0
LTYPE
  5
24
330
2
100
AcDbSymbolTableRecord
100
AcDbLinetypeTableRecord
  2
ByBlock
 70
0
  3

 72
65
 73
0
 40
0.0
  0
LTYPE
  5
25
330
2
100
AcDbSymbolTableRecord
100
AcDbLinetypeTableRecord
  2
ByLayer
 70
0
  3

 72
65
 73
0
 40
0.0
  0
LTYPE
  5
26
330
2
100
AcDbSymbolTableRecord
100
AcDbLinetypeTableRecord
  2
Continuous
 70
0
  3

 72
65
 73
0
 40
0.0
  0
ENDTAB
  0
TABLE
  2
LAYER
  5
1
330
0
100
AcDbSymbolTable
 70
3
  0
LAYER
  5
27
330
1
100
AcDbSymbolTableRecord
100
AcDbLayerTableRecord
  2
0
 70
0
 62
7
  6
Continuous
370
-3
390
13
347
21
  0
LAYER
  5
28
330
1
100
AcDbSymbolTableRecord
100
AcDbLayerTableRecord
  2
Defpoints
 70
0
 62
7
  6
Continuous
290
0
370
-3
390
13
347
21
  0
LAYER
  5
2F
330
1
100
AcDbSymbolTableRecord
100
AcDbLayerTableRecord
  2
POCKET
 70
0
 62
7
  6
Continuous
370
-3
390
13
347
21
  0
ENDTAB
  0
TABLE
  2
STYLE
  5
5
330
0
100
AcDbSymbolTable
 70
1
  0
STYLE
  5
29
330
5
100
AcDbSymbolTableRecord
100
AcDbTextStyleTableRecord
  2
Standard
 70
0
 40
0.0
 41
1.0
 50
0.0
 71
0
 42
2.5
  3
txt
  4

  0
ENDTAB
  0
TABLE
  2
VIEW
  5
7
330
0
100
AcDbSymbolTable
 70
0
  0
ENDTAB
  0
TABLE
  2
UCS
  5
6
330
0
100
AcDbSymbolTable
 70
0
  0
ENDTAB
  0
TABLE
  2
APPID
  5
3
330
0
100
AcDbSymbolTable
 70
3
  0
APPID
  5
2A
330
3
100
AcDbSymbolTableRecord
100
AcDbRegAppTableRecord
  2
ACAD
 70
0
  0
APPID
  5
DF
330
3
100
AcDbSymbolTableRecord
100
AcDbRegAppTableRecord
  2
HATCHBACKGROUNDCOLOR
 70
0
  0
APPID
  5
E0
330
3
100
AcDbSymbolTableRecord
100
AcDbRegAppTableRecord
  2
EZDXF
 70
0
  0
ENDTAB
  0
TABLE
  2
DIMSTYLE
  5
4
330
0
100
AcDbSymbolTable
 70
1
100
AcDbDimStyleTable
  0
DIMSTYLE
105
2B
330
4
100
AcDbSymbolTableRecord
100
AcDbDimStyleTableRecord
  2
Standard
 70
0
 40
1.0
 41
2.5
 42
0.625
 43
3.75
 44
1.25
 45
0.0
 46
0.0
 47
0.0
 48
0.0
 49
2.5
140
2.5
141
2.5
142
0.0
143
0.03937007874
144
1.0
145
0.0
146
1.0
147
0.625
148
0.0
 69
0
 70
0
 71
0
 72
0
 73
0
 74
0
 75
0
 76
0
 77
1
 78
8
 79
3
170
0
171
3
172
1
173
0
174
0
175
0
176
0
177
0
178
0
179
2
271
2
272
2
273
2
274
3
275
0
276
0
277
2
278
44
279
0
280
0
281
0
282
0
283
0
284
8
285
0
286
0
288
0
289
3
290
0
371
-2
372
-2
  0
ENDTAB
  0
TABLE
  2
BLOCK_RECORD
  5
9
330
0
100
AcDbSymbolTable
 70
2
  0
BLOCK_RECORD
  5
17
330
9
100
AcDbSymbolTableRecord
100
AcDbBlockTableRecord
  2
*Model_Space
340
1A
 70
0
280
1
281
0
  0
BLOCK_RECORD
  5
1B
330
9
100
AcDbSymbolTableRecord
100
AcDbBlockTableRecord
  2
*Paper_Space
340
1E
 70
0
280
1
281
0
  0
ENDTAB
  0
ENDSEC
  0
SECTION
  2
BLOCKS
  0
BLOCK
  5
18
330
17
100
AcDbEntity
  8
0
100
AcDbBlockBegin
  2
*Model_Space
 70
0
 10
0.0
 20
0.0
 30
0.0
  3
*Model_Space
  1

  0
ENDBLK
  5
19
330
17
100
AcDbEntity
  8
0
100
AcDbBlockEnd
  0
BLOCK
  5
1C
330
1B
100
AcDbEntity
  8
0
100
AcDbBlockBegin
  2
*Paper_Space
 70
0
 10
0.0
 20
0.0
 30
0.0
  3
*Paper_Space
  1

  0
ENDBLK
  5
1D
330
1B
100
AcDbEntity
  8
0
100
AcDbBlockEnd
  0
ENDSEC
  0
SECTION
  2
ENTITIES
  0
LINE
  5
30
330
17
100
AcDbEntity
  8
POCKET
100
AcDbLine
 10
4.504297457733721
 20
22.458481843637315
 30
0.0
 11
12.874808682982872
 21
5.203147946189135
 31
0.0
  0
LINE
  5
31
330
17
100
AcDbEntity
  8
POCKET
100
AcDbLine
 10
12.874808682982872
 20
5.203147946189132
 30
0.0
 11
12.996760789533498
 21
5.011058710127335
 31
0.0
  0
LINE
  5
32
330
17
100
AcDbEntity
  8
POCKET
100
AcDbLine
 10
12.996760789533498
 20
5.011058710127335
 30
0.0
 11
13.158978725800523
 21
4.851509557650091
 31
0.0
  0
LINE
  5
33
330
17
100
AcDbEntity
  8
POCKET
100
AcDbLine
 10
13.158978725800523
 20
4.851509557650091
 30
0.0
 11
15.056957874353714
 21
3.369053773602132
 31
0.0
  0
LINE
  5
34
330
17
100
AcDbEntity
  8
POCKET
100
AcDbLine
 10
15.056957874353714
 20
3.3690537736021327
 30
0.0
 11
15.165605917474691
 21
3.2951466845639628
 31
0.0
  0
LINE
  5
35
330
17
100
AcDbEntity
  8
POCKET
100
AcDbLine
 10
15.165605917474691
 20
3.2951466845639628
 30
0.0
 11
15.28300656993135
 21
3.2361234528084566
 31
0.0
  0
LINE
  5
36
330
17
100
AcDbEntity
  8
POCKET
100
AcDbLine
 10
15.28300656993135
 20
3.2361234528084566
 30
0.0
 11
19.813841962054873
 21
1.3199995921248577
 31
0.0
  0
LINE
  5
37
330
17
100
AcDbEntity
  8
POCKET
100
AcDbLine
 10
19.813841962054873
 20
1.3199995921248577
 30
0.0
 11
19.900746163158047
 21
1.2879062840975823
 31
0.0
  0
LINE
  5
38
330
17
100
AcDbEntity
  8
POCKET
100
AcDbLine
 10
19.900746163158047
 20
1.2879062840975823
 30
0.0
 11
19.990247403334468
 21
1.2639929280721989
 31
0.0
  0
LINE
  5
39
330
17
100
AcDbEntity
  8
POCKET
100
AcDbLine
 10
19.990247403334468
 20
1.2639929280721989
 30
0.0
 11
25.680555611045495
 21
0.022867430285513596
 31
0.0
  0
LINE
  5
3A
330
17
100
AcDbEntity
  8
POCKET
100
AcDbLine
 10
25.680555611045495
 20
0.022867430285513857
 30
0.0
 11
25.907984902580832
 21
1.4073230153971737e-18
 31
0.0
  0
LINE
  5
3B
330
17
100
AcDbEntity
  8
POCKET
100
AcDbLine
 10
25.907984902580832
 20
0.0
 30
0.0
 11
26.13466564250675
 21
0.02937420914283007
 31
0.0
  0
LINE
  5
3C
330
17
100
AcDbEntity
  8
POCKET
100
AcDbLine
 10
26.13466564250675
 20
0.029374209142830066
 30
0.0
 11
27.219743512986074
 21
0.29882924248990406
 31
0.0
  0
LINE
  5
3D
330
17
100
AcDbEntity
  8
POCKET
100
AcDbLine
 10
27.219743512986074
 20
0.29882924248990406
 30
0.0
 11
27.59867534391375
 21
0.4847029696898508
 31
0.0
  0
LINE
  5
3E
330
17
100
AcDbEntity
  8
POCKET
100
AcDbLine
 10
27.59867534391375
 20
0.4847029696898508
 30
0.0
 11
27.867172117076958
 21
0.8103528702799586
 31
0.0
  0
LINE
  5
3F
330
17
100
AcDbEntity
  8
POCKET
100
AcDbLine
 10
27.867172117076958
 20
0.8103528702799586
 30
0.0
 11
28.937733774568226
 21
2.8825250970771235
 31
0.0
  0
LINE
  5
40
330
17
100
AcDbEntity
  8
POCKET
100
AcDbLine
 10
28.937733774568226
 20
2.8825250970771235
 30
0.0
 11
28.98602473863897
 21
2.9914651484458634
 31
0.0
  0
LINE
  5
41
330
17
100
AcDbEntity
  8
POCKET
100
AcDbLine
 10
28.98602473863897
 20
2.9914651484458634
 30
0.0
 11
29.02101421750003
 21
3.105376027523049
 31
0.0
  0
LINE
  5
42
330
17
100
AcDbEntity
  8
POCKET
100
AcDbLine
 10
29.02101421750003
 20
3.105376027523049
 30
0.0
 11
30.481089335843546
 21
9.1133717901842
 31
0.0
  0
LINE
  5
43
330
17
100
AcDbEntity
  8
POCKET
100
AcDbLine
 10
30.481089335843546
 20
9.1133717901842
 30
0.0
 11
31.325866027650964
 21
10.236053900576174
 31
0.0
  0
LINE
  5
44
330
17
100
AcDbEntity
  8
POCKET
100
AcDbLine
 10
31.325866027650964
 20
10.236053900576174
 30
0.0
 11
33.156830377479125
 21
11.162536683010945
 31
0.0
  0
LINE
  5
45
330
17
100
AcDbEntity
  8
POCKET
100
AcDbLine
 10
33.156830377479125
 20
11.162536683010945
 30
0.0
 11
33.292044978109566
 21
11.245013390456757
 31
0.0
  0
LINE
  5
46
330
17
100
AcDbEntity
  8
POCKET
100
AcDbLine
 10
33.292044978109566
 20
11.245013390456757
 30
0.0
 11
33.41254168265731
 21
11.347804147277994
 31
0.0
  0
LINE
  5
47
330
17
100
AcDbEntity
  8
POCKET
100
AcDbLine
 10
33.41254168265731
 20
11.347804147277994
 30
0.0
 11
39.36275008410616
 21
17.299723913938617
 31
0.0
  0
LINE
  5
48
330
17
100
AcDbEntity
  8
POCKET
100
AcDbLine
 10
39.36275008410616
 20
17.299723913938617
 30
0.0
 11
41.085179031291524
 21
17.02189027961029
 31
0.0
  0
LINE
  5
49
330
17
100
AcDbEntity
  8
POCKET
100
AcDbLine
 10
41.085179031291524
 20
17.02189027961029
 30
0.0
 11
41.228450584039564
 21
17.00925695559639
 31
0.0
  0
LINE
  5
4A
330
17
100
AcDbEntity
  8
POCKET
100
AcDbLine
 10
41.228450584039564
 20
17.00925695559639
 30
0.0
 11
41.37205256925451
 21
17.017307331041195
 31
0.0
  0
LINE
  5
4B
330
17
100
AcDbEntity
  8
POCKET
100
AcDbLine
 10
41.37205256925451
 20
17.017307331041195
 30
0.0
 11
44.45309310244846
 21
17.413778304525792
 31
0.0
  0
LINE
  5
4C
330
17
100
AcDbEntity
  8
POCKET
100
AcDbLine
 10
44.45309310244846
 20
17.413778304525792
 30
0.0
 11
44.79473397930347
 21
17.522545289625057
 31
0.0
  0
LINE
  5
4D
330
17
100
AcDbEntity
  8
POCKET
100
AcDbLine
 10
44.79473397930347
 20
17.522545289625057
 30
0.0
 11
45.07605086347877
 21
17.74482789457592
 31
0.0
  0
LINE
  5
4E
330
17
100
AcDbEntity
  8
POCKET
100
AcDbLine
 10
45.07605086347877
 20
17.74482789457592
 30
0.0
 11
48.06636561960221
 21
21.141593659139403
 31
0.0
  0
LINE
  5
4F
330
17
100
AcDbEntity
  8
POCKET
100
AcDbLine
 10
48.06636561960221
 20
21.141593659139403
 30
0.0
 11
48.18627196219831
 21
21.310184650887642
 31
0.0
  0
LINE
  5
50
330
17
100
AcDbEntity
  8
POCKET
100
AcDbLine
 10
48.18627196219831
 20
21.310184650887642
 30
0.0
 11
48.26892082564785
 21
21.49984123227602
 31
0.0
  0
LINE
  5
51
330
17
100
AcDbEntity
  8
POCKET
100
AcDbLine
 10
48.26892082564785
 20
21.49984123227602
 30
0.0
 11
49.31706657823962
 21
24.802152142790263
 31
0.0
  0
LINE
  5
52
330
17
100
AcDbEntity
  8
POCKET
100
AcDbLine
 10
49.31706657823962
 20
24.802152142790263
 30
0.0
 11
50.38215445739878
 21
25.39223299006371
 31
0.0
  0
LINE
  5
53
330
17
100
AcDbEntity
  8
POCKET
100
AcDbLine
 10
50.38215445739878
 20
25.39223299006371
 30
0.0
 11
53.10828304012335
 21
24.239333011898335
 31
0.0
  0
LINE
  5
54
330
17
100
AcDbEntity
  8
POCKET
100
AcDbLine
 10
53.10828304012335
 20
24.239333011898335
 30
0.0
 11
55.74563555590597
 21
22.189514127289304
 31
0.0
  0
LINE
  5
55
330
17
100
AcDbEntity
  8
POCKET
100
AcDbLine
 10
55.74563555590597
 20
22.189514127289304
 30
0.0
 11
55.98405170353932
 21
22.052154995322237
 31
0.0
  0
LINE
  5
56
330
17
100
AcDbEntity
  8
POCKET
100
AcDbLine
 10
55.98405170353932
 20
22.052154995322237
 30
0.0
 11
56.250878174659185
 21
21.984972967243333
 31
0.0
  0
LINE
  5
57
330
17
100
AcDbEntity
  8
POCKET
100
AcDbLine
 10
56.250878174659185
 20
21.984972967243333
 30
0.0
 11
58.57163842480855
 21
21.731848765858526
 31
0.0
  0
LINE
  5
58
330
17
100
AcDbEntity
  8
POCKET
100
AcDbLine
 10
58.57163842480855
 20
21.731848765858526
 30
0.0
 11
58.925205875068
 21
21.756465786669303
 31
0.0
  0
LINE
  5
59
330
17
100
AcDbEntity
  8
POCKET
100
AcDbLine
 10
58.925205875068
 20
21.756465786669303
 30
0.0
 11
59.24797971390623
 21
21.902865884204097
 31
0.0
  0
LINE
  5
5A
330
17
100
AcDbEntity
  8
POCKET
100
AcDbLine
 10
59.24797971390623
 20
21.902865884204097
 30
0.0
 11
61.165650314709545
 21
23.22602253762915
 31
0.0
  0
LINE
  5
5B
330
17
100
AcDbEntity
  8
POCKET
100
AcDbLine
 10
61.165650314709545
 20
23.22602253762915
 30
0.0
 11
61.5954633530308
 21
23.01542495683463
 31
0.0
  0
LINE
  5
5C
330
17
100
AcDbEntity
  8
POCKET
100
AcDbLine
 10
61.5954633530308
 20
23.01542495683463
 30
0.0
 11
61.9940136671966
 21
19.481142641545407
 31
0.0
  0
LINE
  5
5D
330
17
100
AcDbEntity
  8
POCKET
100
AcDbLine
 10
61.9940136671966
 20
19.481142641545407
 30
0.0
 11
62.006027962692755
 21
19.402701026129993
 31
0.0
  0
LINE
  5
5E
330
17
100
AcDbEntity
  8
POCKET
100
AcDbLine
 10
62.006027962692755
 20
19.402701026129993
 30
0.0
 11
62.02422436690932
 21
19.32545906085958
 31
0.0
  0
LINE
  5
5F
330
17
100
AcDbEntity
  8
POCKET
100
AcDbLine
 10
62.02422436690932
 20
19.32545906085958
 30
0.0
 11
63.01066266377224
 21
15.775659340761289
 31
0.0
  0
LINE
  5
60
330
17
100
AcDbEntity
  8
POCKET
100
AcDbLine
 10
63.01066266377224
 20
15.775659340761289
 30
0.0
 11
62.639275648979435
 21
12.741527960113467
 31
0.0
  0
LINE
  5
61
330
17
100
AcDbEntity
  8
POCKET
100
AcDbLine
 10
62.639275648979435
 20
12.741527960113467
 30
0.0
 11
62.697236368660924
 21
12.264413063918415
 31
0.0
  0
LINE
  5
62
330
17
100
AcDbEntity
  8
POCKET
100
AcDbLine
 10
62.697236368660924
 20
12.264413063918415
 30
0.0
 11
62.97109508281288
 21
11.86944537678408
 31
0.0
  0
LINE
  5
63
330
17
100
AcDbEntity
  8
POCKET
100
AcDbLine
 10
62.97109508281288
 20
11.86944537678408
 30
0.0
 11
63.82028652395374
 21
11.12186668775322
 31
0.0
  0
LINE
  5
64
330
17
100
AcDbEntity
  8
POCKET
100
AcDbLine
 10
63.82028652395374
 20
11.12186668775322
 30
0.0
 11
64.15782176693685
 21
10.926134997110722
 31
0.0
  0
LINE
  5
65
330
17
100
AcDbEntity
  8
POCKET
100
AcDbLine
 10
64.15782176693685
 20
10.926134997110722
 30
0.0
 11
64.54456694462785
 21
10.874471639591242
 31
0.0
  0
LINE
  5
66
330
17
100
AcDbEntity
  8
POCKET
100
AcDbLine
 10
64.54456694462785
 20
10.874471639591242
 30
0.0
 11
66.44073147420677
 21
10.99513678272188
 31
0.0
  0
LINE
  5
67
330
17
100
AcDbEntity
  8
POCKET
100
AcDbLine
 10
66.44073147420677
 20
10.99513678272188
 30
0.0
 11
66.81780813915599
 21
11.095407036178262
 31
0.0
  0
LINE
  5
68
330
17
100
AcDbEntity
  8
POCKET
100
AcDbLine
 10
66.81780813915599
 20
11.095407036178262
 30
0.0
 11
67.12780978733338
 21
11.332345663473877
 31
0.0
  0
LINE
  5
69
330
17
100
AcDbEntity
  8
POCKET
100
AcDbLine
 10
67.12780978733338
 20
11.332345663473877
 30
0.0
 11
68.43607249313737
 21
12.818430685470407
 31
0.0
  0
LINE
  5
6A
330
17
100
AcDbEntity
  8
POCKET
100
AcDbLine
 10
68.43607249313737
 20
12.818430685470407
 30
0.0
 11
68.54615631994342
 21
12.970040134915823
 31
0.0
  0
LINE
  5
6B
330
17
100
AcDbEntity
  8
POCKET
100
AcDbLine
 10
68.54615631994342
 20
12.970040134915823
 30
0.0
 11
68.62602729157891
 21
13.139523178242902
 31
0.0
  0
LINE
  5
6C
330
17
100
AcDbEntity
  8
POCKET
100
AcDbLine
 10
68.62602729157891
 20
13.139523178242902
 30
0.0
 11
69.3650868314607
 21
15.18590785006559
 31
0.0
  0
LINE
  5
6D
330
17
100
AcDbEntity
  8
POCKET
100
AcDbLine
 10
69.3650868314607
 20
15.18590785006559
 30
0.0
 11
69.92586725670833
 21
15.555478831130353
 31
0.0
  0
LINE
  5
6E
330
17
100
AcDbEntity
  8
POCKET
100
AcDbLine
 10
69.92586725670833
 20
15.555478831130353
 30
0.0
 11
70.81720571224007
 21
15.056018069889175
 31
0.0
  0
LINE
  5
6F
330
17
100
AcDbEntity
  8
POCKET
100
AcDbLine
 10
70.81720571224007
 20
15.056018069889175
 30
0.0
 11
71.1982178543365
 21
13.860523727091083
 31
0.0
  0
LINE
  5
70
330
17
100
AcDbEntity
  8
POCKET
100
AcDbLine
 10
71.1982178543365
 20
13.860523727091083
 30
0.0
 11
71.41962965594584
 21
13.482199962674615
 31
0.0
  0
LINE
  5
71
330
17
100
AcDbEntity
  8
POCKET
100
AcDbLine
 10
71.41962965594584
 20
13.482199962674615
 30
0.0
 11
71.781575583662
 21
13.234920359747436
 31
0.0
  0
LINE
  5
72
330
17
100
AcDbEntity
  8
POCKET
100
AcDbLine
 10
71.781575583662
 20
13.234920359747436
 30
0.0
 11
72.21450698309121
 21
13.166200202570728
 31
0.0
  0
LINE
  5
73
330
17
100
AcDbEntity
  8
POCKET
100
AcDbLine
 10
72.21450698309121
 20
13.166200202570728
 30
0.0
 11
73.71147898012724
 21
13.261462157673856
 31
0.0
  0
LINE
  5
74
330
17
100
AcDbEntity
  8
POCKET
100
AcDbLine
 10
73.71147898012724
 20
13.261462157673856
 30
0.0
 11
74.12878232296784
 21
13.382619400984792
 31
0.0
  0
LINE
  5
75
330
17
100
AcDbEntity
  8
POCKET
100
AcDbLine
 10
74.12878232296784
 20
13.382619400984792
 30
0.0
 11
74.45529831714049
 21
13.66933958357069
 31
0.0
  0
LINE
  5
76
330
17
100
AcDbEntity
  8
POCKET
100
AcDbLine
 10
74.45529831714049
 20
13.66933958357069
 30
0.0
 11
76.29884185169011
 21
16.1915107189658
 31
0.0
  0
LINE
  5
77
330
17
100
AcDbEntity
  8
POCKET
100
AcDbLine
 10
76.29884185169011
 20
16.1915107189658
 30
0.0
 11
76.44421422924255
 21
16.47770129648975
 31
0.0
  0
LINE
  5
78
330
17
100
AcDbEntity
  8
POCKET
100
AcDbLine
 10
76.44421422924255
 20
16.47770129648975
 30
0.0
 11
76.49142217013986
 21
16.795206548627373
 31
0.0
  0
LINE
  5
79
330
17
100
AcDbEntity
  8
POCKET
100
AcDbLine
 10
76.49142217013986
 20
16.795206548627373
 30
0.0
 11
76.44170959575553
 21
20.45237690039913
 31
0.0
  0
LINE
  5
7A
330
17
100
AcDbEntity
  8
POCKET
100
AcDbLine
 10
76.44170959575553
 20
20.45237690039913
 30
0.0
 11
77.52551782505354
 21
21.862542145073668
 31
0.0
  0
LINE
  5
7B
330
17
100
AcDbEntity
  8
POCKET
100
AcDbLine
 10
77.52551782505354
 20
21.862542145073668
 30
0.0
 11
77.70461394827117
 21
22.23683406954868
 31
0.0
  0
LINE
  5
7C
330
17
100
AcDbEntity
  8
POCKET
100
AcDbLine
 10
77.70461394827117
 20
22.23683406954868
 30
0.0
 11
77.716365454282
 21
22.651601194795216
 31
0.0
  0
LINE
  5
7D
330
17
100
AcDbEntity
  8
POCKET
100
AcDbLine
 10
77.716365454282
 20
22.651601194795216
 30
0.0
 11
77.47123097197704
 21
23.993693898702766
 31
0.0
  0
LINE
  5
7E
330
17
100
AcDbEntity
  8
POCKET
100
AcDbLine
 10
77.47123097197704
 20
23.993693898702766
 30
0.0
 11
78.02412839539149
 21
25.035019252511205
 31
0.0
  0
LINE
  5
7F
330
17
100
AcDbEntity
  8
POCKET
100
AcDbLine
 10
78.02412839539149
 20
25.035019252511205
 30
0.0
 11
78.11949987199144
 21
25.298175734939814
 31
0.0
  0
LINE
  5
80
330
17
100
AcDbEntity
  8
POCKET
100
AcDbLine
 10
78.11949987199144
 20
25.298175734939814
 30
0.0
 11
78.13820131908675
 21
25.577455717519292
 31
0.0
  0
LINE
  5
81
330
17
100
AcDbEntity
  8
POCKET
100
AcDbLine
 10
78.13820131908675
 20
25.577455717519292
 30
0.0
 11
77.41562570756615
 21
35.38395748583724
 31
0.0
  0
LINE
  5
82
330
17
100
AcDbEntity
  8
POCKET
100
AcDbLine
 10
77.41562570756615
 20
35.38395748583724
 30
0.0
 11
77.77660701207923
 21
36.75081965044304
 31
0.0
  0
LINE
  5
83
330
17
100
AcDbEntity
  8
POCKET
100
AcDbLine
 10
77.77660701207923
 20
36.75081965044304
 30
0.0
 11
77.76219414814055
 21
37.31089147672646
 31
0.0
  0
LINE
  5
84
330
17
100
AcDbEntity
  8
POCKET
100
AcDbLine
 10
77.76219414814055
 20
37.31089147672646
 30
0.0
 11
77.44882214579188
 21
37.775311727563285
 31
0.0
  0
LINE
  5
85
330
17
100
AcDbEntity
  8
POCKET
100
AcDbLine
 10
77.44882214579188
 20
37.775311727563285
 30
0.0
 11
75.89337588311842
 21
39.06768805542697
 31
0.0
  0
LINE
  5
86
330
17
100
AcDbEntity
  8
POCKET
100
AcDbLine
 10
75.89337588311842
 20
39.06768805542697
 30
0.0
 11
75.77865708871107
 21
43.507521791885004
 31
0.0
  0
LINE
  5
87
330
17
100
AcDbEntity
  8
POCKET
100
AcDbLine
 10
75.77865708871107
 20
43.507521791885004
 30
0.0
 11
77.18824133152862
 21
45.01935979659392
 31
0.0
  0
LINE
  5
88
330
17
100
AcDbEntity
  8
POCKET
100
AcDbLine
 10
77.18824133152862
 20
45.01935979659392
 30
0.0
 11
77.39843793780106
 21
45.36458034901559
 31
0.0
  0
LINE
  5
89
330
17
100
AcDbEntity
  8
POCKET
100
AcDbLine
 10
77.39843793780106
 20
45.36458034901559
 30
0.0
 11
77.4548140657858
 21
45.764807253778656
 31
0.0
  0
LINE
  5
8A
330
17
100
AcDbEntity
  8
POCKET
100
AcDbLine
 10
77.4548140657858
 20
45.764807253778656
 30
0.0
 11
76.79662178110625
 21
56.10781793169025
 31
0.0
  0
LINE
  5
8B
330
17
100
AcDbEntity
  8
POCKET
100
AcDbLine
 10
76.79662178110625
 20
56.10781793169025
 30
0.0
 11
77.22725075294521
 21
57.126076211604165
 31
0.0
  0
LINE
  5
8C
330
17
100
AcDbEntity
  8
POCKET
100
AcDbLine
 10
77.22725075294521
 20
57.126076211604165
 30
0.0
 11
77.29713030020153
 21
57.38100438038051
 31
0.0
  0
LINE
  5
8D
330
17
100
AcDbEntity
  8
POCKET
100
AcDbLine
 10
77.29713030020153
 20
57.38100438038051
 30
0.0
 11
77.29777395934855
 21
57.6453358163909
 31
0.0
  0
LINE
  5
8E
330
17
100
AcDbEntity
  8
POCKET
100
AcDbLine
 10
77.29777395934855
 20
57.6453358163909
 30
0.0
 11
76.54555157793692
 21
63.39371129900363
 31
0.0
  0
LINE
  5
8F
330
17
100
AcDbEntity
  8
POCKET
100
AcDbLine
 10
76.54555157793692
 20
63.39371129900363
 30
0.0
 11
76.9799013564184
 21
64.82199321377348
 31
0.0
  0
LINE
  5
90
330
17
100
AcDbEntity
  8
POCKET
100
AcDbLine
 10
76.9799013564184
 20
64.82199321377348
 30
0.0
 11
77.01405698735714
 21
64.97829779414816
 31
0.0
  0
LINE
  5
91
330
17
100
AcDbEntity
  8
POCKET
100
AcDbLine
 10
77.01405698735714
 20
64.97829779414816
 30
0.0
 11
77.0228479871808
 21
65.13804899850363
 31
0.0
  0
LINE
  5
92
330
17
100
AcDbEntity
  8
POCKET
100
AcDbLine
 10
77.0228479871808
 20
65.13804899850363
 30
0.0
 11
76.96511357950695
 21
67.43699489755153
 31
0.0
  0
LINE
  5
93
330
17
100
AcDbEntity
  8
POCKET
100
AcDbLine
 10
76.96511357950695
 20
67.43699489755153
 30
0.0
 11
77.98712802800956
 21
69.0601484539154
 31
0.0
  0
LINE
  5
94
330
17
100
AcDbEntity
  8
POCKET
100
AcDbLine
 10
77.98712802800956
 20
69.0601484539154
 30
0.0
 11
78.11573603536891
 21
69.37004077411811
 31
0.0
  0
LINE
  5
95
330
17
100
AcDbEntity
  8
POCKET
100
AcDbLine
 10
78.11573603536891
 20
69.37004077411811
 30
0.0
 11
78.1346037852471
 21
69.70502924808714
 31
0.0
  0
LINE
  5
96
330
17
100
AcDbEntity
  8
POCKET
100
AcDbLine
 10
78.1346037852471
 20
69.70502924808714
 30
0.0
 11
77.67462484169374
 21
73.78405111263844
 31
0.0
  0
LINE
  5
97
330
17
100
AcDbEntity
  8
POCKET
100
AcDbLine
 10
77.67462484169374
 20
73.78405111263844
 30
0.0
 11
77.51480896324578
 21
74.22393118941773
 31
0.0
  0
LINE
  5
98
330
17
100
AcDbEntity
  8
POCKET
100
AcDbLine
 10
77.51480896324578
 20
74.22393118941773
 30
0.0
 11
77.17234238210725
 21
74.54291745519532
 31
0.0
  0
LINE
  5
99
330
17
100
AcDbEntity
  8
POCKET
100
AcDbLine
 10
77.17234238210725
 20
74.54291745519532
 30
0.0
 11
76.72223747031373
 21
74.6711405628273
 31
0.0
  0
LINE
  5
9A
330
17
100
AcDbEntity
  8
POCKET
100
AcDbLine
 10
76.72223747031373
 20
74.6711405628273
 30
0.0
 11
74.81337134672106
 21
74.75007168596818
 31
0.0
  0
LINE
  5
9B
330
17
100
AcDbEntity
  8
POCKET
100
AcDbLine
 10
74.81337134672106
 20
74.75007168596818
 30
0.0
 11
74.6123815979044
 21
74.73809507969155
 31
0.0
  0
LINE
  5
9C
330
17
100
AcDbEntity
  8
POCKET
100
AcDbLine
 10
74.6123815979044
 20
74.73809507969155
 30
0.0
 11
74.4178651369977
 21
74.68609830417982
 31
0.0
  0
LINE
  5
9D
330
17
100
AcDbEntity
  8
POCKET
100
AcDbLine
 10
74.4178651369977
 20
74.68609830417982
 30
0.0
 11
73.4546533282578
 21
74.32128691049769
 31
0.0
  0
LINE
  5
9E
330
17
100
AcDbEntity
  8
POCKET
100
AcDbLine
 10
73.4546533282578
 20
74.32128691049769
 30
0.0
 11
72.03767218286593
 21
74.72222132656444
 31
0.0
  0
LINE
  5
9F
330
17
100
AcDbEntity
  8
POCKET
100
AcDbLine
 10
72.03767218286593
 20
74.72222132656444
 30
0.0
 11
71.6400140664943
 21
74.75210445947035
 31
0.0
  0
LINE
  5
A0
330
17
100
AcDbEntity
  8
POCKET
100
AcDbLine
 10
71.6400140664943
 20
74.75210445947035
 30
0.0
 11
71.26229724583358
 21
74.62421785916183
 31
0.0
  0
LINE
  5
A1
330
17
100
AcDbEntity
  8
POCKET
100
AcDbLine
 10
71.26229724583358
 20
74.62421785916183
 30
0.0
 11
69.68781420271712
 21
73.70761726083386
 31
0.0
  0
LINE
  5
A2
330
17
100
AcDbEntity
  8
POCKET
100
AcDbLine
 10
69.68781420271712
 20
73.70761726083386
 30
0.0
 11
69.52256098476091
 21
73.75125979022526
 31
0.0
  0
LINE
  5
A3
330
17
100
AcDbEntity
  8
POCKET
100
AcDbLine
 10
69.52256098476091
 20
73.75125979022526
 30
0.0
 11
68.85143034962722
 21
74.70093369499442
 31
0.0
  0
LINE
  5
A4
330
17
100
AcDbEntity
  8
POCKET
100
AcDbLine
 10
68.85143034962722
 20
74.70093369499442
 30
0.0
 11
68.60509548128454
 21
74.94522985454591
 31
0.0
  0
LINE
  5
A5
330
17
100
AcDbEntity
  8
POCKET
100
AcDbLine
 10
68.60509548128454
 20
74.94522985454591
 30
0.0
 11
68.2901160689274
 21
75.09065836180692
 31
0.0
  0
LINE
  5
A6
330
17
100
AcDbEntity
  8
POCKET
100
AcDbLine
 10
68.2901160689274
 20
75.09065836180692
 30
0.0
 11
67.06713528327111
 21
75.41364133026732
 31
0.0
  0
LINE
  5
A7
330
17
100
AcDbEntity
  8
POCKET
100
AcDbLine
 10
67.06713528327111
 20
75.41364133026732
 30
0.0
 11
66.830817279669
 21
75.44660918271701
 31
0.0
  0
LINE
  5
A8
330
17
100
AcDbEntity
  8
POCKET
100
AcDbLine
 10
66.830817279669
 20
75.44660918271701
 30
0.0
 11
66.59341626927316
 21
75.42265425869992
 31
0.0
  0
LINE
  5
A9
330
17
100
AcDbEntity
  8
POCKET
100
AcDbLine
 10
66.59341626927316
 20
75.42265425869992
 30
0.0
 11
64.98896904989766
 21
75.06361158290403
 31
0.0
  0
LINE
  5
AA
330
17
100
AcDbEntity
  8
POCKET
100
AcDbLine
 10
64.98896904989766
 20
75.06361158290403
 30
0.0
 11
63.00105548929632
 21
75.73292103449677
 31
0.0
  0
LINE
  5
AB
330
17
100
AcDbEntity
  8
POCKET
100
AcDbLine
 10
63.00105548929632
 20
75.73292103449677
 30
0.0
 11
62.5081003405656
 21
75.76996552432288
 31
0.0
  0
LINE
  5
AC
330
17
100
AcDbEntity
  8
POCKET
100
AcDbLine
 10
62.5081003405656
 20
75.76996552432288
 30
0.0
 11
62.0576341160218
 21
75.56635498080446
 31
0.0
  0
LINE
  5
AD
330
17
100
AcDbEntity
  8
POCKET
100
AcDbLine
 10
62.0576341160218
 20
75.56635498080446
 30
0.0
 11
59.692192106821935
 21
73.67580164035522
 31
0.0
  0
LINE
  5
AE
330
17
100
AcDbEntity
  8
POCKET
100
AcDbLine
 10
59.692192106821935
 20
73.67580164035522
 30
0.0
 11
59.14430600895645
 21
73.94425205128758
 31
0.0
  0
LINE
  5
AF
330
17
100
AcDbEntity
  8
POCKET
100
AcDbLine
 10
59.14430600895645
 20
73.94425205128758
 30
0.0
 11
58.23393265204548
 21
76.04397115923472
 31
0.0
  0
LINE
  5
B0
330
17
100
AcDbEntity
  8
POCKET
100
AcDbLine
 10
58.23393265204548
 20
76.04397115923472
 30
0.0
 11
57.968247959224506
 21
76.40457938689599
 31
0.0
  0
LINE
  5
B1
330
17
100
AcDbEntity
  8
POCKET
100
AcDbLine
 10
57.968247959224506
 20
76.40457938689599
 30
0.0
 11
57.57179642238847
 21
76.61303280806422
 31
0.0
  0
LINE
  5
B2
330
17
100
AcDbEntity
  8
POCKET
100
AcDbLine
 10
57.57179642238847
 20
76.61303280806422
 30
0.0
 11
55.737325243904024
 21
77.09750726075487
 31
0.0
  0
LINE
  5
B3
330
17
100
AcDbEntity
  8
POCKET
100
AcDbLine
 10
55.737325243904024
 20
77.09750726075487
 30
0.0
 11
55.579155754880716
 21
77.12592376066448
 31
0.0
  0
LINE
  5
B4
330
17
100
AcDbEntity
  8
POCKET
100
AcDbLine
 10
55.579155754880716
 20
77.12592376066448
 30
0.0
 11
55.418476817390946
 21
77.12863738778817
 31
0.0
  0
LINE
  5
B5
330
17
100
AcDbEntity
  8
POCKET
100
AcDbLine
 10
55.418476817390946
 20
77.12863738778817
 30
0.0
 11
37.236588847754575
 21
75.97160692971471
 31
0.0
  0
LINE
  5
B6
330
17
100
AcDbEntity
  8
POCKET
100
AcDbLine
 10
37.23658884775457
 20
75.97160692971471
 30
0.0
 11
35.77520365259548
 21
76.41602363010804
 31
0.0
  0
LINE
  5
B7
330
17
100
AcDbEntity
  8
POCKET
100
AcDbLine
 10
35.77520365259548
 20
76.41602363010804
 30
0.0
 11
35.59982911059591
 21
76.45258412501482
 31
0.0
  0
LINE
  5
B8
330
17
100
AcDbEntity
  8
POCKET
100
AcDbLine
 10
35.59982911059591
 20
76.45258412501482
 30
0.0
 11
35.4207454082031
 21
76.45726678522747
 31
0.0
  0
LINE
  5
B9
330
17
100
AcDbEntity
  8
POCKET
100
AcDbLine
 10
35.4207454082031
 20
76.45726678522747
 30
0.0
 11
33.12538834608125
 21
76.31119845406933
 31
0.0
  0
LINE
  5
BA
330
17
100
AcDbEntity
  8
POCKET
100
AcDbLine
 10
33.12538834608125
 20
76.31119845406933
 30
0.0
 11
32.807414740240326
 21
76.23759356509977
 31
0.0
  0
LINE
  5
BB
330
17
100
AcDbEntity
  8
POCKET
100
AcDbLine
 10
32.807414740240326
 20
76.23759356509977
 30
0.0
 11
32.53007841871852
 21
76.06551957387373
 31
0.0
  0
LINE
  5
BC
330
17
100
AcDbEntity
  8
POCKET
100
AcDbLine
 10
32.53007841871852
 20
76.06551957387373
 30
0.0
 11
29.05671597527672
 21
73.02377308152589
 31
0.0
  0
LINE
  5
BD
330
17
100
AcDbEntity
  8
POCKET
100
AcDbLine
 10
29.05671597527672
 20
73.02377308152589
 30
0.0
 11
28.21021946847105
 21
72.91300202627174
 31
0.0
  0
LINE
  5
BE
330
17
100
AcDbEntity
  8
POCKET
100
AcDbLine
 10
28.21021946847105
 20
72.91300202627174
 30
0.0
 11
26.529077360398876
 21
73.91274571333761
 31
0.0
  0
LINE
  5
BF
330
17
100
AcDbEntity
  8
POCKET
100
AcDbLine
 10
26.529077360398876
 20
73.91274571333761
 30
0.0
 11
26.216130969289306
 21
74.03340737369547
 31
0.0
  0
LINE
  5
C0
330
17
100
AcDbEntity
  8
POCKET
100
AcDbLine
 10
26.216130969289306
 20
74.03340737369547
 30
0.0
 11
25.880889929604518
 21
74.04380570528672
 31
0.0
  0
LINE
  5
C1
330
17
100
AcDbEntity
  8
POCKET
100
AcDbLine
 10
25.880889929604518
 20
74.04380570528672
 30
0.0
 11
23.199041928953474
 21
73.67273791982957
 31
0.0
  0
LINE
  5
C2
330
17
100
AcDbEntity
  8
POCKET
100
AcDbLine
 10
23.199041928953474
 20
73.67273791982957
 30
0.0
 11
23.13427683890843
 21
73.66159695551292
 31
0.0
  0
LINE
  5
C3
330
17
100
AcDbEntity
  8
POCKET
100
AcDbLine
 10
23.13427683890843
 20
73.66159695551292
 30
0.0
 11
23.070383345464965
 21
73.64622622130672
 31
0.0
  0
LINE
  5
C4
330
17
100
AcDbEntity
  8
POCKET
100
AcDbLine
 10
23.070383345464965
 20
73.64622622130672
 30
0.0
 11
18.343580925018546
 21
72.34340663361938
 31
0.0
  0
LINE
  5
C5
330
17
100
AcDbEntity
  8
POCKET
100
AcDbLine
 10
18.343580925018546
 20
72.34340663361938
 30
0.0
 11
18.248898713591167
 21
72.31215387418429
 31
0.0
  0
LINE
  5
C6
330
17
100
AcDbEntity
  8
POCKET
100
AcDbLine
 10
18.248898713591167
 20
72.31215387418429
 30
0.0
 11
18.15779938116921
 21
72.27162773736666
 31
0.0
  0
LINE
  5
C7
330
17
100
AcDbEntity
  8
POCKET
100
AcDbLine
 10
18.15779938116921
 20
72.27162773736666
 30
0.0
 11
14.080592135592193
 21
70.20852786663471
 31
0.0
  0
LINE
  5
C8
330
17
100
AcDbEntity
  8
POCKET
100
AcDbLine
 10
14.080592135592193
 20
70.20852786663471
 30
0.0
 11
13.84944897069562
 21
70.04700985108556
 31
0.0
  0
LINE
  5
C9
330
17
100
AcDbEntity
  8
POCKET
100
AcDbLine
 10
13.84944897069562
 20
70.04700985108556
 30
0.0
 11
13.672586108120102
 21
69.82738571792407
 31
0.0
  0
LINE
  5
CA
330
17
100
AcDbEntity
  8
POCKET
100
AcDbLine
 10
13.672586108120102
 20
69.82738571792407
 30
0.0
 11
11.31916493285232
 21
65.86993593658744
 31
0.0
  0
LINE
  5
CB
330
17
100
AcDbEntity
  8
POCKET
100
AcDbLine
 10
11.31916493285232
 20
65.86993593658744
 30
0.0
 11
11.286330370463713
 21
65.81017385462665
 31
0.0
  0
LINE
  5
CC
330
17
100
AcDbEntity
  8
POCKET
100
AcDbLine
 10
11.286330370463713
 20
65.81017385462665
 30
0.0
 11
11.25764483490938
 21
65.74831308371729
 31
0.0
  0
LINE
  5
CD
330
17
100
AcDbEntity
  8
POCKET
100
AcDbLine
 10
11.25764483490938
 20
65.74831308371729
 30
0.0
 11
7.599590191786144
 21
57.098536426026975
 31
0.0
  0
LINE
  5
CE
330
17
100
AcDbEntity
  8
POCKET
100
AcDbLine
 10
7.599590191786144
 20
57.098536426026975
 30
0.0
 11
7.588546340370075
 21
57.07131450562298
 31
0.0
  0
LINE
  5
CF
330
17
100
AcDbEntity
  8
POCKET
100
AcDbLine
 10
7.588546340370075
 20
57.07131450562298
 30
0.0
 11
7.5783068625082235
 21
57.04377993285168
 31
0.0
  0
LINE
  5
D0
330
17
100
AcDbEntity
  8
POCKET
100
AcDbLine
 10
7.5783068625082235
 20
57.04377993285168
 30
0.0
 11
3.769139135841182
 21
46.32117384015372
 31
0.0
  0
LINE
  5
D1
330
17
100
AcDbEntity
  8
POCKET
100
AcDbLine
 10
3.769139135841182
 20
46.32117384015372
 30
0.0
 11
0.7075954607171084
 21
39.65250830856738
 31
0.0
  0
LINE
  5
D2
330
17
100
AcDbEntity
  8
POCKET
100
AcDbLine
 10
0.7075954607171087
 20
39.65250830856738
 30
0.0
 11
0.6515666871134801
 21
39.49815118348857
 31
0.0
  0
LINE
  5
D3
330
17
100
AcDbEntity
  8
POCKET
100
AcDbLine
 10
0.6515666871134801
 20
39.49815118348857
 30
0.0
 11
0.6215549312960984
 21
39.336705712672945
 31
0.0
  0
LINE
  5
D4
330
17
100
AcDbEntity
  8
POCKET
100
AcDbLine
 10
0.6215549312960984
 20
39.336705712672945
 30
0.0
 11
0.004621420351301882
 21
33.28530975446022
 31
0.0
  0
LINE
  5
D5
330
17
100
AcDbEntity
  8
POCKET
100
AcDbLine
 10
0.004621420351301864
 20
33.28530975446022
 30
0.0
 11
1.421754300487148e-20
 21
33.216599477139276
 31
0.0
  0
LINE
  5
D6
330
17
100
AcDbEntity
  8
POCKET
100
AcDbLine
 10
0.0
 20
33.216599477139276
 30
0.0
 11
0.00011850116133405031
 21
33.14773405988897
 31
0.0
  0
LINE
  5
D7
330
17
100
AcDbEntity
  8
POCKET
100
AcDbLine
 10
0.00011850116133405031
 20
33.14773405988897
 30
0.0
 11
0.2641304163917825
 21
25.849768746966713
 31
0.0
  0
LINE
  5
D8
330
17
100
AcDbEntity
  8
POCKET
100
AcDbLine
 10
0.2641304163917825
 20
25.849768746966713
 30
0.0
 11
0.3476267695546006
 21
25.484400463393683
 31
0.0
  0
LINE
  5
D9
330
17
100
AcDbEntity
  8
POCKET
100
AcDbLine
 10
0.3476267695546006
 20
25.484400463393683
 30
0.0
 11
0.5597685547580373
 21
25.17543204008268
 31
0.0
  0
LINE
  5
DA
330
17
100
AcDbEntity
  8
POCKET
100
AcDbLine
 10
0.5597685547580373
 20
25.17543204008268
 30
0.0
 11
2.2708530310535187
 21
23.4806783957495
 31
0.0
  0
LINE
  5
DB
330
17
100
AcDbEntity
  8
POCKET
100
AcDbLine
 10
2.2708530310535187
 20
23.4806783957495
 30
0.0
 11
2.417909312024217
 21
23.360421683819464
 31
0.0
  0
LINE
  5
DC
330
17
100
AcDbEntity
  8
POCKET
100
AcDbLine
 10
2.417909312024217
 20
23.360421683819464
 30
0.0
 11
2.5850536150276993
 21
23.270144286257075
 31
0.0
  0
LINE
  5
DD
330
17
100
AcDbEntity
  8
POCKET
100
AcDbLine
 10
2.5850536150276993
 20
23.270144286257075
 30
0.0
 11
4.504297457733721
 21
22.458481843637315
 31
0.0
  0
ENDSEC
  0
SECTION
  2
OBJECTS
  0
DICTIONARY
  5
A
330
0
100
AcDbDictionary
281
1
  3
ACAD_COLOR
350
B
  3
ACAD_GROUP
350
C
  3
ACAD_LAYOUT
350
D
  3
ACAD_MATERIAL
350
E
  3
ACAD_MLEADERSTYLE
350
F
  3
ACAD_MLINESTYLE
350
10
  3
ACAD_PLOTSETTINGS
350
11
  3
ACAD_PLOTSTYLENAME
350
12
  3
ACAD_SCALELIST
350
14
  3
ACAD_TABLESTYLE
350
15
  3
ACAD_VISUALSTYLE
350
16
  3
EZDXF_META
350
2D
  0
DICTIONARY
  5
B
330
A
100
AcDbDictionary
281
1
  0
DICTIONARY
  5
C
330
A
100
AcDbDictionary
281
1
  0
DICTIONARY
  5
D
330
A
100
AcDbDictionary
281
1
  3
Model
350
1A
  3
Layout1
350
1E
  0
DICTIONARY
  5
E
330
A
100
AcDbDictionary
281
1
  3
ByBlock
350
1F
  3
ByLayer
350
20
  3
Global
350
21
  0
DICTIONARY
  5
F
330
A
100
AcDbDictionary
281
1
  3
Standard
350
2C
  0
DICTIONARY
  5
10
330
A
100
AcDbDictionary
281
1
  3
Standard
350
22
  0
DICTIONARY
  5
11
330
A
100
AcDbDictionary
281
1
  0
ACDBDICTIONARYWDFLT
  5
12
330
A
100
AcDbDictionary
281
1
  3
Normal
350
13
100
AcDbDictionaryWithDefault
340
13
  0
ACDBPLACEHOLDER
  5
13
330
12
  0
DICTIONARY
  5
14
330
A
100
AcDbDictionary
281
1
  0
DICTIONARY
  5
15
330
A
100
AcDbDictionary
281
1
  0
DICTIONARY
  5
16
330
A
100
AcDbDictionary
281
1
  0
LAYOUT
  5
1A
330
D
100
AcDbPlotSettings
  1

  4
A3
  6

 40
7.5
 41
20.0
 42
7.5
 43
20.0
 44
420.0
 45
297.0
 46
0.0
 47
0.0
 48
0.0
 49
0.0
140
0.0
141
0.0
142
1.0
143
1.0
 70
1024
 72
1
 73
0
 74
5
  7

 75
16
 76
0
 77
2
 78
300
147
1.0
148
0.0
149
0.0
100
AcDbLayout
  1
Model
 70
1
 71
0
 10
0.0
 20
0.0
 11
420.0
 21
297.0
 12
0.0
 22
0.0
 32
0.0
 14
1e+20
 24
1e+20
 34
1e+20
 15
-1e+20
 25
-1e+20
 35
-1e+20
146
0.0
 13
0.0
 23
0.0
 33
0.0
 16
1.0
 26
0.0
 36
0.0
 17
0.0
 27
1.0
 37
0.0
 76
1
330
17
  0
LAYOUT
  5
1E
330
D
100
AcDbPlotSettings
  1

  4
A3
  6

 40
7.5
 41
20.0
 42
7.5
 43
20.0
 44
420.0
 45
297.0
 46
0.0
 47
0.0
 48
0.0
 49
0.0
140
0.0
141
0.0
142
1.0
143
1.0
 70
0
 72
1
 73
0
 74
5
  7

 75
16
 76
0
 77
2
 78
300
147
1.0
148
0.0
149
0.0
100
AcDbLayout
  1
Layout1
 70
1
 71
1
 10
0.0
 20
0.0
 11
420.0
 21
297.0
 12
0.0
 22
0.0
 32
0.0
 14
1e+20
 24
1e+20
 34
1e+20
 15
-1e+20
 25
-1e+20
 35
-1e+20
146
0.0
 13
0.0
 23
0.0
 33
0.0
 16
1.0
 26
0.0
 36
0.0
 17
0.0
 27
1.0
 37
0.0
 76
1
330
1B
  0
MATERIAL
  5
1F
102
{ACAD_REACTORS
330
E
102
}
330
E
100
AcDbMaterial
  1
ByBlock
  2

 70
0
 40
1.0
 71
1
 41
1.0
 91
-1023410177
 42
1.0
 72
1
  3

 73
1
 74
1
 75
1
 44
0.5
 73
0
 45
1.0
 46
1.0
 77
1
  4

 78
1
 79
1
170
1
 48
1.0
171
1
  6

172
1
173
1
174
1
140
1.0
141
1.0
175
1
  7

176
1
177
1
178
1
143
1.0
179
1
  8

270
1
271
1
272
1
145
1.0
146
1.0
273
1
  9

274
1
275
1
276
1
 42
1.0
 72
1
  3

 73
1
 74
1
 75
1
 94
63
  0
MATERIAL
  5
20
102
{ACAD_REACTORS
330
E
102
}
330
E
100
AcDbMaterial
  1
ByLayer
  2

 70
0
 40
1.0
 71
1
 41
1.0
 91
-1023410177
 42
1.0
 72
1
  3

 73
1
 74
1
 75
1
 44
0.5
 73
0
 45
1.0
 46
1.0
 77
1
  4

 78
1
 79
1
170
1
 48
1.0
171
1
  6

172
1
173
1
174
1
140
1.0
141
1.0
175
1
  7

176
1
177
1
178
1
143
1.0
179
1
  8

270
1
271
1
272
1
145
1.0
146
1.0
273
1
  9

274
1
275
1
276
1
 42
1.0
 72
1
  3

 73
1
 74
1
 75
1
 94
63
  0
MATERIAL
  5
21
102
{ACAD_REACTORS
330
E
102
}
330
E
100
AcDbMaterial
  1
Global
  2

 70
0
 40
1.0
 71
1
 41
1.0
 91
-1023410177
 42
1.0
 72
1
  3

 73
1
 74
1
 75
1
 44
0.5
 73
0
 45
1.0
 46
1.0
 77
1
  4

 78
1
 79
1
170
1
 48
1.0
171
1
  6

172
1
173
1
174
1
140
1.0
141
1.0
175
1
  7

176
1
177
1
178
1
143
1.0
179
1
  8

270
1
271
1
272
1
145
1.0
146
1.0
273
1
  9

274
1
275
1
276
1
 42
1.0
 72
1
  3

 73
1
 74
1
 75
1
 94
63
  0
MLINESTYLE
  5
22
102
{ACAD_REACTORS
330
10
102
}
330
10
100
AcDbMlineStyle
  2
Standard
 70
0
  3

 62
256
 51
90.0
 52
90.0
 71
2
 49
0.5
 62
256
  6
BYLAYER
 49
-0.5
 62
256
  6
BYLAYER
  0
MLEADERSTYLE
  5
2C
102
{ACAD_REACTORS
330
F
102
}
330
F
100
AcDbMLeaderStyle
179
2
170
2
171
1
172
0
 90
2
 40
0.0
 41
0.0
173
1
 91
-1056964608
 92
-2
290
1
 42
2.0
291
1
 43
8.0
  3
Standard
 44
4.0
300

342
29
174
1
175
1
176
0
178
1
 93
-1056964608
 45
4.0
292
0
297
0
 46
4.0
 94
-1056964608
 47
1.0
 49
1.0
140
1.0
294
1
141
0.0
177
0
142
1.0
295
0
296
0
143
3.75
271
0
272
9
273
9
  0
DICTIONARY
  5
2D
330
A
100
AcDbDictionary
280
1
281
1
  3
CREATED_BY_EZDXF
350
2E
  3
WRITTEN_BY_EZDXF
350
E1
  0
DICTIONARYVAR
  5
2E
330
2D
100
DictionaryVariables
280
0
  1
1.4.4 @ 2026-09-16T19:08:24.455693+00:00
  0
DICTIONARYVAR
  5
E1
330
2D
100
DictionaryVariables
280
0
  1
1.4.4 @ 2026-09-16T19:08:24.460937+00:00
  0
ENDSEC
  0
EOF
