  0
SECTION
  2
HEADER
  9
$ACADVER
  1
AC1027
  9
$ACADMAINTVER
 70
105
  9
$DWGCODEPAGE
  3
ANSI_1252
  9
$LASTSAVEDBY
  1
ezdxf
  9
$REQUIREDVERSIONS
160
0
  9
$INSBASE
 10
0.0
 20
0.0
 30
0.0
  9
$EXTMIN
 10
1e+20
 20
1e+20
 30
1e+20
  9
$EXTMAX
 10
-1e+20
 20
-1e+20
 30
-1e+20
  9
$LIMMIN
 10
0.0
 20
0.0
  9
$LIMMAX
 10
420.0
 20
297.0
  9
$ORTHOMODE
 70
0
  9
$REGENMODE
 70
1
  9
$FILLMODE
 70
1
  9
$QTEXTMODE
 70
0
  9
$MIRRTEXT
 70
1
  9
$LTSCALE
 40
1.0
  9
$ATTMODE
 70
1
  9
$TEXTSIZE
 40
2.5
  9
$TRACEWID
 40
1.0
  9
$TEXTSTYLE
  7
Standard
  9
$CLAYER
  8
0
  9
$CELTYPE
  6
ByLayer
  9
$CECOLOR
 62
256
  9
$CELTSCALE
 40
1.0
  9
$DISPSILH
 70
0
  9
$DIMSCALE
 40
1.0
  9
$DIMASZ
 40
2.5
  9
$DIMEXO
 40
0.625
  9
$DIMDLI
 40
3.75
  9
$DIMRND
 40
0.0
  9
$DIMDLE
 40
0.0
  9
$DIMEXE
 40
1.25
  9
$DIMTP
 40
0.0
  9
$DIMTM
 40
0.0
  9
$DIMTXT
 40
2.5
  9
$DIMCEN
 40
2.5
  9
$DIMTSZ
 40
0.0
  9
$DIMTOL
 70
0
  9
$DIMLIM
 70
0
  9
$DIMTIH
 70
0
  9
$DIMTOH
 70
0
  9
$DIMSE1
 70
0
  9
$DIMSE2
 70
0
  9
$DIMTAD
 70
1
  9
$DIMZIN
 70
8
  9
$DIMBLK
  1

  9
$DIMASO
 70
1
  9
$DIMSHO
 70
1
  9
$DIMPOST
  1

  9
$DIMAPOST
  1

  9
$DIMALT
 70
0
  9
$DIMALTD
 70
3
  9
$DIMALTF
 40
0.03937007874
  9
$DIMLFAC
 40
1.0
  9
$DIMTOFL
 70
1
  9
$DIMTVP
 40
0.0
  9
$DIMTIX
 70
0
  9
$DIMSOXD
 70
0
  9
$DIMSAH
 70
0
  9
$DIMBLK1
  1

  9
$DIMBLK2
  1

  9
$DIMSTYLE
  2
ISO-25
  9
$DIMCLRD
 70
0
  9
$DIMCLRE
 70
0
  9
$DIMCLRT
 70
0
  9
$DIMTFAC
 40
1.0
  9
$DIMGAP
 40
0.625
  9
$DIMJUST
 70
0
  9
$DIMSD1
 70
0
  9
$DIMSD2
 70
0
  9
$DIMTOLJ
 70
0
  9
$DIMTZIN
 70
8
  9
$DIMALTZ
 70
0
  9
$DIMALTTZ
 70
0
  9
$DIMUPT
 70
0
  9
$DIMDEC
 70
2
  9
$DIMTDEC
 70
2
  9
$DIMALTU
 70
2
  9
$DIMALTTD
 70
3
  9
$DIMTXSTY
  7
Standard
  9
$DIMAUNIT
 70
0
  9
$DIMADEC
 70
0
  9
$DIMALTRND
 40
0.0
  9
$DIMAZIN
 70
0
  9
$DIMDSEP
 70
44
  9
$DIMATFIT
 70
3
  9
$DIMFRAC
 70
0
  9
$DIMLDRBLK
  1

  9
$DIMLUNIT
 70
2
  9
$DIMLWD
 70
-2
  9
$DIMLWE
 70
-2
  9
$DIMTMOVE
 70
0
  9
$DIMFXL
 40
1.0
  9
$DIMFXLON
 70
0
  9
$DIMJOGANG
 40
0.785398163397
  9
$DIMTFILL
 70
0
  9
$DIMTFILLCLR
 70
0
  9
$DIMARCSYM
 70
0
  9
$DIMLTYPE
  6

  9
$DIMLTEX1
  6

  9
$DIMLTEX2
  6

  9
$DIMTXTDIRECTION
 70
0
  9
$LUNITS
 70
2
  9
$LUPREC
 70
4
  9
$SKETCHINC
 40
1.0
  9
$FILLETRAD
 40
10.0
  9
$AUNITS
 70
0
  9
$AUPREC
 70
2
  9
$MENU
  1
.
  9
$ELEVATION
 40
0.0
  9
$PELEVATION
 40
0.0
  9
$THICKNESS
 40
0.0
  9
$LIMCHECK
 70
0
  9
$CHAMFERA
 40
0.0
  9
$CHAMFERB
 40
0.0
  9
$CHAMFERC
 40
0.0
  9
$CHAMFERD
 40
0.0
  9
$SKPOLY
 70
0
  9
$TDCREATE
 40
2461300.5340162036
  9
$TDUCREATE
 40
2458532.153996898
  9
$TDUPDATE
 40
2461300.5340162036
  9
$TDUUPDATE
 40
2458532.1544311
  9
$TDINDWG
 40
0.0
  9
$TDUSRTIMER
 40
0.0
  9
$USRTIMER
 70
1
  9
$ANGBASE
 50
0.0
  9
$ANGDIR
 70
0
  9
$PDMODE
 70
0
  9
$PDSIZE
 40
0.0
  9
$PLINEWID
 40
0.0
  9
$SPLFRAME
 70
0
  9
$SPLINETYPE
 70
6
  9
$SPLINESEGS
 70
8
  9
$HANDSEED
  5
15E
  9
$SURFTAB1
 70
6
  9
$SURFTAB2
 70
6
  9
$SURFTYPE
 70
6
  9
$SURFU
 70
6
  9
$SURFV
 70
6
  9
$UCSBASE
  2

  9
$UCSNAME
  2

  9
$UCSORG
 10
0.0
 20
0.0
 30
0.0
  9
$UCSXDIR
 10
1.0
 20
0.0
 30
0.0
  9
$UCSYDIR
 10
0.0
 20
1.0
 30
0.0
  9
$UCSORTHOREF
  2

  9
$UCSORTHOVIEW
 70
0
  9
$UCSORGTOP
 10
0.0
 20
0.0
 30
0.0
  9
$UCSORGBOTTOM
 10
0.0
 20
0.0
 30
0.0
  9
$UCSORGLEFT
 10
0.0
 20
0.0
 30
0.0
  9
$UCSORGRIGHT
 10
0.0
 20
0.0
 30
0.0
  9
$UCSORGFRONT
 10
0.0
 20
0.0
 30
0.0
  9
$UCSORGBACK
 10
0.0
 20
0.0
 30
0.0
  9
$PUCSBASE
  2

  9
$PUCSNAME
  2

  9
$PUCSORG
 10
0.0
 20
0.0
 30
0.0
  9
$PUCSXDIR
 10
1.0
 20
0.0
 30
0.0
  9
$PUCSYDIR
 10
0.0
 20
1.0
 30
0.0
  9
$PUCSORTHOREF
  2

  9
$PUCSORTHOVIEW
 70
0
  9
$PUCSORGTOP
 10
0.0
 20
0.0
 30
0.0
  9
$PUCSORGBOTTOM
 10
0.0
 20
0.0
 30
0.0
  9
$PUCSORGLEFT
 10
0.0
 20
0.0
 30
0.0
  9
$PUCSORGRIGHT
 10
0.0
 20
0.0
 30
0.0
  9
$PUCSORGFRONT
 10
0.0
 20
0.0
 30
0.0
  9
$PUCSORGBACK
 10
0.0
 20
0.0
 30
0.0
  9
$USERI1
 70
0
  9
$USERI2
 70
0
  9
$USERI3
 70
0
  9
$USERI4
 70
0
  9
$USERI5
 70
0
  9
$USERR1
 40
0.0
  9
$USERR2
 40
0.0
  9
$USERR3
 40
0.0
  9
$USERR4
 40
0.0
  9
$USERR5
 40
0.0
  9
$WORLDVIEW
 70
1
  9
$SHADEDGE
 70
3
  9
$SHADEDIF
 70
70
  9
$TILEMODE
 70
1
  9
$MAXACTVP
 70
64
  9
$PINSBASE
 10
0.0
 20
0.0
 30
0.0
  9
$PLIMCHECK
 70
0
  9
$PEXTMIN
 10
1e+20
 20
1e+20
 30
1e+20
  9
$PEXTMAX
 10
-1e+20
 20
-1e+20
 30
-1e+20
  9
$PLIMMIN
 10
0.0
 20
0.0
  9
$PLIMMAX
 10
420.0
 20
297.0
  9
$UNITMODE
 70
0
  9
$VISRETAIN
 70
1
  9
$PLINEGEN
 70
0
  9
$PSLTSCALE
 70
1
  9
$TREEDEPTH
 70
3020
  9
$CMLSTYLE
  2
Standard
  9
$CMLJUST
 70
0
  9
$CMLSCALE
 40
20.0
  9
$PROXYGRAPHICS
 70
1
  9
$MEASUREMENT
 70
1
  9
$CELWEIGHT
370
-1
  9
$ENDCAPS
280
0
  9
$JOINSTYLE
280
0
  9
$LWDISPLAY
290
0
  9
$INSUNITS
 70
4
  9
$HYPERLINKBASE
  1

  9
$STYLESHEET
  1

  9
$XEDIT
290
1
  9
$CEPSNTYPE
380
0
  9
$PSTYLEMODE
290
1
  9
$FINGERPRINTGUID
  2
{8447500F-AD78-4CA5-952C-95248B545E49}
  9
$VERSIONGUID
  2
{9B3C4948-311A-4612-B0CE-A755AE986ED8}
  9
$EXTNAMES
290
1
  9
$PSVPSCALE
 40
0.0
  9
$OLESTARTUP
290
0
  9
$SORTENTS
280
127
  9
$INDEXCTL
280
0
  9
$HIDETEXT
280
1
  9
$XCLIPFRAME
280
1
  9
$HALOGAP
280
0
  9
$OBSCOLOR
 70
257
  9
$OBSLTYPE
280
0
  9
$INTERSECTIONDISPLAY
280
0
  9
$INTERSECTIONCOLOR
 70
257
  9
$DIMASSOC
280
2
  9
$PROJECTNAME
  1

  9
$CAMERADISPLAY
290
0
  9
$LENSLENGTH
 40
50.0
  9
$CAMERAHEIGHT
 40
0.0
  9
$STEPSPERSEC
 40
24.0
  9
$STEPSIZE
 40
100.0
  9
$3DDWFPREC
 40
2.0
  9
$PSOLWIDTH
 40
0.005
  9
$PSOLHEIGHT
 40
0.08
  9
$LOFTANG1
 40
1.570796326795
  9
$LOFTANG2
 40
1.570796326795
  9
$LOFTMAG1
 40
0.0
  9
$LOFTMAG2
 40
0.0
  9
$LOFTPARAM
 70
7
  9
$LOFTNORMALS
280
1
  9
$LATITUDE
 40
37.795
  9
$LONGITUDE
 40
-122.394
  9
$NORTHDIRECTION
 40
0.0
  9
$TIMEZONE
 70
-8000
  9
$LIGHTGLYPHDISPLAY
280
1
  9
$TILEMODELIGHTSYNCH
280
1
  9
$CMATERIAL
347
20
  9
$SOLIDHIST
280
0
  9
$SHOWHIST
280
1
  9
$DWFFRAME
280
2
  9
$DGNFRAME
280
2
  9
$REALWORLDSCALE
290
1
  9
$INTERFERECOLOR
 62
256
  9
$CSHADOW
280
0
  9
$SHADOWPLANELOCATION
 40
0.0
  0
ENDSEC
  0
SECTION
  2
CLASSES
  0
CLASS
  1
ACDBDICTIONARYWDFLT
  2
AcDbDictionaryWithDefault
  3
ObjectDBX Classes
 90
0
 91
0
280
0
281
0
  0
CLASS
  1
SUN
  2
AcDbSun
  3
SCENEOE
 90
1153
 91
0
280
0
281
0
  0
CLASS
  1
VISUALSTYLE
  2
AcDbVisualStyle
  3
ObjectDBX Classes
 90
4095
 91
0
280
0
281
0
  0
CLASS
  1
MATERIAL
  2
AcDbMaterial
  3
ObjectDBX Classes
 90
1153
 91
0
280
0
281
0
  0
CLASS
  1
SCALE
  2
AcDbScale
  3
ObjectDBX Classes
 90
1153
 91
0
280
0
281
0
  0
CLASS
  1
TABLESTYLE
  2
AcDbTableStyle
  3
ObjectDBX Classes
 90
4095
 91
0
280
0
281
0
  0
CLASS
  1
MLEADERSTYLE
  2
AcDbMLeaderStyle
  3
ACDB_MLEADERSTYLE_CLASS
 90
4095
 91
0
280
0
281
0
  0
CLASS
  1
DICTIONARYVAR
  2
AcDbDictionaryVar
  3
ObjectDBX Classes
 90
0
 91
0
280
0
281
0
  0
CLASS
  1
CELLSTYLEMAP
  2
AcDbCellStyleMap
  3
ObjectDBX Classes
 90
1152
 91
0
280
0
281
0
  0
CLASS
  1
MENTALRAYRENDERSETTINGS
  2
AcDbMentalRayRenderSettings
  3
SCENEOE
 90
1024
 91
0
280
0
281
0
  0
CLASS
  1
ACDBDETAILVIEWSTYLE
  2
AcDbDetailViewStyle
  3
ObjectDBX Classes
 90
1025
 91
0
280
0
281
0
  0
CLASS
  1
ACDBSECTIONVIEWSTYLE
  2
AcDbSectionViewStyle
  3
ObjectDBX Classes
 90
1025
 91
0
280
0
281
0
  0
CLASS
  1
RASTERVARIABLES
  2
AcDbRasterVariables
  3
ISM
 90
0
 91
0
280
0
281
0
  0
CLASS
  1
ACDBPLACEHOLDER
  2
AcDbPlaceHolder
  3
ObjectDBX Classes
 90
0
 91
0
280
0
281
0
  0
CLASS
  1
LAYOUT
  2
AcDbLayout
  3
ObjectDBX Classes
 90
0
 91
0
280
0
281
0
  0
ENDSEC
  0
SECTION
  2
TABLES
  0
TABLE
  2
VPORT
  5
8
330
0
100
AcDbSymbolTable
 70
1
  0
VPORT
  5
15A
330
8
100
AcDbSymbolTableRecord
100
AcDbViewportTableRecord
  2
*Active
 70
0
 10
0.0
 20
0.0
 11
1.0
 21
1.0
 12
78.42601155151281
 22
52.53144238449685
 13
0.0
 23
0.0
 14
0.5
 24
0.5
 15
0.5
 25
0.5
 16
0.0
 26
0.0
 36
1.0
 17
0.0
 27
0.0
 37
0.0
 40
105.0628847689937
 41
1.34
 42
50.0
 43
0.0
 44
0.0
 50
0.0
 51
0.0
 71
0
 72
1000
 73
1
 74
3
 75
0
 76
0
 77
0
 78
0
281
0
 65
1
110
0.0
120
0.0
130
0.0
111
1.0
121
0.0
131
0.0
112
0.0
122
1.0
132
0.0
 79
0
146
0.0
  0
ENDTAB
  0
TABLE
  2
LTYPE
  5
2
330
0
100
AcDbSymbolTable
 70
3
  0
LTYPE
  5
24
330
2
100
AcDbSymbolTableRecord
100
AcDbLinetypeTableRecord
  2
ByBlock
 70
0
  3

 72
65
 73
0
 40
0.0
  0
LTYPE
  5
25
330
2
100
AcDbSymbolTableRecord
100
AcDbLinetypeTableRecord
  2
ByLayer
 70
0
  3

 72
65
 73
0
 40
0.0
  0
LTYPE
  5
26
330
2
100
AcDbSymbolTableRecord
100
AcDbLinetypeTableRecord
  2
Continuous
 70
0
  3

 72
65
 73
0
 40
0.0
  0
ENDTAB
  0
TABLE
  2
LAYER
  5
1
330
0
100
AcDbSymbolTable
 70
3
  0
LAYER
  5
27
330
1
100
AcDbSymbolTableRecord
100
AcDbLayerTableRecord
  2
0
 70
0
 62
7
  6
Continuous
370
-3
390
13
347
21
  0
LAYER
  5
28
330
1
100
AcDbSymbolTableRecord
100
AcDbLayerTableRecord
  2
Defpoints
 70
0
 62
7
  6
Continuous
290
0
370
-3
390
13
347
21
  0
LAYER
  5
2F
330
1
100
AcDbSymbolTableRecord
100
AcDbLayerTableRecord
  2
POCKET
 70
0
 62
7
  6
Continuous
370
-3
390
13
347
21
  0
ENDTAB
  0
TABLE
  2
STYLE
  5
5
330
0
100
AcDbSymbolTable
 70
1
  0
STYLE
  5
29
330
5
100
AcDbSymbolTableRecord
100
AcDbTextStyleTableRecord
  2
Standard
 70
0
 40
0.0
 41
1.0
 50
0.0
 71
0
 42
2.5
  3
txt
  4

  0
ENDTAB
  0
TABLE
  2
VIEW
  5
7
330
0
100
AcDbSymbolTable
 70
0
  0
ENDTAB
  0
TABLE
  2
UCS
  5
6
330
0
100
AcDbSymbolTable
 70
0
  0
ENDTAB
  0
TABLE
  2
APPID
  5
3
330
0
100
AcDbSymbolTable
 70
3
  0
APPID
  5
2A
330
3
100
AcDbSymbolTableRecord
100
AcDbRegAppTableRecord
  2
ACAD
 70
0
  0
APPID
  5
15B
330
3
100
AcDbSymbolTableRecord
100
AcDbRegAppTableRecord
  2
HATCHBACKGROUNDCOLOR
 70
0
  0
APPID
  5
15C
330
3
100
AcDbSymbolTableRecord
100
AcDbRegAppTableRecord
  2
EZDXF
 70
0
  0
ENDTAB
  0
TABLE
  2
DIMSTYLE
  5
4
330
0
100
AcDbSymbolTable
 70
1
100
AcDbDimStyleTable
  0
DIMSTYLE
105
2B
330
4
100
AcDbSymbolTableRecord
100
AcDbDimStyleTableRecord
  2
Standard
 70
0
 40
1.0
 41
2.5
 42
0.625
 43
3.75
 44
1.25
 45
0.0
 46
0.0
 47
0.0
 48
0.0
 49
2.5
140
2.5
141
2.5
142
0.0
143
0.03937007874
144
1.0
145
0.0
146
1.0
147
0.625
148
0.0
 69
0
 70
0
 71
0
 72
0
 73
0
 74
0
 75
0
 76
0
 77
1
 78
8
 79
3
170
0
171
3
172
1
173
0
174
0
175
0
176
0
177
0
178
0
179
2
271
2
272
2
273
2
274
3
275
0
276
0
277
2
278
44
279
0
280
0
281
0
282
0
283
0
284
8
285
0
286
0
288
0
289
3
290
0
371
-2
372
-2
  0
ENDTAB
  0
TABLE
  2
BLOCK_RECORD
  5
9
330
0
100
AcDbSymbolTable
 70
2
  0
BLOCK_RECORD
  5
17
330
9
100
AcDbSymbolTableRecord
100
AcDbBlockTableRecord
  2
*Model_Space
340
1A
 70
0
280
1
281
0
  0
BLOCK_RECORD
  5
1B
330
9
100
AcDbSymbolTableRecord
100
AcDbBlockTableRecord
  2
*Paper_Space
340
1E
 70
0
280
1
281
0
  0
ENDTAB
  0
ENDSEC
  0
SECTION
  2
BLOCKS
  0
BLOCK
  5
18
330
17
100
AcDbEntity
  8
0
100
AcDbBlockBegin
  2
*Model_Space
 70
0
 10
0.0
 20
0.0
 30
0.0
  3
*Model_Space
  1

  0
ENDBLK
  5
19
330
17
100
AcDbEntity
  8
0
100
AcDbBlockEnd
  0
BLOCK
  5
1C
330
1B
100
AcDbEntity
  8
0
100
AcDbBlockBegin
  2
*Paper_Space
 70
0
 10
0.0
 20
0.0
 30
0.0
  3
*Paper_Space
  1

  0
ENDBLK
  5
1D
330
1B
100
AcDbEntity
  8
0
100
AcDbBlockEnd
  0
ENDSEC
  0
SECTION
  2
ENTITIES
  0
LINE
  5
30
330
17
100
AcDbEntity
  8
POCKET
100
AcDbLine
 10
1.7789587743578907
 20
20.776974379549486
 30
0.0
 11
1.252333125337374
 21
11.48328483094751
 31
0.0
  0
LINE
  5
31
330
17
100
AcDbEntity
  8
POCKET
100
AcDbLine
 10
1.252333125337374
 20
11.48328483094751
 30
0.0
 11
1.33298716366309
 21
11.029539119148188
 31
0.0
  0
LINE
  5
32
330
17
100
AcDbEntity
  8
POCKET
100
AcDbLine
 10
1.33298716366309
 20
11.029539119148188
 30
0.0
 11
1.6085611522345808
 21
10.660148781297671
 31
0.0
  0
LINE
  5
33
330
17
100
AcDbEntity
  8
POCKET
100
AcDbLine
 10
1.6085611522345808
 20
10.660148781297671
 30
0.0
 11
2.0205258641381
 21
10.453568721706313
 31
0.0
  0
LINE
  5
34
330
17
100
AcDbEntity
  8
POCKET
100
AcDbLine
 10
2.0205258641381
 20
10.453568721706313
 30
0.0
 11
2.9177184574693684
 21
10.241329586598107
 31
0.0
  0
LINE
  5
35
330
17
100
AcDbEntity
  8
POCKET
100
AcDbLine
 10
2.9177184574693684
 20
10.241329586598107
 30
0.0
 11
3.143887551348472
 21
10.214479733693693
 31
0.0
  0
LINE
  5
36
330
17
100
AcDbEntity
  8
POCKET
100
AcDbLine
 10
3.143887551348472
 20
10.214479733693693
 30
0.0
 11
3.370266035723639
 21
10.239502831804959
 31
0.0
  0
LINE
  5
37
330
17
100
AcDbEntity
  8
POCKET
100
AcDbLine
 10
3.370266035723639
 20
10.239502831804959
 30
0.0
 11
6.444499613586996
 21
10.94058271355039
 31
0.0
  0
LINE
  5
38
330
17
100
AcDbEntity
  8
POCKET
100
AcDbLine
 10
6.444499613586996
 20
10.94058271355039
 30
0.0
 11
9.070638396432235
 21
10.265944917641686
 31
0.0
  0
LINE
  5
39
330
17
100
AcDbEntity
  8
POCKET
100
AcDbLine
 10
9.070638396432235
 20
10.265944917641686
 30
0.0
 11
10.97172928829659
 21
6.679282072893314
 31
0.0
  0
LINE
  5
3A
330
17
100
AcDbEntity
  8
POCKET
100
AcDbLine
 10
10.97172928829659
 20
6.679282072893314
 30
0.0
 11
10.884729565308882
 21
5.479327842574973
 31
0.0
  0
LINE
  5
3B
330
17
100
AcDbEntity
  8
POCKET
100
AcDbLine
 10
10.884729565308882
 20
5.479327842574973
 30
0.0
 11
9.445516029191149
 21
2.787341873806314
 31
0.0
  0
LINE
  5
3C
330
17
100
AcDbEntity
  8
POCKET
100
AcDbLine
 10
9.445516029191149
 20
2.787341873806314
 30
0.0
 11
9.327603590836466
 21
2.3363318823141124
 31
0.0
  0
LINE
  5
3D
330
17
100
AcDbEntity
  8
POCKET
100
AcDbLine
 10
9.327603590836466
 20
2.3363318823141124
 30
0.0
 11
9.426958984830705
 21
1.880874023419579
 31
0.0
  0
LINE
  5
3E
330
17
100
AcDbEntity
  8
POCKET
100
AcDbLine
 10
9.426958984830705
 20
1.880874023419579
 30
0.0
 11
9.621492574279538
 21
1.4781871940146947
 31
0.0
  0
LINE
  5
3F
330
17
100
AcDbEntity
  8
POCKET
100
AcDbLine
 10
9.621492574279538
 20
1.4781871940146947
 30
0.0
 11
9.904166716078645
 21
1.12681159852847
 31
0.0
  0
LINE
  5
40
330
17
100
AcDbEntity
  8
POCKET
100
AcDbLine
 10
9.904166716078645
 20
1.12681159852847
 30
0.0
 11
10.31247458735054
 21
0.9353588320230594
 31
0.0
  0
LINE
  5
41
330
17
100
AcDbEntity
  8
POCKET
100
AcDbLine
 10
10.31247458735054
 20
0.9353588320230594
 30
0.0
 11
12.306841223664838
 21
0.5081566317051986
 31
0.0
  0
LINE
  5
42
330
17
100
AcDbEntity
  8
POCKET
100
AcDbLine
 10
12.306841223664838
 20
0.5081566317051985
 30
0.0
 11
12.432614841032425
 21
0.4894826029531475
 31
0.0
  0
LINE
  5
43
330
17
100
AcDbEntity
  8
POCKET
100
AcDbLine
 10
12.432614841032425
 20
0.4894826029531475
 30
0.0
 11
12.559741365206827
 21
0.48691959165866616
 31
0.0
  0
LINE
  5
44
330
17
100
AcDbEntity
  8
POCKET
100
AcDbLine
 10
12.559741365206827
 20
0.48691959165866616
 30
0.0
 11
16.062140664213317
 21
0.639232264535145
 31
0.0
  0
LINE
  5
45
330
17
100
AcDbEntity
  8
POCKET
100
AcDbLine
 10
16.062140664213317
 20
0.639232264535145
 30
0.0
 11
16.349040334627926
 21
0.6944283367673638
 31
0.0
  0
LINE
  5
46
330
17
100
AcDbEntity
  8
POCKET
100
AcDbLine
 10
16.349040334627926
 20
0.6944283367673638
 30
0.0
 11
16.607742262342875
 21
0.8301904075767197
 31
0.0
  0
LINE
  5
47
330
17
100
AcDbEntity
  8
POCKET
100
AcDbLine
 10
16.607742262342875
 20
0.8301904075767197
 30
0.0
 11
17.415839851254077
 21
1.4192390361260983
 31
0.0
  0
LINE
  5
48
330
17
100
AcDbEntity
  8
POCKET
100
AcDbLine
 10
17.415839851254077
 20
1.4192390361260983
 30
0.0
 11
17.75986396050201
 21
1.867648891052063
 31
0.0
  0
LINE
  5
49
330
17
100
AcDbEntity
  8
POCKET
100
AcDbLine
 10
17.75986396050201
 20
1.867648891052063
 30
0.0
 11
17.805842256858732
 21
2.430951635588861
 31
0.0
  0
LINE
  5
4A
330
17
100
AcDbEntity
  8
POCKET
100
AcDbLine
 10
17.805842256858732
 20
2.430951635588861
 30
0.0
 11
17.61811849266351
 21
3.333592089123024
 31
0.0
  0
LINE
  5
4B
330
17
100
AcDbEntity
  8
POCKET
100
AcDbLine
 10
17.61811849266351
 20
3.333592089123024
 30
0.0
 11
17.45205044299639
 21
3.7122645221375583
 31
0.0
  0
LINE
  5
4C
330
17
100
AcDbEntity
  8
POCKET
100
AcDbLine
 10
17.45205044299639
 20
3.7122645221375583
 30
0.0
 11
17.14698554726682
 21
3.991382450689076
 31
0.0
  0
LINE
  5
4D
330
17
100
AcDbEntity
  8
POCKET
100
AcDbLine
 10
17.14698554726682
 20
3.991382450689076
 30
0.0
 11
16.05843698543128
 21
4.633232992772264
 31
0.0
  0
LINE
  5
4E
330
17
100
AcDbEntity
  8
POCKET
100
AcDbLine
 10
16.05843698543128
 20
4.633232992772264
 30
0.0
 11
15.2912033538988
 21
6.629753582294666
 31
0.0
  0
LINE
  5
4F
330
17
100
AcDbEntity
  8
POCKET
100
AcDbLine
 10
15.2912033538988
 20
6.629753582294666
 30
0.0
 11
15.42223207686493
 21
10.129211175901997
 31
0.0
  0
LINE
  5
50
330
17
100
AcDbEntity
  8
POCKET
100
AcDbLine
 10
15.42223207686493
 20
10.129211175901997
 30
0.0
 11
17.081438686825532
 21
11.30169224470668
 31
0.0
  0
LINE
  5
51
330
17
100
AcDbEntity
  8
POCKET
100
AcDbLine
 10
17.081438686825532
 20
11.30169224470668
 30
0.0
 11
19.900469015234037
 21
11.965790650709206
 31
0.0
  0
LINE
  5
52
330
17
100
AcDbEntity
  8
POCKET
100
AcDbLine
 10
19.900469015234037
 20
11.965790650709206
 30
0.0
 11
21.897549210543435
 21
11.604922668874599
 31
0.0
  0
LINE
  5
53
330
17
100
AcDbEntity
  8
POCKET
100
AcDbLine
 10
21.897549210543435
 20
11.604922668874599
 30
0.0
 11
22.780515486137595
 21
11.044837307399026
 31
0.0
  0
LINE
  5
54
330
17
100
AcDbEntity
  8
POCKET
100
AcDbLine
 10
22.780515486137595
 20
11.044837307399026
 30
0.0
 11
24.020970762249387
 21
8.477080224566832
 31
0.0
  0
LINE
  5
55
330
17
100
AcDbEntity
  8
POCKET
100
AcDbLine
 10
24.020970762249387
 20
8.477080224566832
 30
0.0
 11
24.073477993688908
 21
6.09931848938483
 31
0.0
  0
LINE
  5
56
330
17
100
AcDbEntity
  8
POCKET
100
AcDbLine
 10
24.073477993688908
 20
6.09931848938483
 30
0.0
 11
23.426353050578104
 21
4.500109964280915
 31
0.0
  0
LINE
  5
57
330
17
100
AcDbEntity
  8
POCKET
100
AcDbLine
 10
23.426353050578104
 20
4.500109964280915
 30
0.0
 11
23.35555963775419
 21
4.058336249401441
 31
0.0
  0
LINE
  5
58
330
17
100
AcDbEntity
  8
POCKET
100
AcDbLine
 10
23.35555963775419
 20
4.058336249401441
 30
0.0
 11
23.484496606029907
 21
3.6299077481675317
 31
0.0
  0
LINE
  5
59
330
17
100
AcDbEntity
  8
POCKET
100
AcDbLine
 10
23.484496606029907
 20
3.6299077481675317
 30
0.0
 11
23.787353904629164
 21
3.300585445335143
 31
0.0
  0
LINE
  5
5A
330
17
100
AcDbEntity
  8
POCKET
100
AcDbLine
 10
23.787353904629164
 20
3.300585445335143
 30
0.0
 11
25.570843370885964
 21
2.0761813765118484
 31
0.0
  0
LINE
  5
5B
330
17
100
AcDbEntity
  8
POCKET
100
AcDbLine
 10
25.570843370885964
 20
2.0761813765118484
 30
0.0
 11
25.771578265446077
 21
1.9696886704907204
 31
0.0
  0
LINE
  5
5C
330
17
100
AcDbEntity
  8
POCKET
100
AcDbLine
 10
25.771578265446077
 20
1.9696886704907204
 30
0.0
 11
25.991172712659214
 21
1.9112637350357433
 31
0.0
  0
LINE
  5
5D
330
17
100
AcDbEntity
  8
POCKET
100
AcDbLine
 10
25.991172712659214
 20
1.9112637350357433
 30
0.0
 11
27.488309654945652
 21
1.6908528096232054
 31
0.0
  0
LINE
  5
5E
330
17
100
AcDbEntity
  8
POCKET
100
AcDbLine
 10
27.488309654945652
 20
1.6908528096232054
 30
0.0
 11
27.879380379481084
 21
1.710771669760167
 31
0.0
  0
LINE
  5
5F
330
17
100
AcDbEntity
  8
POCKET
100
AcDbLine
 10
27.879380379481084
 20
1.710771669760167
 30
0.0
 11
28.232820241601402
 21
1.8793342291919517
 31
0.0
  0
LINE
  5
60
330
17
100
AcDbEntity
  8
POCKET
100
AcDbLine
 10
28.232820241601402
 20
1.8793342291919517
 30
0.0
 11
30.859818388088165
 21
3.843737634390366
 31
0.0
  0
LINE
  5
61
330
17
100
AcDbEntity
  8
POCKET
100
AcDbLine
 10
30.859818388088165
 20
3.843737634390366
 30
0.0
 11
31.19421582080888
 21
4.285381172582532
 31
0.0
  0
LINE
  5
62
330
17
100
AcDbEntity
  8
POCKET
100
AcDbLine
 10
31.19421582080888
 20
4.285381172582532
 30
0.0
 11
31.242224254231395
 21
4.8372560208565005
 31
0.0
  0
LINE
  5
63
330
17
100
AcDbEntity
  8
POCKET
100
AcDbLine
 10
31.242224254231395
 20
4.8372560208565005
 30
0.0
 11
30.548730497958907
 21
8.369319565157904
 31
0.0
  0
LINE
  5
64
330
17
100
AcDbEntity
  8
POCKET
100
AcDbLine
 10
30.548730497958907
 20
8.369319565157904
 30
0.0
 11
31.268436816053143
 21
10.28617483398411
 31
0.0
  0
LINE
  5
65
330
17
100
AcDbEntity
  8
POCKET
100
AcDbLine
 10
31.268436816053143
 20
10.28617483398411
 30
0.0
 11
33.835276081972616
 21
11.974460802942152
 31
0.0
  0
LINE
  5
66
330
17
100
AcDbEntity
  8
POCKET
100
AcDbLine
 10
33.835276081972616
 20
11.974460802942152
 30
0.0
 11
37.3140779178781
 21
11.678302358149631
 31
0.0
  0
LINE
  5
67
330
17
100
AcDbEntity
  8
POCKET
100
AcDbLine
 10
37.3140779178781
 20
11.678302358149631
 30
0.0
 11
38.85327562735281
 21
10.096595070510627
 31
0.0
  0
LINE
  5
68
330
17
100
AcDbEntity
  8
POCKET
100
AcDbLine
 10
38.85327562735281
 20
10.096595070510627
 30
0.0
 11
39.488729588088475
 21
7.926655410507862
 31
0.0
  0
LINE
  5
69
330
17
100
AcDbEntity
  8
POCKET
100
AcDbLine
 10
39.488729588088475
 20
7.926655410507862
 30
0.0
 11
39.31589577172034
 21
6.612116506079111
 31
0.0
  0
LINE
  5
6A
330
17
100
AcDbEntity
  8
POCKET
100
AcDbLine
 10
39.31589577172034
 20
6.612116506079111
 30
0.0
 11
37.85557413183029
 21
3.7882903278971014
 31
0.0
  0
LINE
  5
6B
330
17
100
AcDbEntity
  8
POCKET
100
AcDbLine
 10
37.85557413183029
 20
3.7882903278971014
 30
0.0
 11
37.7439202220193
 21
3.3425560769985596
 31
0.0
  0
LINE
  5
6C
330
17
100
AcDbEntity
  8
POCKET
100
AcDbLine
 10
37.7439202220193
 20
3.3425560769985596
 30
0.0
 11
37.84339234608471
 21
2.893946096576726
 31
0.0
  0
LINE
  5
6D
330
17
100
AcDbEntity
  8
POCKET
100
AcDbLine
 10
37.84339234608471
 20
2.893946096576726
 30
0.0
 11
38.13298740091695
 21
2.5371824181888103
 31
0.0
  0
LINE
  5
6E
330
17
100
AcDbEntity
  8
POCKET
100
AcDbLine
 10
38.13298740091695
 20
2.5371824181888103
 30
0.0
 11
38.924741409219486
 21
1.9263423488278761
 31
0.0
  0
LINE
  5
6F
330
17
100
AcDbEntity
  8
POCKET
100
AcDbLine
 10
38.924741409219486
 20
1.9263423488278761
 30
0.0
 11
39.25775987899194
 21
1.7574636704066564
 31
0.0
  0
LINE
  5
70
330
17
100
AcDbEntity
  8
POCKET
100
AcDbLine
 10
39.25775987899194
 20
1.7574636704066564
 30
0.0
 11
39.629512599912744
 21
1.7225176588622841
 31
0.0
  0
LINE
  5
71
330
17
100
AcDbEntity
  8
POCKET
100
AcDbLine
 10
39.629512599912744
 20
1.7225176588622841
 30
0.0
 11
43.3346172786724
 21
2.072087851289026
 31
0.0
  0
LINE
  5
72
330
17
100
AcDbEntity
  8
POCKET
100
AcDbLine
 10
43.3346172786724
 20
2.072087851289026
 30
0.0
 11
43.74761806932893
 21
2.2056804495489644
 31
0.0
  0
LINE
  5
73
330
17
100
AcDbEntity
  8
POCKET
100
AcDbLine
 10
43.74761806932893
 20
2.2056804495489644
 30
0.0
 11
44.0651044547553
 21
2.501685568527771
 31
0.0
  0
LINE
  5
74
330
17
100
AcDbEntity
  8
POCKET
100
AcDbLine
 10
44.0651044547553
 20
2.501685568527771
 30
0.0
 11
45.289508523578604
 21
4.285175034784567
 31
0.0
  0
LINE
  5
75
330
17
100
AcDbEntity
  8
POCKET
100
AcDbLine
 10
45.289508523578604
 20
4.285175034784567
 30
0.0
 11
45.44437995638352
 21
4.648692131910286
 31
0.0
  0
LINE
  5
76
330
17
100
AcDbEntity
  8
POCKET
100
AcDbLine
 10
45.44437995638352
 20
4.648692131910286
 30
0.0
 11
45.44635503970623
 21
5.043819882957496
 31
0.0
  0
LINE
  5
77
330
17
100
AcDbEntity
  8
POCKET
100
AcDbLine
 10
45.44635503970623
 20
5.043819882957496
 30
0.0
 11
44.757188305863295
 21
8.553845279055594
 31
0.0
  0
LINE
  5
78
330
17
100
AcDbEntity
  8
POCKET
100
AcDbLine
 10
44.757188305863295
 20
8.553845279055594
 30
0.0
 11
45.68373078630232
 21
10.742298662426583
 31
0.0
  0
LINE
  5
79
330
17
100
AcDbEntity
  8
POCKET
100
AcDbLine
 10
45.68373078630232
 20
10.742298662426583
 30
0.0
 11
47.15995957966678
 21
12.018937570295517
 31
0.0
  0
LINE
  5
7A
330
17
100
AcDbEntity
  8
POCKET
100
AcDbLine
 10
47.15995957966678
 20
12.018937570295517
 30
0.0
 11
48.44361547958628
 21
12.377562152482398
 31
0.0
  0
LINE
  5
7B
330
17
100
AcDbEntity
  8
POCKET
100
AcDbLine
 10
48.44361547958628
 20
12.377562152482398
 30
0.0
 11
51.5282446517522
 21
11.906234310857853
 31
0.0
  0
LINE
  5
7C
330
17
100
AcDbEntity
  8
POCKET
100
AcDbLine
 10
51.5282446517522
 20
11.906234310857853
 30
0.0
 11
52.71778034140516
 21
10.836437864640187
 31
0.0
  0
LINE
  5
7D
330
17
100
AcDbEntity
  8
POCKET
100
AcDbLine
 10
52.71778034140516
 20
10.836437864640187
 30
0.0
 11
53.42411958983345
 21
9.124275804343903
 31
0.0
  0
LINE
  5
7E
330
17
100
AcDbEntity
  8
POCKET
100
AcDbLine
 10
53.42411958983345
 20
9.124275804343903
 30
0.0
 11
53.39089107088404
 21
6.684753811557411
 31
0.0
  0
LINE
  5
7F
330
17
100
AcDbEntity
  8
POCKET
100
AcDbLine
 10
53.39089107088404
 20
6.684753811557411
 30
0.0
 11
52.28618111285276
 21
4.723475779468404
 31
0.0
  0
LINE
  5
80
330
17
100
AcDbEntity
  8
POCKET
100
AcDbLine
 10
52.28618111285276
 20
4.723475779468404
 30
0.0
 11
52.169301749466
 21
4.386062888082877
 31
0.0
  0
LINE
  5
81
330
17
100
AcDbEntity
  8
POCKET
100
AcDbLine
 10
52.169301749466
 20
4.386062888082877
 30
0.0
 11
52.17842242660544
 21
4.029096421720347
 31
0.0
  0
LINE
  5
82
330
17
100
AcDbEntity
  8
POCKET
100
AcDbLine
 10
52.17842242660544
 20
4.029096421720347
 30
0.0
 11
52.366146190800656
 21
3.126455968186157
 31
0.0
  0
LINE
  5
83
330
17
100
AcDbEntity
  8
POCKET
100
AcDbLine
 10
52.366146190800656
 20
3.126455968186157
 30
0.0
 11
52.59354798073859
 21
2.6705079312059663
 31
0.0
  0
LINE
  5
84
330
17
100
AcDbEntity
  8
POCKET
100
AcDbLine
 10
52.59354798073859
 20
2.6705079312059663
 30
0.0
 11
53.016078054652404
 21
2.3857825843689513
 31
0.0
  0
LINE
  5
85
330
17
100
AcDbEntity
  8
POCKET
100
AcDbLine
 10
53.016078054652404
 20
2.3857825843689513
 30
0.0
 11
53.61329847350613
 21
2.1776293444129333
 31
0.0
  0
LINE
  5
86
330
17
100
AcDbEntity
  8
POCKET
100
AcDbLine
 10
53.61329847350613
 20
2.1776293444129333
 30
0.0
 11
53.80340425774138
 21
2.131627236709612
 31
0.0
  0
LINE
  5
87
330
17
100
AcDbEntity
  8
POCKET
100
AcDbLine
 10
53.80340425774138
 20
2.131627236709612
 30
0.0
 11
53.99882819411209
 21
2.1235100816523813
 31
0.0
  0
LINE
  5
88
330
17
100
AcDbEntity
  8
POCKET
100
AcDbLine
 10
53.99882819411209
 20
2.1235100816523813
 30
0.0
 11
59.70374736938891
 21
2.4458409730646773
 31
0.0
  0
LINE
  5
89
330
17
100
AcDbEntity
  8
POCKET
100
AcDbLine
 10
59.70374736938891
 20
2.4458409730646773
 30
0.0
 11
60.112479790025034
 21
2.559013058955858
 31
0.0
  0
LINE
  5
8A
330
17
100
AcDbEntity
  8
POCKET
100
AcDbLine
 10
60.112479790025034
 20
2.559013058955858
 30
0.0
 11
60.43754689205473
 21
2.831412566815257
 31
0.0
  0
LINE
  5
8B
330
17
100
AcDbEntity
  8
POCKET
100
AcDbLine
 10
60.43754689205473
 20
2.831412566815257
 30
0.0
 11
60.62047881919955
 21
3.2140429664636807
 31
0.0
  0
LINE
  5
8C
330
17
100
AcDbEntity
  8
POCKET
100
AcDbLine
 10
60.62047881919955
 20
3.2140429664636807
 30
0.0
 11
60.83271795430777
 21
4.111235559794979
 31
0.0
  0
LINE
  5
8D
330
17
100
AcDbEntity
  8
POCKET
100
AcDbLine
 10
60.83271795430777
 20
4.111235559794979
 30
0.0
 11
60.852325202297486
 21
4.461644927248923
 31
0.0
  0
LINE
  5
8E
330
17
100
AcDbEntity
  8
POCKET
100
AcDbLine
 10
60.852325202297486
 20
4.461644927248923
 30
0.0
 11
60.74965436490096
 21
4.797248664000318
 31
0.0
  0
LINE
  5
8F
330
17
100
AcDbEntity
  8
POCKET
100
AcDbLine
 10
60.74965436490096
 20
4.797248664000318
 30
0.0
 11
59.16199256129851
 21
7.897556753352102
 31
0.0
  0
LINE
  5
90
330
17
100
AcDbEntity
  8
POCKET
100
AcDbLine
 10
59.16199256129851
 20
7.897556753352102
 30
0.0
 11
59.63781806759994
 21
9.9792719111382
 31
0.0
  0
LINE
  5
91
330
17
100
AcDbEntity
  8
POCKET
100
AcDbLine
 10
59.63781806759994
 20
9.9792719111382
 30
0.0
 11
60.084951661016525
 21
10.317370286524604
 31
0.0
  0
LINE
  5
92
330
17
100
AcDbEntity
  8
POCKET
100
AcDbLine
 10
60.084951661016525
 20
10.317370286524604
 30
0.0
 11
62.54463414478643
 21
10.87574778752084
 31
0.0
  0
LINE
  5
93
330
17
100
AcDbEntity
  8
POCKET
100
AcDbLine
 10
62.54463414478643
 20
10.87574778752084
 30
0.0
 11
63.50292081504981
 21
10.62226019659508
 31
0.0
  0
LINE
  5
94
330
17
100
AcDbEntity
  8
POCKET
100
AcDbLine
 10
63.50292081504981
 20
10.62226019659508
 30
0.0
 11
63.837337245002615
 21
10.592110353199459
 31
0.0
  0
LINE
  5
95
330
17
100
AcDbEntity
  8
POCKET
100
AcDbLine
 10
63.837337245002615
 20
10.592110353199459
 30
0.0
 11
64.16288186614577
 21
10.674354266797554
 31
0.0
  0
LINE
  5
96
330
17
100
AcDbEntity
  8
POCKET
100
AcDbLine
 10
64.16288186614577
 20
10.674354266797554
 30
0.0
 11
66.11483188265439
 21
11.537025097313654
 31
0.0
  0
LINE
  5
97
330
17
100
AcDbEntity
  8
POCKET
100
AcDbLine
 10
66.11483188265439
 20
11.537025097313654
 30
0.0
 11
67.18361071409329
 21
10.924062943939349
 31
0.0
  0
LINE
  5
98
330
17
100
AcDbEntity
  8
POCKET
100
AcDbLine
 10
67.18361071409329
 20
10.924062943939349
 30
0.0
 11
67.81439905454704
 21
9.544126315858355
 31
0.0
  0
LINE
  5
99
330
17
100
AcDbEntity
  8
POCKET
100
AcDbLine
 10
67.81439905454704
 20
9.544126315858355
 30
0.0
 11
67.36398037984543
 21
4.413112191105468
 31
0.0
  0
LINE
  5
9A
330
17
100
AcDbEntity
  8
POCKET
100
AcDbLine
 10
67.36398037984543
 20
4.413112191105468
 30
0.0
 11
67.49163789054847
 21
3.8299961454558993
 31
0.0
  0
LINE
  5
9B
330
17
100
AcDbEntity
  8
POCKET
100
AcDbLine
 10
67.49163789054847
 20
3.8299961454558993
 30
0.0
 11
67.9287641308645
 21
3.423497175272626
 31
0.0
  0
LINE
  5
9C
330
17
100
AcDbEntity
  8
POCKET
100
AcDbLine
 10
67.9287641308645
 20
3.423497175272626
 30
0.0
 11
70.51217939572817
 21
2.188197386043564
 31
0.0
  0
LINE
  5
9D
330
17
100
AcDbEntity
  8
POCKET
100
AcDbLine
 10
70.51217939572817
 20
2.188197386043564
 30
0.0
 11
70.75479529536082
 21
2.1083437062827084
 31
0.0
  0
LINE
  5
9E
330
17
100
AcDbEntity
  8
POCKET
100
AcDbLine
 10
70.75479529536082
 20
2.1083437062827084
 30
0.0
 11
71.00972634436658
 21
2.0925562055704647
 31
0.0
  0
LINE
  5
9F
330
17
100
AcDbEntity
  8
POCKET
100
AcDbLine
 10
71.00972634436658
 20
2.0925562055704647
 30
0.0
 11
73.5122183951145
 21
2.2584885289541514
 31
0.0
  0
LINE
  5
A0
330
17
100
AcDbEntity
  8
POCKET
100
AcDbLine
 10
73.5122183951145
 20
2.2584885289541514
 30
0.0
 11
73.91695539204856
 21
2.3741100816921152
 31
0.0
  0
LINE
  5
A1
330
17
100
AcDbEntity
  8
POCKET
100
AcDbLine
 10
73.91695539204856
 20
2.3741100816921152
 30
0.0
 11
74.23825840541649
 21
2.6460379282717534
 31
0.0
  0
LINE
  5
A2
330
17
100
AcDbEntity
  8
POCKET
100
AcDbLine
 10
74.23825840541649
 20
2.6460379282717534
 30
0.0
 11
74.41919884516808
 21
3.026091789464145
 31
0.0
  0
LINE
  5
A3
330
17
100
AcDbEntity
  8
POCKET
100
AcDbLine
 10
74.41919884516808
 20
3.026091789464145
 30
0.0
 11
74.63143798027629
 21
3.923284382795428
 31
0.0
  0
LINE
  5
A4
330
17
100
AcDbEntity
  8
POCKET
100
AcDbLine
 10
74.63143798027629
 20
3.923284382795428
 30
0.0
 11
74.65237557338999
 21
4.262144371463155
 31
0.0
  0
LINE
  5
A5
330
17
100
AcDbEntity
  8
POCKET
100
AcDbLine
 10
74.65237557338999
 20
4.262144371463155
 30
0.0
 11
74.55873110435513
 21
4.588480376440339
 31
0.0
  0
LINE
  5
A6
330
17
100
AcDbEntity
  8
POCKET
100
AcDbLine
 10
74.55873110435513
 20
4.588480376440339
 30
0.0
 11
74.1068348105558
 21
5.523911045691112
 31
0.0
  0
LINE
  5
A7
330
17
100
AcDbEntity
  8
POCKET
100
AcDbLine
 10
74.1068348105558
 20
5.523911045691112
 30
0.0
 11
74.57045444947063
 21
8.862731001461112
 31
0.0
  0
LINE
  5
A8
330
17
100
AcDbEntity
  8
POCKET
100
AcDbLine
 10
74.57045444947063
 20
8.862731001461112
 30
0.0
 11
76.18132137082121
 21
10.351844169061655
 31
0.0
  0
LINE
  5
A9
330
17
100
AcDbEntity
  8
POCKET
100
AcDbLine
 10
76.18132137082121
 20
10.351844169061655
 30
0.0
 11
79.77578861579896
 21
11.61165526465482
 31
0.0
  0
LINE
  5
AA
330
17
100
AcDbEntity
  8
POCKET
100
AcDbLine
 10
79.77578861579896
 20
11.61165526465482
 30
0.0
 11
80.41727388004547
 21
11.38807410111515
 31
0.0
  0
LINE
  5
AB
330
17
100
AcDbEntity
  8
POCKET
100
AcDbLine
 10
80.41727388004547
 20
11.38807410111515
 30
0.0
 11
82.36723031324439
 21
9.384263751097214
 31
0.0
  0
LINE
  5
AC
330
17
100
AcDbEntity
  8
POCKET
100
AcDbLine
 10
82.36723031324439
 20
9.384263751097214
 30
0.0
 11
82.48498724173419
 21
7.858768555341679
 31
0.0
  0
LINE
  5
AD
330
17
100
AcDbEntity
  8
POCKET
100
AcDbLine
 10
82.48498724173419
 20
7.858768555341679
 30
0.0
 11
81.11184659055549
 21
5.551827443892603
 31
0.0
  0
LINE
  5
AE
330
17
100
AcDbEntity
  8
POCKET
100
AcDbLine
 10
81.11184659055549
 20
5.551827443892603
 30
0.0
 11
80.98487975157225
 21
5.205518656178069
 31
0.0
  0
LINE
  5
AF
330
17
100
AcDbEntity
  8
POCKET
100
AcDbLine
 10
80.98487975157225
 20
5.205518656178069
 30
0.0
 11
80.99209475706142
 21
4.836739185022883
 31
0.0
  0
LINE
  5
B0
330
17
100
AcDbEntity
  8
POCKET
100
AcDbLine
 10
80.99209475706142
 20
4.836739185022883
 30
0.0
 11
81.17981852125665
 21
3.9340987314887066
 31
0.0
  0
LINE
  5
B1
330
17
100
AcDbEntity
  8
POCKET
100
AcDbLine
 10
81.17981852125665
 20
3.9340987314887066
 30
0.0
 11
81.40722031119458
 21
3.478150694508537
 31
0.0
  0
LINE
  5
B2
330
17
100
AcDbEntity
  8
POCKET
100
AcDbLine
 10
81.40722031119458
 20
3.478150694508537
 30
0.0
 11
81.82975038510835
 21
3.1934253476715257
 31
0.0
  0
LINE
  5
B3
330
17
100
AcDbEntity
  8
POCKET
100
AcDbLine
 10
81.82975038510835
 20
3.1934253476715257
 30
0.0
 11
82.42697080396206
 21
2.985272107715475
 31
0.0
  0
LINE
  5
B4
330
17
100
AcDbEntity
  8
POCKET
100
AcDbLine
 10
82.42697080396206
 20
2.985272107715475
 30
0.0
 11
82.69587938497884
 21
2.931374805463652
 31
0.0
  0
LINE
  5
B5
330
17
100
AcDbEntity
  8
POCKET
100
AcDbLine
 10
82.69587938497884
 20
2.931374805463652
 30
0.0
 11
82.96931681048409
 21
2.9525577813532395
 31
0.0
  0
LINE
  5
B6
330
17
100
AcDbEntity
  8
POCKET
100
AcDbLine
 10
82.96931681048409
 20
2.9525577813532395
 30
0.0
 11
87.1631443235413
 21
3.8678434333637632
 31
0.0
  0
LINE
  5
B7
330
17
100
AcDbEntity
  8
POCKET
100
AcDbLine
 10
87.1631443235413
 20
3.8678434333637632
 30
0.0
 11
93.60082715230277
 21
3.6854479685310784
 31
0.0
  0
LINE
  5
B8
330
17
100
AcDbEntity
  8
POCKET
100
AcDbLine
 10
93.60082715230277
 20
3.6854479685310784
 30
0.0
 11
95.47611304804379
 21
2.6703699059749364
 31
0.0
  0
LINE
  5
B9
330
17
100
AcDbEntity
  8
POCKET
100
AcDbLine
 10
95.47611304804379
 20
2.6703699059749364
 30
0.0
 11
95.63783337590942
 21
2.6004787167976913
 31
0.0
  0
LINE
  5
BA
330
17
100
AcDbEntity
  8
POCKET
100
AcDbLine
 10
95.63783337590942
 20
2.6004787167976913
 30
0.0
 11
95.80930928249995
 21
2.560052781699878
 31
0.0
  0
LINE
  5
BB
330
17
100
AcDbEntity
  8
POCKET
100
AcDbLine
 10
95.80930928249995
 20
2.560052781699878
 30
0.0
 11
100.40071083418513
 21
1.8974580404115202
 31
0.0
  0
LINE
  5
BC
330
17
100
AcDbEntity
  8
POCKET
100
AcDbLine
 10
100.40071083418513
 20
1.8974580404115202
 30
0.0
 11
100.46515244238527
 21
1.890282220475723
 31
0.0
  0
LINE
  5
BD
330
17
100
AcDbEntity
  8
POCKET
100
AcDbLine
 10
100.46515244238527
 20
1.890282220475723
 30
0.0
 11
100.52992362235429
 21
1.8872976761903402
 31
0.0
  0
LINE
  5
BE
330
17
100
AcDbEntity
  8
POCKET
100
AcDbLine
 10
100.52992362235429
 20
1.8872976761903402
 30
0.0
 11
104.24681631180752
 21
1.836670201000679
 31
0.0
  0
LINE
  5
BF
330
17
100
AcDbEntity
  8
POCKET
100
AcDbLine
 10
104.24681631180752
 20
1.836670201000679
 30
0.0
 11
107.75686704015268
 21
1.202411784413243
 31
0.0
  0
LINE
  5
C0
330
17
100
AcDbEntity
  8
POCKET
100
AcDbLine
 10
107.75686704015268
 20
1.202411784413243
 30
0.0
 11
107.83863899439318
 21
1.1910982774301482
 31
0.0
  0
LINE
  5
C1
330
17
100
AcDbEntity
  8
POCKET
100
AcDbLine
 10
107.83863899439318
 20
1.1910982774301482
 30
0.0
 11
107.9210654691635
 21
1.1865679134818066
 31
0.0
  0
LINE
  5
C2
330
17
100
AcDbEntity
  8
POCKET
100
AcDbLine
 10
107.9210654691635
 20
1.1865679134818066
 30
0.0
 11
115.67047101051031
 21
1.0810139280540403
 31
0.0
  0
LINE
  5
C3
330
17
100
AcDbEntity
  8
POCKET
100
AcDbLine
 10
115.67047101051031
 20
1.0810139280540403
 30
0.0
 11
123.60927737310053
 21
0.1777691922189562
 31
0.0
  0
LINE
  5
C4
330
17
100
AcDbEntity
  8
POCKET
100
AcDbLine
 10
123.60927737310053
 20
0.17776919221895615
 30
0.0
 11
123.68410991774175
 21
0.1720893069287548
 31
0.0
  0
LINE
  5
C5
330
17
100
AcDbEntity
  8
POCKET
100
AcDbLine
 10
123.68410991774175
 20
0.1720893069287548
 30
0.0
 11
123.75915769018184
 21
0.1720374786125346
 31
0.0
  0
LINE
  5
C6
330
17
100
AcDbEntity
  8
POCKET
100
AcDbLine
 10
123.75915769018184
 20
0.1720374786125346
 30
0.0
 11
133.63120839470014
 21
0.5359092292059948
 31
0.0
  0
LINE
  5
C7
330
17
100
AcDbEntity
  8
POCKET
100
AcDbLine
 10
133.63120839470014
 20
0.5359092292059948
 30
0.0
 11
150.99166088435638
 21
2.4755174581357077e-17
 31
0.0
  0
LINE
  5
C8
330
17
100
AcDbEntity
  8
POCKET
100
AcDbLine
 10
150.99166088435638
 20
0.0
 30
0.0
 11
151.0828135621404
 21
0.0013434456632760439
 31
0.0
  0
LINE
  5
C9
330
17
100
AcDbEntity
  8
POCKET
100
AcDbLine
 10
151.0828135621404
 20
0.0013434456632760439
 30
0.0
 11
151.1734651278195
 21
0.010982385095499758
 31
0.0
  0
LINE
  5
CA
330
17
100
AcDbEntity
  8
POCKET
100
AcDbLine
 10
151.1734651278195
 20
0.010982385095499758
 30
0.0
 11
154.78130301185473
 21
0.561895992224675
 31
0.0
  0
LINE
  5
CB
330
17
100
AcDbEntity
  8
POCKET
100
AcDbLine
 10
154.78130301185473
 20
0.561895992224675
 30
0.0
 11
155.13813015794855
 21
0.6889486666709285
 31
0.0
  0
LINE
  5
CC
330
17
100
AcDbEntity
  8
POCKET
100
AcDbLine
 10
155.13813015794855
 20
0.6889486666709285
 30
0.0
 11
155.42210762164927
 21
0.9395974136925751
 31
0.0
  0
LINE
  5
CD
330
17
100
AcDbEntity
  8
POCKET
100
AcDbLine
 10
155.42210762164927
 20
0.9395974136925751
 30
0.0
 11
156.64378776037117
 21
2.5231054302976537
 31
0.0
  0
LINE
  5
CE
330
17
100
AcDbEntity
  8
POCKET
100
AcDbLine
 10
156.64378776037117
 20
2.5231054302976537
 30
0.0
 11
156.7992836101038
 21
2.8134494677762714
 31
0.0
  0
LINE
  5
CF
330
17
100
AcDbEntity
  8
POCKET
100
AcDbLine
 10
156.7992836101038
 20
2.8134494677762714
 30
0.0
 11
156.85202310302563
 21
3.138560472311357
 31
0.0
  0
LINE
  5
D0
330
17
100
AcDbEntity
  8
POCKET
100
AcDbLine
 10
156.85202310302563
 20
3.138560472311357
 30
0.0
 11
156.7001652557578
 21
36.043680730323246
 31
0.0
  0
LINE
  5
D1
330
17
100
AcDbEntity
  8
POCKET
100
AcDbLine
 10
156.7001652557578
 20
36.04368073032324
 30
0.0
 11
156.6666854022793
 21
36.29569660399225
 31
0.0
  0
LINE
  5
D2
330
17
100
AcDbEntity
  8
POCKET
100
AcDbLine
 10
156.6666854022793
 20
36.29569660399225
 30
0.0
 11
156.57073723597034
 21
36.53112568153374
 31
0.0
  0
LINE
  5
D3
330
17
100
AcDbEntity
  8
POCKET
100
AcDbLine
 10
156.57073723597034
 20
36.53112568153374
 30
0.0
 11
156.09863602648753
 21
37.36637569366093
 31
0.0
  0
LINE
  5
D4
330
17
100
AcDbEntity
  8
POCKET
100
AcDbLine
 10
156.09863602648753
 20
37.36637569366093
 30
0.0
 11
156.705304102813
 21
39.34568295740209
 31
0.0
  0
LINE
  5
D5
330
17
100
AcDbEntity
  8
POCKET
100
AcDbLine
 10
156.705304102813
 20
39.34568295740209
 30
0.0
 11
156.74477722220155
 21
39.732749025628834
 31
0.0
  0
LINE
  5
D6
330
17
100
AcDbEntity
  8
POCKET
100
AcDbLine
 10
156.74477722220155
 20
39.732749025628834
 30
0.0
 11
156.6335425918625
 21
40.10558293682805
 31
0.0
  0
LINE
  5
D7
330
17
100
AcDbEntity
  8
POCKET
100
AcDbLine
 10
156.6335425918625
 20
40.10558293682805
 30
0.0
 11
155.59738276670237
 21
42.068335958085115
 31
0.0
  0
LINE
  5
D8
330
17
100
AcDbEntity
  8
POCKET
100
AcDbLine
 10
155.59738276670237
 20
42.068335958085115
 30
0.0
 11
155.6780412937178
 21
43.18082847391952
 31
0.0
  0
LINE
  5
D9
330
17
100
AcDbEntity
  8
POCKET
100
AcDbLine
 10
155.6780412937178
 20
43.18082847391952
 30
0.0
 11
156.4104394228644
 21
44.13014267826071
 31
0.0
  0
LINE
  5
DA
330
17
100
AcDbEntity
  8
POCKET
100
AcDbLine
 10
156.4104394228644
 20
44.13014267826071
 30
0.0
 11
156.56297380893062
 21
44.411863577319295
 31
0.0
  0
LINE
  5
DB
330
17
100
AcDbEntity
  8
POCKET
100
AcDbLine
 10
156.56297380893062
 20
44.411863577319295
 30
0.0
 11
156.61859266282045
 21
44.72736309711442
 31
0.0
  0
LINE
  5
DC
330
17
100
AcDbEntity
  8
POCKET
100
AcDbLine
 10
156.61859266282045
 20
44.72736309711442
 30
0.0
 11
156.70984432121878
 21
51.426741660446936
 31
0.0
  0
LINE
  5
DD
330
17
100
AcDbEntity
  8
POCKET
100
AcDbLine
 10
156.70984432121878
 20
51.426741660446936
 30
0.0
 11
156.67422942541575
 21
51.70520137400303
 31
0.0
  0
LINE
  5
DE
330
17
100
AcDbEntity
  8
POCKET
100
AcDbLine
 10
156.67422942541575
 20
51.70520137400303
 30
0.0
 11
156.5626203533391
 21
51.962789510195265
 31
0.0
  0
LINE
  5
DF
330
17
100
AcDbEntity
  8
POCKET
100
AcDbLine
 10
156.5626203533391
 20
51.962789510195265
 30
0.0
 11
155.53490555908846
 21
53.64017833286693
 31
0.0
  0
LINE
  5
E0
330
17
100
AcDbEntity
  8
POCKET
100
AcDbLine
 10
155.53490555908846
 20
53.64017833286693
 30
0.0
 11
155.47370442690357
 21
70.54836483091249
 31
0.0
  0
LINE
  5
E1
330
17
100
AcDbEntity
  8
POCKET
100
AcDbLine
 10
155.47370442690357
 20
70.54836483091249
 30
0.0
 11
156.31514797940065
 21
72.44014701803972
 31
0.0
  0
LINE
  5
E2
330
17
100
AcDbEntity
  8
POCKET
100
AcDbLine
 10
156.31514797940065
 20
72.44014701803972
 30
0.0
 11
156.40132909267163
 21
72.86230540161637
 31
0.0
  0
LINE
  5
E3
330
17
100
AcDbEntity
  8
POCKET
100
AcDbLine
 10
156.40132909267163
 20
72.86230540161637
 30
0.0
 11
156.3018883690526
 21
73.2815385439069
 31
0.0
  0
LINE
  5
E4
330
17
100
AcDbEntity
  8
POCKET
100
AcDbLine
 10
156.3018883690526
 20
73.2815385439069
 30
0.0
 11
155.43190770922334
 21
75.08240879229324
 31
0.0
  0
LINE
  5
E5
330
17
100
AcDbEntity
  8
POCKET
100
AcDbLine
 10
155.43190770922334
 20
75.08240879229324
 30
0.0
 11
155.49746114317978
 21
79.89511332730174
 31
0.0
  0
LINE
  5
E6
330
17
100
AcDbEntity
  8
POCKET
100
AcDbLine
 10
155.49746114317978
 20
79.89511332730174
 30
0.0
 11
156.4949378383052
 21
81.10772652711478
 31
0.0
  0
LINE
  5
E7
330
17
100
AcDbEntity
  8
POCKET
100
AcDbLine
 10
156.4949378383052
 20
81.10772652711478
 30
0.0
 11
156.66168218115808
 21
81.39917066551135
 31
0.0
  0
LINE
  5
E8
330
17
100
AcDbEntity
  8
POCKET
100
AcDbLine
 10
156.66168218115808
 20
81.39917066551135
 30
0.0
 11
156.72255683228394
 21
81.72937914288508
 31
0.0
  0
LINE
  5
E9
330
17
100
AcDbEntity
  8
POCKET
100
AcDbLine
 10
156.72255683228394
 20
81.72937914288508
 30
0.0
 11
156.73753844784184
 21
82.82927711596952
 31
0.0
  0
LINE
  5
EA
330
17
100
AcDbEntity
  8
POCKET
100
AcDbLine
 10
156.73753844784184
 20
82.82927711596952
 30
0.0
 11
156.6744570166136
 21
83.19269297649834
 31
0.0
  0
LINE
  5
EB
330
17
100
AcDbEntity
  8
POCKET
100
AcDbLine
 10
156.6744570166136
 20
83.19269297649834
 30
0.0
 11
156.48392010073331
 21
83.50851893859858
 31
0.0
  0
LINE
  5
EC
330
17
100
AcDbEntity
  8
POCKET
100
AcDbLine
 10
156.48392010073331
 20
83.50851893859858
 30
0.0
 11
155.62791396078876
 21
84.46826443433608
 31
0.0
  0
LINE
  5
ED
330
17
100
AcDbEntity
  8
POCKET
100
AcDbLine
 10
155.62791396078876
 20
84.46826443433608
 30
0.0
 11
155.59567405748572
 21
84.93125938268706
 31
0.0
  0
LINE
  5
EE
330
17
100
AcDbEntity
  8
POCKET
100
AcDbLine
 10
155.59567405748572
 20
84.93125938268706
 30
0.0
 11
156.56303609084125
 21
86.10726276840772
 31
0.0
  0
LINE
  5
EF
330
17
100
AcDbEntity
  8
POCKET
100
AcDbLine
 10
156.56303609084125
 20
86.10726276840772
 30
0.0
 11
156.72978043369415
 21
86.39870690680428
 31
0.0
  0
LINE
  5
F0
330
17
100
AcDbEntity
  8
POCKET
100
AcDbLine
 10
156.72978043369415
 20
86.39870690680428
 30
0.0
 11
156.79065508482
 21
86.72891538417801
 31
0.0
  0
LINE
  5
F1
330
17
100
AcDbEntity
  8
POCKET
100
AcDbLine
 10
156.79065508482
 20
86.72891538417801
 30
0.0
 11
156.85194351210245
 21
91.22849800134163
 31
0.0
  0
LINE
  5
F2
330
17
100
AcDbEntity
  8
POCKET
100
AcDbLine
 10
156.85194351210245
 20
91.22849800134163
 30
0.0
 11
156.70976844685993
 21
91.75621443477839
 31
0.0
  0
LINE
  5
F3
330
17
100
AcDbEntity
  8
POCKET
100
AcDbLine
 10
156.70976844685993
 20
91.75621443477839
 30
0.0
 11
156.31139016524963
 21
92.13037099029646
 31
0.0
  0
LINE
  5
F4
330
17
100
AcDbEntity
  8
POCKET
100
AcDbLine
 10
156.31139016524963
 20
92.13037099029646
 30
0.0
 11
154.78247478640498
 21
92.92103871288448
 31
0.0
  0
LINE
  5
F5
330
17
100
AcDbEntity
  8
POCKET
100
AcDbLine
 10
154.78247478640498
 20
92.92103871288448
 30
0.0
 11
153.90486664506184
 21
94.4299268318773
 31
0.0
  0
LINE
  5
F6
330
17
100
AcDbEntity
  8
POCKET
100
AcDbLine
 10
153.90486664506184
 20
94.4299268318773
 30
0.0
 11
154.01437772867044
 21
96.70542144677108
 31
0.0
  0
LINE
  5
F7
330
17
100
AcDbEntity
  8
POCKET
100
AcDbLine
 10
154.01437772867044
 20
96.70542144677108
 30
0.0
 11
155.33340805282828
 21
98.33019432970215
 31
0.0
  0
LINE
  5
F8
330
17
100
AcDbEntity
  8
POCKET
100
AcDbLine
 10
155.33340805282828
 20
98.33019432970215
 30
0.0
 11
155.48900129464099
 21
98.59791981081845
 31
0.0
  0
LINE
  5
F9
330
17
100
AcDbEntity
  8
POCKET
100
AcDbLine
 10
155.48900129464099
 20
98.59791981081845
 30
0.0
 11
155.55523207166667
 21
98.90040894171626
 31
0.0
  0
LINE
  5
FA
330
17
100
AcDbEntity
  8
POCKET
100
AcDbLine
 10
155.55523207166667
 20
98.90040894171626
 30
0.0
 11
155.81377801849945
 21
103.19728617912678
 31
0.0
  0
LINE
  5
FB
330
17
100
AcDbEntity
  8
POCKET
100
AcDbLine
 10
155.81377801849945
 20
103.19728617912678
 30
0.0
 11
155.70334856205773
 21
103.7176448195836
 31
0.0
  0
LINE
  5
FC
330
17
100
AcDbEntity
  8
POCKET
100
AcDbLine
 10
155.70334856205773
 20
103.7176448195836
 30
0.0
 11
155.34171016103102
 21
104.10775435093464
 31
0.0
  0
LINE
  5
FD
330
17
100
AcDbEntity
  8
POCKET
100
AcDbLine
 10
155.34171016103102
 20
104.10775435093464
 30
0.0
 11
154.34997470307675
 21
104.72131835039701
 31
0.0
  0
LINE
  5
FE
330
17
100
AcDbEntity
  8
POCKET
100
AcDbLine
 10
154.34997470307675
 20
104.72131835039701
 30
0.0
 11
154.10388219791795
 21
104.83090221090183
 31
0.0
  0
LINE
  5
FF
330
17
100
AcDbEntity
  8
POCKET
100
AcDbLine
 10
154.10388219791795
 20
104.83090221090183
 30
0.0
 11
153.83746756457307
 21
104.87081945928153
 31
0.0
  0
LINE
  5
100
330
17
100
AcDbEntity
  8
POCKET
100
AcDbLine
 10
153.83746756457307
 20
104.87081945928153
 30
0.0
 11
139.738775364127
 21
105.06285653143325
 31
0.0
  0
LINE
  5
101
330
17
100
AcDbEntity
  8
POCKET
100
AcDbLine
 10
139.738775364127
 20
105.06285653143325
 30
0.0
 11
139.7137968316397
 21
105.0628847689937
 31
0.0
  0
LINE
  5
102
330
17
100
AcDbEntity
  8
POCKET
100
AcDbLine
 10
139.7137968316397
 20
105.0628847689937
 30
0.0
 11
139.6888253862756
 21
105.06228911892377
 31
0.0
  0
LINE
  5
103
330
17
100
AcDbEntity
  8
POCKET
100
AcDbLine
 10
139.6888253862756
 20
105.06228911892377
 30
0.0
 11
125.70940438272179
 21
104.55407667409463
 31
0.0
  0
LINE
  5
104
330
17
100
AcDbEntity
  8
POCKET
100
AcDbLine
 10
125.70940438272179
 20
104.55407667409463
 30
0.0
 11
112.74079883457597
 21
104.8305084009881
 31
0.0
  0
LINE
  5
105
330
17
100
AcDbEntity
  8
POCKET
100
AcDbLine
 10
112.74079883457597
 20
104.8305084009881
 30
0.0
 11
112.68038884825602
 21
104.8299708251036
 31
0.0
  0
LINE
  5
106
330
17
100
AcDbEntity
  8
POCKET
100
AcDbLine
 10
112.68038884825602
 20
104.8299708251036
 30
0.0
 11
112.62012156117187
 21
104.82578638457639
 31
0.0
  0
LINE
  5
107
330
17
100
AcDbEntity
  8
POCKET
100
AcDbLine
 10
112.62012156117187
 20
104.82578638457639
 30
0.0
 11
108.29424548698181
 21
104.39380058445128
 31
0.0
  0
LINE
  5
108
330
17
100
AcDbEntity
  8
POCKET
100
AcDbLine
 10
108.29424548698181
 20
104.39380058445128
 30
0.0
 11
102.17967726190192
 21
104.77320285115044
 31
0.0
  0
LINE
  5
109
330
17
100
AcDbEntity
  8
POCKET
100
AcDbLine
 10
102.17967726190192
 20
104.77320285115044
 30
0.0
 11
102.14742498723683
 21
104.77468186877967
 31
0.0
  0
LINE
  5
10A
330
17
100
AcDbEntity
  8
POCKET
100
AcDbLine
 10
102.14742498723683
 20
104.77468186877967
 30
0.0
 11
102.11514177681353
 21
104.77511894884422
 31
0.0
  0
LINE
  5
10B
330
17
100
AcDbEntity
  8
POCKET
100
AcDbLine
 10
102.11514177681353
 20
104.77511894884422
 30
0.0
 11
3.5024956577052007
 21
104.5181648916418
 31
0.0
  0
LINE
  5
10C
330
17
100
AcDbEntity
  8
POCKET
100
AcDbLine
 10
3.5024956577051953
 20
104.5181648916418
 30
0.0
 11
3.3214044825444353
 21
104.50115122866612
 31
0.0
  0
LINE
  5
10D
330
17
100
AcDbEntity
  8
POCKET
100
AcDbLine
 10
3.3214044825444353
 20
104.50115122866612
 30
0.0
 11
3.1463906383946454
 21
104.4516170707055
 31
0.0
  0
LINE
  5
10E
330
17
100
AcDbEntity
  8
POCKET
100
AcDbLine
 10
3.1463906383946454
 20
104.4516170707055
 30
0.0
 11
2.1410355299331583
 21
104.06527382190929
 31
0.0
  0
LINE
  5
10F
330
17
100
AcDbEntity
  8
POCKET
100
AcDbLine
 10
2.1410355299331583
 20
104.06527382190929
 30
0.0
 11
1.889264795722584
 21
103.9238556033596
 31
0.0
  0
LINE
  5
110
330
17
100
AcDbEntity
  8
POCKET
100
AcDbLine
 10
1.889264795722584
 20
103.9238556033596
 30
0.0
 11
1.6884006524988027
 21
103.71639184481445
 31
0.0
  0
LINE
  5
111
330
17
100
AcDbEntity
  8
POCKET
100
AcDbLine
 10
1.6884006524988027
 20
103.71639184481445
 30
0.0
 11
0.26129120392235355
 21
101.73564485900734
 31
0.0
  0
LINE
  5
112
330
17
100
AcDbEntity
  8
POCKET
100
AcDbLine
 10
0.2612912039223535
 20
101.73564485900734
 30
0.0
 11
0.12129031986378837
 21
101.45920125437436
 31
0.0
  0
LINE
  5
113
330
17
100
AcDbEntity
  8
POCKET
100
AcDbLine
 10
0.12129031986378835
 20
101.45920125437436
 30
0.0
 11
0.07263897329688407
 21
101.15317125493496
 31
0.0
  0
LINE
  5
114
330
17
100
AcDbEntity
  8
POCKET
100
AcDbLine
 10
0.07263897329688407
 20
101.15317125493496
 30
0.0
 11
-3.620482891770713e-18
 21
66.45094188015909
 31
0.0
  0
LINE
  5
115
330
17
100
AcDbEntity
  8
POCKET
100
AcDbLine
 10
0.0
 20
66.45094188015909
 30
0.0
 11
0.04885932906066204
 21
66.14008405553002
 31
0.0
  0
LINE
  5
116
330
17
100
AcDbEntity
  8
POCKET
100
AcDbLine
 10
0.04885932906066204
 20
66.14008405553002
 30
0.0
 11
0.19190022033678
 21
65.85980004850802
 31
0.0
  0
LINE
  5
117
330
17
100
AcDbEntity
  8
POCKET
100
AcDbLine
 10
0.19190022033678
 20
65.85980004850802
 30
0.0
 11
0.7809488488861616
 21
65.05170245959681
 31
0.0
  0
LINE
  5
118
330
17
100
AcDbEntity
  8
POCKET
100
AcDbLine
 10
0.7809488488861616
 20
65.05170245959681
 30
0.0
 11
0.9196007053879646
 21
64.89789012446668
 31
0.0
  0
LINE
  5
119
330
17
100
AcDbEntity
  8
POCKET
100
AcDbLine
 10
0.9196007053879646
 20
64.89789012446668
 30
0.0
 11
1.0869601165422653
 21
64.7759335779115
 31
0.0
  0
LINE
  5
11A
330
17
100
AcDbEntity
  8
POCKET
100
AcDbLine
 10
1.0869601165422653
 20
64.7759335779115
 30
0.0
 11
4.262147940056752
 21
62.932517649423005
 31
0.0
  0
LINE
  5
11B
330
17
100
AcDbEntity
  8
POCKET
100
AcDbLine
 10
4.262147940056752
 20
62.932517649423005
 30
0.0
 11
4.687931553447423
 21
62.80025046076168
 31
0.0
  0
LINE
  5
11C
330
17
100
AcDbEntity
  8
POCKET
100
AcDbLine
 10
4.687931553447423
 20
62.80025046076168
 30
0.0
 11
5.128883099404575
 21
62.866190044824556
 31
0.0
  0
LINE
  5
11D
330
17
100
AcDbEntity
  8
POCKET
100
AcDbLine
 10
5.128883099404575
 20
62.866190044824556
 30
0.0
 11
7.449173462566142
 21
63.77484667791682
 31
0.0
  0
LINE
  5
11E
330
17
100
AcDbEntity
  8
POCKET
100
AcDbLine
 10
7.449173462566142
 20
63.77484667791682
 30
0.0
 11
9.548584421852722
 21
62.81676800083267
 31
0.0
  0
LINE
  5
11F
330
17
100
AcDbEntity
  8
POCKET
100
AcDbLine
 10
9.548584421852722
 20
62.81676800083267
 30
0.0
 11
9.78910857723702
 21
62.74188122272733
 31
0.0
  0
LINE
  5
120
330
17
100
AcDbEntity
  8
POCKET
100
AcDbLine
 10
9.78910857723702
 20
62.74188122272733
 30
0.0
 11
10.04071558353633
 21
62.729479076162114
 31
0.0
  0
LINE
  5
121
330
17
100
AcDbEntity
  8
POCKET
100
AcDbLine
 10
10.04071558353633
 20
62.729479076162114
 30
0.0
 11
11.830250495925503
 21
62.86761791481237
 31
0.0
  0
LINE
  5
122
330
17
100
AcDbEntity
  8
POCKET
100
AcDbLine
 10
11.830250495925503
 20
62.86761791481237
 30
0.0
 11
12.473424982390785
 21
62.316624355292724
 31
0.0
  0
LINE
  5
123
330
17
100
AcDbEntity
  8
POCKET
100
AcDbLine
 10
12.473424982390785
 20
62.316624355292724
 30
0.0
 11
12.915943017727523
 21
60.76509246322649
 31
0.0
  0
LINE
  5
124
330
17
100
AcDbEntity
  8
POCKET
100
AcDbLine
 10
12.915943017727523
 20
60.76509246322649
 30
0.0
 11
12.821488937107226
 21
59.34044618351003
 31
0.0
  0
LINE
  5
125
330
17
100
AcDbEntity
  8
POCKET
100
AcDbLine
 10
12.821488937107226
 20
59.34044618351003
 30
0.0
 11
11.127040556607584
 21
57.11690774970297
 31
0.0
  0
LINE
  5
126
330
17
100
AcDbEntity
  8
POCKET
100
AcDbLine
 10
11.127040556607584
 20
57.11690774970297
 30
0.0
 11
9.7350941119502
 21
56.520832949607275
 31
0.0
  0
LINE
  5
127
330
17
100
AcDbEntity
  8
POCKET
100
AcDbLine
 10
9.7350941119502
 20
56.520832949607275
 30
0.0
 11
7.591701719258422
 21
56.4676176223445
 31
0.0
  0
LINE
  5
128
330
17
100
AcDbEntity
  8
POCKET
100
AcDbLine
 10
7.591701719258422
 20
56.4676176223445
 30
0.0
 11
5.542095720656227
 21
57.57274846334818
 31
0.0
  0
LINE
  5
129
330
17
100
AcDbEntity
  8
POCKET
100
AcDbLine
 10
5.542095720656227
 20
57.57274846334818
 30
0.0
 11
4.929305935338831
 21
57.68295133569601
 31
0.0
  0
LINE
  5
12A
330
17
100
AcDbEntity
  8
POCKET
100
AcDbLine
 10
4.929305935338831
 20
57.68295133569601
 30
0.0
 11
4.370086993443895
 21
57.409217579851095
 31
0.0
  0
LINE
  5
12B
330
17
100
AcDbEntity
  8
POCKET
100
AcDbLine
 10
4.370086993443895
 20
57.409217579851095
 30
0.0
 11
3.3565600946780862
 21
56.422929982099745
 31
0.0
  0
LINE
  5
12C
330
17
100
AcDbEntity
  8
POCKET
100
AcDbLine
 10
3.3565600946780862
 20
56.422929982099745
 30
0.0
 11
3.1353889167761846
 21
56.10148909322137
 31
0.0
  0
LINE
  5
12D
330
17
100
AcDbEntity
  8
POCKET
100
AcDbLine
 10
3.1353889167761846
 20
56.10148909322137
 30
0.0
 11
3.054063494989664
 21
55.719877889574676
 31
0.0
  0
LINE
  5
12E
330
17
100
AcDbEntity
  8
POCKET
100
AcDbLine
 10
3.054063494989664
 20
55.719877889574676
 30
0.0
 11
3.0263104288904312
 21
53.68234455203854
 31
0.0
  0
LINE
  5
12F
330
17
100
AcDbEntity
  8
POCKET
100
AcDbLine
 10
3.0263104288904312
 20
53.68234455203854
 30
0.0
 11
2.455259397895514
 21
52.04392020663973
 31
0.0
  0
LINE
  5
130
330
17
100
AcDbEntity
  8
POCKET
100
AcDbLine
 10
2.455259397895514
 20
52.04392020663973
 30
0.0
 11
2.4113974904600424
 21
51.86829038790367
 31
0.0
  0
LINE
  5
131
330
17
100
AcDbEntity
  8
POCKET
100
AcDbLine
 10
2.4113974904600424
 20
51.86829038790367
 30
0.0
 11
2.3999169721209355
 21
51.687630769140085
 31
0.0
  0
LINE
  5
132
330
17
100
AcDbEntity
  8
POCKET
100
AcDbLine
 10
2.3999169721209355
 20
51.687630769140085
 30
0.0
 11
2.53316213428729
 21
46.785361322571575
 31
0.0
  0
LINE
  5
133
330
17
100
AcDbEntity
  8
POCKET
100
AcDbLine
 10
2.53316213428729
 20
46.785361322571575
 30
0.0
 11
2.6445192423838364
 21
46.3532170869643
 31
0.0
  0
LINE
  5
134
330
17
100
AcDbEntity
  8
POCKET
100
AcDbLine
 10
2.6445192423838364
 20
46.3532170869643
 30
0.0
 11
2.932775212725643
 21
46.01254489635502
 31
0.0
  0
LINE
  5
135
330
17
100
AcDbEntity
  8
POCKET
100
AcDbLine
 10
2.932775212725643
 20
46.01254489635502
 30
0.0
 11
3.340524143846402
 21
45.83118929246558
 31
0.0
  0
LINE
  5
136
330
17
100
AcDbEntity
  8
POCKET
100
AcDbLine
 10
3.340524143846402
 20
45.83118929246558
 30
0.0
 11
4.437698186829416
 21
45.61622622725591
 31
0.0
  0
LINE
  5
137
330
17
100
AcDbEntity
  8
POCKET
100
AcDbLine
 10
4.437698186829416
 20
45.61622622725591
 30
0.0
 11
4.739513629015464
 21
45.60358686702992
 31
0.0
  0
LINE
  5
138
330
17
100
AcDbEntity
  8
POCKET
100
AcDbLine
 10
4.739513629015464
 20
45.60358686702992
 30
0.0
 11
5.03133268751462
 21
45.681650633692485
 31
0.0
  0
LINE
  5
139
330
17
100
AcDbEntity
  8
POCKET
100
AcDbLine
 10
5.03133268751462
 20
45.681650633692485
 30
0.0
 11
6.9655430174998765
 21
46.52924371123392
 31
0.0
  0
LINE
  5
13A
330
17
100
AcDbEntity
  8
POCKET
100
AcDbLine
 10
6.9655430174998765
 20
46.52924371123392
 30
0.0
 11
10.482354423510984
 21
45.89376365511949
 31
0.0
  0
LINE
  5
13B
330
17
100
AcDbEntity
  8
POCKET
100
AcDbLine
 10
10.482354423510984
 20
45.89376365511949
 30
0.0
 11
11.768733327961767
 21
44.25969106978178
 31
0.0
  0
LINE
  5
13C
330
17
100
AcDbEntity
  8
POCKET
100
AcDbLine
 10
11.768733327961767
 20
44.25969106978178
 30
0.0
 11
12.225233733584801
 21
41.89112106436797
 31
0.0
  0
LINE
  5
13D
330
17
100
AcDbEntity
  8
POCKET
100
AcDbLine
 10
12.225233733584801
 20
41.89112106436797
 30
0.0
 11
11.71024100570178
 21
40.6872620011585
 31
0.0
  0
LINE
  5
13E
330
17
100
AcDbEntity
  8
POCKET
100
AcDbLine
 10
11.71024100570178
 20
40.6872620011585
 30
0.0
 11
9.669880016889092
 21
38.867444620525745
 31
0.0
  0
LINE
  5
13F
330
17
100
AcDbEntity
  8
POCKET
100
AcDbLine
 10
9.669880016889092
 20
38.867444620525745
 30
0.0
 11
6.58748536464919
 21
38.41059096806078
 31
0.0
  0
LINE
  5
140
330
17
100
AcDbEntity
  8
POCKET
100
AcDbLine
 10
6.58748536464919
 20
38.41059096806078
 30
0.0
 11
4.795695051786041
 21
39.38047350352844
 31
0.0
  0
LINE
  5
141
330
17
100
AcDbEntity
  8
POCKET
100
AcDbLine
 10
4.795695051786041
 20
39.38047350352844
 30
0.0
 11
4.435135125020231
 21
39.494354857472416
 31
0.0
  0
LINE
  5
142
330
17
100
AcDbEntity
  8
POCKET
100
AcDbLine
 10
4.435135125020231
 20
39.494354857472416
 30
0.0
 11
4.058066351740301
 21
39.466220114135275
 31
0.0
  0
LINE
  5
143
330
17
100
AcDbEntity
  8
POCKET
100
AcDbLine
 10
4.058066351740301
 20
39.466220114135275
 30
0.0
 11
3.3554073478578683
 21
39.27577241983862
 31
0.0
  0
LINE
  5
144
330
17
100
AcDbEntity
  8
POCKET
100
AcDbLine
 10
3.3554073478578683
 20
39.27577241983862
 30
0.0
 11
2.849020327039502
 21
38.95106142286334
 31
0.0
  0
LINE
  5
145
330
17
100
AcDbEntity
  8
POCKET
100
AcDbLine
 10
2.849020327039502
 20
38.95106142286334
 30
0.0
 11
2.6205409748907815
 21
38.394588393820904
 31
0.0
  0
LINE
  5
146
330
17
100
AcDbEntity
  8
POCKET
100
AcDbLine
 10
2.6205409748907815
 20
38.394588393820904
 30
0.0
 11
1.9048295966242905
 21
29.90354857392724
 31
0.0
  0
LINE
  5
147
330
17
100
AcDbEntity
  8
POCKET
100
AcDbLine
 10
1.9048295966242905
 20
29.90354857392724
 30
0.0
 11
1.9976296155615694
 21
29.391319061696336
 31
0.0
  0
LINE
  5
148
330
17
100
AcDbEntity
  8
POCKET
100
AcDbLine
 10
1.9976296155615694
 20
29.391319061696336
 30
0.0
 11
2.335315015475177
 21
28.995137932160546
 31
0.0
  0
LINE
  5
149
330
17
100
AcDbEntity
  8
POCKET
100
AcDbLine
 10
2.335315015475177
 20
28.995137932160546
 30
0.0
 11
3.227059748603568
 21
28.382935897748894
 31
0.0
  0
LINE
  5
14A
330
17
100
AcDbEntity
  8
POCKET
100
AcDbLine
 10
3.227059748603568
 20
28.382935897748894
 30
0.0
 11
3.5715695042081306
 21
28.232187288266214
 31
0.0
  0
LINE
  5
14B
330
17
100
AcDbEntity
  8
POCKET
100
AcDbLine
 10
3.5715695042081306
 20
28.232187288266214
 30
0.0
 11
3.9473979742045
 21
28.21933909353445
 31
0.0
  0
LINE
  5
14C
330
17
100
AcDbEntity
  8
POCKET
100
AcDbLine
 10
3.9473979742045
 20
28.21933909353445
 30
0.0
 11
8.410649183597995
 21
28.91663122740595
 31
0.0
  0
LINE
  5
14D
330
17
100
AcDbEntity
  8
POCKET
100
AcDbLine
 10
8.410649183597995
 20
28.91663122740595
 30
0.0
 11
9.969679329812072
 21
28.373251989391154
 31
0.0
  0
LINE
  5
14E
330
17
100
AcDbEntity
  8
POCKET
100
AcDbLine
 10
9.969679329812072
 20
28.373251989391154
 30
0.0
 11
11.393397630453315
 21
26.42009690121071
 31
0.0
  0
LINE
  5
14F
330
17
100
AcDbEntity
  8
POCKET
100
AcDbLine
 10
11.393397630453315
 20
26.42009690121071
 30
0.0
 11
11.599642272591183
 21
24.390210191114775
 31
0.0
  0
LINE
  5
150
330
17
100
AcDbEntity
  8
POCKET
100
AcDbLine
 10
11.599642272591183
 20
24.390210191114775
 30
0.0
 11
10.532402494304328
 21
22.404379754993712
 31
0.0
  0
LINE
  5
151
330
17
100
AcDbEntity
  8
POCKET
100
AcDbLine
 10
10.532402494304328
 20
22.404379754993712
 30
0.0
 11
8.524850716976289
 21
21.105154351504655
 31
0.0
  0
LINE
  5
152
330
17
100
AcDbEntity
  8
POCKET
100
AcDbLine
 10
8.524850716976289
 20
21.105154351504655
 30
0.0
 11
6.479843916643775
 21
20.877770509920637
 31
0.0
  0
LINE
  5
153
330
17
100
AcDbEntity
  8
POCKET
100
AcDbLine
 10
6.479843916643775
 20
20.877770509920637
 30
0.0
 11
5.204627622261446
 21
21.054843645271387
 31
0.0
  0
LINE
  5
154
330
17
100
AcDbEntity
  8
POCKET
100
AcDbLine
 10
5.204627622261446
 20
21.054843645271387
 30
0.0
 11
3.9879342695287163
 21
21.7722533368369
 31
0.0
  0
LINE
  5
155
330
17
100
AcDbEntity
  8
POCKET
100
AcDbLine
 10
3.9879342695287163
 20
21.7722533368369
 30
0.0
 11
3.6136584342587934
 21
21.9018776050847
 31
0.0
  0
LINE
  5
156
330
17
100
AcDbEntity
  8
POCKET
100
AcDbLine
 10
3.6136584342587934
 20
21.9018776050847
 30
0.0
 11
3.2184161538581786
 21
21.876024335088463
 31
0.0
  0
LINE
  5
157
330
17
100
AcDbEntity
  8
POCKET
100
AcDbLine
 10
3.2184161538581786
 20
21.876024335088463
 30
0.0
 11
2.51575714997572
 21
21.68557664079178
 31
0.0
  0
LINE
  5
158
330
17
100
AcDbEntity
  8
POCKET
100
AcDbLine
 10
2.51575714997572
 20
21.68557664079178
 30
0.0
 11
2.0006406727291743
 21
21.350250627385172
 31
0.0
  0
LINE
  5
159
330
17
100
AcDbEntity
  8
POCKET
100
AcDbLine
 10
2.0006406727291743
 20
21.350250627385172
 30
0.0
 11
1.7789587743578907
 21
20.776974379549486
 31
0.0
  0
ENDSEC
  0
SECTION
  2
OBJECTS
  0
DICTIONARY
  5
A
330
0
100
AcDbDictionary
281
1
  3
ACAD_COLOR
350
B
  3
ACAD_GROUP
350
C
  3
ACAD_LAYOUT
350
D
  3
ACAD_MATERIAL
350
E
  3
ACAD_MLEADERSTYLE
350
F
  3
ACAD_MLINESTYLE
350
10
  3
ACAD_PLOTSETTINGS
350
11
  3
ACAD_PLOTSTYLENAME
350
12
  3
ACAD_SCALELIST
350
14
  3
ACAD_TABLESTYLE
350
15
  3
ACAD_VISUALSTYLE
350
16
  3
EZDXF_META
350
2D
  0
DICTIONARY
  5
B
330
A
100
AcDbDictionary
281
1
  0
DICTIONARY
  5
C
330
A
100
AcDbDictionary
281
1
  0
DICTIONARY
  5
D
330
A
100
AcDbDictionary
281
1
  3
Model
350
1A
  3
Layout1
350
1E
  0
DICTIONARY
  5
E
330
A
100
AcDbDictionary
281
1
  3
ByBlock
350
1F
  3
ByLayer
350
20
  3
Global
350
21
  0
DICTIONARY
  5
F
330
A
100
AcDbDictionary
281
1
  3
Standard
350
2C
  0
DICTIONARY
  5
10
330
A
100
AcDbDictionary
281
1
  3
Standard
350
22
  0
DICTIONARY
  5
11
330
A
100
AcDbDictionary
281
1
  0
ACDBDICTIONARYWDFLT
  5
12
330
A
100
AcDbDictionary
281
1
  3
Normal
350
13
100
AcDbDictionaryWithDefault
340
13
  0
ACDBPLACEHOLDER
  5
13
330
12
  0
DICTIONARY
  5
14
330
A
100
AcDbDictionary
281
1
  0
DICTIONARY
  5
15
330
A
100
AcDbDictionary
281
1
  0
DICTIONARY
  5
16
330
A
100
AcDbDictionary
281
1
  0
LAYOUT
  5
1A
330
D
100
AcDbPlotSettings
  1

  4
A3
  6

 40
7.5
 41
20.0
 42
7.5
 43
20.0
 44
420.0
 45
297.0
 46
0.0
 47
0.0
 48
0.0
 49
0.0
140
0.0
141
0.0
142
1.0
143
1.0
 70
1024
 72
1
 73
0
 74
5
  7

 75
16
 76
0
 77
2
 78
300
147
1.0
148
0.0
149
0.0
100
AcDbLayout
  1
Model
 70
1
 71
0
 10
0.0
 20
0.0
 11
420.0
 21
297.0
 12
0.0
 22
0.0
 32
0.0
 14
1e+20
 24
1e+20
 34
1e+20
 15
-1e+20
 25
-1e+20
 35
-1e+20
146
0.0
 13
0.0
 23
0.0
 33
0.0
 16
1.0
 26
0.0
 36
0.0
 17
0.0
 27
1.0
 37
0.0
 76
1
330
17
  0
LAYOUT
  5
1E
330
D
100
AcDbPlotSettings
  1

  4
A3
  6

 40
7.5
 41
20.0
 42
7.5
 43
20.0
 44
420.0
 45
297.0
 46
0.0
 47
0.0
 48
0.0
 49
0.0
140
0.0
141
0.0
142
1.0
143
1.0
 70
0
 72
1
 73
0
 74
5
  7

 75
16
 76
0
 77
2
 78
300
147
1.0
148
0.0
149
0.0
100
AcDbLayout
  1
Layout1
 70
1
 71
1
 10
0.0
 20
0.0
 11
420.0
 21
297.0
 12
0.0
 22
0.0
 32
0.0
 14
1e+20
 24
1e+20
 34
1e+20
 15
-1e+20
 25
-1e+20
 35
-1e+20
146
0.0
 13
0.0
 23
0.0
 33
0.0
 16
1.0
 26
0.0
 36
0.0
 17
0.0
 27
1.0
 37
0.0
 76
1
330
1B
  0
MATERIAL
  5
1F
102
{ACAD_REACTORS
330
E
102
}
330
E
100
AcDbMaterial
  1
ByBlock
  2

 70
0
 40
1.0
 71
1
 41
1.0
 91
-1023410177
 42
1.0
 72
1
  3

 73
1
 74
1
 75
1
 44
0.5
 73
0
 45
1.0
 46
1.0
 77
1
  4

 78
1
 79
1
170
1
 48
1.0
171
1
  6

172
1
173
1
174
1
140
1.0
141
1.0
175
1
  7

176
1
177
1
178
1
143
1.0
179
1
  8

270
1
271
1
272
1
145
1.0
146
1.0
273
1
  9

274
1
275
1
276
1
 42
1.0
 72
1
  3

 73
1
 74
1
 75
1
 94
63
  0
MATERIAL
  5
20
102
{ACAD_REACTORS
330
E
102
}
330
E
100
AcDbMaterial
  1
ByLayer
  2

 70
0
 40
1.0
 71
1
 41
1.0
 91
-1023410177
 42
1.0
 72
1
  3

 73
1
 74
1
 75
1
 44
0.5
 73
0
 45
1.0
 46
1.0
 77
1
  4

 78
1
 79
1
170
1
 48
1.0
171
1
  6

172
1
173
1
174
1
140
1.0
141
1.0
175
1
  7

176
1
177
1
178
1
143
1.0
179
1
  8

270
1
271
1
272
1
145
1.0
146
1.0
273
1
  9

274
1
275
1
276
1
 42
1.0
 72
1
  3

 73
1
 74
1
 75
1
 94
63
  0
MATERIAL
  5
21
102
{ACAD_REACTORS
330
E
102
}
330
E
100
AcDbMaterial
  1
Global
  2

 70
0
 40
1.0
 71
1
 41
1.0
 91
-1023410177
 42
1.0
 72
1
  3

 73
1
 74
1
 75
1
 44
0.5
 73
0
 45
1.0
 46
1.0
 77
1
  4

 78
1
 79
1
170
1
 48
1.0
171
1
  6

172
1
173
1
174
1
140
1.0
141
1.0
175
1
  7

176
1
177
1
178
1
143
1.0
179
1
  8

270
1
271
1
272
1
145
1.0
146
1.0
273
1
  9

274
1
275
1
276
1
 42
1.0
 72
1
  3

 73
1
 74
1
 75
1
 94
63
  0
MLINESTYLE
  5
22
102
{ACAD_REACTORS
330
10
102
}
330
10
100
AcDbMlineStyle
  2
Standard
 70
0
  3

 62
256
 51
90.0
 52
90.0
 71
2
 49
0.5
 62
256
  6
BYLAYER
 49
-0.5
 62
256
  6
BYLAYER
  0
MLEADERSTYLE
  5
2C
102
{ACAD_REACTORS
330
F
102
}
330
F
100
AcDbMLeaderStyle
179
2
170
2
171
1
172
0
 90
2
 40
0.0
 41
0.0
173
1
 91
-1056964608
 92
-2
290
1
 42
2.0
291
1
 43
8.0
  3
Standard
 44
4.0
300

342
29
174
1
175
1
176
0
178
1
 93
-1056964608
 45
4.0
292
0
297
0
 46
4.0
 94
-1056964608
 47
1.0
 49
1.0
140
1.0
294
1
141
0.0
177
0
142
1.0
295
0
296
0
143
3.75
271
0
272
9
273
9
  0
DICTIONARY
  5
2D
330
A
100
AcDbDictionary
280
1
281
1
  3
CREATED_BY_EZDXF
350
2E
  3
WRITTEN_BY_EZDXF
350
15D
  0
DICTIONARYVAR
  5
2E
330
2D
100
DictionaryVariables
280
0
  1
1.4.4 @ 2026-09-16T19:48:59.426897+00:00
  0
DICTIONARYVAR
  5
15D
330
2D
100
DictionaryVariables
280
0
  1
1.4.4 @ 2026-09-16T19:48:59.435876+00:00
  0
ENDSEC
  0
EOF
