  0
SECTION
  2
HEADER
  9
$ACADVER
  1
AC1027
  9
$ACADMAINTVER
 70
105
  9
$DWGCODEPAGE
  3
ANSI_1252
  9
$LASTSAVEDBY
  1
ezdxf
  9
$REQUIREDVERSIONS
160
0
  9
$INSBASE
 10
0.0
 20
0.0
 30
0.0
  9
$EXTMIN
 10
1e+20
 20
1e+20
 30
1e+20
  9
$EXTMAX
 10
-1e+20
 20
-1e+20
 30
-1e+20
  9
$LIMMIN
 10
0.0
 20
0.0
  9
$LIMMAX
 10
420.0
 20
297.0
  9
$ORTHOMODE
 70
0
  9
$REGENMODE
 70
1
  9
$FILLMODE
 70
1
  9
$QTEXTMODE
 70
0
  9
$MIRRTEXT
 70
1
  9
$LTSCALE
 40
1.0
  9
$ATTMODE
 70
1
  9
$TEXTSIZE
 40
2.5
  9
$TRACEWID
 40
1.0
  9
$TEXTSTYLE
  7
Standard
  9
$CLAYER
  8
0
  9
$CELTYPE
  6
ByLayer
  9
$CECOLOR
 62
256
  9
$CELTSCALE
 40
1.0
  9
$DISPSILH
 70
0
  9
$DIMSCALE
 40
1.0
  9
$DIMASZ
 40
2.5
  9
$DIMEXO
 40
0.625
  9
$DIMDLI
 40
3.75
  9
$DIMRND
 40
0.0
  9
$DIMDLE
 40
0.0
  9
$DIMEXE
 40
1.25
  9
$DIMTP
 40
0.0
  9
$DIMTM
 40
0.0
  9
$DIMTXT
 40
2.5
  9
$DIMCEN
 40
2.5
  9
$DIMTSZ
 40
0.0
  9
$DIMTOL
 70
0
  9
$DIMLIM
 70
0
  9
$DIMTIH
 70
0
  9
$DIMTOH
 70
0
  9
$DIMSE1
 70
0
  9
$DIMSE2
 70
0
  9
$DIMTAD
 70
1
  9
$DIMZIN
 70
8
  9
$DIMBLK
  1

  9
$DIMASO
 70
1
  9
$DIMSHO
 70
1
  9
$DIMPOST
  1

  9
$DIMAPOST
  1

  9
$DIMALT
 70
0
  9
$DIMALTD
 70
3
  9
$DIMALTF
 40
0.03937007874
  9
$DIMLFAC
 40
1.0
  9
$DIMTOFL
 70
1
  9
$DIMTVP
 40
0.0
  9
$DIMTIX
 70
0
  9
$DIMSOXD
 70
0
  9
$DIMSAH
 70
0
  9
$DIMBLK1
  1

  9
$DIMBLK2
  1

  9
$DIMSTYLE
  2
ISO-25
  9
$DIMCLRD
 70
0
  9
$DIMCLRE
 70
0
  9
$DIMCLRT
 70
0
  9
$DIMTFAC
 40
1.0
  9
$DIMGAP
 40
0.625
  9
$DIMJUST
 70
0
  9
$DIMSD1
 70
0
  9
$DIMSD2
 70
0
  9
$DIMTOLJ
 70
0
  9
$DIMTZIN
 70
8
  9
$DIMALTZ
 70
0
  9
$DIMALTTZ
 70
0
  9
$DIMUPT
 70
0
  9
$DIMDEC
 70
2
  9
$DIMTDEC
 70
2
  9
$DIMALTU
 70
2
  9
$DIMALTTD
 70
3
  9
$DIMTXSTY
  7
Standard
  9
$DIMAUNIT
 70
0
  9
$DIMADEC
 70
0
  9
$DIMALTRND
 40
0.0
  9
$DIMAZIN
 70
0
  9
$DIMDSEP
 70
44
  9
$DIMATFIT
 70
3
  9
$DIMFRAC
 70
0
  9
$DIMLDRBLK
  1

  9
$DIMLUNIT
 70
2
  9
$DIMLWD
 70
-2
  9
$DIMLWE
 70
-2
  9
$DIMTMOVE
 70
0
  9
$DIMFXL
 40
1.0
  9
$DIMFXLON
 70
0
  9
$DIMJOGANG
 40
0.785398163397
  9
$DIMTFILL
 70
0
  9
$DIMTFILLCLR
 70
0
  9
$DIMARCSYM
 70
0
  9
$DIMLTYPE
  6

  9
$DIMLTEX1
  6

  9
$DIMLTEX2
  6

  9
$DIMTXTDIRECTION
 70
0
  9
$LUNITS
 70
2
  9
$LUPREC
 70
4
  9
$SKETCHINC
 40
1.0
  9
$FILLETRAD
 40
10.0
  9
$AUNITS
 70
0
  9
$AUPREC
 70
2
  9
$MENU
  1
.
  9
$ELEVATION
 40
0.0
  9
$PELEVATION
 40
0.0
  9
$THICKNESS
 40
0.0
  9
$LIMCHECK
 70
0
  9
$CHAMFERA
 40
0.0
  9
$CHAMFERB
 40
0.0
  9
$CHAMFERC
 40
0.0
  9
$CHAMFERD
 40
0.0
  9
$SKPOLY
 70
0
  9
$TDCREATE
 40
2461302.500983796
  9
$TDUCREATE
 40
2458532.153996898
  9
$TDUPDATE
 40
2461302.500983796
  9
$TDUUPDATE
 40
2458532.1544311
  9
$TDINDWG
 40
0.0
  9
$TDUSRTIMER
 40
0.0
  9
$USRTIMER
 70
1
  9
$ANGBASE
 50
0.0
  9
$ANGDIR
 70
0
  9
$PDMODE
 70
0
  9
$PDSIZE
 40
0.0
  9
$PLINEWID
 40
0.0
  9
$SPLFRAME
 70
0
  9
$SPLINETYPE
 70
6
  9
$SPLINESEGS
 70
8
  9
$HANDSEED
  5
106
  9
$SURFTAB1
 70
6
  9
$SURFTAB2
 70
6
  9
$SURFTYPE
 70
6
  9
$SURFU
 70
6
  9
$SURFV
 70
6
  9
$UCSBASE
  2

  9
$UCSNAME
  2

  9
$UCSORG
 10
0.0
 20
0.0
 30
0.0
  9
$UCSXDIR
 10
1.0
 20
0.0
 30
0.0
  9
$UCSYDIR
 10
0.0
 20
1.0
 30
0.0
  9
$UCSORTHOREF
  2

  9
$UCSORTHOVIEW
 70
0
  9
$UCSORGTOP
 10
0.0
 20
0.0
 30
0.0
  9
$UCSORGBOTTOM
 10
0.0
 20
0.0
 30
0.0
  9
$UCSORGLEFT
 10
0.0
 20
0.0
 30
0.0
  9
$UCSORGRIGHT
 10
0.0
 20
0.0
 30
0.0
  9
$UCSORGFRONT
 10
0.0
 20
0.0
 30
0.0
  9
$UCSORGBACK
 10
0.0
 20
0.0
 30
0.0
  9
$PUCSBASE
  2

  9
$PUCSNAME
  2

  9
$PUCSORG
 10
0.0
 20
0.0
 30
0.0
  9
$PUCSXDIR
 10
1.0
 20
0.0
 30
0.0
  9
$PUCSYDIR
 10
0.0
 20
1.0
 30
0.0
  9
$PUCSORTHOREF
  2

  9
$PUCSORTHOVIEW
 70
0
  9
$PUCSORGTOP
 10
0.0
 20
0.0
 30
0.0
  9
$PUCSORGBOTTOM
 10
0.0
 20
0.0
 30
0.0
  9
$PUCSORGLEFT
 10
0.0
 20
0.0
 30
0.0
  9
$PUCSORGRIGHT
 10
0.0
 20
0.0
 30
0.0
  9
$PUCSORGFRONT
 10
0.0
 20
0.0
 30
0.0
  9
$PUCSORGBACK
 10
0.0
 20
0.0
 30
0.0
  9
$USERI1
 70
0
  9
$USERI2
 70
0
  9
$USERI3
 70
0
  9
$USERI4
 70
0
  9
$USERI5
 70
0
  9
$USERR1
 40
0.0
  9
$USERR2
 40
0.0
  9
$USERR3
 40
0.0
  9
$USERR4
 40
0.0
  9
$USERR5
 40
0.0
  9
$WORLDVIEW
 70
1
  9
$SHADEDGE
 70
3
  9
$SHADEDIF
 70
70
  9
$TILEMODE
 70
1
  9
$MAXACTVP
 70
64
  9
$PINSBASE
 10
0.0
 20
0.0
 30
0.0
  9
$PLIMCHECK
 70
0
  9
$PEXTMIN
 10
1e+20
 20
1e+20
 30
1e+20
  9
$PEXTMAX
 10
-1e+20
 20
-1e+20
 30
-1e+20
  9
$PLIMMIN
 10
0.0
 20
0.0
  9
$PLIMMAX
 10
420.0
 20
297.0
  9
$UNITMODE
 70
0
  9
$VISRETAIN
 70
1
  9
$PLINEGEN
 70
0
  9
$PSLTSCALE
 70
1
  9
$TREEDEPTH
 70
3020
  9
$CMLSTYLE
  2
Standard
  9
$CMLJUST
 70
0
  9
$CMLSCALE
 40
20.0
  9
$PROXYGRAPHICS
 70
1
  9
$MEASUREMENT
 70
1
  9
$CELWEIGHT
370
-1
  9
$ENDCAPS
280
0
  9
$JOINSTYLE
280
0
  9
$LWDISPLAY
290
0
  9
$INSUNITS
 70
4
  9
$HYPERLINKBASE
  1

  9
$STYLESHEET
  1

  9
$XEDIT
290
1
  9
$CEPSNTYPE
380
0
  9
$PSTYLEMODE
290
1
  9
$FINGERPRINTGUID
  2
{53AA9206-C60A-422B-A7B4-90CC30C48A00}
  9
$VERSIONGUID
  2
{B3DB8198-B57D-4EB1-8C18-4F885E8EF4B3}
  9
$EXTNAMES
290
1
  9
$PSVPSCALE
 40
0.0
  9
$OLESTARTUP
290
0
  9
$SORTENTS
280
127
  9
$INDEXCTL
280
0
  9
$HIDETEXT
280
1
  9
$XCLIPFRAME
280
1
  9
$HALOGAP
280
0
  9
$OBSCOLOR
 70
257
  9
$OBSLTYPE
280
0
  9
$INTERSECTIONDISPLAY
280
0
  9
$INTERSECTIONCOLOR
 70
257
  9
$DIMASSOC
280
2
  9
$PROJECTNAME
  1

  9
$CAMERADISPLAY
290
0
  9
$LENSLENGTH
 40
50.0
  9
$CAMERAHEIGHT
 40
0.0
  9
$STEPSPERSEC
 40
24.0
  9
$STEPSIZE
 40
100.0
  9
$3DDWFPREC
 40
2.0
  9
$PSOLWIDTH
 40
0.005
  9
$PSOLHEIGHT
 40
0.08
  9
$LOFTANG1
 40
1.570796326795
  9
$LOFTANG2
 40
1.570796326795
  9
$LOFTMAG1
 40
0.0
  9
$LOFTMAG2
 40
0.0
  9
$LOFTPARAM
 70
7
  9
$LOFTNORMALS
280
1
  9
$LATITUDE
 40
37.795
  9
$LONGITUDE
 40
-122.394
  9
$NORTHDIRECTION
 40
0.0
  9
$TIMEZONE
 70
-8000
  9
$LIGHTGLYPHDISPLAY
280
1
  9
$TILEMODELIGHTSYNCH
280
1
  9
$CMATERIAL
347
20
  9
$SOLIDHIST
280
0
  9
$SHOWHIST
280
1
  9
$DWFFRAME
280
2
  9
$DGNFRAME
280
2
  9
$REALWORLDSCALE
290
1
  9
$INTERFERECOLOR
 62
256
  9
$CSHADOW
280
0
  9
$SHADOWPLANELOCATION
 40
0.0
  0
ENDSEC
  0
SECTION
  2
CLASSES
  0
CLASS
  1
ACDBDICTIONARYWDFLT
  2
AcDbDictionaryWithDefault
  3
ObjectDBX Classes
 90
0
 91
0
280
0
281
0
  0
CLASS
  1
SUN
  2
AcDbSun
  3
SCENEOE
 90
1153
 91
0
280
0
281
0
  0
CLASS
  1
VISUALSTYLE
  2
AcDbVisualStyle
  3
ObjectDBX Classes
 90
4095
 91
0
280
0
281
0
  0
CLASS
  1
MATERIAL
  2
AcDbMaterial
  3
ObjectDBX Classes
 90
1153
 91
0
280
0
281
0
  0
CLASS
  1
SCALE
  2
AcDbScale
  3
ObjectDBX Classes
 90
1153
 91
0
280
0
281
0
  0
CLASS
  1
TABLESTYLE
  2
AcDbTableStyle
  3
ObjectDBX Classes
 90
4095
 91
0
280
0
281
0
  0
CLASS
  1
MLEADERSTYLE
  2
AcDbMLeaderStyle
  3
ACDB_MLEADERSTYLE_CLASS
 90
4095
 91
0
280
0
281
0
  0
CLASS
  1
DICTIONARYVAR
  2
AcDbDictionaryVar
  3
ObjectDBX Classes
 90
0
 91
0
280
0
281
0
  0
CLASS
  1
CELLSTYLEMAP
  2
AcDbCellStyleMap
  3
ObjectDBX Classes
 90
1152
 91
0
280
0
281
0
  0
CLASS
  1
MENTALRAYRENDERSETTINGS
  2
AcDbMentalRayRenderSettings
  3
SCENEOE
 90
1024
 91
0
280
0
281
0
  0
CLASS
  1
ACDBDETAILVIEWSTYLE
  2
AcDbDetailViewStyle
  3
ObjectDBX Classes
 90
1025
 91
0
280
0
281
0
  0
CLASS
  1
ACDBSECTIONVIEWSTYLE
  2
AcDbSectionViewStyle
  3
ObjectDBX Classes
 90
1025
 91
0
280
0
281
0
  0
CLASS
  1
RASTERVARIABLES
  2
AcDbRasterVariables
  3
ISM
 90
0
 91
0
280
0
281
0
  0
CLASS
  1
ACDBPLACEHOLDER
  2
AcDbPlaceHolder
  3
ObjectDBX Classes
 90
0
 91
0
280
0
281
0
  0
CLASS
  1
LAYOUT
  2
AcDbLayout
  3
ObjectDBX Classes
 90
0
 91
0
280
0
281
0
  0
ENDSEC
  0
SECTION
  2
TABLES
  0
TABLE
  2
VPORT
  5
8
330
0
100
AcDbSymbolTable
 70
1
  0
VPORT
  5
102
330
8
100
AcDbSymbolTableRecord
100
AcDbViewportTableRecord
  2
*Active
 70
0
 10
0.0
 20
0.0
 11
1.0
 21
1.0
 12
119.6
 22
36.875
 13
0.0
 23
0.0
 14
0.5
 24
0.5
 15
0.5
 25
0.5
 16
0.0
 26
0.0
 36
1.0
 17
0.0
 27
0.0
 37
0.0
 40
119.6
 41
1.34
 42
50.0
 43
0.0
 44
0.0
 50
0.0
 51
0.0
 71
0
 72
1000
 73
1
 74
3
 75
0
 76
0
 77
0
 78
0
281
0
 65
1
110
0.0
120
0.0
130
0.0
111
1.0
121
0.0
131
0.0
112
0.0
122
1.0
132
0.0
 79
0
146
0.0
  0
ENDTAB
  0
TABLE
  2
LTYPE
  5
2
330
0
100
AcDbSymbolTable
 70
3
  0
LTYPE
  5
24
330
2
100
AcDbSymbolTableRecord
100
AcDbLinetypeTableRecord
  2
ByBlock
 70
0
  3

 72
65
 73
0
 40
0.0
  0
LTYPE
  5
25
330
2
100
AcDbSymbolTableRecord
100
AcDbLinetypeTableRecord
  2
ByLayer
 70
0
  3

 72
65
 73
0
 40
0.0
  0
LTYPE
  5
26
330
2
100
AcDbSymbolTableRecord
100
AcDbLinetypeTableRecord
  2
Continuous
 70
0
  3

 72
65
 73
0
 40
0.0
  0
ENDTAB
  0
TABLE
  2
LAYER
  5
1
330
0
100
AcDbSymbolTable
 70
3
  0
LAYER
  5
27
330
1
100
AcDbSymbolTableRecord
100
AcDbLayerTableRecord
  2
0
 70
0
 62
7
  6
Continuous
370
-3
390
13
347
21
  0
LAYER
  5
28
330
1
100
AcDbSymbolTableRecord
100
AcDbLayerTableRecord
  2
Defpoints
 70
0
 62
7
  6
Continuous
290
0
370
-3
390
13
347
21
  0
LAYER
  5
2F
330
1
100
AcDbSymbolTableRecord
100
AcDbLayerTableRecord
  2
POCKET
 70
0
 62
7
  6
Continuous
370
-3
390
13
347
21
  0
ENDTAB
  0
TABLE
  2
STYLE
  5
5
330
0
100
AcDbSymbolTable
 70
1
  0
STYLE
  5
29
330
5
100
AcDbSymbolTableRecord
100
AcDbTextStyleTableRecord
  2
Standard
 70
0
 40
0.0
 41
1.0
 50
0.0
 71
0
 42
2.5
  3
txt
  4

  0
ENDTAB
  0
TABLE
  2
VIEW
  5
7
330
0
100
AcDbSymbolTable
 70
0
  0
ENDTAB
  0
TABLE
  2
UCS
  5
6
330
0
100
AcDbSymbolTable
 70
0
  0
ENDTAB
  0
TABLE
  2
APPID
  5
3
330
0
100
AcDbSymbolTable
 70
3
  0
APPID
  5
2A
330
3
100
AcDbSymbolTableRecord
100
AcDbRegAppTableRecord
  2
ACAD
 70
0
  0
APPID
  5
103
330
3
100
AcDbSymbolTableRecord
100
AcDbRegAppTableRecord
  2
HATCHBACKGROUNDCOLOR
 70
0
  0
APPID
  5
104
330
3
100
AcDbSymbolTableRecord
100
AcDbRegAppTableRecord
  2
EZDXF
 70
0
  0
ENDTAB
  0
TABLE
  2
DIMSTYLE
  5
4
330
0
100
AcDbSymbolTable
 70
1
100
AcDbDimStyleTable
  0
DIMSTYLE
105
2B
330
4
100
AcDbSymbolTableRecord
100
AcDbDimStyleTableRecord
  2
Standard
 70
0
 40
1.0
 41
2.5
 42
0.625
 43
3.75
 44
1.25
 45
0.0
 46
0.0
 47
0.0
 48
0.0
 49
2.5
140
2.5
141
2.5
142
0.0
143
0.03937007874
144
1.0
145
0.0
146
1.0
147
0.625
148
0.0
 69
0
 70
0
 71
0
 72
0
 73
0
 74
0
 75
0
 76
0
 77
1
 78
8
 79
3
170
0
171
3
172
1
173
0
174
0
175
0
176
0
177
0
178
0
179
2
271
2
272
2
273
2
274
3
275
0
276
0
277
2
278
44
279
0
280
0
281
0
282
0
283
0
284
8
285
0
286
0
288
0
289
3
290
0
371
-2
372
-2
  0
ENDTAB
  0
TABLE
  2
BLOCK_RECORD
  5
9
330
0
100
AcDbSymbolTable
 70
2
  0
BLOCK_RECORD
  5
17
330
9
100
AcDbSymbolTableRecord
100
AcDbBlockTableRecord
  2
*Model_Space
340
1A
 70
0
280
1
281
0
  0
BLOCK_RECORD
  5
1B
330
9
100
AcDbSymbolTableRecord
100
AcDbBlockTableRecord
  2
*Paper_Space
340
1E
 70
0
280
1
281
0
  0
ENDTAB
  0
ENDSEC
  0
SECTION
  2
BLOCKS
  0
BLOCK
  5
18
330
17
100
AcDbEntity
  8
0
100
AcDbBlockBegin
  2
*Model_Space
 70
0
 10
0.0
 20
0.0
 30
0.0
  3
*Model_Space
  1

  0
ENDBLK
  5
19
330
17
100
AcDbEntity
  8
0
100
AcDbBlockEnd
  0
BLOCK
  5
1C
330
1B
100
AcDbEntity
  8
0
100
AcDbBlockBegin
  2
*Paper_Space
 70
0
 10
0.0
 20
0.0
 30
0.0
  3
*Paper_Space
  1

  0
ENDBLK
  5
1D
330
1B
100
AcDbEntity
  8
0
100
AcDbBlockEnd
  0
ENDSEC
  0
SECTION
  2
ENTITIES
  0
LINE
  5
30
330
17
100
AcDbEntity
  8
POCKET
100
AcDbLine
 10
236.95
 20
31.75
 30
0.0
 11
231.8
 21
14.25
 31
0.0
  0
LINE
  5
31
330
17
100
AcDbEntity
  8
POCKET
100
AcDbLine
 10
231.8
 20
14.25
 30
0.0
 11
228.2
 21
4.199999999999999
 31
0.0
  0
LINE
  5
32
330
17
100
AcDbEntity
  8
POCKET
100
AcDbLine
 10
228.2
 20
4.2
 30
0.0
 11
227.85
 21
3.8499999999999996
 31
0.0
  0
LINE
  5
33
330
17
100
AcDbEntity
  8
POCKET
100
AcDbLine
 10
227.85
 20
3.8499999999999996
 30
0.0
 11
221.9
 21
0.2500000000000007
 31
0.0
  0
LINE
  5
34
330
17
100
AcDbEntity
  8
POCKET
100
AcDbLine
 10
221.9
 20
0.25
 30
0.0
 11
221.15
 21
-2.138917467302748e-17
 31
0.0
  0
LINE
  5
35
330
17
100
AcDbEntity
  8
POCKET
100
AcDbLine
 10
221.15
 20
0.0
 30
0.0
 11
219.9
 21
0.0
 31
0.0
  0
LINE
  5
36
330
17
100
AcDbEntity
  8
POCKET
100
AcDbLine
 10
219.9
 20
0.0
 30
0.0
 11
219.5
 21
0.19999999999999996
 31
0.0
  0
LINE
  5
37
330
17
100
AcDbEntity
  8
POCKET
100
AcDbLine
 10
219.5
 20
0.19999999999999996
 30
0.0
 11
217.85
 21
1.65
 31
0.0
  0
LINE
  5
38
330
17
100
AcDbEntity
  8
POCKET
100
AcDbLine
 10
217.85
 20
1.65
 30
0.0
 11
216.45
 21
4.0
 31
0.0
  0
LINE
  5
39
330
17
100
AcDbEntity
  8
POCKET
100
AcDbLine
 10
216.45
 20
4.0
 30
0.0
 11
215.05
 21
4.4
 31
0.0
  0
LINE
  5
3A
330
17
100
AcDbEntity
  8
POCKET
100
AcDbLine
 10
215.05
 20
4.4
 30
0.0
 11
213.0
 21
6.6000000000000005
 31
0.0
  0
LINE
  5
3B
330
17
100
AcDbEntity
  8
POCKET
100
AcDbLine
 10
213.0
 20
6.6000000000000005
 30
0.0
 11
212.85
 21
6.95
 31
0.0
  0
LINE
  5
3C
330
17
100
AcDbEntity
  8
POCKET
100
AcDbLine
 10
212.85
 20
6.95
 30
0.0
 11
209.55
 21
30.849999999999998
 31
0.0
  0
LINE
  5
3D
330
17
100
AcDbEntity
  8
POCKET
100
AcDbLine
 10
209.55
 20
30.849999999999998
 30
0.0
 11
208.6
 21
33.35
 31
0.0
  0
LINE
  5
3E
330
17
100
AcDbEntity
  8
POCKET
100
AcDbLine
 10
208.6
 20
33.35
 30
0.0
 11
208.6
 21
33.85
 31
0.0
  0
LINE
  5
3F
330
17
100
AcDbEntity
  8
POCKET
100
AcDbLine
 10
208.6
 20
33.85
 30
0.0
 11
209.25
 21
35.6
 31
0.0
  0
LINE
  5
40
330
17
100
AcDbEntity
  8
POCKET
100
AcDbLine
 10
209.25
 20
35.6
 30
0.0
 11
208.8
 21
36.1
 31
0.0
  0
LINE
  5
41
330
17
100
AcDbEntity
  8
POCKET
100
AcDbLine
 10
208.8
 20
36.1
 30
0.0
 11
201.85
 21
37.2
 31
0.0
  0
LINE
  5
42
330
17
100
AcDbEntity
  8
POCKET
100
AcDbLine
 10
201.85
 20
37.2
 30
0.0
 11
191.55
 21
37.85
 31
0.0
  0
LINE
  5
43
330
17
100
AcDbEntity
  8
POCKET
100
AcDbLine
 10
191.55
 20
37.85
 30
0.0
 11
187.65
 21
38.45
 31
0.0
  0
LINE
  5
44
330
17
100
AcDbEntity
  8
POCKET
100
AcDbLine
 10
187.65
 20
38.45
 30
0.0
 11
186.3
 21
39.1
 31
0.0
  0
LINE
  5
45
330
17
100
AcDbEntity
  8
POCKET
100
AcDbLine
 10
186.3
 20
39.1
 30
0.0
 11
185.5
 21
39.050000000000004
 31
0.0
  0
LINE
  5
46
330
17
100
AcDbEntity
  8
POCKET
100
AcDbLine
 10
185.5
 20
39.050000000000004
 30
0.0
 11
184.85
 21
38.35
 31
0.0
  0
LINE
  5
47
330
17
100
AcDbEntity
  8
POCKET
100
AcDbLine
 10
184.85
 20
38.35
 30
0.0
 11
184.85
 21
38.25
 31
0.0
  0
LINE
  5
48
330
17
100
AcDbEntity
  8
POCKET
100
AcDbLine
 10
184.85
 20
38.25
 30
0.0
 11
186.1
 21
37.0
 31
0.0
  0
LINE
  5
49
330
17
100
AcDbEntity
  8
POCKET
100
AcDbLine
 10
186.1
 20
37.0
 30
0.0
 11
186.25
 21
36.650000000000006
 31
0.0
  0
LINE
  5
4A
330
17
100
AcDbEntity
  8
POCKET
100
AcDbLine
 10
186.25
 20
36.650000000000006
 30
0.0
 11
186.25
 21
36.050000000000004
 31
0.0
  0
LINE
  5
4B
330
17
100
AcDbEntity
  8
POCKET
100
AcDbLine
 10
186.25
 20
36.050000000000004
 30
0.0
 11
186.1
 21
35.0
 31
0.0
  0
LINE
  5
4C
330
17
100
AcDbEntity
  8
POCKET
100
AcDbLine
 10
186.1
 20
35.0
 30
0.0
 11
185.95
 21
34.650000000000006
 31
0.0
  0
LINE
  5
4D
330
17
100
AcDbEntity
  8
POCKET
100
AcDbLine
 10
185.95
 20
34.650000000000006
 30
0.0
 11
185.65
 21
34.35
 31
0.0
  0
LINE
  5
4E
330
17
100
AcDbEntity
  8
POCKET
100
AcDbLine
 10
185.65
 20
34.35
 30
0.0
 11
179.7
 21
31.849999999999998
 31
0.0
  0
LINE
  5
4F
330
17
100
AcDbEntity
  8
POCKET
100
AcDbLine
 10
179.7
 20
31.849999999999998
 30
0.0
 11
177.8
 21
30.4
 31
0.0
  0
LINE
  5
50
330
17
100
AcDbEntity
  8
POCKET
100
AcDbLine
 10
177.8
 20
30.4
 30
0.0
 11
175.7
 21
29.75
 31
0.0
  0
LINE
  5
51
330
17
100
AcDbEntity
  8
POCKET
100
AcDbLine
 10
175.7
 20
29.75
 30
0.0
 11
174.0
 21
28.3
 31
0.0
  0
LINE
  5
52
330
17
100
AcDbEntity
  8
POCKET
100
AcDbLine
 10
174.0
 20
28.3
 30
0.0
 11
173.6
 21
28.05
 31
0.0
  0
LINE
  5
53
330
17
100
AcDbEntity
  8
POCKET
100
AcDbLine
 10
173.6
 20
28.05
 30
0.0
 11
170.4
 21
26.9
 31
0.0
  0
LINE
  5
54
330
17
100
AcDbEntity
  8
POCKET
100
AcDbLine
 10
170.4
 20
26.9
 30
0.0
 11
169.25
 21
26.849999999999998
 31
0.0
  0
LINE
  5
55
330
17
100
AcDbEntity
  8
POCKET
100
AcDbLine
 10
169.25
 20
26.849999999999998
 30
0.0
 11
168.0
 21
26.95
 31
0.0
  0
LINE
  5
56
330
17
100
AcDbEntity
  8
POCKET
100
AcDbLine
 10
168.0
 20
26.95
 30
0.0
 11
164.55
 21
28.349999999999998
 31
0.0
  0
LINE
  5
57
330
17
100
AcDbEntity
  8
POCKET
100
AcDbLine
 10
164.55
 20
28.349999999999998
 30
0.0
 11
161.0
 21
31.0
 31
0.0
  0
LINE
  5
58
330
17
100
AcDbEntity
  8
POCKET
100
AcDbLine
 10
161.0
 20
31.0
 30
0.0
 11
160.55
 21
31.45
 31
0.0
  0
LINE
  5
59
330
17
100
AcDbEntity
  8
POCKET
100
AcDbLine
 10
160.55
 20
31.45
 30
0.0
 11
159.8
 21
32.7
 31
0.0
  0
LINE
  5
5A
330
17
100
AcDbEntity
  8
POCKET
100
AcDbLine
 10
159.8
 20
32.7
 30
0.0
 11
157.25
 21
34.95
 31
0.0
  0
LINE
  5
5B
330
17
100
AcDbEntity
  8
POCKET
100
AcDbLine
 10
157.25
 20
34.95
 30
0.0
 11
155.4
 21
38.150000000000006
 31
0.0
  0
LINE
  5
5C
330
17
100
AcDbEntity
  8
POCKET
100
AcDbLine
 10
155.4
 20
38.150000000000006
 30
0.0
 11
155.25
 21
38.300000000000004
 31
0.0
  0
LINE
  5
5D
330
17
100
AcDbEntity
  8
POCKET
100
AcDbLine
 10
155.25
 20
38.300000000000004
 30
0.0
 11
154.65
 21
38.6
 31
0.0
  0
LINE
  5
5E
330
17
100
AcDbEntity
  8
POCKET
100
AcDbLine
 10
154.65
 20
38.6
 30
0.0
 11
154.1
 21
38.550000000000004
 31
0.0
  0
LINE
  5
5F
330
17
100
AcDbEntity
  8
POCKET
100
AcDbLine
 10
154.1
 20
38.550000000000004
 30
0.0
 11
152.55
 21
36.6
 31
0.0
  0
LINE
  5
60
330
17
100
AcDbEntity
  8
POCKET
100
AcDbLine
 10
152.55
 20
36.6
 30
0.0
 11
152.1
 21
36.150000000000006
 31
0.0
  0
LINE
  5
61
330
17
100
AcDbEntity
  8
POCKET
100
AcDbLine
 10
152.1
 20
36.150000000000006
 30
0.0
 11
149.25
 21
34.650000000000006
 31
0.0
  0
LINE
  5
62
330
17
100
AcDbEntity
  8
POCKET
100
AcDbLine
 10
149.25
 20
34.650000000000006
 30
0.0
 11
148.35
 21
34.6
 31
0.0
  0
LINE
  5
63
330
17
100
AcDbEntity
  8
POCKET
100
AcDbLine
 10
148.35
 20
34.6
 30
0.0
 11
144.95
 21
34.800000000000004
 31
0.0
  0
LINE
  5
64
330
17
100
AcDbEntity
  8
POCKET
100
AcDbLine
 10
144.95
 20
34.800000000000004
 30
0.0
 11
142.3
 21
36.2
 31
0.0
  0
LINE
  5
65
330
17
100
AcDbEntity
  8
POCKET
100
AcDbLine
 10
142.3
 20
36.2
 30
0.0
 11
141.95
 21
36.550000000000004
 31
0.0
  0
LINE
  5
66
330
17
100
AcDbEntity
  8
POCKET
100
AcDbLine
 10
141.95
 20
36.550000000000004
 30
0.0
 11
141.8
 21
36.85
 31
0.0
  0
LINE
  5
67
330
17
100
AcDbEntity
  8
POCKET
100
AcDbLine
 10
141.8
 20
36.85
 30
0.0
 11
140.75
 21
40.650000000000006
 31
0.0
  0
LINE
  5
68
330
17
100
AcDbEntity
  8
POCKET
100
AcDbLine
 10
140.75
 20
40.650000000000006
 30
0.0
 11
140.75
 21
41.2
 31
0.0
  0
LINE
  5
69
330
17
100
AcDbEntity
  8
POCKET
100
AcDbLine
 10
140.75
 20
41.2
 30
0.0
 11
141.7
 21
45.150000000000006
 31
0.0
  0
LINE
  5
6A
330
17
100
AcDbEntity
  8
POCKET
100
AcDbLine
 10
141.7
 20
45.150000000000006
 30
0.0
 11
140.75
 21
46.2
 31
0.0
  0
LINE
  5
6B
330
17
100
AcDbEntity
  8
POCKET
100
AcDbLine
 10
140.75
 20
46.2
 30
0.0
 11
140.6
 21
46.550000000000004
 31
0.0
  0
LINE
  5
6C
330
17
100
AcDbEntity
  8
POCKET
100
AcDbLine
 10
140.6
 20
46.550000000000004
 30
0.0
 11
140.8
 21
49.150000000000006
 31
0.0
  0
LINE
  5
6D
330
17
100
AcDbEntity
  8
POCKET
100
AcDbLine
 10
140.8
 20
49.150000000000006
 30
0.0
 11
139.75
 21
49.85
 31
0.0
  0
LINE
  5
6E
330
17
100
AcDbEntity
  8
POCKET
100
AcDbLine
 10
139.75
 20
49.85
 30
0.0
 11
138.3
 21
49.95
 31
0.0
  0
LINE
  5
6F
330
17
100
AcDbEntity
  8
POCKET
100
AcDbLine
 10
138.3
 20
49.95
 30
0.0
 11
137.65
 21
49.550000000000004
 31
0.0
  0
LINE
  5
70
330
17
100
AcDbEntity
  8
POCKET
100
AcDbLine
 10
137.65
 20
49.550000000000004
 30
0.0
 11
137.6
 21
49.400000000000006
 31
0.0
  0
LINE
  5
71
330
17
100
AcDbEntity
  8
POCKET
100
AcDbLine
 10
137.6
 20
49.400000000000006
 30
0.0
 11
137.95
 21
47.95
 31
0.0
  0
LINE
  5
72
330
17
100
AcDbEntity
  8
POCKET
100
AcDbLine
 10
137.95
 20
47.95
 30
0.0
 11
137.9
 21
47.300000000000004
 31
0.0
  0
LINE
  5
73
330
17
100
AcDbEntity
  8
POCKET
100
AcDbLine
 10
137.9
 20
47.300000000000004
 30
0.0
 11
137.8
 21
47.1
 31
0.0
  0
LINE
  5
74
330
17
100
AcDbEntity
  8
POCKET
100
AcDbLine
 10
137.8
 20
47.1
 30
0.0
 11
136.8
 21
46.1
 31
0.0
  0
LINE
  5
75
330
17
100
AcDbEntity
  8
POCKET
100
AcDbLine
 10
136.8
 20
46.1
 30
0.0
 11
136.15
 21
45.95
 31
0.0
  0
LINE
  5
76
330
17
100
AcDbEntity
  8
POCKET
100
AcDbLine
 10
136.15
 20
45.95
 30
0.0
 11
133.65
 21
46.5
 31
0.0
  0
LINE
  5
77
330
17
100
AcDbEntity
  8
POCKET
100
AcDbLine
 10
133.65
 20
46.5
 30
0.0
 11
133.25
 21
46.650000000000006
 31
0.0
  0
LINE
  5
78
330
17
100
AcDbEntity
  8
POCKET
100
AcDbLine
 10
133.25
 20
46.650000000000006
 30
0.0
 11
132.95
 21
46.95
 31
0.0
  0
LINE
  5
79
330
17
100
AcDbEntity
  8
POCKET
100
AcDbLine
 10
132.95
 20
46.95
 30
0.0
 11
132.75
 21
47.5
 31
0.0
  0
LINE
  5
7A
330
17
100
AcDbEntity
  8
POCKET
100
AcDbLine
 10
132.75
 20
47.5
 30
0.0
 11
132.7
 21
48.400000000000006
 31
0.0
  0
LINE
  5
7B
330
17
100
AcDbEntity
  8
POCKET
100
AcDbLine
 10
132.7
 20
48.400000000000006
 30
0.0
 11
133.6
 21
50.050000000000004
 31
0.0
  0
LINE
  5
7C
330
17
100
AcDbEntity
  8
POCKET
100
AcDbLine
 10
133.6
 20
50.050000000000004
 30
0.0
 11
133.55
 21
50.25
 31
0.0
  0
LINE
  5
7D
330
17
100
AcDbEntity
  8
POCKET
100
AcDbLine
 10
133.55
 20
50.25
 30
0.0
 11
133.1
 21
50.650000000000006
 31
0.0
  0
LINE
  5
7E
330
17
100
AcDbEntity
  8
POCKET
100
AcDbLine
 10
133.1
 20
50.650000000000006
 30
0.0
 11
131.95
 21
50.800000000000004
 31
0.0
  0
LINE
  5
7F
330
17
100
AcDbEntity
  8
POCKET
100
AcDbLine
 10
131.95
 20
50.800000000000004
 30
0.0
 11
131.15
 21
50.300000000000004
 31
0.0
  0
LINE
  5
80
330
17
100
AcDbEntity
  8
POCKET
100
AcDbLine
 10
131.15
 20
50.300000000000004
 30
0.0
 11
131.05
 21
50.150000000000006
 31
0.0
  0
LINE
  5
81
330
17
100
AcDbEntity
  8
POCKET
100
AcDbLine
 10
131.05
 20
50.150000000000006
 30
0.0
 11
131.05
 21
49.95
 31
0.0
  0
LINE
  5
82
330
17
100
AcDbEntity
  8
POCKET
100
AcDbLine
 10
131.05
 20
49.95
 30
0.0
 11
131.8
 21
48.45
 31
0.0
  0
LINE
  5
83
330
17
100
AcDbEntity
  8
POCKET
100
AcDbLine
 10
131.8
 20
48.45
 30
0.0
 11
131.8
 21
48.050000000000004
 31
0.0
  0
LINE
  5
84
330
17
100
AcDbEntity
  8
POCKET
100
AcDbLine
 10
131.8
 20
48.050000000000004
 30
0.0
 11
131.65
 21
47.7
 31
0.0
  0
LINE
  5
85
330
17
100
AcDbEntity
  8
POCKET
100
AcDbLine
 10
131.65
 20
47.7
 30
0.0
 11
130.6
 21
46.6
 31
0.0
  0
LINE
  5
86
330
17
100
AcDbEntity
  8
POCKET
100
AcDbLine
 10
130.6
 20
46.6
 30
0.0
 11
130.0
 21
46.45
 31
0.0
  0
LINE
  5
87
330
17
100
AcDbEntity
  8
POCKET
100
AcDbLine
 10
130.0
 20
46.45
 30
0.0
 11
128.65
 21
46.85
 31
0.0
  0
LINE
  5
88
330
17
100
AcDbEntity
  8
POCKET
100
AcDbLine
 10
128.65
 20
46.85
 30
0.0
 11
128.15
 21
47.25
 31
0.0
  0
LINE
  5
89
330
17
100
AcDbEntity
  8
POCKET
100
AcDbLine
 10
128.15
 20
47.25
 30
0.0
 11
128.0
 21
47.6
 31
0.0
  0
LINE
  5
8A
330
17
100
AcDbEntity
  8
POCKET
100
AcDbLine
 10
128.0
 20
47.6
 30
0.0
 11
128.0
 21
48.150000000000006
 31
0.0
  0
LINE
  5
8B
330
17
100
AcDbEntity
  8
POCKET
100
AcDbLine
 10
128.0
 20
48.150000000000006
 30
0.0
 11
128.35
 21
50.300000000000004
 31
0.0
  0
LINE
  5
8C
330
17
100
AcDbEntity
  8
POCKET
100
AcDbLine
 10
128.35
 20
50.300000000000004
 30
0.0
 11
127.7
 21
50.75
 31
0.0
  0
LINE
  5
8D
330
17
100
AcDbEntity
  8
POCKET
100
AcDbLine
 10
127.7
 20
50.75
 30
0.0
 11
126.4
 21
50.45
 31
0.0
  0
LINE
  5
8E
330
17
100
AcDbEntity
  8
POCKET
100
AcDbLine
 10
126.4
 20
50.45
 30
0.0
 11
126.2
 21
50.300000000000004
 31
0.0
  0
LINE
  5
8F
330
17
100
AcDbEntity
  8
POCKET
100
AcDbLine
 10
126.2
 20
50.300000000000004
 30
0.0
 11
126.6
 21
48.800000000000004
 31
0.0
  0
LINE
  5
90
330
17
100
AcDbEntity
  8
POCKET
100
AcDbLine
 10
126.6
 20
48.800000000000004
 30
0.0
 11
126.55
 21
48.150000000000006
 31
0.0
  0
LINE
  5
91
330
17
100
AcDbEntity
  8
POCKET
100
AcDbLine
 10
126.55
 20
48.150000000000006
 30
0.0
 11
126.45
 21
47.95
 31
0.0
  0
LINE
  5
92
330
17
100
AcDbEntity
  8
POCKET
100
AcDbLine
 10
126.45
 20
47.95
 30
0.0
 11
125.4
 21
46.95
 31
0.0
  0
LINE
  5
93
330
17
100
AcDbEntity
  8
POCKET
100
AcDbLine
 10
125.4
 20
46.95
 30
0.0
 11
125.15
 21
46.85
 31
0.0
  0
LINE
  5
94
330
17
100
AcDbEntity
  8
POCKET
100
AcDbLine
 10
125.15
 20
46.85
 30
0.0
 11
124.55
 21
46.800000000000004
 31
0.0
  0
LINE
  5
95
330
17
100
AcDbEntity
  8
POCKET
100
AcDbLine
 10
124.55
 20
46.800000000000004
 30
0.0
 11
1.2000000000000053
 21
56.550000000000004
 31
0.0
  0
LINE
  5
96
330
17
100
AcDbEntity
  8
POCKET
100
AcDbLine
 10
1.2
 20
56.550000000000004
 30
0.0
 11
0.95
 21
56.650000000000006
 31
0.0
  0
LINE
  5
97
330
17
100
AcDbEntity
  8
POCKET
100
AcDbLine
 10
0.95
 20
56.650000000000006
 30
0.0
 11
0.6
 21
57.0
 31
0.0
  0
LINE
  5
98
330
17
100
AcDbEntity
  8
POCKET
100
AcDbLine
 10
0.6
 20
57.0
 30
0.0
 11
-9.043817561930211e-17
 21
58.2
 31
0.0
  0
LINE
  5
99
330
17
100
AcDbEntity
  8
POCKET
100
AcDbLine
 10
0.0
 20
58.2
 30
0.0
 11
0.0
 21
58.7
 31
0.0
  0
LINE
  5
9A
330
17
100
AcDbEntity
  8
POCKET
100
AcDbLine
 10
0.0
 20
58.7
 30
0.0
 11
0.8
 21
62.6
 31
0.0
  0
LINE
  5
9B
330
17
100
AcDbEntity
  8
POCKET
100
AcDbLine
 10
0.8
 20
62.6
 30
0.0
 11
1.2
 21
72.25
 31
0.0
  0
LINE
  5
9C
330
17
100
AcDbEntity
  8
POCKET
100
AcDbLine
 10
1.2
 20
72.25
 30
0.0
 11
1.35
 21
72.60000000000001
 31
0.0
  0
LINE
  5
9D
330
17
100
AcDbEntity
  8
POCKET
100
AcDbLine
 10
1.35
 20
72.60000000000001
 30
0.0
 11
2.35
 21
73.60000000000001
 31
0.0
  0
LINE
  5
9E
330
17
100
AcDbEntity
  8
POCKET
100
AcDbLine
 10
2.35
 20
73.60000000000001
 30
0.0
 11
2.6
 21
73.7
 31
0.0
  0
LINE
  5
9F
330
17
100
AcDbEntity
  8
POCKET
100
AcDbLine
 10
2.6
 20
73.7
 30
0.0
 11
3.2
 21
73.75
 31
0.0
  0
LINE
  5
A0
330
17
100
AcDbEntity
  8
POCKET
100
AcDbLine
 10
3.2
 20
73.75
 30
0.0
 11
140.85000000000005
 21
63.150000000000006
 31
0.0
  0
LINE
  5
A1
330
17
100
AcDbEntity
  8
POCKET
100
AcDbLine
 10
140.85
 20
63.150000000000006
 30
0.0
 11
149.8
 21
62.0
 31
0.0
  0
LINE
  5
A2
330
17
100
AcDbEntity
  8
POCKET
100
AcDbLine
 10
149.8
 20
62.0
 30
0.0
 11
150.45
 21
62.25
 31
0.0
  0
LINE
  5
A3
330
17
100
AcDbEntity
  8
POCKET
100
AcDbLine
 10
150.45
 20
62.25
 30
0.0
 11
150.95
 21
62.300000000000004
 31
0.0
  0
LINE
  5
A4
330
17
100
AcDbEntity
  8
POCKET
100
AcDbLine
 10
150.95
 20
62.300000000000004
 30
0.0
 11
153.3
 21
61.900000000000006
 31
0.0
  0
LINE
  5
A5
330
17
100
AcDbEntity
  8
POCKET
100
AcDbLine
 10
153.3
 20
61.900000000000006
 30
0.0
 11
154.4
 21
61.0
 31
0.0
  0
LINE
  5
A6
330
17
100
AcDbEntity
  8
POCKET
100
AcDbLine
 10
154.4
 20
61.0
 30
0.0
 11
155.8
 21
61.75
 31
0.0
  0
LINE
  5
A7
330
17
100
AcDbEntity
  8
POCKET
100
AcDbLine
 10
155.8
 20
61.75
 30
0.0
 11
156.0
 21
61.95
 31
0.0
  0
LINE
  5
A8
330
17
100
AcDbEntity
  8
POCKET
100
AcDbLine
 10
156.0
 20
61.95
 30
0.0
 11
157.05
 21
64.55
 31
0.0
  0
LINE
  5
A9
330
17
100
AcDbEntity
  8
POCKET
100
AcDbLine
 10
157.05
 20
64.55
 30
0.0
 11
158.4
 21
66.35000000000001
 31
0.0
  0
LINE
  5
AA
330
17
100
AcDbEntity
  8
POCKET
100
AcDbLine
 10
158.4
 20
66.35000000000001
 30
0.0
 11
158.85
 21
66.8
 31
0.0
  0
LINE
  5
AB
330
17
100
AcDbEntity
  8
POCKET
100
AcDbLine
 10
158.85
 20
66.8
 30
0.0
 11
161.8
 21
68.7
 31
0.0
  0
LINE
  5
AC
330
17
100
AcDbEntity
  8
POCKET
100
AcDbLine
 10
161.8
 20
68.7
 30
0.0
 11
166.35
 21
70.25
 31
0.0
  0
LINE
  5
AD
330
17
100
AcDbEntity
  8
POCKET
100
AcDbLine
 10
166.35
 20
70.25
 30
0.0
 11
167.45
 21
70.35000000000001
 31
0.0
  0
LINE
  5
AE
330
17
100
AcDbEntity
  8
POCKET
100
AcDbLine
 10
167.45
 20
70.35000000000001
 30
0.0
 11
171.1
 21
70.45
 31
0.0
  0
LINE
  5
AF
330
17
100
AcDbEntity
  8
POCKET
100
AcDbLine
 10
171.1
 20
70.45
 30
0.0
 11
176.35
 21
69.5
 31
0.0
  0
LINE
  5
B0
330
17
100
AcDbEntity
  8
POCKET
100
AcDbLine
 10
176.35
 20
69.5
 30
0.0
 11
177.65
 21
68.9
 31
0.0
  0
LINE
  5
B1
330
17
100
AcDbEntity
  8
POCKET
100
AcDbLine
 10
177.65
 20
68.9
 30
0.0
 11
183.6
 21
65.75
 31
0.0
  0
LINE
  5
B2
330
17
100
AcDbEntity
  8
POCKET
100
AcDbLine
 10
183.6
 20
65.75
 30
0.0
 11
188.0
 21
65.0
 31
0.0
  0
LINE
  5
B3
330
17
100
AcDbEntity
  8
POCKET
100
AcDbLine
 10
188.0
 20
65.0
 30
0.0
 11
188.4
 21
64.85
 31
0.0
  0
LINE
  5
B4
330
17
100
AcDbEntity
  8
POCKET
100
AcDbLine
 10
188.4
 20
64.85
 30
0.0
 11
188.7
 21
64.55
 31
0.0
  0
LINE
  5
B5
330
17
100
AcDbEntity
  8
POCKET
100
AcDbLine
 10
188.7
 20
64.55
 30
0.0
 11
188.85
 21
64.2
 31
0.0
  0
LINE
  5
B6
330
17
100
AcDbEntity
  8
POCKET
100
AcDbLine
 10
188.85
 20
64.2
 30
0.0
 11
188.75
 21
62.75
 31
0.0
  0
LINE
  5
B7
330
17
100
AcDbEntity
  8
POCKET
100
AcDbLine
 10
188.75
 20
62.75
 30
0.0
 11
188.55
 21
62.150000000000006
 31
0.0
  0
LINE
  5
B8
330
17
100
AcDbEntity
  8
POCKET
100
AcDbLine
 10
188.55
 20
62.150000000000006
 30
0.0
 11
188.2
 21
61.800000000000004
 31
0.0
  0
LINE
  5
B9
330
17
100
AcDbEntity
  8
POCKET
100
AcDbLine
 10
188.2
 20
61.800000000000004
 30
0.0
 11
185.85
 21
60.6
 31
0.0
  0
LINE
  5
BA
330
17
100
AcDbEntity
  8
POCKET
100
AcDbLine
 10
185.85
 20
60.6
 30
0.0
 11
184.85
 21
59.300000000000004
 31
0.0
  0
LINE
  5
BB
330
17
100
AcDbEntity
  8
POCKET
100
AcDbLine
 10
184.85
 20
59.300000000000004
 30
0.0
 11
185.35
 21
56.0
 31
0.0
  0
LINE
  5
BC
330
17
100
AcDbEntity
  8
POCKET
100
AcDbLine
 10
185.35
 20
56.0
 30
0.0
 11
185.5
 21
55.800000000000004
 31
0.0
  0
LINE
  5
BD
330
17
100
AcDbEntity
  8
POCKET
100
AcDbLine
 10
185.5
 20
55.800000000000004
 30
0.0
 11
186.15
 21
55.5
 31
0.0
  0
LINE
  5
BE
330
17
100
AcDbEntity
  8
POCKET
100
AcDbLine
 10
186.15
 20
55.5
 30
0.0
 11
186.4
 21
55.7
 31
0.0
  0
LINE
  5
BF
330
17
100
AcDbEntity
  8
POCKET
100
AcDbLine
 10
186.4
 20
55.7
 30
0.0
 11
187.1
 21
57.45
 31
0.0
  0
LINE
  5
C0
330
17
100
AcDbEntity
  8
POCKET
100
AcDbLine
 10
187.1
 20
57.45
 30
0.0
 11
188.05
 21
58.25
 31
0.0
  0
LINE
  5
C1
330
17
100
AcDbEntity
  8
POCKET
100
AcDbLine
 10
188.05
 20
58.25
 30
0.0
 11
188.6
 21
58.400000000000006
 31
0.0
  0
LINE
  5
C2
330
17
100
AcDbEntity
  8
POCKET
100
AcDbLine
 10
188.6
 20
58.400000000000006
 30
0.0
 11
190.95
 21
58.400000000000006
 31
0.0
  0
LINE
  5
C3
330
17
100
AcDbEntity
  8
POCKET
100
AcDbLine
 10
190.95
 20
58.400000000000006
 30
0.0
 11
192.35
 21
59.35
 31
0.0
  0
LINE
  5
C4
330
17
100
AcDbEntity
  8
POCKET
100
AcDbLine
 10
192.35
 20
59.35
 30
0.0
 11
192.55
 21
59.550000000000004
 31
0.0
  0
LINE
  5
C5
330
17
100
AcDbEntity
  8
POCKET
100
AcDbLine
 10
192.55
 20
59.550000000000004
 30
0.0
 11
192.95
 21
60.35
 31
0.0
  0
LINE
  5
C6
330
17
100
AcDbEntity
  8
POCKET
100
AcDbLine
 10
192.95
 20
60.35
 30
0.0
 11
193.3
 21
60.7
 31
0.0
  0
LINE
  5
C7
330
17
100
AcDbEntity
  8
POCKET
100
AcDbLine
 10
193.3
 20
60.7
 30
0.0
 11
194.5
 21
61.050000000000004
 31
0.0
  0
LINE
  5
C8
330
17
100
AcDbEntity
  8
POCKET
100
AcDbLine
 10
194.5
 20
61.050000000000004
 30
0.0
 11
195.1
 21
61.1
 31
0.0
  0
LINE
  5
C9
330
17
100
AcDbEntity
  8
POCKET
100
AcDbLine
 10
195.1
 20
61.1
 30
0.0
 11
200.1
 21
60.550000000000004
 31
0.0
  0
LINE
  5
CA
330
17
100
AcDbEntity
  8
POCKET
100
AcDbLine
 10
200.1
 20
60.550000000000004
 30
0.0
 11
201.3
 21
60.050000000000004
 31
0.0
  0
LINE
  5
CB
330
17
100
AcDbEntity
  8
POCKET
100
AcDbLine
 10
201.3
 20
60.050000000000004
 30
0.0
 11
202.4
 21
60.400000000000006
 31
0.0
  0
LINE
  5
CC
330
17
100
AcDbEntity
  8
POCKET
100
AcDbLine
 10
202.4
 20
60.400000000000006
 30
0.0
 11
203.5
 21
60.300000000000004
 31
0.0
  0
LINE
  5
CD
330
17
100
AcDbEntity
  8
POCKET
100
AcDbLine
 10
203.5
 20
60.300000000000004
 30
0.0
 11
204.2
 21
60.150000000000006
 31
0.0
  0
LINE
  5
CE
330
17
100
AcDbEntity
  8
POCKET
100
AcDbLine
 10
204.2
 20
60.150000000000006
 30
0.0
 11
205.5
 21
59.400000000000006
 31
0.0
  0
LINE
  5
CF
330
17
100
AcDbEntity
  8
POCKET
100
AcDbLine
 10
205.5
 20
59.400000000000006
 30
0.0
 11
206.8
 21
60.050000000000004
 31
0.0
  0
LINE
  5
D0
330
17
100
AcDbEntity
  8
POCKET
100
AcDbLine
 10
206.8
 20
60.050000000000004
 30
0.0
 11
207.25
 21
60.150000000000006
 31
0.0
  0
LINE
  5
D1
330
17
100
AcDbEntity
  8
POCKET
100
AcDbLine
 10
207.25
 20
60.150000000000006
 30
0.0
 11
210.85
 21
60.0
 31
0.0
  0
LINE
  5
D2
330
17
100
AcDbEntity
  8
POCKET
100
AcDbLine
 10
210.85
 20
60.0
 30
0.0
 11
211.3
 21
59.900000000000006
 31
0.0
  0
LINE
  5
D3
330
17
100
AcDbEntity
  8
POCKET
100
AcDbLine
 10
211.3
 20
59.900000000000006
 30
0.0
 11
212.45
 21
59.400000000000006
 31
0.0
  0
LINE
  5
D4
330
17
100
AcDbEntity
  8
POCKET
100
AcDbLine
 10
212.45
 20
59.400000000000006
 30
0.0
 11
213.25
 21
60.0
 31
0.0
  0
LINE
  5
D5
330
17
100
AcDbEntity
  8
POCKET
100
AcDbLine
 10
213.25
 20
60.0
 30
0.0
 11
213.45
 21
61.7
 31
0.0
  0
LINE
  5
D6
330
17
100
AcDbEntity
  8
POCKET
100
AcDbLine
 10
213.45
 20
61.7
 30
0.0
 11
213.65
 21
62.25
 31
0.0
  0
LINE
  5
D7
330
17
100
AcDbEntity
  8
POCKET
100
AcDbLine
 10
213.65
 20
62.25
 30
0.0
 11
214.65
 21
63.25
 31
0.0
  0
LINE
  5
D8
330
17
100
AcDbEntity
  8
POCKET
100
AcDbLine
 10
214.65
 20
63.25
 30
0.0
 11
214.9
 21
63.35
 31
0.0
  0
LINE
  5
D9
330
17
100
AcDbEntity
  8
POCKET
100
AcDbLine
 10
214.9
 20
63.35
 30
0.0
 11
215.55
 21
63.35
 31
0.0
  0
LINE
  5
DA
330
17
100
AcDbEntity
  8
POCKET
100
AcDbLine
 10
215.55
 20
63.35
 30
0.0
 11
216.85
 21
62.900000000000006
 31
0.0
  0
LINE
  5
DB
330
17
100
AcDbEntity
  8
POCKET
100
AcDbLine
 10
216.85
 20
62.900000000000006
 30
0.0
 11
217.25
 21
62.400000000000006
 31
0.0
  0
LINE
  5
DC
330
17
100
AcDbEntity
  8
POCKET
100
AcDbLine
 10
217.25
 20
62.400000000000006
 30
0.0
 11
217.45
 21
61.300000000000004
 31
0.0
  0
LINE
  5
DD
330
17
100
AcDbEntity
  8
POCKET
100
AcDbLine
 10
217.45
 20
61.300000000000004
 30
0.0
 11
217.9
 21
60.85
 31
0.0
  0
LINE
  5
DE
330
17
100
AcDbEntity
  8
POCKET
100
AcDbLine
 10
217.9
 20
60.85
 30
0.0
 11
221.6
 21
60.25
 31
0.0
  0
LINE
  5
DF
330
17
100
AcDbEntity
  8
POCKET
100
AcDbLine
 10
221.6
 20
60.25
 30
0.0
 11
221.9
 21
60.25
 31
0.0
  0
LINE
  5
E0
330
17
100
AcDbEntity
  8
POCKET
100
AcDbLine
 10
221.9
 20
60.25
 30
0.0
 11
222.3
 21
60.45
 31
0.0
  0
LINE
  5
E1
330
17
100
AcDbEntity
  8
POCKET
100
AcDbLine
 10
222.3
 20
60.45
 30
0.0
 11
222.8
 21
61.45
 31
0.0
  0
LINE
  5
E2
330
17
100
AcDbEntity
  8
POCKET
100
AcDbLine
 10
222.8
 20
61.45
 30
0.0
 11
223.15
 21
61.800000000000004
 31
0.0
  0
LINE
  5
E3
330
17
100
AcDbEntity
  8
POCKET
100
AcDbLine
 10
223.15
 20
61.800000000000004
 30
0.0
 11
224.8
 21
62.400000000000006
 31
0.0
  0
LINE
  5
E4
330
17
100
AcDbEntity
  8
POCKET
100
AcDbLine
 10
224.8
 20
62.400000000000006
 30
0.0
 11
225.75
 21
63.650000000000006
 31
0.0
  0
LINE
  5
E5
330
17
100
AcDbEntity
  8
POCKET
100
AcDbLine
 10
225.75
 20
63.650000000000006
 30
0.0
 11
226.1
 21
64.0
 31
0.0
  0
LINE
  5
E6
330
17
100
AcDbEntity
  8
POCKET
100
AcDbLine
 10
226.1
 20
64.0
 30
0.0
 11
226.65
 21
64.15
 31
0.0
  0
LINE
  5
E7
330
17
100
AcDbEntity
  8
POCKET
100
AcDbLine
 10
226.65
 20
64.15
 30
0.0
 11
227.1
 21
64.05
 31
0.0
  0
LINE
  5
E8
330
17
100
AcDbEntity
  8
POCKET
100
AcDbLine
 10
227.1
 20
64.05
 30
0.0
 11
229.45
 21
62.800000000000004
 31
0.0
  0
LINE
  5
E9
330
17
100
AcDbEntity
  8
POCKET
100
AcDbLine
 10
229.45
 20
62.800000000000004
 30
0.0
 11
229.75
 21
62.800000000000004
 31
0.0
  0
LINE
  5
EA
330
17
100
AcDbEntity
  8
POCKET
100
AcDbLine
 10
229.75
 20
62.800000000000004
 30
0.0
 11
230.3
 21
63.45
 31
0.0
  0
LINE
  5
EB
330
17
100
AcDbEntity
  8
POCKET
100
AcDbLine
 10
230.3
 20
63.45
 30
0.0
 11
230.8
 21
72.35000000000001
 31
0.0
  0
LINE
  5
EC
330
17
100
AcDbEntity
  8
POCKET
100
AcDbLine
 10
230.8
 20
72.35000000000001
 30
0.0
 11
231.2
 21
73.2
 31
0.0
  0
LINE
  5
ED
330
17
100
AcDbEntity
  8
POCKET
100
AcDbLine
 10
231.2
 20
73.2
 30
0.0
 11
231.55
 21
73.55
 31
0.0
  0
LINE
  5
EE
330
17
100
AcDbEntity
  8
POCKET
100
AcDbLine
 10
231.55
 20
73.55
 30
0.0
 11
231.8
 21
73.65
 31
0.0
  0
LINE
  5
EF
330
17
100
AcDbEntity
  8
POCKET
100
AcDbLine
 10
231.8
 20
73.65
 30
0.0
 11
232.6
 21
73.75
 31
0.0
  0
LINE
  5
F0
330
17
100
AcDbEntity
  8
POCKET
100
AcDbLine
 10
232.6
 20
73.75
 30
0.0
 11
233.3
 21
73.7
 31
0.0
  0
LINE
  5
F1
330
17
100
AcDbEntity
  8
POCKET
100
AcDbLine
 10
233.3
 20
73.7
 30
0.0
 11
233.55
 21
73.60000000000001
 31
0.0
  0
LINE
  5
F2
330
17
100
AcDbEntity
  8
POCKET
100
AcDbLine
 10
233.55
 20
73.60000000000001
 30
0.0
 11
235.25
 21
71.9
 31
0.0
  0
LINE
  5
F3
330
17
100
AcDbEntity
  8
POCKET
100
AcDbLine
 10
235.25
 20
71.9
 30
0.0
 11
235.35
 21
71.7
 31
0.0
  0
LINE
  5
F4
330
17
100
AcDbEntity
  8
POCKET
100
AcDbLine
 10
235.35
 20
71.7
 30
0.0
 11
237.7
 21
59.95
 31
0.0
  0
LINE
  5
F5
330
17
100
AcDbEntity
  8
POCKET
100
AcDbLine
 10
237.7
 20
59.95
 30
0.0
 11
238.9
 21
57.900000000000006
 31
0.0
  0
LINE
  5
F6
330
17
100
AcDbEntity
  8
POCKET
100
AcDbLine
 10
238.9
 20
57.900000000000006
 30
0.0
 11
239.2
 21
57.25
 31
0.0
  0
LINE
  5
F7
330
17
100
AcDbEntity
  8
POCKET
100
AcDbLine
 10
239.2
 20
57.25
 30
0.0
 11
238.95
 21
53.75
 31
0.0
  0
LINE
  5
F8
330
17
100
AcDbEntity
  8
POCKET
100
AcDbLine
 10
238.95
 20
53.75
 30
0.0
 11
238.7
 21
53.25
 31
0.0
  0
LINE
  5
F9
330
17
100
AcDbEntity
  8
POCKET
100
AcDbLine
 10
238.7
 20
53.25
 30
0.0
 11
237.55
 21
51.800000000000004
 31
0.0
  0
LINE
  5
FA
330
17
100
AcDbEntity
  8
POCKET
100
AcDbLine
 10
237.55
 20
51.800000000000004
 30
0.0
 11
237.5
 21
49.050000000000004
 31
0.0
  0
LINE
  5
FB
330
17
100
AcDbEntity
  8
POCKET
100
AcDbLine
 10
237.5
 20
49.050000000000004
 30
0.0
 11
238.0
 21
47.75
 31
0.0
  0
LINE
  5
FC
330
17
100
AcDbEntity
  8
POCKET
100
AcDbLine
 10
238.0
 20
47.75
 30
0.0
 11
238.0
 21
47.25
 31
0.0
  0
LINE
  5
FD
330
17
100
AcDbEntity
  8
POCKET
100
AcDbLine
 10
238.0
 20
47.25
 30
0.0
 11
236.65
 21
42.650000000000006
 31
0.0
  0
LINE
  5
FE
330
17
100
AcDbEntity
  8
POCKET
100
AcDbLine
 10
236.65
 20
42.650000000000006
 30
0.0
 11
236.65
 21
42.5
 31
0.0
  0
LINE
  5
FF
330
17
100
AcDbEntity
  8
POCKET
100
AcDbLine
 10
236.65
 20
42.5
 30
0.0
 11
237.75
 21
40.300000000000004
 31
0.0
  0
LINE
  5
100
330
17
100
AcDbEntity
  8
POCKET
100
AcDbLine
 10
237.75
 20
40.300000000000004
 30
0.0
 11
237.75
 21
39.650000000000006
 31
0.0
  0
LINE
  5
101
330
17
100
AcDbEntity
  8
POCKET
100
AcDbLine
 10
237.75
 20
39.650000000000006
 30
0.0
 11
236.95
 21
31.75
 31
0.0
  0
ENDSEC
  0
SECTION
  2
OBJECTS
  0
DICTIONARY
  5
A
330
0
100
AcDbDictionary
281
1
  3
ACAD_COLOR
350
B
  3
ACAD_GROUP
350
C
  3
ACAD_LAYOUT
350
D
  3
ACAD_MATERIAL
350
E
  3
ACAD_MLEADERSTYLE
350
F
  3
ACAD_MLINESTYLE
350
10
  3
ACAD_PLOTSETTINGS
350
11
  3
ACAD_PLOTSTYLENAME
350
12
  3
ACAD_SCALELIST
350
14
  3
ACAD_TABLESTYLE
350
15
  3
ACAD_VISUALSTYLE
350
16
  3
EZDXF_META
350
2D
  0
DICTIONARY
  5
B
330
A
100
AcDbDictionary
281
1
  0
DICTIONARY
  5
C
330
A
100
AcDbDictionary
281
1
  0
DICTIONARY
  5
D
330
A
100
AcDbDictionary
281
1
  3
Model
350
1A
  3
Layout1
350
1E
  0
DICTIONARY
  5
E
330
A
100
AcDbDictionary
281
1
  3
ByBlock
350
1F
  3
ByLayer
350
20
  3
Global
350
21
  0
DICTIONARY
  5
F
330
A
100
AcDbDictionary
281
1
  3
Standard
350
2C
  0
DICTIONARY
  5
10
330
A
100
AcDbDictionary
281
1
  3
Standard
350
22
  0
DICTIONARY
  5
11
330
A
100
AcDbDictionary
281
1
  0
ACDBDICTIONARYWDFLT
  5
12
330
A
100
AcDbDictionary
281
1
  3
Normal
350
13
100
AcDbDictionaryWithDefault
340
13
  0
ACDBPLACEHOLDER
  5
13
330
12
  0
DICTIONARY
  5
14
330
A
100
AcDbDictionary
281
1
  0
DICTIONARY
  5
15
330
A
100
AcDbDictionary
281
1
  0
DICTIONARY
  5
16
330
A
100
AcDbDictionary
281
1
  0
LAYOUT
  5
1A
330
D
100
AcDbPlotSettings
  1

  4
A3
  6

 40
7.5
 41
20.0
 42
7.5
 43
20.0
 44
420.0
 45
297.0
 46
0.0
 47
0.0
 48
0.0
 49
0.0
140
0.0
141
0.0
142
1.0
143
1.0
 70
1024
 72
1
 73
0
 74
5
  7

 75
16
 76
0
 77
2
 78
300
147
1.0
148
0.0
149
0.0
100
AcDbLayout
  1
Model
 70
1
 71
0
 10
0.0
 20
0.0
 11
420.0
 21
297.0
 12
0.0
 22
0.0
 32
0.0
 14
1e+20
 24
1e+20
 34
1e+20
 15
-1e+20
 25
-1e+20
 35
-1e+20
146
0.0
 13
0.0
 23
0.0
 33
0.0
 16
1.0
 26
0.0
 36
0.0
 17
0.0
 27
1.0
 37
0.0
 76
1
330
17
  0
LAYOUT
  5
1E
330
D
100
AcDbPlotSettings
  1

  4
A3
  6

 40
7.5
 41
20.0
 42
7.5
 43
20.0
 44
420.0
 45
297.0
 46
0.0
 47
0.0
 48
0.0
 49
0.0
140
0.0
141
0.0
142
1.0
143
1.0
 70
0
 72
1
 73
0
 74
5
  7

 75
16
 76
0
 77
2
 78
300
147
1.0
148
0.0
149
0.0
100
AcDbLayout
  1
Layout1
 70
1
 71
1
 10
0.0
 20
0.0
 11
420.0
 21
297.0
 12
0.0
 22
0.0
 32
0.0
 14
1e+20
 24
1e+20
 34
1e+20
 15
-1e+20
 25
-1e+20
 35
-1e+20
146
0.0
 13
0.0
 23
0.0
 33
0.0
 16
1.0
 26
0.0
 36
0.0
 17
0.0
 27
1.0
 37
0.0
 76
1
330
1B
  0
MATERIAL
  5
1F
102
{ACAD_REACTORS
330
E
102
}
330
E
100
AcDbMaterial
  1
ByBlock
  2

 70
0
 40
1.0
 71
1
 41
1.0
 91
-1023410177
 42
1.0
 72
1
  3

 73
1
 74
1
 75
1
 44
0.5
 73
0
 45
1.0
 46
1.0
 77
1
  4

 78
1
 79
1
170
1
 48
1.0
171
1
  6

172
1
173
1
174
1
140
1.0
141
1.0
175
1
  7

176
1
177
1
178
1
143
1.0
179
1
  8

270
1
271
1
272
1
145
1.0
146
1.0
273
1
  9

274
1
275
1
276
1
 42
1.0
 72
1
  3

 73
1
 74
1
 75
1
 94
63
  0
MATERIAL
  5
20
102
{ACAD_REACTORS
330
E
102
}
330
E
100
AcDbMaterial
  1
ByLayer
  2

 70
0
 40
1.0
 71
1
 41
1.0
 91
-1023410177
 42
1.0
 72
1
  3

 73
1
 74
1
 75
1
 44
0.5
 73
0
 45
1.0
 46
1.0
 77
1
  4

 78
1
 79
1
170
1
 48
1.0
171
1
  6

172
1
173
1
174
1
140
1.0
141
1.0
175
1
  7

176
1
177
1
178
1
143
1.0
179
1
  8

270
1
271
1
272
1
145
1.0
146
1.0
273
1
  9

274
1
275
1
276
1
 42
1.0
 72
1
  3

 73
1
 74
1
 75
1
 94
63
  0
MATERIAL
  5
21
102
{ACAD_REACTORS
330
E
102
}
330
E
100
AcDbMaterial
  1
Global
  2

 70
0
 40
1.0
 71
1
 41
1.0
 91
-1023410177
 42
1.0
 72
1
  3

 73
1
 74
1
 75
1
 44
0.5
 73
0
 45
1.0
 46
1.0
 77
1
  4

 78
1
 79
1
170
1
 48
1.0
171
1
  6

172
1
173
1
174
1
140
1.0
141
1.0
175
1
  7

176
1
177
1
178
1
143
1.0
179
1
  8

270
1
271
1
272
1
145
1.0
146
1.0
273
1
  9

274
1
275
1
276
1
 42
1.0
 72
1
  3

 73
1
 74
1
 75
1
 94
63
  0
MLINESTYLE
  5
22
102
{ACAD_REACTORS
330
10
102
}
330
10
100
AcDbMlineStyle
  2
Standard
 70
0
  3

 62
256
 51
90.0
 52
90.0
 71
2
 49
0.5
 62
256
  6
BYLAYER
 49
-0.5
 62
256
  6
BYLAYER
  0
MLEADERSTYLE
  5
2C
102
{ACAD_REACTORS
330
F
102
}
330
F
100
AcDbMLeaderStyle
179
2
170
2
171
1
172
0
 90
2
 40
0.0
 41
0.0
173
1
 91
-1056964608
 92
-2
290
1
 42
2.0
291
1
 43
8.0
  3
Standard
 44
4.0
300

342
29
174
1
175
1
176
0
178
1
 93
-1056964608
 45
4.0
292
0
297
0
 46
4.0
 94
-1056964608
 47
1.0
 49
1.0
140
1.0
294
1
141
0.0
177
0
142
1.0
295
0
296
0
143
3.75
271
0
272
9
273
9
  0
DICTIONARY
  5
2D
330
A
100
AcDbDictionary
280
1
281
1
  3
CREATED_BY_EZDXF
350
2E
  3
WRITTEN_BY_EZDXF
350
105
  0
DICTIONARYVAR
  5
2E
330
2D
100
DictionaryVariables
280
0
  1
1.4.4 @ 2026-09-18T19:01:25.028063+00:00
  0
DICTIONARYVAR
  5
105
330
2D
100
DictionaryVariables
280
0
  1
1.4.4 @ 2026-09-18T19:01:25.034636+00:00
  0
ENDSEC
  0
EOF
