  0
SECTION
  2
HEADER
  9
$ACADVER
  1
AC1027
  9
$ACADMAINTVER
 70
105
  9
$DWGCODEPAGE
  3
ANSI_1252
  9
$LASTSAVEDBY
  1
ezdxf
  9
$REQUIREDVERSIONS
160
0
  9
$INSBASE
 10
0.0
 20
0.0
 30
0.0
  9
$EXTMIN
 10
1e+20
 20
1e+20
 30
1e+20
  9
$EXTMAX
 10
-1e+20
 20
-1e+20
 30
-1e+20
  9
$LIMMIN
 10
0.0
 20
0.0
  9
$LIMMAX
 10
420.0
 20
297.0
  9
$ORTHOMODE
 70
0
  9
$REGENMODE
 70
1
  9
$FILLMODE
 70
1
  9
$QTEXTMODE
 70
0
  9
$MIRRTEXT
 70
1
  9
$LTSCALE
 40
1.0
  9
$ATTMODE
 70
1
  9
$TEXTSIZE
 40
2.5
  9
$TRACEWID
 40
1.0
  9
$TEXTSTYLE
  7
Standard
  9
$CLAYER
  8
0
  9
$CELTYPE
  6
ByLayer
  9
$CECOLOR
 62
256
  9
$CELTSCALE
 40
1.0
  9
$DISPSILH
 70
0
  9
$DIMSCALE
 40
1.0
  9
$DIMASZ
 40
2.5
  9
$DIMEXO
 40
0.625
  9
$DIMDLI
 40
3.75
  9
$DIMRND
 40
0.0
  9
$DIMDLE
 40
0.0
  9
$DIMEXE
 40
1.25
  9
$DIMTP
 40
0.0
  9
$DIMTM
 40
0.0
  9
$DIMTXT
 40
2.5
  9
$DIMCEN
 40
2.5
  9
$DIMTSZ
 40
0.0
  9
$DIMTOL
 70
0
  9
$DIMLIM
 70
0
  9
$DIMTIH
 70
0
  9
$DIMTOH
 70
0
  9
$DIMSE1
 70
0
  9
$DIMSE2
 70
0
  9
$DIMTAD
 70
1
  9
$DIMZIN
 70
8
  9
$DIMBLK
  1

  9
$DIMASO
 70
1
  9
$DIMSHO
 70
1
  9
$DIMPOST
  1

  9
$DIMAPOST
  1

  9
$DIMALT
 70
0
  9
$DIMALTD
 70
3
  9
$DIMALTF
 40
0.03937007874
  9
$DIMLFAC
 40
1.0
  9
$DIMTOFL
 70
1
  9
$DIMTVP
 40
0.0
  9
$DIMTIX
 70
0
  9
$DIMSOXD
 70
0
  9
$DIMSAH
 70
0
  9
$DIMBLK1
  1

  9
$DIMBLK2
  1

  9
$DIMSTYLE
  2
ISO-25
  9
$DIMCLRD
 70
0
  9
$DIMCLRE
 70
0
  9
$DIMCLRT
 70
0
  9
$DIMTFAC
 40
1.0
  9
$DIMGAP
 40
0.625
  9
$DIMJUST
 70
0
  9
$DIMSD1
 70
0
  9
$DIMSD2
 70
0
  9
$DIMTOLJ
 70
0
  9
$DIMTZIN
 70
8
  9
$DIMALTZ
 70
0
  9
$DIMALTTZ
 70
0
  9
$DIMUPT
 70
0
  9
$DIMDEC
 70
2
  9
$DIMTDEC
 70
2
  9
$DIMALTU
 70
2
  9
$DIMALTTD
 70
3
  9
$DIMTXSTY
  7
Standard
  9
$DIMAUNIT
 70
0
  9
$DIMADEC
 70
0
  9
$DIMALTRND
 40
0.0
  9
$DIMAZIN
 70
0
  9
$DIMDSEP
 70
44
  9
$DIMATFIT
 70
3
  9
$DIMFRAC
 70
0
  9
$DIMLDRBLK
  1

  9
$DIMLUNIT
 70
2
  9
$DIMLWD
 70
-2
  9
$DIMLWE
 70
-2
  9
$DIMTMOVE
 70
0
  9
$DIMFXL
 40
1.0
  9
$DIMFXLON
 70
0
  9
$DIMJOGANG
 40
0.785398163397
  9
$DIMTFILL
 70
0
  9
$DIMTFILLCLR
 70
0
  9
$DIMARCSYM
 70
0
  9
$DIMLTYPE
  6

  9
$DIMLTEX1
  6

  9
$DIMLTEX2
  6

  9
$DIMTXTDIRECTION
 70
0
  9
$LUNITS
 70
2
  9
$LUPREC
 70
4
  9
$SKETCHINC
 40
1.0
  9
$FILLETRAD
 40
10.0
  9
$AUNITS
 70
0
  9
$AUPREC
 70
2
  9
$MENU
  1
.
  9
$ELEVATION
 40
0.0
  9
$PELEVATION
 40
0.0
  9
$THICKNESS
 40
0.0
  9
$LIMCHECK
 70
0
  9
$CHAMFERA
 40
0.0
  9
$CHAMFERB
 40
0.0
  9
$CHAMFERC
 40
0.0
  9
$CHAMFERD
 40
0.0
  9
$SKPOLY
 70
0
  9
$TDCREATE
 40
2461305.6168981483
  9
$TDUCREATE
 40
2458532.153996898
  9
$TDUPDATE
 40
2461305.6168981483
  9
$TDUUPDATE
 40
2458532.1544311
  9
$TDINDWG
 40
0.0
  9
$TDUSRTIMER
 40
0.0
  9
$USRTIMER
 70
1
  9
$ANGBASE
 50
0.0
  9
$ANGDIR
 70
0
  9
$PDMODE
 70
0
  9
$PDSIZE
 40
0.0
  9
$PLINEWID
 40
0.0
  9
$SPLFRAME
 70
0
  9
$SPLINETYPE
 70
6
  9
$SPLINESEGS
 70
8
  9
$HANDSEED
  5
CB
  9
$SURFTAB1
 70
6
  9
$SURFTAB2
 70
6
  9
$SURFTYPE
 70
6
  9
$SURFU
 70
6
  9
$SURFV
 70
6
  9
$UCSBASE
  2

  9
$UCSNAME
  2

  9
$UCSORG
 10
0.0
 20
0.0
 30
0.0
  9
$UCSXDIR
 10
1.0
 20
0.0
 30
0.0
  9
$UCSYDIR
 10
0.0
 20
1.0
 30
0.0
  9
$UCSORTHOREF
  2

  9
$UCSORTHOVIEW
 70
0
  9
$UCSORGTOP
 10
0.0
 20
0.0
 30
0.0
  9
$UCSORGBOTTOM
 10
0.0
 20
0.0
 30
0.0
  9
$UCSORGLEFT
 10
0.0
 20
0.0
 30
0.0
  9
$UCSORGRIGHT
 10
0.0
 20
0.0
 30
0.0
  9
$UCSORGFRONT
 10
0.0
 20
0.0
 30
0.0
  9
$UCSORGBACK
 10
0.0
 20
0.0
 30
0.0
  9
$PUCSBASE
  2

  9
$PUCSNAME
  2

  9
$PUCSORG
 10
0.0
 20
0.0
 30
0.0
  9
$PUCSXDIR
 10
1.0
 20
0.0
 30
0.0
  9
$PUCSYDIR
 10
0.0
 20
1.0
 30
0.0
  9
$PUCSORTHOREF
  2

  9
$PUCSORTHOVIEW
 70
0
  9
$PUCSORGTOP
 10
0.0
 20
0.0
 30
0.0
  9
$PUCSORGBOTTOM
 10
0.0
 20
0.0
 30
0.0
  9
$PUCSORGLEFT
 10
0.0
 20
0.0
 30
0.0
  9
$PUCSORGRIGHT
 10
0.0
 20
0.0
 30
0.0
  9
$PUCSORGFRONT
 10
0.0
 20
0.0
 30
0.0
  9
$PUCSORGBACK
 10
0.0
 20
0.0
 30
0.0
  9
$USERI1
 70
0
  9
$USERI2
 70
0
  9
$USERI3
 70
0
  9
$USERI4
 70
0
  9
$USERI5
 70
0
  9
$USERR1
 40
0.0
  9
$USERR2
 40
0.0
  9
$USERR3
 40
0.0
  9
$USERR4
 40
0.0
  9
$USERR5
 40
0.0
  9
$WORLDVIEW
 70
1
  9
$SHADEDGE
 70
3
  9
$SHADEDIF
 70
70
  9
$TILEMODE
 70
1
  9
$MAXACTVP
 70
64
  9
$PINSBASE
 10
0.0
 20
0.0
 30
0.0
  9
$PLIMCHECK
 70
0
  9
$PEXTMIN
 10
1e+20
 20
1e+20
 30
1e+20
  9
$PEXTMAX
 10
-1e+20
 20
-1e+20
 30
-1e+20
  9
$PLIMMIN
 10
0.0
 20
0.0
  9
$PLIMMAX
 10
420.0
 20
297.0
  9
$UNITMODE
 70
0
  9
$VISRETAIN
 70
1
  9
$PLINEGEN
 70
0
  9
$PSLTSCALE
 70
1
  9
$TREEDEPTH
 70
3020
  9
$CMLSTYLE
  2
Standard
  9
$CMLJUST
 70
0
  9
$CMLSCALE
 40
20.0
  9
$PROXYGRAPHICS
 70
1
  9
$MEASUREMENT
 70
1
  9
$CELWEIGHT
370
-1
  9
$ENDCAPS
280
0
  9
$JOINSTYLE
280
0
  9
$LWDISPLAY
290
0
  9
$INSUNITS
 70
4
  9
$HYPERLINKBASE
  1

  9
$STYLESHEET
  1

  9
$XEDIT
290
1
  9
$CEPSNTYPE
380
0
  9
$PSTYLEMODE
290
1
  9
$FINGERPRINTGUID
  2
{D85CE70A-EFC8-4D00-9599-60B53614025F}
  9
$VERSIONGUID
  2
{14FA7895-4581-4DDC-8AC2-4D384BD48343}
  9
$EXTNAMES
290
1
  9
$PSVPSCALE
 40
0.0
  9
$OLESTARTUP
290
0
  9
$SORTENTS
280
127
  9
$INDEXCTL
280
0
  9
$HIDETEXT
280
1
  9
$XCLIPFRAME
280
1
  9
$HALOGAP
280
0
  9
$OBSCOLOR
 70
257
  9
$OBSLTYPE
280
0
  9
$INTERSECTIONDISPLAY
280
0
  9
$INTERSECTIONCOLOR
 70
257
  9
$DIMASSOC
280
2
  9
$PROJECTNAME
  1

  9
$CAMERADISPLAY
290
0
  9
$LENSLENGTH
 40
50.0
  9
$CAMERAHEIGHT
 40
0.0
  9
$STEPSPERSEC
 40
24.0
  9
$STEPSIZE
 40
100.0
  9
$3DDWFPREC
 40
2.0
  9
$PSOLWIDTH
 40
0.005
  9
$PSOLHEIGHT
 40
0.08
  9
$LOFTANG1
 40
1.570796326795
  9
$LOFTANG2
 40
1.570796326795
  9
$LOFTMAG1
 40
0.0
  9
$LOFTMAG2
 40
0.0
  9
$LOFTPARAM
 70
7
  9
$LOFTNORMALS
280
1
  9
$LATITUDE
 40
37.795
  9
$LONGITUDE
 40
-122.394
  9
$NORTHDIRECTION
 40
0.0
  9
$TIMEZONE
 70
-8000
  9
$LIGHTGLYPHDISPLAY
280
1
  9
$TILEMODELIGHTSYNCH
280
1
  9
$CMATERIAL
347
20
  9
$SOLIDHIST
280
0
  9
$SHOWHIST
280
1
  9
$DWFFRAME
280
2
  9
$DGNFRAME
280
2
  9
$REALWORLDSCALE
290
1
  9
$INTERFERECOLOR
 62
256
  9
$CSHADOW
280
0
  9
$SHADOWPLANELOCATION
 40
0.0
  0
ENDSEC
  0
SECTION
  2
CLASSES
  0
CLASS
  1
ACDBDICTIONARYWDFLT
  2
AcDbDictionaryWithDefault
  3
ObjectDBX Classes
 90
0
 91
0
280
0
281
0
  0
CLASS
  1
SUN
  2
AcDbSun
  3
SCENEOE
 90
1153
 91
0
280
0
281
0
  0
CLASS
  1
VISUALSTYLE
  2
AcDbVisualStyle
  3
ObjectDBX Classes
 90
4095
 91
0
280
0
281
0
  0
CLASS
  1
MATERIAL
  2
AcDbMaterial
  3
ObjectDBX Classes
 90
1153
 91
0
280
0
281
0
  0
CLASS
  1
SCALE
  2
AcDbScale
  3
ObjectDBX Classes
 90
1153
 91
0
280
0
281
0
  0
CLASS
  1
TABLESTYLE
  2
AcDbTableStyle
  3
ObjectDBX Classes
 90
4095
 91
0
280
0
281
0
  0
CLASS
  1
MLEADERSTYLE
  2
AcDbMLeaderStyle
  3
ACDB_MLEADERSTYLE_CLASS
 90
4095
 91
0
280
0
281
0
  0
CLASS
  1
DICTIONARYVAR
  2
AcDbDictionaryVar
  3
ObjectDBX Classes
 90
0
 91
0
280
0
281
0
  0
CLASS
  1
CELLSTYLEMAP
  2
AcDbCellStyleMap
  3
ObjectDBX Classes
 90
1152
 91
0
280
0
281
0
  0
CLASS
  1
MENTALRAYRENDERSETTINGS
  2
AcDbMentalRayRenderSettings
  3
SCENEOE
 90
1024
 91
0
280
0
281
0
  0
CLASS
  1
ACDBDETAILVIEWSTYLE
  2
AcDbDetailViewStyle
  3
ObjectDBX Classes
 90
1025
 91
0
280
0
281
0
  0
CLASS
  1
ACDBSECTIONVIEWSTYLE
  2
AcDbSectionViewStyle
  3
ObjectDBX Classes
 90
1025
 91
0
280
0
281
0
  0
CLASS
  1
RASTERVARIABLES
  2
AcDbRasterVariables
  3
ISM
 90
0
 91
0
280
0
281
0
  0
CLASS
  1
LAYOUT
  2
AcDbLayout
  3
ObjectDBX Classes
 90
0
 91
0
280
0
281
0
  0
CLASS
  1
ACDBPLACEHOLDER
  2
AcDbPlaceHolder
  3
ObjectDBX Classes
 90
0
 91
0
280
0
281
0
  0
ENDSEC
  0
SECTION
  2
TABLES
  0
TABLE
  2
VPORT
  5
8
330
0
100
AcDbSymbolTable
 70
1
  0
VPORT
  5
C7
330
8
100
AcDbSymbolTableRecord
100
AcDbViewportTableRecord
  2
*Active
 70
0
 10
0.0
 20
0.0
 11
1.0
 21
1.0
 12
87.38318250767848
 22
45.52844950092315
 13
0.0
 23
0.0
 14
0.5
 24
0.5
 15
0.5
 25
0.5
 16
0.0
 26
0.0
 36
1.0
 17
0.0
 27
0.0
 37
0.0
 40
91.0568990018463
 41
1.34
 42
50.0
 43
0.0
 44
0.0
 50
0.0
 51
0.0
 71
0
 72
1000
 73
1
 74
3
 75
0
 76
0
 77
0
 78
0
281
0
 65
1
110
0.0
120
0.0
130
0.0
111
1.0
121
0.0
131
0.0
112
0.0
122
1.0
132
0.0
 79
0
146
0.0
  0
ENDTAB
  0
TABLE
  2
LTYPE
  5
2
330
0
100
AcDbSymbolTable
 70
3
  0
LTYPE
  5
24
330
2
100
AcDbSymbolTableRecord
100
AcDbLinetypeTableRecord
  2
ByBlock
 70
0
  3

 72
65
 73
0
 40
0.0
  0
LTYPE
  5
25
330
2
100
AcDbSymbolTableRecord
100
AcDbLinetypeTableRecord
  2
ByLayer
 70
0
  3

 72
65
 73
0
 40
0.0
  0
LTYPE
  5
26
330
2
100
AcDbSymbolTableRecord
100
AcDbLinetypeTableRecord
  2
Continuous
 70
0
  3

 72
65
 73
0
 40
0.0
  0
ENDTAB
  0
TABLE
  2
LAYER
  5
1
330
0
100
AcDbSymbolTable
 70
3
  0
LAYER
  5
27
330
1
100
AcDbSymbolTableRecord
100
AcDbLayerTableRecord
  2
0
 70
0
 62
7
  6
Continuous
370
-3
390
13
347
21
  0
LAYER
  5
28
330
1
100
AcDbSymbolTableRecord
100
AcDbLayerTableRecord
  2
Defpoints
 70
0
 62
7
  6
Continuous
290
0
370
-3
390
13
347
21
  0
LAYER
  5
2F
330
1
100
AcDbSymbolTableRecord
100
AcDbLayerTableRecord
  2
POCKET
 70
0
 62
7
  6
Continuous
370
-3
390
13
347
21
  0
ENDTAB
  0
TABLE
  2
STYLE
  5
5
330
0
100
AcDbSymbolTable
 70
1
  0
STYLE
  5
29
330
5
100
AcDbSymbolTableRecord
100
AcDbTextStyleTableRecord
  2
Standard
 70
0
 40
0.0
 41
1.0
 50
0.0
 71
0
 42
2.5
  3
txt
  4

  0
ENDTAB
  0
TABLE
  2
VIEW
  5
7
330
0
100
AcDbSymbolTable
 70
0
  0
ENDTAB
  0
TABLE
  2
UCS
  5
6
330
0
100
AcDbSymbolTable
 70
0
  0
ENDTAB
  0
TABLE
  2
APPID
  5
3
330
0
100
AcDbSymbolTable
 70
3
  0
APPID
  5
2A
330
3
100
AcDbSymbolTableRecord
100
AcDbRegAppTableRecord
  2
ACAD
 70
0
  0
APPID
  5
C8
330
3
100
AcDbSymbolTableRecord
100
AcDbRegAppTableRecord
  2
HATCHBACKGROUNDCOLOR
 70
0
  0
APPID
  5
C9
330
3
100
AcDbSymbolTableRecord
100
AcDbRegAppTableRecord
  2
EZDXF
 70
0
  0
ENDTAB
  0
TABLE
  2
DIMSTYLE
  5
4
330
0
100
AcDbSymbolTable
 70
1
100
AcDbDimStyleTable
  0
DIMSTYLE
105
2B
330
4
100
AcDbSymbolTableRecord
100
AcDbDimStyleTableRecord
  2
Standard
 70
0
 40
1.0
 41
2.5
 42
0.625
 43
3.75
 44
1.25
 45
0.0
 46
0.0
 47
0.0
 48
0.0
 49
2.5
140
2.5
141
2.5
142
0.0
143
0.03937007874
144
1.0
145
0.0
146
1.0
147
0.625
148
0.0
 69
0
 70
0
 71
0
 72
0
 73
0
 74
0
 75
0
 76
0
 77
1
 78
8
 79
3
170
0
171
3
172
1
173
0
174
0
175
0
176
0
177
0
178
0
179
2
271
2
272
2
273
2
274
3
275
0
276
0
277
2
278
44
279
0
280
0
281
0
282
0
283
0
284
8
285
0
286
0
288
0
289
3
290
0
371
-2
372
-2
  0
ENDTAB
  0
TABLE
  2
BLOCK_RECORD
  5
9
330
0
100
AcDbSymbolTable
 70
2
  0
BLOCK_RECORD
  5
17
330
9
100
AcDbSymbolTableRecord
100
AcDbBlockTableRecord
  2
*Model_Space
340
1A
 70
0
280
1
281
0
  0
BLOCK_RECORD
  5
1B
330
9
100
AcDbSymbolTableRecord
100
AcDbBlockTableRecord
  2
*Paper_Space
340
1E
 70
0
280
1
281
0
  0
ENDTAB
  0
ENDSEC
  0
SECTION
  2
BLOCKS
  0
BLOCK
  5
18
330
17
100
AcDbEntity
  8
0
100
AcDbBlockBegin
  2
*Model_Space
 70
0
 10
0.0
 20
0.0
 30
0.0
  3
*Model_Space
  1

  0
ENDBLK
  5
19
330
17
100
AcDbEntity
  8
0
100
AcDbBlockEnd
  0
BLOCK
  5
1C
330
1B
100
AcDbEntity
  8
0
100
AcDbBlockBegin
  2
*Paper_Space
 70
0
 10
0.0
 20
0.0
 30
0.0
  3
*Paper_Space
  1

  0
ENDBLK
  5
1D
330
1B
100
AcDbEntity
  8
0
100
AcDbBlockEnd
  0
ENDSEC
  0
SECTION
  2
ENTITIES
  0
LINE
  5
30
330
17
100
AcDbEntity
  8
POCKET
100
AcDbLine
 10
0.03270218408456815
 20
70.55260444700833
 30
0.0
 11
-1.2352712461106697e-18
 21
67.49991209972602
 31
0.0
  0
LINE
  5
31
330
17
100
AcDbEntity
  8
POCKET
100
AcDbLine
 10
0.0
 20
67.49991209972602
 30
0.0
 11
0.024910778760094288
 21
67.26713506680444
 31
0.0
  0
LINE
  5
32
330
17
100
AcDbEntity
  8
POCKET
100
AcDbLine
 10
0.024910778760094288
 20
67.26713506680444
 30
0.0
 11
0.10325885449986671
 21
67.04652846449598
 31
0.0
  0
LINE
  5
33
330
17
100
AcDbEntity
  8
POCKET
100
AcDbLine
 10
0.10325885449986671
 20
67.04652846449598
 30
0.0
 11
1.6257660683632391
 21
63.9625102734878
 31
0.0
  0
LINE
  5
34
330
17
100
AcDbEntity
  8
POCKET
100
AcDbLine
 10
1.6257660683632391
 20
63.9625102734878
 30
0.0
 11
1.7427518791622534
 21
62.303093187085935
 31
0.0
  0
LINE
  5
35
330
17
100
AcDbEntity
  8
POCKET
100
AcDbLine
 10
1.7427518791622534
 20
62.303093187085935
 30
0.0
 11
1.7654836304276225
 21
62.15030331358867
 31
0.0
  0
LINE
  5
36
330
17
100
AcDbEntity
  8
POCKET
100
AcDbLine
 10
1.7654836304276225
 20
62.15030331358867
 30
0.0
 11
1.8114753709633908
 21
62.002837257286245
 31
0.0
  0
LINE
  5
37
330
17
100
AcDbEntity
  8
POCKET
100
AcDbLine
 10
1.8114753709633908
 20
62.002837257286245
 30
0.0
 11
3.2491879442596545
 21
58.399431243639285
 31
0.0
  0
LINE
  5
38
330
17
100
AcDbEntity
  8
POCKET
100
AcDbLine
 10
3.2491879442596545
 20
58.399431243639285
 30
0.0
 11
3.1978030053870046
 21
55.32500089378363
 31
0.0
  0
LINE
  5
39
330
17
100
AcDbEntity
  8
POCKET
100
AcDbLine
 10
3.1978030053870046
 20
55.32500089378363
 30
0.0
 11
3.2179674515250216
 21
55.1078003714829
 31
0.0
  0
LINE
  5
3A
330
17
100
AcDbEntity
  8
POCKET
100
AcDbLine
 10
3.2179674515250216
 20
55.1078003714829
 30
0.0
 11
3.284748446595555
 21
54.90013966149386
 31
0.0
  0
LINE
  5
3B
330
17
100
AcDbEntity
  8
POCKET
100
AcDbLine
 10
3.284748446595555
 20
54.90013966149386
 30
0.0
 11
3.733351232536756
 21
53.89674322950037
 31
0.0
  0
LINE
  5
3C
330
17
100
AcDbEntity
  8
POCKET
100
AcDbLine
 10
3.733351232536756
 20
53.89674322950037
 30
0.0
 11
3.5136841219136516
 21
53.00149593959944
 31
0.0
  0
LINE
  5
3D
330
17
100
AcDbEntity
  8
POCKET
100
AcDbLine
 10
3.5136841219136516
 20
53.00149593959944
 30
0.0
 11
3.4854061697046386
 21
52.79577301253494
 31
0.0
  0
LINE
  5
3E
330
17
100
AcDbEntity
  8
POCKET
100
AcDbLine
 10
3.4854061697046386
 20
52.79577301253494
 30
0.0
 11
3.5002268928983518
 21
52.58864524649393
 31
0.0
  0
LINE
  5
3F
330
17
100
AcDbEntity
  8
POCKET
100
AcDbLine
 10
3.5002268928983518
 20
52.58864524649393
 30
0.0
 11
4.019198959572142
 21
49.661074923852276
 31
0.0
  0
LINE
  5
40
330
17
100
AcDbEntity
  8
POCKET
100
AcDbLine
 10
4.019198959572142
 20
49.661074923852276
 30
0.0
 11
4.047903372629465
 21
49.54207516206584
 31
0.0
  0
LINE
  5
41
330
17
100
AcDbEntity
  8
POCKET
100
AcDbLine
 10
4.047903372629465
 20
49.54207516206584
 30
0.0
 11
4.090932498773084
 21
49.42747419811915
 31
0.0
  0
LINE
  5
42
330
17
100
AcDbEntity
  8
POCKET
100
AcDbLine
 10
4.090932498773084
 20
49.42747419811915
 30
0.0
 11
5.647306992859333
 21
45.94630853630688
 31
0.0
  0
LINE
  5
43
330
17
100
AcDbEntity
  8
POCKET
100
AcDbLine
 10
5.647306992859333
 20
45.94630853630688
 30
0.0
 11
6.019751059807738
 21
42.7788393507519
 31
0.0
  0
LINE
  5
44
330
17
100
AcDbEntity
  8
POCKET
100
AcDbLine
 10
6.019751059807738
 20
42.7788393507519
 30
0.0
 11
6.079656879480353
 21
42.53639667451364
 31
0.0
  0
LINE
  5
45
330
17
100
AcDbEntity
  8
POCKET
100
AcDbLine
 10
6.079656879480353
 20
42.53639667451364
 30
0.0
 11
6.197766976833091
 21
42.316357670254064
 31
0.0
  0
LINE
  5
46
330
17
100
AcDbEntity
  8
POCKET
100
AcDbLine
 10
6.197766976833091
 20
42.316357670254064
 30
0.0
 11
7.156878012653541
 21
40.966687546866005
 31
0.0
  0
LINE
  5
47
330
17
100
AcDbEntity
  8
POCKET
100
AcDbLine
 10
7.156878012653541
 20
40.966687546866005
 30
0.0
 11
8.122546557394495
 21
37.282605411445694
 31
0.0
  0
LINE
  5
48
330
17
100
AcDbEntity
  8
POCKET
100
AcDbLine
 10
8.122546557394495
 20
37.282605411445694
 30
0.0
 11
7.881580124211805
 21
36.30055331610936
 31
0.0
  0
LINE
  5
49
330
17
100
AcDbEntity
  8
POCKET
100
AcDbLine
 10
7.881580124211805
 20
36.30055331610936
 30
0.0
 11
7.877539840179379
 21
35.84106523780362
 31
0.0
  0
LINE
  5
4A
330
17
100
AcDbEntity
  8
POCKET
100
AcDbLine
 10
7.877539840179379
 20
35.84106523780362
 30
0.0
 11
8.079415415869887
 21
35.42827973667768
 31
0.0
  0
LINE
  5
4B
330
17
100
AcDbEntity
  8
POCKET
100
AcDbLine
 10
8.079415415869887
 20
35.42827973667768
 30
0.0
 11
8.539533996406082
 21
34.86700039193534
 31
0.0
  0
LINE
  5
4C
330
17
100
AcDbEntity
  8
POCKET
100
AcDbLine
 10
8.539533996406082
 20
34.86700039193534
 30
0.0
 11
9.873949928665695
 21
29.59762929483997
 31
0.0
  0
LINE
  5
4D
330
17
100
AcDbEntity
  8
POCKET
100
AcDbLine
 10
9.873949928665695
 20
29.59762929483997
 30
0.0
 11
9.923596700779678
 21
29.45062037655039
 31
0.0
  0
LINE
  5
4E
330
17
100
AcDbEntity
  8
POCKET
100
AcDbLine
 10
9.923596700779678
 20
29.45062037655039
 30
0.0
 11
9.99538781645709
 21
29.313061444641907
 31
0.0
  0
LINE
  5
4F
330
17
100
AcDbEntity
  8
POCKET
100
AcDbLine
 10
9.99538781645709
 20
29.313061444641907
 30
0.0
 11
11.631395818537428
 21
26.69585777034184
 31
0.0
  0
LINE
  5
50
330
17
100
AcDbEntity
  8
POCKET
100
AcDbLine
 10
11.631395818537428
 20
26.69585777034184
 30
0.0
 11
12.4722052432207
 21
23.905621674742715
 31
0.0
  0
LINE
  5
51
330
17
100
AcDbEntity
  8
POCKET
100
AcDbLine
 10
12.4722052432207
 20
23.905621674742715
 30
0.0
 11
12.499329064108814
 21
23.8274701781669
 31
0.0
  0
LINE
  5
52
330
17
100
AcDbEntity
  8
POCKET
100
AcDbLine
 10
12.499329064108814
 20
23.8274701781669
 30
0.0
 11
12.532819593935272
 21
23.751827977719312
 31
0.0
  0
LINE
  5
53
330
17
100
AcDbEntity
  8
POCKET
100
AcDbLine
 10
12.532819593935272
 20
23.751827977719312
 30
0.0
 11
18.69027127104604
 21
11.266791715197721
 31
0.0
  0
LINE
  5
54
330
17
100
AcDbEntity
  8
POCKET
100
AcDbLine
 10
18.69027127104604
 20
11.266791715197721
 30
0.0
 11
21.374214101672784
 21
4.520169301649329
 31
0.0
  0
LINE
  5
55
330
17
100
AcDbEntity
  8
POCKET
100
AcDbLine
 10
21.374214101672784
 20
4.520169301649329
 30
0.0
 11
21.416491372971358
 21
4.427844517732848
 31
0.0
  0
LINE
  5
56
330
17
100
AcDbEntity
  8
POCKET
100
AcDbLine
 10
21.416491372971358
 20
4.427844517732848
 30
0.0
 11
21.467913637866978
 21
4.340283201692702
 31
0.0
  0
LINE
  5
57
330
17
100
AcDbEntity
  8
POCKET
100
AcDbLine
 10
21.467913637866978
 20
4.340283201692702
 30
0.0
 11
22.795913112567142
 21
2.3212692356201376
 31
0.0
  0
LINE
  5
58
330
17
100
AcDbEntity
  8
POCKET
100
AcDbLine
 10
22.795913112567142
 20
2.3212692356201376
 30
0.0
 11
22.956174614357444
 21
2.133175992671328
 31
0.0
  0
LINE
  5
59
330
17
100
AcDbEntity
  8
POCKET
100
AcDbLine
 10
22.956174614357444
 20
2.133175992671328
 30
0.0
 11
23.157666488705136
 21
1.990124108479137
 31
0.0
  0
LINE
  5
5A
330
17
100
AcDbEntity
  8
POCKET
100
AcDbLine
 10
23.157666488705136
 20
1.990124108479137
 30
0.0
 11
25.717691043556083
 21
0.6130713576521013
 31
0.0
  0
LINE
  5
5B
330
17
100
AcDbEntity
  8
POCKET
100
AcDbLine
 10
25.717691043556083
 20
0.6130713576521013
 30
0.0
 11
25.845177990891482
 21
0.5555982448107128
 31
0.0
  0
LINE
  5
5C
330
17
100
AcDbEntity
  8
POCKET
100
AcDbLine
 10
25.845177990891482
 20
0.5555982448107128
 30
0.0
 11
25.979435910365048
 21
0.5164716362276986
 31
0.0
  0
LINE
  5
5D
330
17
100
AcDbEntity
  8
POCKET
100
AcDbLine
 10
25.979435910365048
 20
0.5164716362276986
 30
0.0
 11
28.2671778938301
 21
0.020249289802955574
 31
0.0
  0
LINE
  5
5E
330
17
100
AcDbEntity
  8
POCKET
100
AcDbLine
 10
28.2671778938301
 20
0.020249289802955595
 30
0.0
 11
28.40760752974902
 21
8.69330194562814e-05
 31
0.0
  0
LINE
  5
5F
330
17
100
AcDbEntity
  8
POCKET
100
AcDbLine
 10
28.40760752974902
 20
8.693301945628118e-05
 30
0.0
 11
28.54947717314758
 21
1.8179633976624722e-21
 31
0.0
  0
LINE
  5
60
330
17
100
AcDbEntity
  8
POCKET
100
AcDbLine
 10
28.54947717314758
 20
0.0
 30
0.0
 11
32.26048182771774
 21
0.2616189094058402
 31
0.0
  0
LINE
  5
61
330
17
100
AcDbEntity
  8
POCKET
100
AcDbLine
 10
32.26048182771774
 20
0.2616189094058402
 30
0.0
 11
32.31481401907568
 21
0.26694309304072306
 31
0.0
  0
LINE
  5
62
330
17
100
AcDbEntity
  8
POCKET
100
AcDbLine
 10
32.31481401907568
 20
0.26694309304072306
 30
0.0
 11
32.3687746945511
 21
0.27522436416119034
 31
0.0
  0
LINE
  5
63
330
17
100
AcDbEntity
  8
POCKET
100
AcDbLine
 10
32.3687746945511
 20
0.27522436416119034
 30
0.0
 11
38.77558959059284
 21
1.4382905221494426
 31
0.0
  0
LINE
  5
64
330
17
100
AcDbEntity
  8
POCKET
100
AcDbLine
 10
38.77558959059284
 20
1.4382905221494429
 30
0.0
 11
38.89249653387412
 21
1.4668737997899988
 31
0.0
  0
LINE
  5
65
330
17
100
AcDbEntity
  8
POCKET
100
AcDbLine
 10
38.89249653387412
 20
1.4668737997899988
 30
0.0
 11
39.005123046021964
 21
1.5092943833487173
 31
0.0
  0
LINE
  5
66
330
17
100
AcDbEntity
  8
POCKET
100
AcDbLine
 10
39.005123046021964
 20
1.5092943833487173
 30
0.0
 11
41.63837227517325
 21
2.686578757310344
 31
0.0
  0
LINE
  5
67
330
17
100
AcDbEntity
  8
POCKET
100
AcDbLine
 10
41.63837227517325
 20
2.686578757310344
 30
0.0
 11
41.99045902665281
 21
2.9498474593199093
 31
0.0
  0
LINE
  5
68
330
17
100
AcDbEntity
  8
POCKET
100
AcDbLine
 10
41.99045902665281
 20
2.9498474593199093
 30
0.0
 11
42.195610662766086
 21
3.338676851502748
 31
0.0
  0
LINE
  5
69
330
17
100
AcDbEntity
  8
POCKET
100
AcDbLine
 10
42.195610662766086
 20
3.338676851502748
 30
0.0
 11
42.55035989250788
 21
4.651746912085038
 31
0.0
  0
LINE
  5
6A
330
17
100
AcDbEntity
  8
POCKET
100
AcDbLine
 10
42.55035989250788
 20
4.651746912085038
 30
0.0
 11
42.5815624655616
 21
4.830061520538654
 31
0.0
  0
LINE
  5
6B
330
17
100
AcDbEntity
  8
POCKET
100
AcDbLine
 10
42.5815624655616
 20
4.830061520538654
 30
0.0
 11
42.580107054255606
 21
5.01107970175554
 31
0.0
  0
LINE
  5
6C
330
17
100
AcDbEntity
  8
POCKET
100
AcDbLine
 10
42.580107054255606
 20
5.01107970175554
 30
0.0
 11
42.355456081072205
 21
7.28033771710941
 31
0.0
  0
LINE
  5
6D
330
17
100
AcDbEntity
  8
POCKET
100
AcDbLine
 10
42.355456081072205
 20
7.28033771710941
 30
0.0
 11
42.31214553779484
 21
7.488463736050429
 31
0.0
  0
LINE
  5
6E
330
17
100
AcDbEntity
  8
POCKET
100
AcDbLine
 10
42.31214553779484
 20
7.488463736050429
 30
0.0
 11
42.22581989120697
 21
7.682731915792774
 31
0.0
  0
LINE
  5
6F
330
17
100
AcDbEntity
  8
POCKET
100
AcDbLine
 10
42.22581989120697
 20
7.682731915792774
 30
0.0
 11
38.981200762213604
 21
13.288957748712887
 31
0.0
  0
LINE
  5
70
330
17
100
AcDbEntity
  8
POCKET
100
AcDbLine
 10
38.981200762213604
 20
13.288957748712887
 30
0.0
 11
38.37867903308649
 21
17.16599378647671
 31
0.0
  0
LINE
  5
71
330
17
100
AcDbEntity
  8
POCKET
100
AcDbLine
 10
38.37867903308649
 20
17.16599378647671
 30
0.0
 11
38.340632723850035
 21
17.324398192529284
 31
0.0
  0
LINE
  5
72
330
17
100
AcDbEntity
  8
POCKET
100
AcDbLine
 10
38.340632723850035
 20
17.324398192529284
 30
0.0
 11
38.27737146083356
 21
17.47452310753324
 31
0.0
  0
LINE
  5
73
330
17
100
AcDbEntity
  8
POCKET
100
AcDbLine
 10
38.27737146083356
 20
17.47452310753324
 30
0.0
 11
37.75026394230299
 21
18.48612578280908
 31
0.0
  0
LINE
  5
74
330
17
100
AcDbEntity
  8
POCKET
100
AcDbLine
 10
37.75026394230299
 20
18.48612578280908
 30
0.0
 11
37.77201576582656
 21
21.650710046097384
 31
0.0
  0
LINE
  5
75
330
17
100
AcDbEntity
  8
POCKET
100
AcDbLine
 10
37.77201576582656
 20
21.650710046097384
 30
0.0
 11
37.74067795418386
 21
21.90605739797864
 31
0.0
  0
LINE
  5
76
330
17
100
AcDbEntity
  8
POCKET
100
AcDbLine
 10
37.74067795418386
 20
21.90605739797864
 30
0.0
 11
37.64523144940337
 21
22.144959665185354
 31
0.0
  0
LINE
  5
77
330
17
100
AcDbEntity
  8
POCKET
100
AcDbLine
 10
37.64523144940337
 20
22.144959665185354
 30
0.0
 11
37.145064738226814
 21
23.041067320747242
 31
0.0
  0
LINE
  5
78
330
17
100
AcDbEntity
  8
POCKET
100
AcDbLine
 10
37.145064738226814
 20
23.041067320747242
 30
0.0
 11
37.01931596656019
 21
25.030704900944475
 31
0.0
  0
LINE
  5
79
330
17
100
AcDbEntity
  8
POCKET
100
AcDbLine
 10
37.01931596656019
 20
25.030704900944475
 30
0.0
 11
37.0102537688897
 21
25.11590150055631
 31
0.0
  0
LINE
  5
7A
330
17
100
AcDbEntity
  8
POCKET
100
AcDbLine
 10
37.0102537688897
 20
25.11590150055631
 30
0.0
 11
36.99393212613874
 21
25.200009692725374
 31
0.0
  0
LINE
  5
7B
330
17
100
AcDbEntity
  8
POCKET
100
AcDbLine
 10
36.99393212613874
 20
25.200009692725374
 30
0.0
 11
34.21055479447095
 21
36.849776827019106
 31
0.0
  0
LINE
  5
7C
330
17
100
AcDbEntity
  8
POCKET
100
AcDbLine
 10
34.21055479447095
 20
36.849776827019106
 30
0.0
 11
34.42127480530177
 21
37.352067196647425
 31
0.0
  0
LINE
  5
7D
330
17
100
AcDbEntity
  8
POCKET
100
AcDbLine
 10
34.42127480530177
 20
37.352067196647425
 30
0.0
 11
36.30820321090705
 21
38.40526517905436
 31
0.0
  0
LINE
  5
7E
330
17
100
AcDbEntity
  8
POCKET
100
AcDbLine
 10
36.30820321090705
 20
38.40526517905436
 30
0.0
 11
36.728276304968475
 21
38.85829576996948
 31
0.0
  0
LINE
  5
7F
330
17
100
AcDbEntity
  8
POCKET
100
AcDbLine
 10
36.728276304968475
 20
38.85829576996948
 30
0.0
 11
36.80197768426653
 21
39.471701204693375
 31
0.0
  0
LINE
  5
80
330
17
100
AcDbEntity
  8
POCKET
100
AcDbLine
 10
36.80197768426653
 20
39.471701204693375
 30
0.0
 11
36.39345682051385
 21
41.545869726902396
 31
0.0
  0
LINE
  5
81
330
17
100
AcDbEntity
  8
POCKET
100
AcDbLine
 10
36.39345682051385
 20
41.545869726902396
 30
0.0
 11
36.799499715550496
 21
42.28921754079889
 31
0.0
  0
LINE
  5
82
330
17
100
AcDbEntity
  8
POCKET
100
AcDbLine
 10
36.799499715550496
 20
42.28921754079889
 30
0.0
 11
112.15536730955974
 21
67.24373968693033
 31
0.0
  0
LINE
  5
83
330
17
100
AcDbEntity
  8
POCKET
100
AcDbLine
 10
112.15536730955974
 20
67.24373968693033
 30
0.0
 11
167.21829044665276
 21
84.66211396305428
 31
0.0
  0
LINE
  5
84
330
17
100
AcDbEntity
  8
POCKET
100
AcDbLine
 10
167.21829044665276
 20
84.66211396305428
 30
0.0
 11
167.26898098759872
 21
84.67965812701387
 31
0.0
  0
LINE
  5
85
330
17
100
AcDbEntity
  8
POCKET
100
AcDbLine
 10
167.26898098759872
 20
84.67965812701387
 30
0.0
 11
167.3186578585294
 21
84.69989515063328
 31
0.0
  0
LINE
  5
86
330
17
100
AcDbEntity
  8
POCKET
100
AcDbLine
 10
167.3186578585294
 20
84.69989515063328
 30
0.0
 11
170.97573196552716
 21
86.30535574834066
 31
0.0
  0
LINE
  5
87
330
17
100
AcDbEntity
  8
POCKET
100
AcDbLine
 10
170.97573196552716
 20
86.30535574834066
 30
0.0
 11
173.15816443221485
 21
86.73127892378402
 31
0.0
  0
LINE
  5
88
330
17
100
AcDbEntity
  8
POCKET
100
AcDbLine
 10
173.15816443221485
 20
86.73127892378402
 30
0.0
 11
173.53174197822068
 21
86.88775636175245
 31
0.0
  0
LINE
  5
89
330
17
100
AcDbEntity
  8
POCKET
100
AcDbLine
 10
173.53174197822068
 20
86.88775636175245
 30
0.0
 11
173.81261359192044
 21
87.1795722422158
 31
0.0
  0
LINE
  5
8A
330
17
100
AcDbEntity
  8
POCKET
100
AcDbLine
 10
173.81261359192044
 20
87.1795722422158
 30
0.0
 11
174.61239901589124
 21
88.44856525858894
 31
0.0
  0
LINE
  5
8B
330
17
100
AcDbEntity
  8
POCKET
100
AcDbLine
 10
174.61239901589124
 20
88.44856525858894
 30
0.0
 11
174.76636501535697
 21
88.97296286947638
 31
0.0
  0
LINE
  5
8C
330
17
100
AcDbEntity
  8
POCKET
100
AcDbLine
 10
174.76636501535697
 20
88.97296286947638
 30
0.0
 11
174.62164417809674
 21
89.49998683720331
 31
0.0
  0
LINE
  5
8D
330
17
100
AcDbEntity
  8
POCKET
100
AcDbLine
 10
174.62164417809674
 20
89.49998683720331
 30
0.0
 11
174.15812401575658
 21
90.26493720102057
 31
0.0
  0
LINE
  5
8E
330
17
100
AcDbEntity
  8
POCKET
100
AcDbLine
 10
174.15812401575658
 20
90.26493720102057
 30
0.0
 11
173.9354453662112
 21
90.5212157482342
 31
0.0
  0
LINE
  5
8F
330
17
100
AcDbEntity
  8
POCKET
100
AcDbLine
 10
173.9354453662112
 20
90.5212157482342
 30
0.0
 11
173.639854806498
 21
90.68822082520403
 31
0.0
  0
LINE
  5
90
330
17
100
AcDbEntity
  8
POCKET
100
AcDbLine
 10
173.639854806498
 20
90.68822082520403
 30
0.0
 11
172.7718209401447
 21
90.99889301073677
 31
0.0
  0
LINE
  5
91
330
17
100
AcDbEntity
  8
POCKET
100
AcDbLine
 10
172.7718209401447
 20
90.99889301073677
 30
0.0
 11
172.46580037724786
 21
91.0568990018463
 31
0.0
  0
LINE
  5
92
330
17
100
AcDbEntity
  8
POCKET
100
AcDbLine
 10
172.46580037724786
 20
91.0568990018463
 30
0.0
 11
172.15677718210074
 21
91.01793819100557
 31
0.0
  0
LINE
  5
93
330
17
100
AcDbEntity
  8
POCKET
100
AcDbLine
 10
172.15677718210074
 20
91.01793819100557
 30
0.0
 11
160.59010188428587
 21
87.66950235394383
 31
0.0
  0
LINE
  5
94
330
17
100
AcDbEntity
  8
POCKET
100
AcDbLine
 10
160.59010188428587
 20
87.66950235394383
 30
0.0
 11
160.57338145182734
 21
87.66450342375674
 31
0.0
  0
LINE
  5
95
330
17
100
AcDbEntity
  8
POCKET
100
AcDbLine
 10
160.57338145182734
 20
87.66450342375674
 30
0.0
 11
160.5567508021305
 21
87.65921346579121
 31
0.0
  0
LINE
  5
96
330
17
100
AcDbEntity
  8
POCKET
100
AcDbLine
 10
160.5567508021305
 20
87.65921346579121
 30
0.0
 11
35.189678045639006
 21
46.573829135686445
 31
0.0
  0
LINE
  5
97
330
17
100
AcDbEntity
  8
POCKET
100
AcDbLine
 10
35.189678045639006
 20
46.573829135686445
 30
0.0
 11
34.55290913007908
 21
46.85855176155185
 31
0.0
  0
LINE
  5
98
330
17
100
AcDbEntity
  8
POCKET
100
AcDbLine
 10
34.55290913007908
 20
46.85855176155185
 30
0.0
 11
33.377567749932716
 21
48.949921846061564
 31
0.0
  0
LINE
  5
99
330
17
100
AcDbEntity
  8
POCKET
100
AcDbLine
 10
33.377567749932716
 20
48.949921846061564
 30
0.0
 11
33.01752322634258
 21
49.31914751709731
 31
0.0
  0
LINE
  5
9A
330
17
100
AcDbEntity
  8
POCKET
100
AcDbLine
 10
33.01752322634258
 20
49.31914751709731
 30
0.0
 11
32.52138216453064
 21
49.45987314341735
 31
0.0
  0
LINE
  5
9B
330
17
100
AcDbEntity
  8
POCKET
100
AcDbLine
 10
32.52138216453064
 20
49.45987314341735
 30
0.0
 11
30.351488632209495
 21
49.49367913724967
 31
0.0
  0
LINE
  5
9C
330
17
100
AcDbEntity
  8
POCKET
100
AcDbLine
 10
30.351488632209495
 20
49.49367913724967
 30
0.0
 11
28.076586931581947
 21
52.8739904464715
 31
0.0
  0
LINE
  5
9D
330
17
100
AcDbEntity
  8
POCKET
100
AcDbLine
 10
28.076586931581947
 20
52.8739904464715
 30
0.0
 11
25.479584886675685
 21
59.28525075662593
 31
0.0
  0
LINE
  5
9E
330
17
100
AcDbEntity
  8
POCKET
100
AcDbLine
 10
25.479584886675685
 20
59.28525075662593
 30
0.0
 11
25.431569077525513
 21
59.38694484606975
 31
0.0
  0
LINE
  5
9F
330
17
100
AcDbEntity
  8
POCKET
100
AcDbLine
 10
25.431569077525513
 20
59.38694484606975
 30
0.0
 11
25.37243849899264
 21
59.48260455774882
 31
0.0
  0
LINE
  5
A0
330
17
100
AcDbEntity
  8
POCKET
100
AcDbLine
 10
25.37243849899264
 20
59.48260455774882
 30
0.0
 11
23.07700300978526
 21
62.767523019135325
 31
0.0
  0
LINE
  5
A1
330
17
100
AcDbEntity
  8
POCKET
100
AcDbLine
 10
23.07700300978526
 20
62.767523019135325
 30
0.0
 11
22.11177463567959
 21
65.18671986862847
 31
0.0
  0
LINE
  5
A2
330
17
100
AcDbEntity
  8
POCKET
100
AcDbLine
 10
22.11177463567959
 20
65.18671986862847
 30
0.0
 11
22.017794169390093
 21
65.36666292103703
 31
0.0
  0
LINE
  5
A3
330
17
100
AcDbEntity
  8
POCKET
100
AcDbLine
 10
22.017794169390093
 20
65.36666292103703
 30
0.0
 11
21.889409231803025
 21
65.5239179303527
 31
0.0
  0
LINE
  5
A4
330
17
100
AcDbEntity
  8
POCKET
100
AcDbLine
 10
21.889409231803025
 20
65.5239179303527
 30
0.0
 11
19.8267250173556
 21
67.58269039681547
 31
0.0
  0
LINE
  5
A5
330
17
100
AcDbEntity
  8
POCKET
100
AcDbLine
 10
19.8267250173556
 20
67.58269039681547
 30
0.0
 11
18.7320106954562
 21
71.52875286783771
 31
0.0
  0
LINE
  5
A6
330
17
100
AcDbEntity
  8
POCKET
100
AcDbLine
 10
18.7320106954562
 20
71.52875286783771
 30
0.0
 11
18.387099954146613
 21
76.49616066087312
 31
0.0
  0
LINE
  5
A7
330
17
100
AcDbEntity
  8
POCKET
100
AcDbLine
 10
18.387099954146613
 20
76.49616066087312
 30
0.0
 11
18.350749612847007
 21
76.70257867684118
 31
0.0
  0
LINE
  5
A8
330
17
100
AcDbEntity
  8
POCKET
100
AcDbLine
 10
18.350749612847007
 20
76.70257867684118
 30
0.0
 11
18.272171903466525
 21
76.89688587747283
 31
0.0
  0
LINE
  5
A9
330
17
100
AcDbEntity
  8
POCKET
100
AcDbLine
 10
18.272171903466525
 20
76.89688587747283
 30
0.0
 11
16.756489391805385
 21
79.74341121968298
 31
0.0
  0
LINE
  5
AA
330
17
100
AcDbEntity
  8
POCKET
100
AcDbLine
 10
16.756489391805385
 20
79.74341121968298
 30
0.0
 11
16.606287452563173
 21
79.95421937872466
 31
0.0
  0
LINE
  5
AB
330
17
100
AcDbEntity
  8
POCKET
100
AcDbLine
 10
16.606287452563173
 20
79.95421937872466
 30
0.0
 11
16.407009636146324
 21
80.11941336879329
 31
0.0
  0
LINE
  5
AC
330
17
100
AcDbEntity
  8
POCKET
100
AcDbLine
 10
16.407009636146324
 20
80.11941336879329
 30
0.0
 11
14.799618482073623
 21
81.1324749058229
 31
0.0
  0
LINE
  5
AD
330
17
100
AcDbEntity
  8
POCKET
100
AcDbLine
 10
14.799618482073623
 20
81.1324749058229
 30
0.0
 11
14.43528338639607
 21
81.27212043219254
 31
0.0
  0
LINE
  5
AE
330
17
100
AcDbEntity
  8
POCKET
100
AcDbLine
 10
14.43528338639607
 20
81.27212043219254
 30
0.0
 11
14.045241619178476
 21
81.26171107086726
 31
0.0
  0
LINE
  5
AF
330
17
100
AcDbEntity
  8
POCKET
100
AcDbLine
 10
14.045241619178476
 20
81.26171107086726
 30
0.0
 11
9.73980205851706
 21
80.28521939292992
 31
0.0
  0
LINE
  5
B0
330
17
100
AcDbEntity
  8
POCKET
100
AcDbLine
 10
9.73980205851706
 20
80.28521939292992
 30
0.0
 11
9.396509438183353
 21
80.38056495693681
 31
0.0
  0
LINE
  5
B1
330
17
100
AcDbEntity
  8
POCKET
100
AcDbLine
 10
9.396509438183353
 20
80.38056495693681
 30
0.0
 11
8.089294681336423
 21
82.90247987573127
 31
0.0
  0
LINE
  5
B2
330
17
100
AcDbEntity
  8
POCKET
100
AcDbLine
 10
8.089294681336423
 20
82.90247987573127
 30
0.0
 11
6.093304291451825
 21
89.17819819870049
 31
0.0
  0
LINE
  5
B3
330
17
100
AcDbEntity
  8
POCKET
100
AcDbLine
 10
6.093304291451825
 20
89.17819819870049
 30
0.0
 11
5.962421692396702
 21
89.44448151498993
 31
0.0
  0
LINE
  5
B4
330
17
100
AcDbEntity
  8
POCKET
100
AcDbLine
 10
5.962421692396702
 20
89.44448151498993
 30
0.0
 11
5.759165627372807
 21
89.66063893748691
 31
0.0
  0
LINE
  5
B5
330
17
100
AcDbEntity
  8
POCKET
100
AcDbLine
 10
5.759165627372807
 20
89.66063893748691
 30
0.0
 11
4.258412529829528
 21
90.84289954336629
 31
0.0
  0
LINE
  5
B6
330
17
100
AcDbEntity
  8
POCKET
100
AcDbLine
 10
4.258412529829528
 20
90.84289954336629
 30
0.0
 11
3.7901720791775806
 21
91.0459668352244
 31
0.0
  0
LINE
  5
B7
330
17
100
AcDbEntity
  8
POCKET
100
AcDbLine
 10
3.7901720791775806
 20
91.0459668352244
 30
0.0
 11
3.2827069401655464
 21
90.99151890287779
 31
0.0
  0
LINE
  5
B8
330
17
100
AcDbEntity
  8
POCKET
100
AcDbLine
 10
3.2827069401655464
 20
90.99151890287779
 30
0.0
 11
2.3485575074985463
 21
90.63463679706707
 31
0.0
  0
LINE
  5
B9
330
17
100
AcDbEntity
  8
POCKET
100
AcDbLine
 10
2.3485575074985463
 20
90.63463679706707
 30
0.0
 11
1.9908669153788288
 21
90.40004855498486
 31
0.0
  0
LINE
  5
BA
330
17
100
AcDbEntity
  8
POCKET
100
AcDbLine
 10
1.9908669153788288
 20
90.40004855498486
 30
0.0
 11
1.7639246931586259
 21
90.03745866159574
 31
0.0
  0
LINE
  5
BB
330
17
100
AcDbEntity
  8
POCKET
100
AcDbLine
 10
1.7639246931586259
 20
90.03745866159574
 30
0.0
 11
1.4532525076259013
 21
89.16942479524238
 31
0.0
  0
LINE
  5
BC
330
17
100
AcDbEntity
  8
POCKET
100
AcDbLine
 10
1.4532525076259013
 20
89.16942479524238
 30
0.0
 11
1.3949088742228621
 21
88.84927232337861
 31
0.0
  0
LINE
  5
BD
330
17
100
AcDbEntity
  8
POCKET
100
AcDbLine
 10
1.3949088742228621
 20
88.84927232337861
 30
0.0
 11
1.4424518462161353
 21
88.52733871125776
 31
0.0
  0
LINE
  5
BE
330
17
100
AcDbEntity
  8
POCKET
100
AcDbLine
 10
1.4424518462161353
 20
88.52733871125776
 30
0.0
 11
4.545190961234972
 21
78.84315776465158
 31
0.0
  0
LINE
  5
BF
330
17
100
AcDbEntity
  8
POCKET
100
AcDbLine
 10
4.545190961234972
 20
78.84315776465158
 30
0.0
 11
4.390853192165926
 21
78.53374840992122
 31
0.0
  0
LINE
  5
C0
330
17
100
AcDbEntity
  8
POCKET
100
AcDbLine
 10
4.390853192165926
 20
78.53374840992122
 30
0.0
 11
2.4715474296936715
 21
77.18188942188097
 31
0.0
  0
LINE
  5
C1
330
17
100
AcDbEntity
  8
POCKET
100
AcDbLine
 10
2.4715474296936715
 20
77.18188942188097
 30
0.0
 11
2.1140078591336313
 21
76.72320716316194
 31
0.0
  0
LINE
  5
C2
330
17
100
AcDbEntity
  8
POCKET
100
AcDbLine
 10
2.1140078591336313
 20
76.72320716316194
 30
0.0
 11
2.0721615140735685
 21
76.14314437140146
 31
0.0
  0
LINE
  5
C3
330
17
100
AcDbEntity
  8
POCKET
100
AcDbLine
 10
2.0721615140735685
 20
76.14314437140146
 30
0.0
 11
2.389933977193258
 21
74.74205702481571
 31
0.0
  0
LINE
  5
C4
330
17
100
AcDbEntity
  8
POCKET
100
AcDbLine
 10
2.389933977193258
 20
74.74205702481571
 30
0.0
 11
0.17549898131610264
 21
71.05696630005806
 31
0.0
  0
LINE
  5
C5
330
17
100
AcDbEntity
  8
POCKET
100
AcDbLine
 10
0.17549898131610275
 20
71.05696630005806
 30
0.0
 11
0.07046520005564083
 21
70.8143083477357
 31
0.0
  0
LINE
  5
C6
330
17
100
AcDbEntity
  8
POCKET
100
AcDbLine
 10
0.07046520005564083
 20
70.8143083477357
 30
0.0
 11
0.03270218408456815
 21
70.55260444700833
 31
0.0
  0
ENDSEC
  0
SECTION
  2
OBJECTS
  0
DICTIONARY
  5
A
330
0
100
AcDbDictionary
281
1
  3
ACAD_COLOR
350
B
  3
ACAD_GROUP
350
C
  3
ACAD_LAYOUT
350
D
  3
ACAD_MATERIAL
350
E
  3
ACAD_MLEADERSTYLE
350
F
  3
ACAD_MLINESTYLE
350
10
  3
ACAD_PLOTSETTINGS
350
11
  3
ACAD_PLOTSTYLENAME
350
12
  3
ACAD_SCALELIST
350
14
  3
ACAD_TABLESTYLE
350
15
  3
ACAD_VISUALSTYLE
350
16
  3
EZDXF_META
350
2D
  0
DICTIONARY
  5
B
330
A
100
AcDbDictionary
281
1
  0
DICTIONARY
  5
C
330
A
100
AcDbDictionary
281
1
  0
DICTIONARY
  5
D
330
A
100
AcDbDictionary
281
1
  3
Model
350
1A
  3
Layout1
350
1E
  0
DICTIONARY
  5
E
330
A
100
AcDbDictionary
281
1
  3
ByBlock
350
1F
  3
ByLayer
350
20
  3
Global
350
21
  0
DICTIONARY
  5
F
330
A
100
AcDbDictionary
281
1
  3
Standard
350
2C
  0
DICTIONARY
  5
10
330
A
100
AcDbDictionary
281
1
  3
Standard
350
22
  0
DICTIONARY
  5
11
330
A
100
AcDbDictionary
281
1
  0
ACDBDICTIONARYWDFLT
  5
12
330
A
100
AcDbDictionary
281
1
  3
Normal
350
13
100
AcDbDictionaryWithDefault
340
13
  0
ACDBPLACEHOLDER
  5
13
330
12
  0
DICTIONARY
  5
14
330
A
100
AcDbDictionary
281
1
  0
DICTIONARY
  5
15
330
A
100
AcDbDictionary
281
1
  0
DICTIONARY
  5
16
330
A
100
AcDbDictionary
281
1
  0
LAYOUT
  5
1A
330
D
100
AcDbPlotSettings
  1

  4
A3
  6

 40
7.5
 41
20.0
 42
7.5
 43
20.0
 44
420.0
 45
297.0
 46
0.0
 47
0.0
 48
0.0
 49
0.0
140
0.0
141
0.0
142
1.0
143
1.0
 70
1024
 72
1
 73
0
 74
5
  7

 75
16
 76
0
 77
2
 78
300
147
1.0
148
0.0
149
0.0
100
AcDbLayout
  1
Model
 70
1
 71
0
 10
0.0
 20
0.0
 11
420.0
 21
297.0
 12
0.0
 22
0.0
 32
0.0
 14
1e+20
 24
1e+20
 34
1e+20
 15
-1e+20
 25
-1e+20
 35
-1e+20
146
0.0
 13
0.0
 23
0.0
 33
0.0
 16
1.0
 26
0.0
 36
0.0
 17
0.0
 27
1.0
 37
0.0
 76
1
330
17
  0
LAYOUT
  5
1E
330
D
100
AcDbPlotSettings
  1

  4
A3
  6

 40
7.5
 41
20.0
 42
7.5
 43
20.0
 44
420.0
 45
297.0
 46
0.0
 47
0.0
 48
0.0
 49
0.0
140
0.0
141
0.0
142
1.0
143
1.0
 70
0
 72
1
 73
0
 74
5
  7

 75
16
 76
0
 77
2
 78
300
147
1.0
148
0.0
149
0.0
100
AcDbLayout
  1
Layout1
 70
1
 71
1
 10
0.0
 20
0.0
 11
420.0
 21
297.0
 12
0.0
 22
0.0
 32
0.0
 14
1e+20
 24
1e+20
 34
1e+20
 15
-1e+20
 25
-1e+20
 35
-1e+20
146
0.0
 13
0.0
 23
0.0
 33
0.0
 16
1.0
 26
0.0
 36
0.0
 17
0.0
 27
1.0
 37
0.0
 76
1
330
1B
  0
MATERIAL
  5
1F
102
{ACAD_REACTORS
330
E
102
}
330
E
100
AcDbMaterial
  1
ByBlock
  2

 70
0
 40
1.0
 71
1
 41
1.0
 91
-1023410177
 42
1.0
 72
1
  3

 73
1
 74
1
 75
1
 44
0.5
 73
0
 45
1.0
 46
1.0
 77
1
  4

 78
1
 79
1
170
1
 48
1.0
171
1
  6

172
1
173
1
174
1
140
1.0
141
1.0
175
1
  7

176
1
177
1
178
1
143
1.0
179
1
  8

270
1
271
1
272
1
145
1.0
146
1.0
273
1
  9

274
1
275
1
276
1
 42
1.0
 72
1
  3

 73
1
 74
1
 75
1
 94
63
  0
MATERIAL
  5
20
102
{ACAD_REACTORS
330
E
102
}
330
E
100
AcDbMaterial
  1
ByLayer
  2

 70
0
 40
1.0
 71
1
 41
1.0
 91
-1023410177
 42
1.0
 72
1
  3

 73
1
 74
1
 75
1
 44
0.5
 73
0
 45
1.0
 46
1.0
 77
1
  4

 78
1
 79
1
170
1
 48
1.0
171
1
  6

172
1
173
1
174
1
140
1.0
141
1.0
175
1
  7

176
1
177
1
178
1
143
1.0
179
1
  8

270
1
271
1
272
1
145
1.0
146
1.0
273
1
  9

274
1
275
1
276
1
 42
1.0
 72
1
  3

 73
1
 74
1
 75
1
 94
63
  0
MATERIAL
  5
21
102
{ACAD_REACTORS
330
E
102
}
330
E
100
AcDbMaterial
  1
Global
  2

 70
0
 40
1.0
 71
1
 41
1.0
 91
-1023410177
 42
1.0
 72
1
  3

 73
1
 74
1
 75
1
 44
0.5
 73
0
 45
1.0
 46
1.0
 77
1
  4

 78
1
 79
1
170
1
 48
1.0
171
1
  6

172
1
173
1
174
1
140
1.0
141
1.0
175
1
  7

176
1
177
1
178
1
143
1.0
179
1
  8

270
1
271
1
272
1
145
1.0
146
1.0
273
1
  9

274
1
275
1
276
1
 42
1.0
 72
1
  3

 73
1
 74
1
 75
1
 94
63
  0
MLINESTYLE
  5
22
102
{ACAD_REACTORS
330
10
102
}
330
10
100
AcDbMlineStyle
  2
Standard
 70
0
  3

 62
256
 51
90.0
 52
90.0
 71
2
 49
0.5
 62
256
  6
BYLAYER
 49
-0.5
 62
256
  6
BYLAYER
  0
MLEADERSTYLE
  5
2C
102
{ACAD_REACTORS
330
F
102
}
330
F
100
AcDbMLeaderStyle
179
2
170
2
171
1
172
0
 90
2
 40
0.0
 41
0.0
173
1
 91
-1056964608
 92
-2
290
1
 42
2.0
291
1
 43
8.0
  3
Standard
 44
4.0
300

342
29
174
1
175
1
176
0
178
1
 93
-1056964608
 45
4.0
292
0
297
0
 46
4.0
 94
-1056964608
 47
1.0
 49
1.0
140
1.0
294
1
141
0.0
177
0
142
1.0
295
0
296
0
143
3.75
271
0
272
9
273
9
  0
DICTIONARY
  5
2D
330
A
100
AcDbDictionary
280
1
281
1
  3
CREATED_BY_EZDXF
350
2E
  3
WRITTEN_BY_EZDXF
350
CA
  0
DICTIONARYVAR
  5
2E
330
2D
100
DictionaryVariables
280
0
  1
1.4.4 @ 2026-09-21T21:48:20.715990+00:00
  0
DICTIONARYVAR
  5
CA
330
2D
100
DictionaryVariables
280
0
  1
1.4.4 @ 2026-09-21T21:48:20.722133+00:00
  0
ENDSEC
  0
EOF
